<?xml version="1.0" encoding="UTF-8"?><svg id="Layer_108" xmlns="http://www.w3.org/2000/svg" width="1600" height="700" viewBox="0 0 1600 700"><defs><style>.cls-1{fill:#fff;}.cls-2{fill:#fdec4b;}.cls-3{fill:#a6a68f;}.cls-4{fill:#b40a00;}.cls-5{fill:#d4af37;}.cls-6{fill:#221f20;}.cls-7{fill:#42502f;}.cls-8{fill:#428c2f;}.cls-9{fill:#42822f;}.cls-10{fill:#42782f;}.cls-11{fill:#426e2f;}.cls-12{fill:#42642f;}.cls-13{fill:#425a2f;}.cls-14{fill:#4b3024;}</style></defs><path d="m386.07,681.16c-88.46,0-171.62-34.45-234.17-96.99-62.55-62.55-96.99-145.71-96.99-234.17s34.45-171.62,96.99-234.17c62.55-62.55,145.71-96.99,234.17-96.99s171.62,34.45,234.17,96.99c62.55,62.55,96.99,145.71,96.99,234.17s-34.45,171.62-96.99,234.17c-62.55,62.55-145.71,96.99-234.17,96.99Zm0-649.77c-85.1,0-165.11,33.14-225.29,93.32-60.18,60.18-93.32,140.19-93.32,225.29s33.14,165.11,93.32,225.29c60.18,60.18,140.19,93.32,225.29,93.32s165.11-33.14,225.29-93.32c60.18-60.18,93.32-140.19,93.32-225.29s-33.14-165.11-93.32-225.29c-60.18-60.18-140.19-93.32-225.29-93.32Z"/><rect class="cls-14" x="361.36" y="573.68" width="65.5" height="48.79" rx="3.42" ry="3.42"/><path class="cls-7" d="m262.4,478.27c-11.07,8.45-26.28,21.11-42.5,38.37-17.69,18.82-47.77,50.83-39.67,64.93,3.08,5.35,10.7,6.58,29.63,7.03,41.18.99,72.91-3.18,78.77-3.95,82.63-10.78,107.94-8.39,116.64-7.39,3.19.37,10.58,1.31,28.56,3.41,11.92,1.39,27.79,3.16,51.26,5.59,5.48.57,20.37,2.06,39.87,1.75,2.73-.04,17.25-.32,36.5-3.14,19.13-2.8,28.73-4.3,31-9.03,4.29-8.94-9.43-23.81-22.78-38.01-14.75-15.69-30.38-32.56-50.77-42.96-39.5-20.14-71.24-5.14-129.43-2.23-29.49,1.47-72.94.19-127.09-14.39Z"/><path class="cls-13" d="m251.19,441.53c-14.78,8.11-25.73,16.95-33.51,24.26-9.06,8.52-24.57,23.13-20.86,31.2,1.52,3.31,5.57,3.98,15.7,5.76,45.99,8.09,54.24,10.43,72.14,8.56,5.49-.57,9.85-1.33,12.25-1.77,25.21-7.6,44.05-6.11,56.88-3.13,16.25,3.78,26.34,10.76,51.34,15.96,12.27,2.55,21.59,3.3,29.4,3.93,50.91,4.08,57.35-8.86,114.29-10.15,13.9-.32,24.19.21,27.66-6.03,5.35-9.61-9.79-27.53-16.4-34.82-7.53-10.62-20.08-25.75-39.19-38.57-94.76-63.55-257.68-7.76-257.68-7.76h0c-4.01,4.19-8.02,8.38-12.02,12.56Z"/><path class="cls-12" d="m286.91,373.22c-9.38,4.95-22.75,12.79-37.37,24.39-14.99,11.9-33.36,26.48-30.13,35.31,2.09,5.72,11.57,4.48,34.33,9.12,30.19,6.15,30.57,11.8,51.54,14.79,21.01,2.99,37.54-.26,55.15-3.73,38.31-7.55,35.21-16.69,55.29-15.93,25.35.96,33.65,15.66,67.38,15.87,7.49.05,15.96-.62,19.26-.9.27-.02.7-.06,1.07-.09,13.04-1.2,22.88-5.64,34.66-8.35,13.34-3.07,15.73-.85,17.58-3.46,3.12-4.41-.12-15.88-28.54-47.07-3.07-2.65-7.72-6.52-13.63-10.85,0,0-11.46-12.97-26.66-16.77-11.3-2.82-191.71,2.47-191.71,2.47-2.74,1.74-5.47,3.47-8.21,5.21Z"/><path class="cls-11" d="m315.49,321.12c-8.55,1.33-13.35,4.62-16.15,7.36-5.2,5.1-5.14,9.95-12.49,15.82-1.58,1.26-4.36,3.26-7.4,5.18-4.71,2.97-5.6,2.96-7.68,4.44-4.91,3.5-9.88,10.6-8.24,15.08,1.48,4.06,8.01,4.98,14.27,5.9,43.49,6.37,38.81,7.19,45.73,6.93,21.72-.82,22.69-7.22,40.92-9.01,29.67-2.91,33.05,13.47,72.17,17.53,14.63,1.52,29.86-.52,60.3-4.61,28.75-3.86,32.98-6.78,34.16-10.18,4.04-11.61-26.5-31.83-36.08-37.94-4.5-5.17-9.88-10.21-16.33-14.7-35.98-25.04-80.03-15.39-92.68-12.14-23.5,3.44-47,6.88-70.5,10.33Z"/><path class="cls-10" d="m476.25,292.56c12.14,19.09,25.68,21.76,23.71,28.32-1.97,6.57-16.62,7.46-18.95,7.61-11.76.72-18.07-3.79-30.56-7.45,0,0-14.59-4.28-32.98-4.1-28.57.28-29.81,14.81-55.21,15.36-19.93.43-19.75-8.5-49.46-9.88-13.1-.61-23.68.64-25.5-3.98-1.53-3.88,4.04-9.55,9.49-15.09,10.38-10.57,15.11-8.95,23.5-18.54,3.44-3.93,5.52-5.73,9.68-9.31,1.02-.88,3.47-2.22,6.48-4.25.95-.64,2.03-1.06,3.17-1.24l53.34-8.31c.81-.13,1.63-.12,2.43,0l58.89,9.32c.79.13,1.56.37,2.27.72,0,0,.64.32,1.21.75,10.96,8.22,18.5,20.08,18.5,20.08Z"/><path class="cls-9" d="m460.4,259.85c8.32,6,14.33,9.63,13.51,12.82-1.34,5.23-20.02,5.25-31.3,4.14-16.64-1.64-16.6-5.56-29.45-6.09-17.93-.74-20.54,7.33-35.4,4.39-10.78-2.13-11.67-6.82-21.62-6.87-8.42-.04-10.23,3.31-22.31,5.09-4.07.6-19.75,2.9-21.58-1.48-1.66-3.98,9.53-9.96,26.31-27.16,14.43-14.79,11.42-15.76,18.17-20.41,3.65-2.51,35.36-13.9,67.82,5.04,14.66,8.55,10.17,12.03,35.83,30.54Z"/><path class="cls-8" d="m400.63,178.01c-9.19-16.43-14.03-19.17-16.77-18.48-4.06,1.02-3.29,9.37-9.52,23.86-3.22,7.5-6.31,14.69-12.8,21.52-9.03,9.5-20.39,13.84-23.43,23.43-.3.95-.6,2.21,0,3.27,2.6,4.57,18.83-.23,21.56-1.04,5.23-1.55,9.37-3.41,12.16-4.82,13.78-2.36,23.17-.43,29.34,1.93,5.41,2.07,8.05,2.89,15.91,4.74,8.66,2.04,21.47,5.05,23.47,1.37,1.22-2.26-3.1-7.3-11.8-17.31-7.54-8.67-10.34-10.94-14.43-15.89-3.99-4.82-9.17-12.13-13.69-22.59Z"/><rect class="cls-1" x="348.65" y="167.47" width="12.01" height="54.08" rx="2.43" ry="2.43"/><path class="cls-6" d="m359.19,221.69h-9.07c-.88,0-1.6-.72-1.6-1.6v-51.14c0-.88.72-1.6,1.6-1.6h9.07c.88,0,1.6.72,1.6,1.6v51.14c0,.88-.72,1.6-1.6,1.6Zm-9.07-54.08c-.74,0-1.34.6-1.34,1.34v51.14c0,.74.6,1.34,1.34,1.34h9.07c.74,0,1.34-.6,1.34-1.34v-51.14c0-.74-.6-1.34-1.34-1.34h-9.07Z"/><path class="cls-2" d="m351.29,163.94c-.52-.8-.48-1.75-.22-2.69,1.27-4.7,3.49-6.16,3.49-6.16,1.42,1.34,3.11,3.42,3.71,6.26.38,1.81.01,2.46-.09,2.63-1.17,1.89-5.61,1.92-6.89-.04Z"/><path class="cls-6" d="m354.77,165.53c-1.61,0-2.98-.58-3.59-1.52-.47-.73-.55-1.64-.24-2.79,1.27-4.69,3.45-6.17,3.55-6.23.05-.03.12-.03.16.01,2,1.88,3.26,4.01,3.75,6.33.26,1.24.22,2.19-.11,2.72-.56.9-1.88,1.47-3.45,1.48-.02,0-.05,0-.07,0Zm-.23-10.27c-.41.32-2.25,1.94-3.35,6.02-.29,1.08-.22,1.92.21,2.58h0c.57.87,1.85,1.4,3.37,1.4.02,0,.04,0,.07,0,1.48-.02,2.71-.54,3.23-1.36.29-.47.32-1.37.08-2.53-.47-2.24-1.68-4.29-3.59-6.11Z"/><path class="cls-6" d="m354.66,167.51c-.15,0-.26-.12-.26-.26v-4.43c0-.15.12-.26.26-.26s.26.12.26.26v4.43c0,.15-.12.26-.26.26Z"/><rect class="cls-1" x="377.47" y="216.78" width="7.01" height="24.18" rx="1.51" ry="1.51"/><path class="cls-6" d="m383.86,241.05h-5.78c-.38,0-.7-.31-.7-.7v-22.95c0-.38.31-.7.7-.7h5.78c.38,0,.7.31.7.7v22.95c0,.38-.31.7-.7.7Zm-5.78-24.18c-.29,0-.53.24-.53.53v22.95c0,.29.24.53.53.53h5.78c.29,0,.53-.24.53-.53v-22.95c0-.29-.24-.53-.53-.53h-5.78Z"/><path class="cls-4" d="m380.48,240.67s12.21-12.77,23.62-4.37c11.41,8.4-2.16,25.83-2.16,25.83l-19.73-14.03-1.73-7.43"/><path class="cls-6" d="m401.96,262.24l-.06-.05-19.76-14.05-1.74-7.5.03-.03s3.12-3.23,7.56-5.35c4.11-1.96,10.25-3.39,16.18.98,2.55,1.88,4.06,4.37,4.48,7.4,1.16,8.44-6.55,18.45-6.62,18.55l-.05.06Zm-19.68-14.19l19.64,13.97c.65-.86,7.65-10.34,6.54-18.36-.41-2.98-1.9-5.43-4.41-7.29-5.86-4.32-11.94-2.91-16-.96-4.18,2-7.15,4.95-7.48,5.29l1.71,7.36Z"/><path class="cls-1" d="m380.48,240.67s-9.76-15.88-24.22-5.53c-14.46,10.35,2.76,26.99,2.76,26.99l16.23-12.75,5.23-8.71Z"/><path class="cls-6" d="m359.01,262.24l-.05-.05c-.09-.09-9.18-8.98-8.54-17.72.27-3.68,2.22-6.84,5.78-9.39,4.17-2.98,8.35-4.08,12.44-3.25,7.33,1.48,11.86,8.73,11.9,8.8l.03.04-5.28,8.78-16.29,12.79Zm6.99-30.52c-3.2,0-6.45,1.17-9.69,3.49-3.53,2.52-5.45,5.64-5.72,9.27-.61,8.33,7.7,16.81,8.44,17.54l16.16-12.69,5.2-8.66c-.38-.59-4.8-7.28-11.77-8.69-.87-.18-1.74-.26-2.62-.26Z"/><rect class="cls-1" x="365.31" y="246.96" width="30.35" height="30.35" transform="translate(296.8 -192.26) rotate(45)"/><path class="cls-6" d="m380.48,283.71l-21.58-21.58,21.58-21.58,21.58,21.58-21.58,21.58Zm-21.35-21.58l21.35,21.35,21.35-21.35-21.35-21.35-21.35,21.35Z"/><rect class="cls-4" x="375.41" y="242.74" width="10.1" height="10.1" transform="translate(286.65 -196.45) rotate(45)"/><path class="cls-6" d="m380.46,255.04l-7.26-7.26,7.26-7.26,7.26,7.26-7.26,7.26Zm-7.03-7.26l7.03,7.03,7.03-7.03-7.03-7.03-7.03,7.03Z"/><rect class="cls-4" x="375.41" y="257.06" width="10.1" height="10.1" transform="translate(296.77 -192.25) rotate(45)"/><path class="cls-6" d="m380.46,269.37l-7.26-7.26,7.26-7.26,7.26,7.26-7.26,7.26Zm-7.03-7.26l7.03,7.03,7.03-7.03-7.03-7.03-7.03,7.03Z"/><rect class="cls-4" x="389.75" y="257.08" width="10.1" height="10.1" transform="translate(300.99 -202.39) rotate(45)"/><path class="cls-6" d="m394.8,269.39l-7.26-7.26,7.26-7.26,7.26,7.26-7.26,7.26Zm-7.03-7.26l7.03,7.03,7.03-7.03-7.03-7.03-7.03,7.03Z"/><rect class="cls-4" x="361.06" y="257.08" width="10.1" height="10.1" transform="translate(292.59 -182.1) rotate(45)"/><path class="cls-6" d="m366.11,269.39l-7.26-7.26,7.26-7.26,7.26,7.26-7.26,7.26Zm-7.03-7.26l7.03,7.03,7.03-7.03-7.03-7.03-7.03,7.03Z"/><rect class="cls-4" x="375.43" y="271.4" width="10.1" height="10.1" transform="translate(306.92 -188.07) rotate(45)"/><path class="cls-6" d="m380.48,283.71l-7.26-7.26,7.26-7.26,7.26,7.26-7.26,7.26Zm-7.03-7.26l7.03,7.03,7.03-7.03-7.03-7.03-7.03,7.03Z"/><circle class="cls-4" cx="414.68" cy="197.93" r="19.44"/><path class="cls-1" d="m399.36,192.85c-.41.58-1.71,3.03-.87,7.27.1.48.97,4.65,3.22,5.84.26.14,1,.53,1.37.24.28-.21.24-.71.18-1.14-.27-1.75-1.14-2.75-1.73-4-.04-.09-.75-1.61-.84-3.47-.14-2.92,1.35-5.01.6-5.56-.22-.16-.56-.13-.66-.12-.66.06-1.09.68-1.27.93Z"/><path class="cls-3" d="m386.72,175.86c-4.41,0-8.7-1.9-10.94-4.03-1.07-1.01-1.6-2.02-1.53-2.89.07-1.03.94-1.84,2.15-2.48-.48-1.37-.51-3.04-.06-4.44.47-1.48,1.4-2.45,2.37-3.1-.37-.59-.55-1.17-.53-1.72.05-1.73,1.81-2.93,3.13-3.68-.79-1.19-.9-2.15-.82-2.8.11-.87.61-1.65,1.44-2.29-.18-.44-.28-.92-.23-1.43.07-.85.54-1.57,1.2-2.13-.3-.39-1.07-1.41-.89-2.43.12-.65.57-1.13,1.19-1.47-.15-.29-.24-.59-.23-.91,0-.42.17-.8.43-1.13-.03-.04-.06-.08-.08-.14-.19-.49.11-1.35,3.55-4.3.13-.11.31-.09.42.03.11.13.09.31-.03.42-2.69,2.3-3.25,3.19-3.36,3.49.69-.56,1.66-.93,2.44-1.02,1.2-.14,2.47.29,3.01.79.2.19.3.39.3.59,0,.24-.04.89-3.09,1.12-.06,0-1.44.1-2.67-.64-.19.24-.31.51-.31.79,0,.22.06.44.18.65,1.05-.41,2.35-.53,3.28-.51.34,0,3.28.09,3.34,1.15.02.27-.16.56-.5.83-.7.56-2.36,1.21-4.04.71-.75-.22-1.69-.74-2.28-1.43-.5.26-.87.62-.95,1.07-.14.77.52,1.63.78,1.97,1.03-.69,2.35-1.07,3.43-1.11,1.59-.05,3.18.57,3.81,1.2.23.23.34.46.33.69,0,.23-.13.43-.36.62-.78.64-2.81.96-4.44.7-1.43-.22-2.33-.84-2.83-1.31-.56.47-.94,1.05-1,1.74-.03.36.03.71.15,1.04.1-.06.21-.12.33-.18,1.07-.57,2.45-.91,3.67-.93,1.81-.03,4,.71,4.91,1.64.3.3.44.61.43.92-.03.61-.7,1.26-1.81,1.73-1.75.75-4.5,1-6.49-.76-.26-.23-.84-.78-1.26-1.53-.61.49-1.03,1.09-1.12,1.81-.07.55.03,1.37.75,2.43.04-.02.07-.04.1-.06,2.7-1.46,5.09-1.29,6-1.14,1.73.27,5.03,1.53,4.92,2.86-.05.59-.76,1.17-1.95,1.59-1.93.68-5.93,1.08-8.63-1.77-.23-.24-.43-.48-.61-.71-1.21.69-2.84,1.77-2.88,3.21-.01.44.13.9.44,1.39.77-.43,1.52-.69,2.04-.86,4.82-1.64,10.07.56,12.25,2.33.63.52,1.37,1.28,1.28,2-.04.35-.31.83-1.32,1.2-3,1.08-9.96.43-13.61-3-.31-.29-.58-.58-.8-.86-.89.59-1.73,1.46-2.15,2.78-.4,1.27-.39,2.76.03,4,2.46-1.1,5.95-1.57,7.57-1.67,4.08-.24,8.98.79,10.49,2.22.32.3.48.61.48.92,0,.31-.15.61-.45.89-1.43,1.35-6.3,2.3-10.42,2.04-2.59-.16-6.47-.41-7.98-3.57-1.05.56-1.74,1.21-1.79,1.95-.05.69.43,1.55,1.35,2.42,2.44,2.32,7.41,4.35,12.22,3.77,2.33-.29,4.62-1.2,6.79-2.72.13-.09.32-.06.41.07.09.13.06.32-.07.42-2.25,1.57-4.63,2.52-7.06,2.82-.59.07-1.18.11-1.77.11Zm-9.55-9.1c1.36,2.86,4.89,3.08,7.48,3.24,4.2.26,8.82-.8,9.97-1.88.12-.11.26-.28.26-.45,0-.18-.16-.37-.29-.49-1.25-1.18-5.82-2.31-10.05-2.06-2.39.14-5.35.73-7.37,1.64Zm2.4-7.67c.2.24.43.49.7.74,3.6,3.39,10.46,3.79,13,2.87.56-.2.9-.46.93-.71.03-.26-.23-.78-1.07-1.47-2.23-1.82-7.32-3.71-11.68-2.23-.48.16-1.17.4-1.88.79Zm2.62-5.38c.15.19.32.39.52.59,2.49,2.62,6.2,2.25,8,1.62.99-.35,1.53-.81,1.56-1.08.05-.61-2.27-1.88-4.42-2.22-.84-.13-3.08-.3-5.62,1.08-.01,0-.02.01-.03.02Zm.51-5.07c.38.69.93,1.21,1.17,1.42,1.67,1.47,4.14,1.39,5.86.65.94-.4,1.44-.91,1.45-1.21,0-.13-.09-.3-.26-.48-.71-.73-2.68-1.48-4.47-1.46-1.17.02-2.65.39-3.75,1.07Zm1.09-3.69c.45.4,1.23.9,2.44,1.08,1.57.25,3.39-.1,3.97-.58.13-.1.14-.17.14-.18,0-.04-.04-.13-.15-.25-.53-.53-2.01-1.07-3.36-1.03-.93.03-2.11.37-3.03.95Zm.34-3.73c.5.51,1.25.92,1.87,1.1,1.37.41,2.78-.1,3.4-.54.31-.22.37-.37.38-.4-.09-.24-1.38-.56-2.76-.59-.84-.02-1.98.1-2.88.42Zm.19-2.37c1.04.55,2.17.47,2.19.47,1.7-.13,2.46-.42,2.55-.57-.06-.22-1.27-.91-2.64-.74-.67.08-1.5.39-2.09.85Z"/><polygon class="cls-5" points="386.93 35.39 406.36 74.76 449.82 81.08 418.37 111.73 425.8 155 386.93 134.57 348.07 155 355.49 111.73 324.04 81.08 367.5 74.76 386.93 35.39"/><rect class="cls-1" x="449.95" y="256.54" width="12.01" height="54.08" rx="2.43" ry="2.43"/><path class="cls-6" d="m460.49,310.76h-9.07c-.88,0-1.6-.72-1.6-1.6v-51.14c0-.88.72-1.6,1.6-1.6h9.07c.88,0,1.6.72,1.6,1.6v51.14c0,.88-.72,1.6-1.6,1.6Zm-9.07-54.08c-.74,0-1.34.6-1.34,1.34v51.14c0,.74.6,1.34,1.34,1.34h9.07c.74,0,1.34-.6,1.34-1.34v-51.14c0-.74-.6-1.34-1.34-1.34h-9.07Z"/><path class="cls-2" d="m452.58,253.01c-.52-.8-.48-1.75-.22-2.69,1.27-4.7,3.49-6.16,3.49-6.16,1.42,1.34,3.11,3.42,3.71,6.26.38,1.81.01,2.46-.09,2.63-1.17,1.89-5.61,1.92-6.89-.04Z"/><path class="cls-6" d="m456.07,254.6c-1.61,0-2.98-.58-3.59-1.52-.47-.73-.55-1.64-.24-2.79,1.27-4.69,3.45-6.17,3.55-6.23.05-.03.12-.03.16.01,2,1.88,3.26,4.01,3.75,6.33.26,1.24.22,2.19-.11,2.72-.56.9-1.88,1.47-3.45,1.48-.02,0-.05,0-.07,0Zm-.23-10.27c-.41.32-2.25,1.94-3.35,6.02-.29,1.08-.22,1.92.21,2.58h0c.57.87,1.85,1.4,3.37,1.4.02,0,.04,0,.07,0,1.48-.02,2.71-.54,3.23-1.36.29-.47.32-1.37.08-2.53-.47-2.24-1.68-4.29-3.59-6.11Z"/><path class="cls-6" d="m455.95,256.58c-.15,0-.26-.12-.26-.26v-4.43c0-.15.12-.26.26-.26s.26.12.26.26v4.43c0,.15-.12.26-.26.26Z"/><rect class="cls-1" x="356.17" y="306.37" width="12.01" height="54.08" rx="2.43" ry="2.43"/><path class="cls-6" d="m366.71,360.59h-9.07c-.88,0-1.6-.72-1.6-1.6v-51.14c0-.88.72-1.6,1.6-1.6h9.07c.88,0,1.6.72,1.6,1.6v51.14c0,.88-.72,1.6-1.6,1.6Zm-9.07-54.08c-.74,0-1.34.6-1.34,1.34v51.14c0,.74.6,1.34,1.34,1.34h9.07c.74,0,1.34-.6,1.34-1.34v-51.14c0-.74-.6-1.34-1.34-1.34h-9.07Z"/><path class="cls-2" d="m358.8,302.84c-.52-.8-.48-1.75-.22-2.69,1.27-4.7,3.49-6.16,3.49-6.16,1.42,1.34,3.11,3.42,3.71,6.26.38,1.81.01,2.46-.09,2.63-1.17,1.89-5.61,1.92-6.89-.04Z"/><path class="cls-6" d="m362.29,304.43c-1.61,0-2.98-.58-3.59-1.52-.47-.73-.55-1.64-.24-2.79,1.27-4.69,3.45-6.17,3.55-6.23.05-.03.12-.03.16.01,2,1.88,3.26,4.01,3.75,6.33.26,1.24.22,2.19-.11,2.72-.56.9-1.88,1.47-3.45,1.48-.02,0-.05,0-.07,0Zm-.23-10.27c-.41.32-2.25,1.94-3.35,6.02-.29,1.08-.22,1.92.21,2.58h0c.57.87,1.85,1.4,3.37,1.4.02,0,.04,0,.07,0,1.48-.02,2.71-.54,3.23-1.36.29-.47.32-1.37.08-2.53-.47-2.24-1.68-4.29-3.59-6.11Z"/><path class="cls-6" d="m362.18,306.41c-.15,0-.26-.12-.26-.26v-4.43c0-.15.12-.26.26-.26s.26.12.26.26v4.43c0,.15-.12.26-.26.26Z"/><rect class="cls-1" x="408.68" y="364.66" width="12.01" height="54.08" rx="2.43" ry="2.43"/><path class="cls-6" d="m419.22,418.87h-9.07c-.88,0-1.6-.72-1.6-1.6v-51.14c0-.88.72-1.6,1.6-1.6h9.07c.88,0,1.6.72,1.6,1.6v51.14c0,.88-.72,1.6-1.6,1.6Zm-9.07-54.08c-.74,0-1.34.6-1.34,1.34v51.14c0,.74.6,1.34,1.34,1.34h9.07c.74,0,1.34-.6,1.34-1.34v-51.14c0-.74-.6-1.34-1.34-1.34h-9.07Z"/><path class="cls-2" d="m411.31,361.13c-.52-.8-.48-1.75-.22-2.69,1.27-4.7,3.49-6.16,3.49-6.16,1.42,1.34,3.11,3.42,3.71,6.26.38,1.81.01,2.46-.09,2.63-1.17,1.89-5.61,1.92-6.89-.04Z"/><path class="cls-6" d="m414.8,362.72c-1.61,0-2.98-.58-3.59-1.52-.47-.73-.55-1.64-.24-2.79,1.27-4.69,3.45-6.17,3.55-6.23.05-.03.12-.03.16.01,2,1.88,3.26,4.01,3.75,6.33.26,1.24.22,2.19-.11,2.72-.56.9-1.88,1.47-3.45,1.48-.02,0-.05,0-.07,0Zm-.23-10.27c-.41.32-2.25,1.94-3.35,6.02-.29,1.08-.22,1.92.21,2.58h0c.57.87,1.85,1.4,3.37,1.4.02,0,.04,0,.07,0,1.48-.02,2.71-.54,3.23-1.36.29-.47.32-1.37.08-2.53-.47-2.24-1.68-4.29-3.59-6.11Z"/><path class="cls-6" d="m414.68,364.7c-.15,0-.26-.12-.26-.26v-4.43c0-.15.12-.26.26-.26s.26.12.26.26v4.43c0,.15-.12.26-.26.26Z"/><rect class="cls-1" x="234.79" y="373.28" width="12.01" height="54.08" rx="2.43" ry="2.43"/><path class="cls-6" d="m245.33,427.5h-9.07c-.88,0-1.6-.72-1.6-1.6v-51.14c0-.88.72-1.6,1.6-1.6h9.07c.88,0,1.6.72,1.6,1.6v51.14c0,.88-.72,1.6-1.6,1.6Zm-9.07-54.08c-.74,0-1.34.6-1.34,1.34v51.14c0,.74.6,1.34,1.34,1.34h9.07c.74,0,1.34-.6,1.34-1.34v-51.14c0-.74-.6-1.34-1.34-1.34h-9.07Z"/><path class="cls-2" d="m237.42,369.75c-.52-.8-.48-1.75-.22-2.69,1.27-4.7,3.49-6.16,3.49-6.16,1.42,1.34,3.11,3.42,3.71,6.26.38,1.81.01,2.46-.09,2.63-1.17,1.89-5.61,1.92-6.89-.04Z"/><path class="cls-6" d="m240.91,371.34c-1.61,0-2.98-.58-3.59-1.52-.47-.73-.55-1.64-.24-2.79,1.27-4.69,3.45-6.17,3.55-6.23.05-.03.12-.03.16.01,2,1.88,3.26,4.01,3.75,6.33.26,1.24.22,2.19-.11,2.72-.56.9-1.88,1.47-3.45,1.48-.02,0-.05,0-.07,0Zm-.23-10.27c-.41.32-2.25,1.94-3.35,6.02-.29,1.08-.22,1.92.21,2.58h0c.57.87,1.85,1.4,3.37,1.4.02,0,.04,0,.07,0,1.48-.02,2.71-.54,3.23-1.36.29-.47.32-1.37.08-2.53-.47-2.24-1.68-4.29-3.59-6.11Z"/><path class="cls-6" d="m240.8,373.32c-.15,0-.26-.12-.26-.26v-4.43c0-.15.12-.26.26-.26s.26.12.26.26v4.43c0,.15-.12.26-.26.26Z"/><rect class="cls-1" x="540.13" y="421.3" width="12.01" height="54.08" rx="2.43" ry="2.43"/><path class="cls-6" d="m550.67,475.52h-9.07c-.88,0-1.6-.72-1.6-1.6v-51.14c0-.88.72-1.6,1.6-1.6h9.07c.88,0,1.6.72,1.6,1.6v51.14c0,.88-.72,1.6-1.6,1.6Zm-9.07-54.08c-.74,0-1.34.6-1.34,1.34v51.14c0,.74.6,1.34,1.34,1.34h9.07c.74,0,1.34-.6,1.34-1.34v-51.14c0-.74-.6-1.34-1.34-1.34h-9.07Z"/><path class="cls-2" d="m542.77,417.77c-.52-.8-.48-1.75-.22-2.69,1.27-4.7,3.49-6.16,3.49-6.16,1.42,1.34,3.11,3.42,3.71,6.26.38,1.81.01,2.46-.09,2.63-1.17,1.89-5.61,1.92-6.89-.04Z"/><path class="cls-6" d="m546.25,419.37c-1.61,0-2.98-.58-3.59-1.52-.47-.73-.55-1.64-.24-2.79,1.27-4.69,3.45-6.17,3.55-6.23.05-.03.12-.03.16.01,2,1.88,3.26,4.01,3.75,6.33.26,1.24.22,2.19-.11,2.72-.56.9-1.88,1.47-3.45,1.48-.02,0-.05,0-.07,0Zm-.23-10.27c-.41.32-2.25,1.94-3.35,6.02-.29,1.08-.22,1.92.21,2.58h0c.57.87,1.85,1.4,3.37,1.4.02,0,.04,0,.07,0,1.48-.02,2.71-.54,3.23-1.36.29-.47.32-1.37.08-2.53-.47-2.24-1.68-4.29-3.59-6.11Z"/><path class="cls-6" d="m546.14,421.35c-.15,0-.26-.12-.26-.26v-4.43c0-.15.12-.26.26-.26s.26.12.26.26v4.43c0,.15-.12.26-.26.26Z"/><rect class="cls-1" x="299.96" y="445.86" width="12.01" height="54.08" rx="2.43" ry="2.43"/><path class="cls-6" d="m310.5,500.07h-9.07c-.88,0-1.6-.72-1.6-1.6v-51.14c0-.88.72-1.6,1.6-1.6h9.07c.88,0,1.6.72,1.6,1.6v51.14c0,.88-.72,1.6-1.6,1.6Zm-9.07-54.08c-.74,0-1.34.6-1.34,1.34v51.14c0,.74.6,1.34,1.34,1.34h9.07c.74,0,1.34-.6,1.34-1.34v-51.14c0-.74-.6-1.34-1.34-1.34h-9.07Z"/><path class="cls-2" d="m302.59,442.32c-.52-.8-.48-1.75-.22-2.69,1.27-4.7,3.49-6.16,3.49-6.16,1.42,1.34,3.11,3.42,3.71,6.26.38,1.81.01,2.46-.09,2.63-1.17,1.89-5.61,1.92-6.89-.04Z"/><path class="cls-6" d="m306.07,443.92c-1.61,0-2.98-.58-3.59-1.52-.47-.73-.55-1.64-.24-2.79,1.27-4.69,3.45-6.17,3.55-6.23.05-.03.12-.03.16.01,2,1.88,3.26,4.01,3.75,6.33.26,1.24.22,2.19-.11,2.72-.56.9-1.88,1.47-3.45,1.48-.02,0-.05,0-.07,0Zm-.23-10.27c-.41.32-2.25,1.94-3.35,6.02-.29,1.08-.22,1.92.21,2.58h0c.57.87,1.85,1.4,3.37,1.4.02,0,.04,0,.07,0,1.48-.02,2.71-.54,3.23-1.36.29-.47.32-1.37.08-2.53-.47-2.24-1.68-4.29-3.59-6.11Z"/><path class="cls-6" d="m305.96,445.9c-.15,0-.26-.12-.26-.26v-4.43c0-.15.12-.26.26-.26s.26.12.26.26v4.43c0,.15-.12.26-.26.26Z"/><rect class="cls-1" x="474.97" y="467.99" width="12.01" height="54.08" rx="2.43" ry="2.43"/><path class="cls-6" d="m485.51,522.2h-9.07c-.88,0-1.6-.72-1.6-1.6v-51.14c0-.88.72-1.6,1.6-1.6h9.07c.88,0,1.6.72,1.6,1.6v51.14c0,.88-.72,1.6-1.6,1.6Zm-9.07-54.08c-.74,0-1.34.6-1.34,1.34v51.14c0,.74.6,1.34,1.34,1.34h9.07c.74,0,1.34-.6,1.34-1.34v-51.14c0-.74-.6-1.34-1.34-1.34h-9.07Z"/><path class="cls-2" d="m477.61,464.45c-.52-.8-.48-1.75-.22-2.69,1.27-4.7,3.49-6.16,3.49-6.16,1.42,1.34,3.11,3.42,3.71,6.26.38,1.81.01,2.46-.09,2.63-1.17,1.89-5.61,1.92-6.89-.04Z"/><path class="cls-6" d="m481.09,466.05c-1.61,0-2.98-.58-3.59-1.52-.47-.73-.55-1.64-.24-2.79,1.27-4.69,3.45-6.17,3.55-6.23.05-.03.12-.03.16.01,2,1.88,3.26,4.01,3.75,6.33.26,1.24.22,2.19-.11,2.72-.56.9-1.88,1.47-3.45,1.48-.02,0-.05,0-.07,0Zm-.23-10.27c-.41.32-2.25,1.94-3.35,6.02-.29,1.08-.22,1.92.21,2.58h0c.57.87,1.85,1.4,3.37,1.4.02,0,.04,0,.07,0,1.48-.02,2.71-.54,3.23-1.36.29-.47.32-1.37.08-2.53-.47-2.24-1.68-4.29-3.59-6.11Z"/><path class="cls-6" d="m480.98,468.03c-.15,0-.26-.12-.26-.26v-4.43c0-.15.12-.26.26-.26s.26.12.26.26v4.43c0,.15-.12.26-.26.26Z"/><rect class="cls-1" x="190.25" y="523.41" width="12.01" height="54.08" rx="2.43" ry="2.43"/><path class="cls-6" d="m200.79,577.63h-9.07c-.88,0-1.6-.72-1.6-1.6v-51.14c0-.88.72-1.6,1.6-1.6h9.07c.88,0,1.6.72,1.6,1.6v51.14c0,.88-.72,1.6-1.6,1.6Zm-9.07-54.08c-.74,0-1.34.6-1.34,1.34v51.14c0,.74.6,1.34,1.34,1.34h9.07c.74,0,1.34-.6,1.34-1.34v-51.14c0-.74-.6-1.34-1.34-1.34h-9.07Z"/><path class="cls-2" d="m192.88,519.88c-.52-.8-.48-1.75-.22-2.69,1.27-4.7,3.49-6.16,3.49-6.16,1.42,1.34,3.11,3.42,3.71,6.26.38,1.81.01,2.46-.09,2.63-1.17,1.89-5.61,1.92-6.89-.04Z"/><path class="cls-6" d="m196.37,521.48c-1.61,0-2.98-.58-3.59-1.52-.47-.73-.55-1.64-.24-2.79,1.27-4.69,3.45-6.17,3.55-6.23.05-.03.12-.03.16.01,2,1.88,3.26,4.01,3.75,6.33.26,1.24.22,2.19-.11,2.72-.56.9-1.88,1.47-3.45,1.48-.02,0-.05,0-.07,0Zm-.23-10.27c-.41.32-2.25,1.94-3.35,6.02-.29,1.08-.22,1.92.21,2.58h0c.57.87,1.85,1.4,3.37,1.4.02,0,.04,0,.07,0,1.48-.02,2.71-.54,3.23-1.36.29-.47.32-1.37.08-2.53-.47-2.24-1.68-4.29-3.59-6.11Z"/><path class="cls-6" d="m196.26,523.46c-.15,0-.26-.12-.26-.26v-4.43c0-.15.12-.26.26-.26s.26.12.26.26v4.43c0,.15-.12.26-.26.26Z"/><rect class="cls-1" x="481.81" y="375.37" width="7.01" height="24.18" rx="1.51" ry="1.51"/><path class="cls-6" d="m488.2,399.64h-5.78c-.38,0-.7-.31-.7-.7v-22.95c0-.38.31-.7.7-.7h5.78c.38,0,.7.31.7.7v22.95c0,.38-.31.7-.7.7Zm-5.78-24.18c-.29,0-.53.24-.53.53v22.95c0,.29.24.53.53.53h5.78c.29,0,.53-.24.53-.53v-22.95c0-.29-.24-.53-.53-.53h-5.78Z"/><path class="cls-4" d="m484.82,399.26s12.21-12.77,23.62-4.37c11.41,8.4-2.16,25.83-2.16,25.83l-19.73-14.03-1.73-7.43"/><path class="cls-6" d="m506.3,420.83l-.06-.05-19.76-14.05-1.74-7.5.03-.03s3.12-3.23,7.56-5.35c4.11-1.96,10.25-3.39,16.18.98,2.55,1.88,4.06,4.37,4.48,7.4,1.16,8.44-6.55,18.45-6.62,18.55l-.05.06Zm-19.68-14.19l19.64,13.97c.65-.86,7.65-10.34,6.54-18.36-.41-2.98-1.9-5.43-4.41-7.29-5.86-4.32-11.94-2.91-16-.96-4.18,2-7.15,4.95-7.48,5.29l1.71,7.36Z"/><path class="cls-1" d="m484.82,399.26s-9.76-15.88-24.22-5.53c-14.46,10.35,2.76,26.99,2.76,26.99l16.23-12.75,5.23-8.71Z"/><path class="cls-6" d="m463.36,420.83l-.05-.05c-.09-.09-9.18-8.98-8.54-17.72.27-3.68,2.22-6.84,5.78-9.39,4.17-2.98,8.35-4.08,12.44-3.25,7.33,1.48,11.86,8.73,11.9,8.8l.03.04-5.28,8.78-16.29,12.79Zm6.99-30.52c-3.2,0-6.45,1.17-9.69,3.49-3.53,2.52-5.45,5.64-5.72,9.27-.61,8.33,7.7,16.81,8.44,17.54l16.16-12.69,5.2-8.66c-.38-.59-4.8-7.28-11.77-8.69-.87-.18-1.74-.26-2.62-.26Z"/><rect class="cls-1" x="469.65" y="405.55" width="30.35" height="30.35" transform="translate(439.5 -219.59) rotate(45)"/><path class="cls-6" d="m484.82,442.3l-21.58-21.58,21.58-21.58,21.58,21.58-21.58,21.58Zm-21.35-21.58l21.35,21.35,21.35-21.35-21.35-21.35-21.35,21.35Z"/><rect class="cls-4" x="479.75" y="401.33" width="10.1" height="10.1" transform="translate(429.35 -223.78) rotate(45)"/><path class="cls-6" d="m484.8,413.63l-7.26-7.26,7.26-7.26,7.26,7.26-7.26,7.26Zm-7.03-7.26l7.03,7.03,7.03-7.03-7.03-7.03-7.03,7.03Z"/><rect class="cls-4" x="479.75" y="415.65" width="10.1" height="10.1" transform="translate(439.47 -219.58) rotate(45)"/><path class="cls-6" d="m484.8,427.95l-7.26-7.26,7.26-7.26,7.26,7.26-7.26,7.26Zm-7.03-7.26l7.03,7.03,7.03-7.03-7.03-7.03-7.03,7.03Z"/><rect class="cls-4" x="494.09" y="415.67" width="10.1" height="10.1" transform="translate(443.69 -229.72) rotate(45)"/><path class="cls-6" d="m499.14,427.98l-7.26-7.26,7.26-7.26,7.26,7.26-7.26,7.26Zm-7.03-7.26l7.03,7.03,7.03-7.03-7.03-7.03-7.03,7.03Z"/><rect class="cls-4" x="465.4" y="415.67" width="10.1" height="10.1" transform="translate(435.29 -209.43) rotate(45)"/><path class="cls-6" d="m470.45,427.98l-7.26-7.26,7.26-7.26,7.26,7.26-7.26,7.26Zm-7.03-7.26l7.03,7.03,7.03-7.03-7.03-7.03-7.03,7.03Z"/><rect class="cls-4" x="479.77" y="429.99" width="10.1" height="10.1" transform="translate(449.62 -215.4) rotate(45)"/><path class="cls-6" d="m484.82,442.3l-7.26-7.26,7.26-7.26,7.26,7.26-7.26,7.26Zm-7.03-7.26l7.03,7.03,7.03-7.03-7.03-7.03-7.03,7.03Z"/><rect class="cls-1" x="290.29" y="365.7" width="7.01" height="24.18" rx="1.51" ry="1.51"/><path class="cls-6" d="m296.68,389.96h-5.78c-.38,0-.7-.31-.7-.7v-22.95c0-.38.31-.7.7-.7h5.78c.38,0,.7.31.7.7v22.95c0,.38-.31.7-.7.7Zm-5.78-24.18c-.29,0-.53.24-.53.53v22.95c0,.29.24.53.53.53h5.78c.29,0,.53-.24.53-.53v-22.95c0-.29-.24-.53-.53-.53h-5.78Z"/><path class="cls-4" d="m293.3,389.59s12.21-12.77,23.62-4.37c11.41,8.4-2.16,25.83-2.16,25.83l-19.73-14.03-1.73-7.43"/><path class="cls-6" d="m314.78,411.16l-.06-.05-19.76-14.05-1.74-7.5.03-.03s3.12-3.23,7.56-5.35c4.11-1.96,10.25-3.39,16.18.98,2.55,1.88,4.06,4.37,4.48,7.4,1.16,8.44-6.55,18.45-6.62,18.55l-.05.06Zm-19.68-14.19l19.64,13.97c.65-.86,7.65-10.34,6.54-18.36-.41-2.98-1.9-5.43-4.41-7.29-5.86-4.32-11.94-2.91-16-.96-4.18,2-7.15,4.95-7.48,5.29l1.71,7.36Z"/><path class="cls-1" d="m293.3,389.59s-9.76-15.88-24.22-5.53c-14.46,10.35,2.76,26.99,2.76,26.99l16.23-12.75,5.23-8.71Z"/><path class="cls-6" d="m271.84,411.16l-.05-.05c-.09-.09-9.18-8.98-8.54-17.72.27-3.68,2.22-6.84,5.78-9.39,4.17-2.98,8.35-4.08,12.44-3.25,7.33,1.48,11.86,8.73,11.9,8.8l.03.04-5.28,8.78-16.29,12.79Zm6.99-30.52c-3.2,0-6.45,1.17-9.69,3.49-3.53,2.52-5.45,5.64-5.72,9.27-.61,8.33,7.7,16.81,8.44,17.54l16.16-12.69,5.2-8.66c-.38-.59-4.8-7.28-11.77-8.69-.87-.18-1.74-.26-2.62-.26Z"/><rect class="cls-1" x="278.13" y="395.87" width="30.35" height="30.35" transform="translate(376.56 -87) rotate(45)"/><path class="cls-6" d="m293.3,432.62l-21.58-21.58,21.58-21.58,21.58,21.58-21.58,21.58Zm-21.35-21.58l21.35,21.35,21.35-21.35-21.35-21.35-21.35,21.35Z"/><rect class="cls-4" x="288.23" y="391.65" width="10.1" height="10.1" transform="translate(366.41 -91.19) rotate(45)"/><path class="cls-6" d="m293.28,403.96l-7.26-7.26,7.26-7.26,7.26,7.26-7.26,7.26Zm-7.03-7.26l7.03,7.03,7.03-7.03-7.03-7.03-7.03,7.03Z"/><rect class="cls-4" x="288.23" y="405.97" width="10.1" height="10.1" transform="translate(376.54 -86.99) rotate(45)"/><path class="cls-6" d="m293.28,418.28l-7.26-7.26,7.26-7.26,7.26,7.26-7.26,7.26Zm-7.03-7.26l7.03,7.03,7.03-7.03-7.03-7.03-7.03,7.03Z"/><rect class="cls-4" x="302.57" y="406" width="10.1" height="10.1" transform="translate(380.76 -97.13) rotate(45)"/><path class="cls-6" d="m307.62,418.3l-7.26-7.26,7.26-7.26,7.26,7.26-7.26,7.26Zm-7.03-7.26l7.03,7.03,7.03-7.03-7.03-7.03-7.03,7.03Z"/><rect class="cls-4" x="273.88" y="406" width="10.1" height="10.1" transform="translate(372.35 -76.84) rotate(45)"/><path class="cls-6" d="m278.93,418.3l-7.26-7.26,7.26-7.26,7.26,7.26-7.26,7.26Zm-7.03-7.26l7.03,7.03,7.03-7.03-7.03-7.03-7.03,7.03Z"/><rect class="cls-4" x="288.25" y="420.32" width="10.1" height="10.1" transform="translate(386.69 -82.81) rotate(45)"/><path class="cls-6" d="m293.3,432.62l-7.26-7.26,7.26-7.26,7.26,7.26-7.26,7.26Zm-7.03-7.26l7.03,7.03,7.03-7.03-7.03-7.03-7.03,7.03Z"/><rect class="cls-1" x="335.82" y="493.67" width="7.01" height="24.18" rx="1.51" ry="1.51"/><path class="cls-6" d="m342.22,517.94h-5.78c-.38,0-.7-.31-.7-.7v-22.95c0-.38.31-.7.7-.7h5.78c.38,0,.7.31.7.7v22.95c0,.38-.31.7-.7.7Zm-5.78-24.18c-.29,0-.53.24-.53.53v22.95c0,.29.24.53.53.53h5.78c.29,0,.53-.24.53-.53v-22.95c0-.29-.24-.53-.53-.53h-5.78Z"/><path class="cls-4" d="m338.84,517.56s12.21-12.77,23.62-4.37c11.41,8.4-2.16,25.83-2.16,25.83l-19.73-14.03-1.73-7.43"/><path class="cls-6" d="m360.32,539.13l-.06-.05-19.76-14.05-1.74-7.5.03-.03s3.12-3.23,7.56-5.35c4.11-1.96,10.25-3.39,16.18.98,2.55,1.88,4.06,4.37,4.48,7.4,1.16,8.44-6.55,18.45-6.62,18.55l-.05.06Zm-19.68-14.19l19.64,13.97c.65-.86,7.65-10.34,6.54-18.36-.41-2.98-1.9-5.43-4.41-7.29-5.86-4.32-11.94-2.91-16-.96-4.18,2-7.15,4.95-7.48,5.29l1.71,7.36Z"/><path class="cls-1" d="m338.84,517.56s-9.76-15.88-24.22-5.53c-14.46,10.35,2.76,26.99,2.76,26.99l16.23-12.75,5.23-8.71Z"/><path class="cls-6" d="m317.37,539.13l-.05-.05c-.09-.09-9.18-8.98-8.54-17.72.27-3.68,2.22-6.84,5.78-9.39,4.17-2.98,8.35-4.08,12.44-3.25,7.33,1.48,11.86,8.73,11.9,8.8l.03.04-5.28,8.78-16.29,12.79Zm6.99-30.52c-3.2,0-6.45,1.17-9.69,3.49-3.53,2.52-5.45,5.64-5.72,9.27-.61,8.33,7.7,16.81,8.44,17.54l16.16-12.69,5.2-8.66c-.38-.59-4.8-7.28-11.77-8.69-.87-.18-1.74-.26-2.62-.26Z"/><rect class="cls-1" x="323.66" y="523.85" width="30.35" height="30.35" transform="translate(480.39 -81.72) rotate(45)"/><path class="cls-6" d="m338.84,560.6l-21.58-21.58,21.58-21.58,21.58,21.58-21.58,21.58Zm-21.35-21.58l21.35,21.35,21.35-21.35-21.35-21.35-21.35,21.35Z"/><rect class="cls-4" x="333.76" y="519.63" width="10.1" height="10.1" transform="translate(470.24 -85.9) rotate(45)"/><path class="cls-6" d="m338.81,531.93l-7.26-7.26,7.26-7.26,7.26,7.26-7.26,7.26Zm-7.03-7.26l7.03,7.03,7.03-7.03-7.03-7.03-7.03,7.03Z"/><rect class="cls-4" x="333.76" y="533.95" width="10.1" height="10.1" transform="translate(480.36 -81.71) rotate(45)"/><path class="cls-6" d="m338.81,546.25l-7.26-7.26,7.26-7.26,7.26,7.26-7.26,7.26Zm-7.03-7.26l7.03,7.03,7.03-7.03-7.03-7.03-7.03,7.03Z"/><rect class="cls-4" x="348.11" y="533.97" width="10.1" height="10.1" transform="translate(484.58 -91.84) rotate(45)"/><path class="cls-6" d="m353.16,546.28l-7.26-7.26,7.26-7.26,7.26,7.26-7.26,7.26Zm-7.03-7.26l7.03,7.03,7.03-7.03-7.03-7.03-7.03,7.03Z"/><rect class="cls-4" x="319.42" y="533.97" width="10.1" height="10.1" transform="translate(476.18 -71.56) rotate(45)"/><path class="cls-6" d="m324.47,546.28l-7.26-7.26,7.26-7.26,7.26,7.26-7.26,7.26Zm-7.03-7.26l7.03,7.03,7.03-7.03-7.03-7.03-7.03,7.03Z"/><rect class="cls-4" x="333.79" y="548.29" width="10.1" height="10.1" transform="translate(490.52 -77.52) rotate(45)"/><path class="cls-6" d="m338.84,560.6l-7.26-7.26,7.26-7.26,7.26,7.26-7.26,7.26Zm-7.03-7.26l7.03,7.03,7.03-7.03-7.03-7.03-7.03,7.03Z"/><rect class="cls-1" x="497.04" y="538.88" width="7.01" height="24.18" rx="1.51" ry="1.51"/><path class="cls-6" d="m503.43,563.15h-5.78c-.38,0-.7-.31-.7-.7v-22.95c0-.38.31-.7.7-.7h5.78c.38,0,.7.31.7.7v22.95c0,.38-.31.7-.7.7Zm-5.78-24.18c-.29,0-.53.24-.53.53v22.95c0,.29.24.53.53.53h5.78c.29,0,.53-.24.53-.53v-22.95c0-.29-.24-.53-.53-.53h-5.78Z"/><path class="cls-4" d="m500.05,562.77s12.21-12.77,23.62-4.37c11.41,8.4-2.16,25.83-2.16,25.83l-19.73-14.03-1.73-7.43"/><path class="cls-6" d="m521.53,584.34l-.06-.05-19.76-14.05-1.74-7.5.03-.03s3.12-3.23,7.56-5.35c4.11-1.96,10.25-3.39,16.18.98,2.55,1.88,4.06,4.37,4.48,7.4,1.16,8.44-6.55,18.45-6.62,18.55l-.05.06Zm-19.68-14.19l19.64,13.97c.65-.86,7.65-10.34,6.54-18.36-.41-2.98-1.9-5.43-4.41-7.29-5.86-4.32-11.94-2.91-16-.96-4.18,2-7.15,4.95-7.48,5.29l1.71,7.36Z"/><path class="cls-1" d="m500.05,562.77s-9.76-15.88-24.22-5.53c-14.46,10.35,2.76,26.99,2.76,26.99l16.23-12.75,5.23-8.71Z"/><path class="cls-6" d="m478.58,584.34l-.05-.05c-.09-.09-9.18-8.98-8.54-17.72.27-3.68,2.22-6.84,5.78-9.39,4.17-2.98,8.35-4.08,12.44-3.25,7.33,1.48,11.86,8.73,11.9,8.8l.03.04-5.28,8.78-16.29,12.79Zm6.99-30.52c-3.2,0-6.45,1.17-9.69,3.49-3.53,2.52-5.45,5.64-5.72,9.27-.61,8.33,7.7,16.81,8.44,17.54l16.16-12.69,5.2-8.66c-.38-.59-4.8-7.28-11.77-8.69-.87-.18-1.74-.26-2.62-.26Z"/><rect class="cls-1" x="484.88" y="569.05" width="30.35" height="30.35" transform="translate(559.57 -182.47) rotate(45)"/><path class="cls-6" d="m500.05,605.81l-21.58-21.58,21.58-21.58,21.58,21.58-21.58,21.58Zm-21.35-21.58l21.35,21.35,21.35-21.35-21.35-21.35-21.35,21.35Z"/><rect class="cls-4" x="494.98" y="564.83" width="10.1" height="10.1" transform="translate(549.42 -186.66) rotate(45)"/><path class="cls-6" d="m500.03,577.14l-7.26-7.26,7.26-7.26,7.26,7.26-7.26,7.26Zm-7.03-7.26l7.03,7.03,7.03-7.03-7.03-7.03-7.03,7.03Z"/><rect class="cls-4" x="494.98" y="579.15" width="10.1" height="10.1" transform="translate(559.55 -182.46) rotate(45)"/><path class="cls-6" d="m500.03,591.46l-7.26-7.26,7.26-7.26,7.26,7.26-7.26,7.26Zm-7.03-7.26l7.03,7.03,7.03-7.03-7.03-7.03-7.03,7.03Z"/><rect class="cls-4" x="509.32" y="579.18" width="10.1" height="10.1" transform="translate(563.77 -192.6) rotate(45)"/><path class="cls-6" d="m514.37,591.49l-7.26-7.26,7.26-7.26,7.26,7.26-7.26,7.26Zm-7.03-7.26l7.03,7.03,7.03-7.03-7.03-7.03-7.03,7.03Z"/><rect class="cls-4" x="480.63" y="579.18" width="10.1" height="10.1" transform="translate(555.37 -172.31) rotate(45)"/><path class="cls-6" d="m485.68,591.49l-7.26-7.26,7.26-7.26,7.26,7.26-7.26,7.26Zm-7.03-7.26l7.03,7.03,7.03-7.03-7.03-7.03-7.03,7.03Z"/><rect class="cls-4" x="495" y="593.5" width="10.1" height="10.1" transform="translate(569.7 -178.28) rotate(45)"/><path class="cls-6" d="m500.05,605.81l-7.26-7.26,7.26-7.26,7.26,7.26-7.26,7.26Zm-7.03-7.26l7.03,7.03,7.03-7.03-7.03-7.03-7.03,7.03Z"/><circle class="cls-4" cx="324.04" cy="327.23" r="19.44"/><path class="cls-1" d="m308.73,322.14c-.41.58-1.71,3.03-.87,7.27.1.48.97,4.65,3.22,5.84.26.14,1,.53,1.37.24.28-.21.24-.71.18-1.14-.27-1.75-1.14-2.75-1.73-4-.04-.09-.75-1.61-.84-3.47-.14-2.92,1.35-5.01.6-5.56-.22-.16-.56-.13-.66-.12-.66.06-1.09.68-1.27.93Z"/><circle class="cls-4" cx="354.4" cy="411.35" r="19.44"/><path class="cls-1" d="m339.08,406.27c-.41.58-1.71,3.03-.87,7.27.1.48.97,4.65,3.22,5.84.26.14,1,.53,1.37.24.28-.21.24-.71.18-1.14-.27-1.75-1.14-2.75-1.73-4-.04-.09-.75-1.61-.84-3.47-.14-2.92,1.35-5.01.6-5.56-.22-.16-.56-.13-.66-.12-.66.06-1.09.68-1.27.93Z"/><circle class="cls-4" cx="500.96" cy="352.15" r="19.44"/><path class="cls-1" d="m485.64,347.06c-.41.58-1.71,3.03-.87,7.27.1.48.97,4.65,3.22,5.84.26.14,1,.53,1.37.24.28-.21.24-.71.18-1.14-.27-1.75-1.14-2.75-1.73-4-.04-.09-.75-1.61-.84-3.47-.14-2.92,1.35-5.01.6-5.56-.22-.16-.56-.13-.66-.12-.66.06-1.09.68-1.27.93Z"/><circle class="cls-4" cx="416.95" cy="301.72" r="19.44"/><path class="cls-1" d="m401.63,296.63c-.41.58-1.71,3.03-.87,7.27.1.48.97,4.65,3.22,5.84.26.14,1,.53,1.37.24.28-.21.24-.71.18-1.14-.27-1.75-1.14-2.75-1.73-4-.04-.09-.75-1.61-.84-3.47-.14-2.92,1.35-5.01.6-5.56-.22-.16-.56-.13-.66-.12-.66.06-1.09.68-1.27.93Z"/><circle class="cls-4" cx="436.4" cy="471.27" r="19.44"/><path class="cls-1" d="m421.08,466.18c-.41.58-1.71,3.03-.87,7.27.1.48.97,4.65,3.22,5.84.26.14,1,.53,1.37.24.28-.21.24-.71.18-1.14-.27-1.75-1.14-2.75-1.73-4-.04-.09-.75-1.61-.84-3.47-.14-2.92,1.35-5.01.6-5.56-.22-.16-.56-.13-.66-.12-.66.06-1.09.68-1.27.93Z"/><circle class="cls-4" cx="529.6" cy="514.87" r="19.44"/><path class="cls-1" d="m514.28,509.78c-.41.58-1.71,3.03-.87,7.27.1.48.97,4.65,3.22,5.84.26.14,1,.53,1.37.24.28-.21.24-.71.18-1.14-.27-1.75-1.14-2.75-1.73-4-.04-.09-.75-1.61-.84-3.47-.14-2.92,1.35-5.01.6-5.56-.22-.16-.56-.13-.66-.12-.66.06-1.09.68-1.27.93Z"/><circle class="cls-4" cx="212.06" cy="471.27" r="19.44"/><path class="cls-1" d="m196.74,466.18c-.41.58-1.71,3.03-.87,7.27.1.48.97,4.65,3.22,5.84.26.14,1,.53,1.37.24.28-.21.24-.71.18-1.14-.27-1.75-1.14-2.75-1.73-4-.04-.09-.75-1.61-.84-3.47-.14-2.92,1.35-5.01.6-5.56-.22-.16-.56-.13-.66-.12-.66.06-1.09.68-1.27.93Z"/><circle class="cls-4" cx="254.37" cy="584.34" r="19.44"/><path class="cls-1" d="m239.05,579.25c-.41.58-1.71,3.03-.87,7.27.1.48.97,4.65,3.22,5.84.26.14,1,.53,1.37.24.28-.21.24-.71.18-1.14-.27-1.75-1.14-2.75-1.73-4-.04-.09-.75-1.61-.84-3.47-.14-2.92,1.35-5.01.6-5.56-.22-.16-.56-.13-.66-.12-.66.06-1.09.68-1.27.93Z"/><circle class="cls-4" cx="434.13" cy="568.97" r="19.44"/><path class="cls-1" d="m418.81,563.88c-.41.58-1.71,3.03-.87,7.27.1.48.97,4.65,3.22,5.84.26.14,1,.53,1.37.24.28-.21.24-.71.18-1.14-.27-1.75-1.14-2.75-1.73-4-.04-.09-.75-1.61-.84-3.47-.14-2.92,1.35-5.01.6-5.56-.22-.16-.56-.13-.66-.12-.66.06-1.09.68-1.27.93Z"/><rect class="cls-8" x="1201.77" y="173.8" width="360.85" height="137.03" rx="12" ry="12"/><path class="cls-1" d="m1235.92,186.46c-3.09.45-14.34,3.72-19.75,19.37-.61,1.77-5.74,17.29,1.85,28.19.87,1.24,3.36,4.83,5.7,5.16,1.73.25,2.66-1.39,3.28-2.88,2.59-6.18.85-12.07.87-17.8,0-.4.11-7.33,3.76-13.27,5.74-9.34,16.99-10.95,14.79-15.02-.65-1.21-2.26-2.2-2.71-2.49-3.14-1.95-6.41-1.47-7.79-1.27Z"/><path class="cls-1" d="m1332.29,206.66c5.35,0,9.72,1.72,13.1,5.16v-1.15c0-2.13.85-3.19,2.54-3.19,1.85,0,2.78,1.17,2.78,3.52v.49c0,.11-.08.93-.25,2.46-.16,1.53-.25,3.36-.25,5.48,0,.28.05,1.15.16,2.62l.25,3.28c.05.27.08.66.08,1.15,0,2.62-1.01,3.93-3.03,3.93-2.13,0-3.19-1.09-3.19-3.27v-.41l.16-2.21c.05-.76.08-1.36.08-1.8,0-3.28-1.1-5.84-3.32-7.7-2.21-1.85-5.25-2.78-9.13-2.78-3.55,0-6.37.88-8.47,2.62-2.1,1.75-3.15,4.09-3.15,7.04,0,3.44,1.56,5.98,4.67,7.62,1.75.87,4.8,1.67,9.17,2.37,6.49,1.04,10.94,2.46,13.35,4.26,3.6,2.67,5.4,6.47,5.4,11.38s-1.84,9.31-5.51,12.53c-3.68,3.22-8.43,4.83-14.25,4.83-6.21,0-11.35-1.97-15.44-5.89v1.21c.22.86.33,1.43.33,1.69,0,1.99-1.01,2.99-3.02,2.99-2.19,0-3.28-1.15-3.28-3.44,0-.27.08-.49.25-.66l.37-4.26c.19-2.13.28-3.49.28-4.09,0-1.09-.15-2.73-.45-4.91-.3-2.18-.45-3.82-.45-4.91,0-2.46,1.04-3.68,3.11-3.68s3.19,1.23,3.19,3.7v3.37c0,4.11,1.31,7.37,3.92,9.78,2.61,2.41,6.15,3.62,10.61,3.62,4.14,0,7.43-.98,9.88-2.95s3.67-4.64,3.67-8.02c0-5.18-3.27-8.35-9.82-9.5l-4.67-.82c-4.64-.82-8.24-1.77-10.81-2.86-2.35-1.03-4.22-2.66-5.61-4.87s-2.09-4.71-2.09-7.49c0-4.8,1.75-8.71,5.24-11.71,3.49-3,8.02-4.5,13.59-4.5Z"/><path class="cls-1" d="m1373.55,224.51v2.62c3.06-4.26,7.23-6.39,12.53-6.39s9.8,1.88,13.02,5.65c3.22,3.77,4.83,8.87,4.83,15.31,0,6.93-1.71,12.46-5.12,16.58-3.41,4.12-7.98,6.18-13.71,6.18-4.75,0-8.6-1.67-11.54-4.99v6.8c0,2.07.05,3.41.16,4.01.33,1.69,1.12,2.54,2.37,2.54.38,0,.95-.08,1.72-.25.76-.16,1.34-.24,1.72-.24,1.75,0,2.62.9,2.62,2.7s-1.14,2.7-3.43,2.7c-.82,0-2.04-.11-3.67-.33-1.2-.16-2.99-.24-5.38-.24-1.31,0-2.39.05-3.26.16-2.18.27-3.62.41-4.32.41-.92,0-1.71-.28-2.37-.85-.65-.56-.98-1.22-.98-1.98,0-1.72.92-2.58,2.76-2.58.32,0,.84.07,1.54.21.92.19,1.59.28,2.03.28,1.03,0,1.66-.53,1.91-1.6s.39-4.03.45-8.88v-31.6c-.05-2.51-.76-3.77-2.11-3.77-.38,0-.96.1-1.75.29-.78.19-1.39.29-1.82.29-2,0-3-.9-3-2.7s1.2-2.62,3.6-2.62c.6,0,1.25.03,1.97.08,1.36.11,2.37.16,3.03.16.49,0,1.2-.04,2.13-.12s1.61-.12,2.05-.12c1.36,0,2.05.76,2.05,2.29Zm1.23,9.99c-.49,2.13-.77,4.72-.82,7.78,0,.22-.03.63-.08,1.23v1.15c0,3.66.3,6.32.9,7.98.6,1.67,1.79,3.15,3.56,4.46,1.77,1.31,3.97,1.97,6.59,1.97,3.93,0,6.97-1.43,9.13-4.3,2.16-2.86,3.23-6.94,3.23-12.24,0-10.92-3.88-16.37-11.63-16.37-2.62,0-4.95.79-7,2.37-2.05,1.58-3.34,3.58-3.89,5.98Z"/><path class="cls-1" d="m1423.41,239.33v10.64c0,2.73.03,4.34.08,4.83.27,2.46,1.01,3.68,2.21,3.68.27,0,.95-.14,2.05-.41.27-.11.68-.16,1.23-.16,2.07,0,3.11.9,3.11,2.7,0,.77-.34,1.42-1.03,1.97-.68.54-1.55.82-2.59.82-.88,0-2.2-.12-3.98-.37-1.78-.25-3.11-.37-3.99-.37-1.42,0-3.01.11-4.76.33-2.14.27-3.56.41-4.27.41-2.19,0-3.29-.93-3.29-2.78s.94-2.7,2.81-2.7c.44,0,1.09.08,1.94.24s1.5.25,1.94.25c1.32,0,2.12-1.75,2.4-5.24v-20.96c-.28-3.44-1.1-5.16-2.48-5.16-.44,0-1.06.1-1.86.29s-1.39.29-1.78.29c-1.98,0-2.97-.87-2.97-2.62,0-1.85,1.2-2.78,3.6-2.78,1.04,0,1.77.03,2.21.08,1.75.22,2.86.33,3.36.33.44,0,1.11-.07,2.01-.2.9-.14,1.57-.2,2.01-.2,1.58,0,2.37,1.06,2.37,3.19,0,.22-.02.55-.07.98-.04.44-.06.76-.06.98-.05.44-.09,2.13-.13,5.08-.04,2.24-.07,4.53-.07,6.88Zm-4.26-21.45c-1.26,0-2.33-.45-3.23-1.35-.9-.9-1.35-1.98-1.35-3.23s.45-2.32,1.35-3.19,1.98-1.31,3.23-1.31,2.33.44,3.23,1.31,1.35,1.94,1.35,3.19-.45,2.33-1.35,3.23c-.9.9-1.98,1.35-3.23,1.35Z"/><path class="cls-1" d="m1448.38,228.9v25.42c.05,2.78.8,4.17,2.23,4.17.33,0,1.02-.14,2.07-.41.66-.11,1.1-.16,1.32-.16,1.82,0,2.73.93,2.73,2.78s-1.12,2.7-3.35,2.7c-.87,0-2.26-.11-4.16-.33s-3.37-.33-4.41-.33c-.87,0-2.18.11-3.92.33-1.74.22-3.02.33-3.83.33h-.41c-2.28,0-3.43-.98-3.43-2.95,0-1.69.94-2.54,2.81-2.54h.58c.33.08.58.11.74.11,1.38.31,2.17.46,2.4.46.99,0,1.61-.42,1.86-1.27.25-.85.4-3.05.45-6.61l.08-5.75v-27.36c-.05-1.64-.14-2.74-.25-3.29-.38-1.26-1.15-1.89-2.29-1.89-.16,0-.87.11-2.13.33-.6.11-1.09.16-1.47.16-1.86,0-2.78-.87-2.78-2.62s1.09-2.7,3.27-2.7c.6,0,1.12.03,1.56.08l1.96.25c.87.11,1.61.16,2.21.16.55,0,1.36-.08,2.46-.25,1.09-.16,1.91-.25,2.46-.25,1.25,0,1.88.79,1.88,2.37,0,.54-.03.95-.08,1.22-.38,4.2-.57,10.14-.57,17.82Z"/><rect class="cls-8" x="1198.2" y="386.84" width="367.99" height="139.74" rx="12" ry="12"/><path class="cls-1" d="m1233.02,399.76c-3.15.46-14.63,3.8-20.14,19.75-.62,1.8-5.86,17.63,1.89,28.75.88,1.27,3.43,4.93,5.81,5.27,1.76.25,2.71-1.42,3.35-2.94,2.64-6.31.87-12.31.89-18.15,0-.4.11-7.47,3.83-13.53,5.85-9.52,17.33-11.16,15.09-15.32-.67-1.23-2.3-2.25-2.77-2.53-3.2-1.98-6.54-1.5-7.94-1.29Z"/><path class="cls-1" d="m1261.44,426.67c4.55,0,8.26,1.46,11.13,4.38v-.97c0-1.81.72-2.71,2.16-2.71,1.58,0,2.36,1,2.36,2.99v.42c0,.1-.07.79-.21,2.09-.14,1.3-.21,2.85-.21,4.66,0,.23.05.97.14,2.23l.21,2.78c.05.23.07.56.07.97,0,2.23-.86,3.34-2.58,3.34-1.81,0-2.71-.93-2.71-2.78v-.35l.14-1.88c.05-.65.07-1.16.07-1.53,0-2.78-.94-4.96-2.82-6.54-1.88-1.58-4.46-2.36-7.76-2.36-3.01,0-5.42.74-7.2,2.23-1.79,1.49-2.68,3.48-2.68,5.98,0,2.92,1.32,5.08,3.97,6.47,1.48.74,4.08,1.42,7.79,2.02,5.52.88,9.3,2.09,11.34,3.62,3.06,2.27,4.59,5.5,4.59,9.67s-1.56,7.91-4.68,10.64c-3.13,2.74-7.16,4.11-12.11,4.11-5.27,0-9.65-1.67-13.12-5.01v1.03c.18.73.28,1.21.28,1.44,0,1.69-.86,2.54-2.57,2.54-1.86,0-2.79-.97-2.79-2.92,0-.23.07-.42.21-.56l.32-3.62c.16-1.81.24-2.97.24-3.48,0-.93-.13-2.32-.38-4.17-.26-1.85-.38-3.25-.38-4.17,0-2.09.88-3.13,2.65-3.13s2.71,1.05,2.71,3.14v2.86c0,3.49,1.11,6.26,3.33,8.31,2.22,2.05,5.23,3.07,9.02,3.07,3.52,0,6.31-.84,8.39-2.5,2.08-1.67,3.12-3.94,3.12-6.82,0-4.41-2.78-7.1-8.35-8.07l-3.97-.7c-3.94-.7-7-1.51-9.18-2.43-2-.88-3.58-2.26-4.77-4.14-1.18-1.88-1.78-4-1.78-6.37,0-4.08,1.49-7.4,4.45-9.95,2.97-2.55,6.82-3.83,11.55-3.83Z"/><path class="cls-1" d="m1296.5,441.84v2.23c2.6-3.62,6.15-5.43,10.64-5.43s8.33,1.6,11.06,4.8c2.74,3.2,4.1,7.54,4.1,13.01,0,5.89-1.45,10.59-4.35,14.09-2.9,3.5-6.78,5.25-11.65,5.25-4.04,0-7.31-1.41-9.81-4.24v5.78c0,1.76.05,2.9.14,3.41.28,1.44.95,2.16,2.02,2.16.32,0,.81-.07,1.46-.21.65-.14,1.13-.21,1.46-.21,1.48,0,2.23.77,2.23,2.3s-.97,2.3-2.91,2.3c-.69,0-1.73-.09-3.12-.28-1.02-.14-2.54-.21-4.57-.21-1.11,0-2.03.05-2.77.14-1.85.23-3.08.35-3.68.35-.79,0-1.46-.24-2.01-.72s-.83-1.04-.83-1.68c0-1.46.78-2.19,2.34-2.19.27,0,.71.06,1.31.18.78.16,1.35.24,1.72.24.87,0,1.41-.45,1.62-1.36.21-.91.33-3.42.38-7.55v-26.86c-.05-2.13-.64-3.2-1.79-3.2-.32,0-.82.08-1.48.24-.67.16-1.18.24-1.55.24-1.7,0-2.55-.77-2.55-2.3s1.02-2.23,3.06-2.23c.51,0,1.06.02,1.67.07,1.16.1,2.02.14,2.58.14.42,0,1.02-.03,1.81-.1s1.37-.1,1.74-.1c1.16,0,1.74.65,1.74,1.95Zm1.04,8.49c-.42,1.81-.65,4.01-.7,6.61,0,.19-.02.53-.07,1.04v.97c0,3.11.25,5.37.77,6.78.51,1.42,1.52,2.68,3.03,3.79,1.51,1.11,3.37,1.67,5.6,1.67,3.34,0,5.92-1.22,7.76-3.65,1.83-2.43,2.75-5.9,2.75-10.4,0-9.28-3.29-13.92-9.88-13.92-2.23,0-4.21.67-5.95,2.02s-2.84,3.04-3.3,5.08Z"/><path class="cls-1" d="m1338.88,454.43v9.05c0,2.32.02,3.69.07,4.1.23,2.09.86,3.13,1.88,3.13.23,0,.81-.12,1.74-.35.23-.09.58-.14,1.04-.14,1.76,0,2.64.77,2.64,2.29,0,.65-.29,1.21-.87,1.67-.58.46-1.32.7-2.2.7-.75,0-1.87-.1-3.39-.31-1.51-.21-2.64-.31-3.39-.31-1.21,0-2.56.1-4.05.28-1.82.23-3.03.35-3.63.35-1.86,0-2.79-.79-2.79-2.37s.79-2.29,2.39-2.29c.37,0,.92.07,1.65.21.72.14,1.28.21,1.65.21,1.12,0,1.8-1.48,2.04-4.45v-17.81c-.24-2.92-.94-4.38-2.11-4.38-.38,0-.9.08-1.58.24-.68.16-1.18.24-1.51.24-1.69,0-2.53-.74-2.53-2.23,0-1.58,1.02-2.36,3.06-2.36.88,0,1.51.02,1.88.07,1.48.19,2.43.28,2.85.28.37,0,.94-.06,1.71-.17s1.33-.17,1.71-.17c1.34,0,2.02.9,2.02,2.71,0,.19-.02.46-.06.83-.04.37-.05.65-.05.84-.04.37-.07,1.81-.11,4.31-.04,1.9-.05,3.85-.05,5.84Zm-3.62-18.23c-1.07,0-1.98-.38-2.75-1.15s-1.15-1.68-1.15-2.75.38-1.97,1.15-2.71c.77-.74,1.68-1.11,2.75-1.11s1.98.37,2.75,1.11c.77.74,1.15,1.65,1.15,2.71s-.38,1.98-1.15,2.75-1.68,1.15-2.75,1.15Z"/><path class="cls-1" d="m1360.1,445.57v21.6c.05,2.36.68,3.54,1.9,3.54.28,0,.87-.12,1.76-.35.56-.09.94-.14,1.13-.14,1.54,0,2.32.79,2.32,2.36s-.95,2.3-2.84,2.3c-.74,0-1.92-.09-3.54-.28s-2.87-.28-3.74-.28c-.74,0-1.85.09-3.33.28-1.48.19-2.57.28-3.26.28h-.35c-1.94,0-2.91-.84-2.91-2.5,0-1.44.79-2.16,2.39-2.16h.49c.28.06.49.1.63.1,1.17.26,1.85.39,2.04.39.84,0,1.37-.36,1.58-1.08s.34-2.6.39-5.62l.07-4.89v-23.25c-.05-1.4-.12-2.33-.21-2.79-.32-1.07-.97-1.61-1.95-1.61-.14,0-.74.09-1.81.28-.51.1-.93.14-1.25.14-1.58,0-2.36-.74-2.36-2.23s.93-2.3,2.78-2.3c.51,0,.95.02,1.32.07l1.67.21c.74.09,1.37.14,1.88.14.46,0,1.16-.07,2.09-.21.93-.14,1.62-.21,2.09-.21,1.07,0,1.6.67,1.6,2.02,0,.46-.02.81-.07,1.04-.32,3.57-.49,8.62-.49,15.15Z"/><path class="cls-1" d="m1399.34,454.43v9.05c0,2.32.02,3.69.07,4.1.23,2.09.86,3.13,1.88,3.13.23,0,.81-.12,1.74-.35.23-.09.58-.14,1.04-.14,1.76,0,2.64.77,2.64,2.29,0,.65-.29,1.21-.87,1.67-.58.46-1.32.7-2.2.7-.75,0-1.87-.1-3.39-.31-1.51-.21-2.64-.31-3.39-.31-1.21,0-2.56.1-4.05.28-1.82.23-3.03.35-3.63.35-1.86,0-2.79-.79-2.79-2.37s.79-2.29,2.39-2.29c.37,0,.92.07,1.65.21.72.14,1.28.21,1.65.21,1.12,0,1.8-1.48,2.04-4.45v-17.81c-.24-2.92-.94-4.38-2.11-4.38-.38,0-.9.08-1.58.24-.68.16-1.18.24-1.51.24-1.69,0-2.53-.74-2.53-2.23,0-1.58,1.02-2.36,3.06-2.36.88,0,1.51.02,1.88.07,1.48.19,2.43.28,2.85.28.37,0,.94-.06,1.71-.17s1.33-.17,1.71-.17c1.34,0,2.02.9,2.02,2.71,0,.19-.02.46-.06.83-.04.37-.05.65-.05.84-.04.37-.07,1.81-.11,4.31-.04,1.9-.05,3.85-.05,5.84Zm-3.62-18.23c-1.07,0-1.98-.38-2.75-1.15s-1.15-1.68-1.15-2.75.38-1.97,1.15-2.71c.77-.74,1.68-1.11,2.75-1.11s1.98.37,2.75,1.11c.77.74,1.15,1.65,1.15,2.71s-.38,1.98-1.15,2.75-1.68,1.15-2.75,1.15Z"/><path class="cls-1" d="m1426.12,438.64c1.2,0,2.57.19,4.1.56.23-4.55,2.88-6.82,7.93-6.82,2.13,0,3.92.56,5.36,1.67,1.44,1.11,2.16,2.53,2.16,4.24,0,1.11-.36,2.07-1.08,2.85-.72.79-1.57,1.18-2.54,1.18-.74,0-1.39-.25-1.95-.77-.55-.51-.83-1.11-.83-1.81,0-.74.51-1.51,1.53-2.29-.74-.93-1.69-1.39-2.85-1.39-2.46,0-3.71,1.53-3.76,4.59,3.52,2.36,5.29,5.54,5.29,9.53,0,3.2-1.21,5.87-3.63,8s-5.44,3.2-9.07,3.2c-2.56,0-5.21-.6-7.96-1.81-.74-.32-1.37-.49-1.88-.49-.65,0-1.23.29-1.74.87-.51.58-.77,1.27-.77,2.05,0,2.41,2.44,3.62,7.32,3.62h2.51c4.42,0,8,.42,10.74,1.25,2.56.79,4.58,2.01,6.07,3.68,1.49,1.66,2.23,3.54,2.23,5.62,0,3.37-1.57,6.04-4.7,8.01s-7.37,2.95-12.7,2.95-9.52-.93-12.56-2.78c-3.04-1.86-4.56-4.41-4.56-7.65,0-3.76,2.11-6.43,6.33-8-3.8-1.48-5.71-3.71-5.71-6.68,0-3.25,1.9-5.47,5.71-6.68-1.21-1.62-1.81-3.53-1.81-5.71,0-3.15,1.22-5.78,3.65-7.86,2.43-2.09,5.49-3.13,9.15-3.13Zm.28,31.59c-3.71,0-6.63.55-8.77,1.67-2.13,1.11-3.2,2.62-3.2,4.52s1.04,3.4,3.13,4.49c2.09,1.09,4.89,1.64,8.42,1.64,3.71,0,6.65-.56,8.8-1.67,2.16-1.11,3.24-2.6,3.24-4.45,0-1.95-1.02-3.47-3.06-4.56s-4.89-1.64-8.56-1.64Zm-.07-27c-2.04,0-3.78.6-5.22,1.81-1.44,1.21-2.23,2.71-2.37,4.52v.42c0,2.04.7,3.69,2.09,4.94s3.2,1.88,5.43,1.88,4.21-.63,5.67-1.88,2.19-2.85,2.19-4.8-.74-3.64-2.23-4.94c-1.48-1.3-3.34-1.95-5.56-1.95Z"/><path class="cls-1" d="m1477.96,454.16c0,1.76-.12,2.84-.35,3.24-.23.39-.9.59-2.02.59h-22.12c-.6,0-1,.08-1.18.24-.19.16-.28.43-.28.8,0,3.48,1.04,6.38,3.13,8.7,2.09,2.32,4.68,3.48,7.79,3.48,2.04,0,3.91-.56,5.6-1.67,1.69-1.11,2.79-2.53,3.31-4.24l.63-2.02c.32-1.11,1.09-1.67,2.3-1.67,1.71,0,2.57.88,2.57,2.65,0,3.01-1.53,5.69-4.59,8.04s-6.54,3.51-10.44,3.51c-4.87,0-8.74-1.64-11.62-4.91-2.88-3.27-4.31-7.66-4.31-13.18s1.53-10.25,4.59-13.78c3.06-3.52,7.05-5.29,11.97-5.29,4.36,0,7.96,1.46,10.79,4.38s4.24,6.63,4.24,11.13Zm-25.26-1.81c0,.65.51.97,1.53.97h16.63c.97,0,1.46-.32,1.46-.97,0-2.46-.93-4.59-2.78-6.4-1.86-1.81-4.04-2.71-6.54-2.71s-4.96.94-7.1,2.82c-2.14,1.88-3.2,3.98-3.2,6.3Z"/><path class="cls-1" d="m1493.75,441.95v1.98c2.78-3.52,6.49-5.29,11.13-5.29,2.5,0,4.87.64,7.1,1.91s3.73,2.86,4.52,4.77c.65,1.58.97,3.64.97,6.19v13.22c0,2,.02,3.18.07,3.55.23,1.58.86,2.37,1.88,2.37.42,0,.96-.06,1.64-.17.67-.12,1.15-.17,1.43-.17.6,0,1.12.21,1.57.63.44.42.66.93.66,1.53,0,.7-.28,1.28-.84,1.74-.56.46-1.23.7-2.02.7-.65,0-1.72-.09-3.2-.28-1.49-.19-2.88-.28-4.17-.28-1.21,0-2.2.05-2.99.14-2.32.28-3.55.42-3.69.42-1.86,0-2.78-.81-2.78-2.43,0-1.44.8-2.16,2.41-2.16.38,0,.8.05,1.28.14.9.19,1.47.28,1.7.28,1.13,0,1.75-1.28,1.85-3.83v-13.08c0-2.46-.12-4.15-.35-5.08-.42-1.76-1.32-3.13-2.7-4.1-1.52-1.07-3.26-1.6-5.2-1.6-3.7,0-6.35,1.32-7.97,3.97-1.11,1.81-1.66,4.89-1.66,9.25v9.25c0,2.04.14,3.43.42,4.17.28.74.79,1.11,1.53,1.11.37,0,.88-.08,1.53-.24.65-.16,1.18-.24,1.6-.24,1.44,0,2.16.78,2.16,2.33s-.93,2.26-2.78,2.26c-.37,0-1.58-.14-3.62-.42-1.02-.14-2.16-.21-3.41-.21-.97,0-2.27.1-3.9.28-2.04.23-3.2.35-3.48.35-1.95,0-2.92-.79-2.92-2.37,0-1.48.75-2.23,2.27-2.23.24,0,.67.07,1.31.21.64.14,1.26.21,1.88.21,1.42,0,2.15-1.35,2.2-4.04v-18.58c-.1-1.58-.3-2.65-.6-3.24-.31-.58-.84-.87-1.59-.87-.33,0-.82.06-1.45.17-.64.12-1.12.17-1.45.17-1.7,0-2.55-.74-2.55-2.23s1.04-2.3,3.13-2.3c.28,0,.51.02.7.07l2.58.28c.74,0,1.39-.06,1.95-.17,1.2-.12,1.83-.17,1.88-.17,1.35,0,2.02.71,2.02,2.12Z"/><rect class="cls-8" x="773.68" y="170.7" width="361.36" height="137.22" rx="12" ry="12"/><path class="cls-1" d="m807.87,183.38c-3.1.45-14.36,3.73-19.78,19.4-.61,1.77-5.75,17.32,1.85,28.23.87,1.24,3.37,4.84,5.7,5.17,1.73.25,2.66-1.39,3.29-2.89,2.59-6.19.85-12.09.87-17.83,0-.4.11-7.34,3.76-13.29,5.75-9.35,17.02-10.96,14.82-15.04-.65-1.21-2.26-2.21-2.72-2.49-3.14-1.95-6.42-1.47-7.8-1.27Z"/><path class="cls-1" d="m824.85,209.81c4.46,0,8.11,1.43,10.93,4.3v-.96c0-1.78.71-2.66,2.12-2.66,1.55,0,2.32.98,2.32,2.94v.41c0,.09-.07.78-.2,2.05-.14,1.28-.21,2.8-.21,4.58,0,.23.05.96.14,2.19l.21,2.73c.04.23.07.55.07.96,0,2.19-.84,3.28-2.53,3.28-1.78,0-2.66-.91-2.66-2.73v-.34l.14-1.84c.04-.64.07-1.14.07-1.5,0-2.73-.92-4.87-2.77-6.42-1.84-1.55-4.38-2.32-7.62-2.32-2.96,0-5.32.73-7.07,2.19-1.75,1.46-2.63,3.42-2.63,5.88,0,2.87,1.3,4.99,3.89,6.35,1.46.73,4.01,1.39,7.65,1.98,5.42.87,9.13,2.05,11.14,3.55,3.01,2.23,4.51,5.4,4.51,9.5s-1.53,7.77-4.6,10.45c-3.07,2.69-7.03,4.03-11.89,4.03-5.18,0-9.48-1.64-12.88-4.92v1.01c.18.72.27,1.19.27,1.41,0,1.66-.84,2.49-2.52,2.49-1.83,0-2.74-.96-2.74-2.87,0-.23.07-.41.21-.55l.31-3.55c.16-1.77.23-2.91.23-3.42,0-.91-.13-2.28-.38-4.1-.25-1.82-.38-3.19-.38-4.1,0-2.05.87-3.07,2.6-3.07s2.66,1.03,2.66,3.09v2.81c0,3.43,1.09,6.15,3.27,8.16,2.18,2.01,5.13,3.02,8.86,3.02,3.45,0,6.2-.82,8.24-2.46,2.04-1.64,3.07-3.87,3.07-6.7,0-4.33-2.73-6.97-8.2-7.92l-3.89-.69c-3.87-.68-6.88-1.48-9.02-2.39-1.96-.87-3.52-2.22-4.68-4.07-1.16-1.84-1.74-3.93-1.74-6.25,0-4.01,1.46-7.26,4.37-9.77,2.91-2.51,6.7-3.76,11.34-3.76Z"/><path class="cls-1" d="m867,247.46v-4.37c.05-1.87.87-2.8,2.46-2.8s2.39,1.05,2.39,3.14c0,4.97-.63,8.43-1.9,10.39-1.72,2.64-4.55,3.96-8.48,3.96-3.62,0-6.2-1.16-7.74-3.48-1.13-1.69-1.7-4.55-1.7-8.61v-16.4c0-.96-.44-1.43-1.33-1.43h-2.24c-.75,0-1.36-.24-1.85-.72s-.73-1.06-.73-1.74c0-.64.24-1.21.72-1.71.48-.5,1.01-.75,1.6-.75h2.67c.77,0,1.16-.43,1.16-1.3v-7.04c0-1.73.89-2.6,2.66-2.6,1.64,0,2.46.87,2.46,2.6v7.31c0,.69.41,1.03,1.23,1.03h7.45c1.73,0,2.6.8,2.6,2.39,0,1.69-.93,2.53-2.8,2.53h-7.52c-.64,0-.96.48-.96,1.43v16.81c0,4.78,1.59,7.17,4.78,7.17s4.92-1.93,5.06-5.81Z"/><path class="cls-1" d="m904.71,257.77c-3.74,0-6.03-1.61-6.9-4.85-2.32,3.42-5.97,5.12-10.93,5.12-3.69,0-6.64-.91-8.85-2.73-2.21-1.82-3.31-4.26-3.31-7.31,0-3.78,1.62-6.56,4.85-8.33,1.23-.69,2.29-1.13,3.18-1.33.89-.21,2.68-.47,5.36-.79,3.83-.41,6.32-.98,7.48-1.71,1.16-.73,1.74-2.07,1.74-4.03s-.65-3.34-1.95-4.41c-1.3-1.07-3.11-1.61-5.43-1.61-2.05,0-3.96.57-5.74,1.71-.68.46-1.02.93-1.02,1.44,0,.18.2.41.61.68.64.46.96,1.23.96,2.32,0,.91-.33,1.66-.99,2.26-.66.59-1.49.89-2.49.89-1.18,0-2.18-.41-2.97-1.23-.8-.82-1.2-1.82-1.2-3,0-2.55,1.26-4.74,3.79-6.56,2.53-1.82,5.59-2.73,9.19-2.73,8.29,0,12.43,3.98,12.43,11.93v13.77c0,2.18.05,3.48.14,3.89.27,1.59,1.05,2.39,2.32,2.39,1.59,0,2.39-1.45,2.39-4.34v-3.32c0-1.45.69-2.17,2.08-2.17,1.48,0,2.22,1.09,2.22,3.28v4.23c-.09,4.37-2.41,6.56-6.97,6.56Zm-7.58-13.6v-4.85c-1,.91-2.05,1.55-3.16,1.91-1.11.36-3.1.68-5.95.96-5.17.5-7.76,2.42-7.76,5.74,0,1.73.62,3.1,1.88,4.1,1.25,1,2.95,1.5,5.09,1.5,3.05,0,5.45-.83,7.21-2.5,1.75-1.66,2.65-3.95,2.7-6.87Z"/><path class="cls-1" d="m924.19,224.67v1.88c2.37-3.32,5.53-4.99,9.5-4.99,3.19,0,5.77.9,7.75,2.7,1.98,1.8,2.97,4.11,2.97,6.93,0,2.01-.5,3.63-1.5,4.89s-2.32,1.88-3.96,1.88c-1.05,0-1.94-.32-2.67-.96-.73-.64-1.09-1.41-1.09-2.32,0-.73.27-1.38.82-1.95.55-.57,1.18-.85,1.91-.85.14,0,.43.07.89.21.27-.55.41-1.05.41-1.5,0-1.32-.58-2.44-1.74-3.35-1.16-.91-2.61-1.37-4.34-1.37-3.55,0-5.92,1.59-7.11,4.78-.73,1.96-1.09,4.92-1.09,8.88v4.51c0,3.05.02,4.76.07,5.12.23,2.6.93,3.89,2.12,3.89.59,0,1.21-.08,1.84-.23.5-.12.93-.18,1.3-.18,1.46,0,2.19.72,2.19,2.16,0,1.57-.93,2.36-2.79,2.36h-.27c-.68,0-1.71-.08-3.1-.24-1.38-.16-2.42-.24-3.1-.24-1.82,0-3.25.04-4.29.14l-3.81.34c-1.86,0-2.79-.8-2.79-2.39,0-1.41.87-2.12,2.62-2.12.46,0,.8.02,1.03.07l1.03.2c.46.09.78.14.97.14,1.15,0,1.77-1.05,1.86-3.14v-3.49l-.2-15.51c-.14-2.69-.82-4.03-2.05-4.03-.36,0-.87.07-1.5.2-.64.14-1.14.2-1.5.2-1.5,0-2.26-.73-2.26-2.19,0-1.59.98-2.39,2.94-2.39.45,0,1.14.06,2.05.17.91.11,1.59.17,2.05.17.36,0,.96-.06,1.78-.17.36-.11.8-.17,1.3-.17,1.18,0,1.78.65,1.78,1.95Z"/><path class="cls-1" d="m967.71,247.46v-4.37c.05-1.87.87-2.8,2.46-2.8s2.39,1.05,2.39,3.14c0,4.97-.63,8.43-1.9,10.39-1.72,2.64-4.55,3.96-8.48,3.96-3.62,0-6.2-1.16-7.74-3.48-1.13-1.69-1.7-4.55-1.7-8.61v-16.4c0-.96-.44-1.43-1.33-1.43h-2.24c-.75,0-1.36-.24-1.85-.72s-.73-1.06-.73-1.74c0-.64.24-1.21.72-1.71.48-.5,1.01-.75,1.6-.75h2.67c.77,0,1.16-.43,1.16-1.3v-7.04c0-1.73.89-2.6,2.66-2.6,1.64,0,2.46.87,2.46,2.6v7.31c0,.69.41,1.03,1.23,1.03h7.45c1.73,0,2.6.8,2.6,2.39,0,1.69-.93,2.53-2.8,2.53h-7.52c-.64,0-.96.48-.96,1.43v16.81c0,4.78,1.59,7.17,4.78,7.17s4.92-1.93,5.06-5.81Z"/><path class="cls-1" d="m990.42,221.56c3.04,0,5.58.8,7.63,2.39v-.27c0-1.68.73-2.53,2.19-2.53s2.25.73,2.25,2.19c0,.27-.04.96-.11,2.05-.15.91-.23,1.82-.23,2.73,0,.55.06,1.34.17,2.39.11,1.05.17,1.85.17,2.39,0,1.73-.74,2.6-2.22,2.6s-2.18-.73-2.22-2.19v-2.26c-.05-1.37-.83-2.54-2.36-3.52-1.53-.98-3.31-1.47-5.36-1.47s-3.85.54-5.26,1.61c-1.41,1.07-2.12,2.4-2.12,4,0,2.92,2,4.65,6.01,5.19l3.96.55c7.74,1.05,11.62,4.26,11.62,9.63,0,3.28-1.25,5.93-3.75,7.96s-5.77,3.04-9.81,3.04c-3.77,0-7.04-1.07-9.81-3.21v1.3c0,1.64-.78,2.46-2.32,2.46-1.69,0-2.53-.93-2.53-2.8,0,.32.14-.86.41-3.55.09-.64.14-1.27.14-1.91,0-1.09-.09-2.12-.27-3.08-.18-.96-.27-1.71-.27-2.25,0-1.59.73-2.39,2.19-2.39.96,0,1.56.23,1.81.68s.4,1.66.44,3.62c.04,1.96,1.07,3.55,3.07,4.78,2,1.23,4.55,1.85,7.65,1.85,2.23,0,4.08-.57,5.53-1.71s2.19-2.57,2.19-4.31c0-3.1-2.46-4.9-7.38-5.4-4.69-.5-8.27-1.42-10.73-2.77-2.46-1.34-3.69-3.7-3.69-7.07,0-3.19,1.2-5.77,3.61-7.76s5.54-2.97,9.4-2.97Z"/><path class="cls-1" d="m1020.72,237.07v8.88c0,2.28.02,3.62.07,4.03.23,2.05.84,3.08,1.84,3.08.23,0,.8-.11,1.71-.34.23-.09.57-.14,1.02-.14,1.73,0,2.6.75,2.6,2.25,0,.64-.29,1.19-.86,1.64-.57.45-1.29.68-2.16.68-.73,0-1.84-.1-3.32-.31-1.49-.21-2.59-.31-3.33-.31-1.19,0-2.51.09-3.98.27-1.78.23-2.97.34-3.56.34-1.83,0-2.74-.77-2.74-2.32s.78-2.25,2.34-2.25c.37,0,.91.07,1.62.2.71.14,1.25.2,1.62.2,1.1,0,1.77-1.46,2-4.37v-17.49c-.23-2.87-.92-4.31-2.07-4.31-.37,0-.89.08-1.55.24s-1.16.24-1.48.24c-1.65,0-2.48-.73-2.48-2.19,0-1.55,1-2.32,3.01-2.32.87,0,1.48.02,1.84.07,1.46.18,2.39.27,2.8.27.36,0,.92-.06,1.67-.17s1.31-.17,1.67-.17c1.32,0,1.98.89,1.98,2.66,0,.18-.02.46-.05.82-.04.37-.05.64-.05.82-.04.36-.07,1.78-.11,4.24-.04,1.87-.05,3.78-.05,5.74Zm-3.55-17.9c-1.05,0-1.95-.38-2.7-1.13s-1.13-1.65-1.13-2.7.38-1.93,1.13-2.66c.75-.73,1.65-1.09,2.7-1.09s1.95.36,2.7,1.09c.75.73,1.13,1.62,1.13,2.66s-.38,1.95-1.13,2.7c-.75.75-1.65,1.13-2.7,1.13Z"/><path class="cls-1" d="m1046.14,221.56c4.51,0,7.88,1.75,10.11,5.26v-6.9c0-1.82-.05-2.94-.14-3.35-.23-1.41-.87-2.12-1.91-2.12-.37,0-.88.07-1.54.2s-1.17.2-1.54.2c-1.69,0-2.53-.73-2.53-2.19s1.14-2.26,3.42-2.26c.36,0,1.02.05,1.98.14,1.46.14,2.21.2,2.26.2.41,0,1-.06,1.78-.17.77-.11,1.37-.17,1.78-.17,1.27,0,1.91.91,1.91,2.74v.75c-.05.14-.09,1.35-.14,3.63,0,.27-.07,2.03-.2,5.27-.09,2.28-.14,4.01-.14,5.2v18.13c.05,3.01.18,4.88.42,5.61.23.73.79,1.09,1.67,1.09.6,0,1.07-.05,1.39-.14.74-.09,1.25-.14,1.53-.14,1.72,0,2.57.75,2.57,2.25s-1.03,2.32-3.07,2.32c-.46,0-1.15-.06-2.08-.17-.93-.11-1.63-.17-2.08-.17-.14,0-.66.05-1.57.14-.55.14-1.03.2-1.43.2-1.23,0-1.84-.82-1.84-2.46v-1.5c-2.41,3.24-5.91,4.85-10.49,4.85s-8.36-1.68-11.18-5.06c-2.82-3.37-4.22-7.79-4.22-13.26s1.39-9.92,4.17-13.22c2.78-3.3,6.49-4.95,11.14-4.95Zm9.84,24.12c.18-1.5.28-3.44.28-5.81,0-3.05-.12-5.12-.34-6.22-.41-2.28-1.4-4.05-2.96-5.33-1.84-1.5-3.95-2.26-6.33-2.26-3.21,0-5.72,1.21-7.53,3.62-1.81,2.42-2.72,5.72-2.72,9.91s.94,7.73,2.82,10.21c1.88,2.48,4.45,3.73,7.71,3.73,2.48,0,4.54-.72,6.19-2.15s2.61-3.34,2.89-5.7Z"/><path class="cls-1" d="m1102.85,236.8c0,1.73-.11,2.79-.34,3.18-.23.39-.89.58-1.98.58h-21.73c-.59,0-.98.08-1.16.24-.18.16-.27.42-.27.79,0,3.42,1.02,6.26,3.07,8.54,2.05,2.28,4.6,3.42,7.65,3.42,2,0,3.84-.55,5.5-1.64,1.66-1.09,2.74-2.48,3.24-4.17l.61-1.98c.32-1.09,1.07-1.64,2.26-1.64,1.68,0,2.53.87,2.53,2.6,0,2.96-1.5,5.59-4.51,7.89s-6.42,3.45-10.25,3.45c-4.78,0-8.59-1.61-11.41-4.82-2.82-3.21-4.24-7.53-4.24-12.95s1.5-10.07,4.51-13.53c3.01-3.46,6.92-5.19,11.75-5.19,4.28,0,7.81,1.43,10.59,4.3,2.78,2.87,4.17,6.51,4.17,10.93Zm-24.8-1.77c0,.64.5.96,1.5.96h16.33c.96,0,1.43-.32,1.43-.96,0-2.42-.91-4.51-2.73-6.29-1.82-1.77-3.96-2.66-6.42-2.66s-4.87.92-6.97,2.77c-2.1,1.85-3.14,3.91-3.14,6.19Z"/><rect class="cls-8" x="771.22" y="390.21" width="366.27" height="139.09" rx="12" ry="12"/><path class="cls-1" d="m805.88,403.07c-3.14.46-14.56,3.78-20.05,19.66-.62,1.79-5.83,17.55,1.88,28.62.88,1.26,3.42,4.9,5.78,5.24,1.75.25,2.7-1.41,3.33-2.93,2.63-6.28.86-12.25.89-18.07,0-.4.11-7.44,3.81-13.47,5.83-9.48,17.25-11.11,15.02-15.24-.66-1.23-2.29-2.24-2.75-2.52-3.19-1.97-6.51-1.49-7.91-1.28Z"/><path class="cls-1" d="m808.44,444.73c0-2.73-.94-4.1-2.83-4.1-.52,0-.91.04-1.16.11-.59.11-1.09.17-1.5.17-.48,0-.89-.18-1.22-.53-.33-.35-.5-.78-.5-1.3,0-1.29.81-1.94,2.44-1.94.22,0,.48.02.78.05l2.94.39c1.11.15,2.25.22,3.43.22s2.4-.09,3.77-.28l2.49-.33c.3-.04.55-.05.78-.05,1.63,0,2.44.64,2.44,1.94,0,.52-.17.95-.5,1.3-.33.35-.74.53-1.22.53-.37,0-.87-.06-1.5-.17-.26-.07-.65-.11-1.16-.11-1.88,0-2.83,1.37-2.83,4.1v22.22c0,2.77.94,4.16,2.83,4.16.3,0,.68-.04,1.16-.11.7-.11,1.2-.16,1.5-.16,1.15,0,1.72.59,1.72,1.77,0,1.33-.81,2-2.44,2h-.39c-.15-.04-.28-.06-.39-.06l-2.88-.44c-.96-.15-1.98-.22-3.05-.22-1.55,0-2.94.09-4.15.28l-2.55.39c-.07,0-.2.02-.39.06h-.44c-1.59,0-2.38-.67-2.38-2,0-1.18.57-1.77,1.72-1.77.18,0,.68.04,1.5.11.41.11.79.17,1.16.17,1.88,0,2.83-1.39,2.83-4.16v-22.22Z"/><path class="cls-1" d="m831.98,448.31v1.58c2.22-2.81,5.17-4.21,8.87-4.21,1.99,0,3.88.51,5.65,1.52,1.77,1.02,2.97,2.28,3.6,3.8.52,1.26.78,2.9.78,4.93v10.53c0,1.59.02,2.53.06,2.83.18,1.26.68,1.88,1.5,1.88.33,0,.77-.05,1.3-.14s.91-.14,1.14-.14c.48,0,.89.17,1.25.5.35.33.53.74.53,1.22,0,.55-.22,1.02-.67,1.39-.44.37-.98.55-1.61.55-.52,0-1.37-.07-2.55-.22-1.18-.15-2.29-.22-3.33-.22-.96,0-1.75.04-2.38.11-1.85.22-2.83.33-2.94.33-1.48,0-2.22-.64-2.22-1.94,0-1.15.64-1.72,1.92-1.72.3,0,.64.04,1.02.11.71.15,1.17.22,1.35.22.9,0,1.39-1.02,1.47-3.05v-10.41c0-1.96-.09-3.3-.28-4.04-.33-1.4-1.05-2.49-2.15-3.27-1.21-.85-2.59-1.28-4.14-1.28-2.94,0-5.06,1.05-6.35,3.16-.88,1.44-1.32,3.9-1.32,7.37v7.37c0,1.63.11,2.73.33,3.32.22.59.63.89,1.22.89.3,0,.7-.06,1.22-.19.52-.13.94-.19,1.27-.19,1.14,0,1.72.62,1.72,1.86s-.74,1.8-2.22,1.8c-.3,0-1.26-.11-2.88-.33-.81-.11-1.72-.17-2.71-.17-.78,0-1.81.07-3.1.22-1.63.18-2.55.28-2.77.28-1.55,0-2.33-.63-2.33-1.88,0-1.18.6-1.77,1.81-1.77.19,0,.54.06,1.04.17.51.11,1.01.17,1.49.17,1.13,0,1.71-1.07,1.75-3.21v-14.79c-.08-1.26-.24-2.11-.48-2.58-.25-.46-.67-.69-1.27-.69-.26,0-.65.05-1.16.14-.51.09-.89.14-1.16.14-1.35,0-2.03-.59-2.03-1.77s.83-1.83,2.49-1.83c.22,0,.41.02.55.06l2.05.22c.59,0,1.11-.05,1.55-.14.96-.09,1.46-.14,1.5-.14,1.07,0,1.61.56,1.61,1.69Z"/><path class="cls-1" d="m875.2,441.57c0-.52.18-.98.55-1.39-.63-.59-1.55-.89-2.77-.89-1.59,0-2.83.51-3.74,1.52s-1.36,2.43-1.36,4.24v1c0,.48.24.72.72.72h4.32c1.22,0,1.83.67,1.83,1.99s-.61,2-1.83,2h-4.1c-.63,0-.94.33-.94,1v15.51c0,1.37.02,2.16.06,2.38.18,1,.65,1.49,1.39,1.49.18,0,.65-.09,1.39-.28.52-.07.89-.11,1.11-.11,1.25,0,1.88.61,1.88,1.83,0,1.29-.76,1.94-2.27,1.94-.63,0-1.58-.07-2.85-.22-1.27-.15-2.22-.22-2.85-.22-1.11,0-2.11.05-2.99.16-1.44.18-2.36.28-2.77.28-1.59,0-2.38-.64-2.38-1.94,0-.48.19-.9.58-1.27s.84-.55,1.36-.55c.37,0,.78.07,1.25.19.46.13.88.19,1.25.19.7,0,1.14-.44,1.33-1.33.18-.89.3-3.03.33-6.42v-11.63c0-.67-.33-1-.99-1h-2.74c-1.28,0-1.92-.68-1.92-2.05,0-1.29.67-1.94,1.99-1.94h3.16c.48,0,.72-.24.72-.72v-1c0-2.92.78-5.15,2.33-6.7,1.55-1.55,3.75-2.33,6.59-2.33,2.33,0,4.19.47,5.6,1.41,1.4.94,2.11,2.21,2.11,3.79,0,.81-.26,1.47-.78,1.97-.52.5-1.16.75-1.94.75s-1.36-.23-1.86-.69c-.5-.46-.75-1.03-.75-1.69Z"/><path class="cls-1" d="m889.43,475.26c-3.88,0-6.98-1.34-9.31-4.02-2.33-2.68-3.49-6.27-3.49-10.78s1.17-8.1,3.52-10.78c2.34-2.68,5.49-4.02,9.45-4.02s7.2,1.31,9.53,3.93c2.33,2.62,3.49,6.19,3.49,10.69s-1.2,8.13-3.6,10.86c-2.4,2.73-5.6,4.1-9.58,4.1Zm.28-25.93c-2.59,0-4.62.91-6.09,2.71-1.48,1.81-2.29,4.38-2.44,7.7v.72c0,3.47.73,6.2,2.19,8.17,1.46,1.98,3.5,2.96,6.12,2.96s4.81-.99,6.34-2.96c1.53-1.97,2.3-4.72,2.3-8.23,0-7.39-2.81-11.08-8.42-11.08Z"/><path class="cls-1" d="m915.31,448.19v1.52c1.92-2.7,4.49-4.04,7.7-4.04,2.58,0,4.68.73,6.29,2.19,1.61,1.46,2.41,3.33,2.41,5.62,0,1.63-.41,2.95-1.22,3.96-.81,1.01-1.88,1.52-3.21,1.52-.85,0-1.57-.26-2.16-.78-.59-.52-.89-1.14-.89-1.88,0-.59.22-1.12.67-1.58.44-.46.96-.69,1.55-.69.11,0,.35.06.72.17.22-.44.33-.85.33-1.22,0-1.07-.47-1.97-1.41-2.71s-2.11-1.11-3.52-1.11c-2.88,0-4.8,1.29-5.76,3.88-.59,1.59-.89,3.99-.89,7.2v3.66c0,2.48.02,3.86.06,4.15.18,2.11.76,3.16,1.72,3.16.48,0,.98-.06,1.5-.19.41-.1.76-.14,1.05-.14,1.18,0,1.77.58,1.77,1.75,0,1.27-.75,1.91-2.26,1.91h-.22c-.55,0-1.39-.06-2.51-.19-1.12-.13-1.96-.19-2.51-.19-1.47,0-2.63.04-3.48.11l-3.09.28c-1.51,0-2.26-.64-2.26-1.94,0-1.15.71-1.72,2.12-1.72.37,0,.65.02.84.06l.84.17c.37.07.63.11.78.11.93,0,1.43-.85,1.51-2.55v-2.82l-.17-12.58c-.11-2.18-.67-3.27-1.66-3.27-.3,0-.7.06-1.22.17-.52.11-.92.17-1.22.17-1.22,0-1.83-.59-1.83-1.77,0-1.29.79-1.94,2.38-1.94.37,0,.92.05,1.66.14.74.09,1.29.14,1.66.14.3,0,.78-.05,1.44-.14.3-.09.65-.14,1.05-.14.96,0,1.44.53,1.44,1.58Z"/><path class="cls-1" d="m943.23,448.28v1.61c1.33-1.59,2.58-2.69,3.77-3.3,1.18-.61,2.66-.92,4.43-.92,3.62,0,6.28,1.4,7.98,4.21,1.26-1.55,2.53-2.64,3.82-3.27,1.29-.63,2.95-.94,4.99-.94s3.99.44,5.65,1.33c1.85,1,3.12,2.41,3.82,4.22.48,1.22.72,3.15.72,5.77v9.55c0,1.52.02,2.44.06,2.78.18,1.33.66,2,1.43,2,.26,0,.64-.07,1.15-.19.51-.13.9-.19,1.15-.19,1.28,0,1.92.55,1.92,1.66,0,1.29-.74,1.94-2.22,1.94-.55,0-1.39-.06-2.52-.19-1.13-.13-1.98-.19-2.58-.19-.63,0-1.54.07-2.74.19-1.2.13-2.11.19-2.74.19-1.55,0-2.33-.64-2.33-1.94,0-1.11.59-1.66,1.77-1.66.15,0,.52.04,1.11.11.22.07.52.11.89.11.63,0,1.02-.31,1.19-.94.17-.63.27-2.2.3-4.71v-7.04c0-2.55-.19-4.4-.58-5.57-.39-1.16-1.11-2.08-2.18-2.74s-2.28-1-3.64-1c-2.61,0-4.43.91-5.46,2.72-.81,1.44-1.21,3.95-1.21,7.53v3.93c0,3.47.08,5.64.25,6.51.17.87.6,1.3,1.3,1.3.22,0,.54-.04.97-.11s.75-.11.97-.11c.52,0,.95.17,1.3.52.35.34.53.77.53,1.28,0,1.2-.87,1.8-2.6,1.8-.55,0-1.38-.07-2.47-.22-1.09-.15-1.91-.22-2.47-.22-.78,0-1.63.07-2.55.22-.92.15-1.74.22-2.44.22-1.51,0-2.27-.63-2.27-1.88,0-1.15.55-1.72,1.66-1.72.41,0,.72.05.94.16.52.16.91.23,1.16.23.89,0,1.35-.95,1.39-2.84l.17-2.62v-8.07c0-3.23-.44-5.48-1.3-6.74-.87-1.26-2.41-1.89-4.63-1.89-2.44,0-4.3.89-5.6,2.67-1.07,1.45-1.61,3.97-1.61,7.57v7.41c0,1.49.02,2.36.06,2.62.15,1.26.55,1.89,1.22,1.89.18,0,.57-.1,1.16-.31.07,0,.18-.02.33-.08h.39c1.44,0,2.16.61,2.16,1.83s-.83,1.77-2.49,1.77c-.63,0-1.4-.05-2.33-.16-1.26-.15-2.33-.22-3.21-.22-.44,0-1.26.06-2.44.17-1.59.15-2.55.22-2.88.22-1.48,0-2.22-.63-2.22-1.88,0-1.15.71-1.72,2.14-1.72h.34c.15.04.26.05.34.05l1.41.28s.11.06.23.06c1.01,0,1.56-.9,1.64-2.71v-11.63c0-3.14-.08-5.1-.25-5.87s-.62-1.16-1.36-1.16c-.15,0-.67.09-1.55.28-.37.07-.66.11-.89.11-1.37,0-2.05-.59-2.05-1.77,0-1.26.76-1.88,2.27-1.88.41,0,.96.04,1.66.11.7.07,1.31.11,1.83.11h1l1.33-.22h.17c.89,0,1.33.53,1.33,1.61Z"/><path class="cls-1" d="m1010.15,475.03c-3.03,0-4.89-1.31-5.6-3.93-1.88,2.77-4.84,4.15-8.86,4.15-2.99,0-5.38-.74-7.18-2.22s-2.69-3.45-2.69-5.93c0-3.07,1.31-5.32,3.93-6.76,1-.55,1.86-.92,2.58-1.08.72-.17,2.17-.38,4.35-.64,3.1-.33,5.13-.79,6.07-1.38.94-.59,1.41-1.68,1.41-3.27s-.53-2.71-1.58-3.58c-1.05-.87-2.52-1.3-4.4-1.3-1.66,0-3.21.46-4.65,1.38-.55.37-.83.76-.83,1.16,0,.15.17.33.5.55.52.37.78,1,.78,1.88,0,.74-.27,1.35-.8,1.83s-1.21.72-2.02.72c-.96,0-1.76-.33-2.41-1-.65-.67-.97-1.48-.97-2.44,0-2.07,1.02-3.84,3.07-5.32,2.05-1.48,4.53-2.22,7.45-2.22,6.72,0,10.08,3.23,10.08,9.68v11.17c0,1.77.04,2.82.11,3.15.22,1.29.85,1.93,1.88,1.93,1.29,0,1.94-1.17,1.94-3.52v-2.7c0-1.17.56-1.76,1.69-1.76,1.2,0,1.8.89,1.8,2.66v3.44c-.07,3.55-1.96,5.32-5.65,5.32Zm-6.15-11.02v-3.93c-.81.74-1.66,1.26-2.57,1.55s-2.51.55-4.83.78c-4.19.41-6.29,1.96-6.29,4.66,0,1.4.51,2.51,1.52,3.32,1.01.81,2.39,1.22,4.13,1.22,2.47,0,4.42-.67,5.85-2.02,1.42-1.35,2.15-3.2,2.19-5.57Z"/><path class="cls-1" d="m1032.98,466.67v-3.55c.04-1.51.7-2.27,2-2.27s1.94.85,1.94,2.55c0,4.03-.51,6.83-1.54,8.42-1.39,2.14-3.69,3.21-6.88,3.21-2.93,0-5.03-.94-6.27-2.82-.92-1.37-1.38-3.69-1.38-6.98v-13.3c0-.78-.36-1.16-1.08-1.16h-1.81c-.6,0-1.1-.19-1.5-.58s-.6-.86-.6-1.41c0-.52.19-.98.58-1.38.39-.41.82-.61,1.3-.61h2.16c.63,0,.94-.35.94-1.05v-5.71c0-1.4.72-2.1,2.16-2.1,1.33,0,1.99.7,1.99,2.1v5.93c0,.55.33.83,1,.83h6.04c1.4,0,2.1.65,2.1,1.94,0,1.37-.76,2.05-2.27,2.05h-6.09c-.52,0-.78.39-.78,1.16v13.63c0,3.88,1.29,5.82,3.88,5.82s3.99-1.57,4.1-4.71Z"/><path class="cls-1" d="m1048.71,458.25v7.2c0,1.85.02,2.94.06,3.27.18,1.66.68,2.49,1.5,2.49.18,0,.65-.09,1.39-.28.18-.07.46-.11.83-.11,1.4,0,2.11.61,2.11,1.83,0,.52-.23.96-.7,1.33-.46.37-1.05.55-1.75.55-.59,0-1.49-.08-2.7-.25-1.2-.17-2.1-.25-2.7-.25-.96,0-2.04.07-3.22.22-1.45.18-2.41.28-2.89.28-1.48,0-2.22-.63-2.22-1.88s.63-1.83,1.9-1.83c.3,0,.73.05,1.31.16.58.11,1.02.17,1.31.17.89,0,1.43-1.18,1.62-3.55v-14.18c-.19-2.33-.75-3.49-1.68-3.49-.3,0-.72.06-1.26.19-.54.13-.94.19-1.2.19-1.34,0-2.01-.59-2.01-1.77,0-1.26.81-1.88,2.44-1.88.7,0,1.2.02,1.5.05,1.18.15,1.94.22,2.27.22.3,0,.75-.05,1.36-.14.61-.09,1.06-.14,1.36-.14,1.07,0,1.61.72,1.61,2.16,0,.15-.01.37-.04.67s-.04.52-.04.67c-.03.3-.06,1.44-.09,3.44-.03,1.51-.04,3.07-.04,4.65Zm-2.88-14.52c-.85,0-1.58-.3-2.19-.91-.61-.61-.91-1.34-.91-2.19s.3-1.57.91-2.16c.61-.59,1.34-.89,2.19-.89s1.58.3,2.19.89c.61.59.91,1.31.91,2.16s-.3,1.58-.91,2.19c-.61.61-1.34.91-2.19.91Z"/><path class="cls-1" d="m1069.65,475.26c-3.88,0-6.98-1.34-9.31-4.02-2.33-2.68-3.49-6.27-3.49-10.78s1.17-8.1,3.52-10.78c2.34-2.68,5.49-4.02,9.45-4.02s7.2,1.31,9.53,3.93c2.33,2.62,3.49,6.19,3.49,10.69s-1.2,8.13-3.6,10.86c-2.4,2.73-5.6,4.1-9.58,4.1Zm.28-25.93c-2.59,0-4.62.91-6.09,2.71-1.48,1.81-2.29,4.38-2.44,7.7v.72c0,3.47.73,6.2,2.19,8.17,1.46,1.98,3.5,2.96,6.12,2.96s4.81-.99,6.34-2.96c1.53-1.97,2.3-4.72,2.3-8.23,0-7.39-2.81-11.08-8.42-11.08Z"/><path class="cls-1" d="m1095.64,448.31v1.58c2.22-2.81,5.17-4.21,8.87-4.21,1.99,0,3.88.51,5.65,1.52,1.77,1.02,2.97,2.28,3.6,3.8.52,1.26.78,2.9.78,4.93v10.53c0,1.59.02,2.53.06,2.83.18,1.26.68,1.88,1.5,1.88.33,0,.77-.05,1.3-.14s.91-.14,1.14-.14c.48,0,.89.17,1.25.5.35.33.53.74.53,1.22,0,.55-.22,1.02-.67,1.39-.44.37-.98.55-1.61.55-.52,0-1.37-.07-2.55-.22-1.18-.15-2.29-.22-3.33-.22-.96,0-1.75.04-2.38.11-1.85.22-2.83.33-2.94.33-1.48,0-2.22-.64-2.22-1.94,0-1.15.64-1.72,1.92-1.72.3,0,.64.04,1.02.11.71.15,1.17.22,1.35.22.9,0,1.39-1.02,1.47-3.05v-10.41c0-1.96-.09-3.3-.28-4.04-.33-1.4-1.05-2.49-2.15-3.27-1.21-.85-2.59-1.28-4.14-1.28-2.94,0-5.06,1.05-6.35,3.16-.88,1.44-1.32,3.9-1.32,7.37v7.37c0,1.63.11,2.73.33,3.32.22.59.63.89,1.22.89.3,0,.7-.06,1.22-.19.52-.13.94-.19,1.27-.19,1.14,0,1.72.62,1.72,1.86s-.74,1.8-2.22,1.8c-.3,0-1.26-.11-2.88-.33-.81-.11-1.72-.17-2.71-.17-.78,0-1.81.07-3.1.22-1.63.18-2.55.28-2.77.28-1.55,0-2.33-.63-2.33-1.88,0-1.18.6-1.77,1.81-1.77.19,0,.54.06,1.04.17.51.11,1.01.17,1.49.17,1.13,0,1.71-1.07,1.75-3.21v-14.79c-.08-1.26-.24-2.11-.48-2.58-.25-.46-.67-.69-1.27-.69-.26,0-.65.05-1.16.14-.51.09-.89.14-1.16.14-1.35,0-2.03-.59-2.03-1.77s.83-1.83,2.49-1.83c.22,0,.41.02.55.06l2.05.22c.59,0,1.11-.05,1.55-.14.96-.09,1.46-.14,1.5-.14,1.07,0,1.61.56,1.61,1.69Z"/></svg>