<?xml version="1.0" encoding="UTF-8"?><svg id="teknik" xmlns="http://www.w3.org/2000/svg" width="1600" height="700" viewBox="0 0 1600 700"><defs><style>.cls-1{fill:#fff;}.cls-2{fill:#fdec4b;}.cls-3{fill:#a6a68f;}.cls-4{fill:#b40a00;}.cls-5{fill:silver;}.cls-6{fill:#d4af37;}.cls-7{fill:#221f20;}</style></defs><rect class="cls-1" x="295.13" y="25.42" width="67.55" height="233.14" rx="3.76" ry="3.76"/><path d="m356.76,261.71h-55.69c-5.01,0-9.08-4.07-9.08-9.08V31.35c0-5.01,4.07-9.08,9.08-9.08h55.69c5.01,0,9.08,4.07,9.08,9.08v221.28c0,5.01-4.07,9.08-9.08,9.08Zm-55.69-233.14c-1.53,0-2.78,1.25-2.78,2.78v221.28c0,1.53,1.25,2.78,2.78,2.78h55.69c1.53,0,2.78-1.25,2.78-2.78V31.35c0-1.53-1.25-2.78-2.78-2.78h-55.69Z"/><path class="cls-7" d="m356.76,259.35h-55.7c-3.7,0-6.72-3.01-6.72-6.72V31.35c0-3.7,3.01-6.72,6.72-6.72h55.7c3.7,0,6.72,3.01,6.72,6.72v221.28c0,3.7-3.01,6.72-6.72,6.72Zm-55.7-233.14c-2.83,0-5.14,2.31-5.14,5.14v221.28c0,2.83,2.31,5.14,5.14,5.14h55.7c2.83,0,5.14-2.31,5.14-5.14V31.35c0-2.83-2.31-5.14-5.14-5.14h-55.7Z"/><path d="m356.76,262.5h-55.7c-5.44,0-9.87-4.43-9.87-9.87V31.35c0-5.44,4.43-9.87,9.87-9.87h55.7c5.44,0,9.87,4.43,9.87,9.87v221.28c0,5.44-4.43,9.87-9.87,9.87Zm-55.7-233.14c-1.1,0-1.99.89-1.99,1.99v221.28c0,1.1.89,1.99,1.99,1.99h55.7c1.1,0,1.99-.89,1.99-1.99V31.35c0-1.1-.89-1.99-1.99-1.99h-55.7Z"/><path class="cls-4" d="m324.18,255.69s117.74-123.09,227.74-42.08c110,81.02-20.85,248.97-20.85,248.97l-190.24-135.25-16.65-71.64"/><path d="m531.71,466.9l-193.66-137.69-17.31-74.46,1.18-1.23c.3-.31,30.33-31.43,73.54-52.08,57.62-27.55,112.38-24.21,158.35,9.65,25.15,18.52,39.99,43.04,44.11,72.88,3.28,23.8,1.1,64.24-27.92,121.67-17.28,34.19-36.23,58.65-36.42,58.89l-1.85,2.38Zm-188.07-141.44l186.76,132.78c11.3-15.35,71.28-100.86,61.26-173.43-3.88-28.08-17.87-51.18-41.6-68.65-44.61-32.86-95.72-35.89-151.89-9.04-37.41,17.88-64.63,43.73-70.52,49.56l15.99,68.78Z"/><path class="cls-7" d="m531.23,463.66l-.62-.44-190.48-135.42-16.82-72.35.29-.31c.3-.31,30.03-31.11,72.85-51.59,39.6-18.93,98.79-32.66,155.93,9.42,24.62,18.13,39.14,42.12,43.17,71.3,11.21,81.32-63.11,177.82-63.86,178.79l-.46.59Zm-189.69-136.8l189.37,134.63c6.26-8.28,73.76-99.69,63.09-177.01-3.96-28.74-18.28-52.37-42.54-70.24-56.49-41.61-115.08-28.02-154.27-9.28-40.29,19.26-68.94,47.72-72.13,50.97l16.49,70.93Z"/><path d="m531.86,467.97l-3.07-2.18-191.45-136.11-17.47-75.17,1.47-1.54c.3-.31,30.36-31.5,73.77-52.25,40.37-19.3,100.76-33.29,159.15,9.72,25.33,18.66,40.27,43.35,44.42,73.4,11.39,82.57-63.74,180.18-64.5,181.15l-2.32,2.97Zm-187.53-142.98l185.89,132.16c5.88-8.04,21.54-30.44,35.75-59.64,20.91-42.97,29.29-80.85,24.91-112.59-3.84-27.86-17.74-50.79-41.29-68.14-55.24-40.68-112.63-27.34-151.05-8.98-36.65,17.52-63.55,42.75-70.03,49.12l15.82,68.06Z"/><path class="cls-1" d="m324.18,255.69s-94.06-153.04-233.5-53.29,26.61,260.18,26.61,260.18l156.46-122.88,50.43-84.01Z"/><path d="m117.08,466.75l-1.97-1.91c-.22-.22-22.57-21.93-43.8-53.78-19.7-29.55-42.49-74.17-39.2-118.91,2.67-36.23,21.76-67.28,56.75-92.31,40.75-29.15,81.71-39.83,121.74-31.74,71.63,14.47,114.48,83.03,116.27,85.94l1,1.63-51.71,86.15-159.07,124.93Zm67.53-294.96c-30.37,0-61.24,11.1-92.09,33.17-33.38,23.88-51.6,53.37-54.13,87.63-5.58,75.47,66.34,152.66,79.16,165.77l153.8-120.79,49.12-81.82c-6.91-10.41-48.14-68.77-111.16-81.48-8.19-1.65-16.43-2.48-24.7-2.48Z"/><path class="cls-7" d="m117.24,463.62l-.49-.48c-.89-.86-88.5-86.54-82.28-170.82,2.62-35.49,21.38-65.96,55.76-90.56,40.19-28.75,80.54-39.3,119.9-31.34,70.63,14.27,114.29,84.15,114.72,84.86l.25.41-50.87,84.63-157,123.3Zm67.34-294.19c-30.85,0-62.18,11.25-93.44,33.61-33.99,24.31-52.53,54.39-55.11,89.4-5.92,80.28,74.26,162.06,81.32,169.09l155.8-122.36,50.11-83.47c-3.67-5.73-46.29-70.17-113.45-83.74-8.36-1.69-16.78-2.53-25.22-2.53Z"/><path d="m117.03,467.8l-2.47-2.38c-.9-.86-89.56-87.52-83.24-173.32,2.69-36.47,21.89-67.72,57.07-92.89,40.93-29.28,82.1-40,122.36-31.87,72.04,14.56,116.35,85.58,116.79,86.3l1.25,2.04-52.15,86.77-159.61,125.36Zm67.56-295.22c-30.15,0-60.97,11.11-91.61,33.03-33.19,23.74-51.29,53.04-53.8,87.07-2.43,32.89,9.45,69.92,35.3,110.08,17.66,27.44,36.37,47.6,43.15,54.57l153.13-120.27,48.79-81.28c-8.03-12.04-48.42-68.22-110.36-80.73-8.11-1.64-16.39-2.47-24.6-2.47Z"/><rect class="cls-1" x="177.89" y="316.29" width="292.58" height="292.58" transform="translate(422.05 -93.75) rotate(45)"/><path d="m324.18,673.92l-211.34-211.34,211.34-211.34,211.34,211.34-211.34,211.34Zm-202.43-211.34l202.43,202.43,202.43-202.43-202.43-202.43-202.43,202.43Z"/><path class="cls-7" d="m324.18,670.58l-208-208,208-208,208,208-208,208Zm-205.77-208l205.77,205.78,205.78-205.78-205.78-205.78-205.77,205.78Z"/><path d="m324.18,675.04l-212.46-212.46,212.46-212.46,212.46,212.46-212.46,212.46Zm-201.32-212.46l201.32,201.32,201.32-201.32-201.32-201.32-201.32,201.32Z"/><rect class="cls-4" x="275.27" y="275.62" width="97.36" height="97.36" transform="translate(324.19 -134.08) rotate(45)"/><path d="m323.94,397.59l-73.3-73.3,73.3-73.3,73.3,73.3-73.3,73.3Zm-64.39-73.3l64.39,64.39,64.39-64.39-64.39-64.39-64.39,64.39Z"/><path class="cls-7" d="m323.95,394.25l-69.96-69.96,69.96-69.95,69.95,69.95-69.95,69.96Zm-67.73-69.96l67.73,67.73,67.73-67.73-67.73-67.73-67.73,67.73Z"/><path d="m323.95,398.71l-74.41-74.41,74.41-74.41,74.41,74.41-74.41,74.41Zm-63.27-74.41l63.27,63.28,63.27-63.28-63.27-63.27-63.27,63.27Z"/><rect class="cls-4" x="275.27" y="413.66" width="97.36" height="97.36" transform="translate(421.81 -93.65) rotate(45)"/><path d="m323.94,535.64l-73.3-73.3,73.3-73.3,73.3,73.3-73.3,73.3Zm-64.39-73.3l64.39,64.39,64.39-64.39-64.39-64.39-64.39,64.39Z"/><path class="cls-7" d="m323.95,532.3l-69.96-69.95,69.96-69.96,69.95,69.96-69.95,69.95Zm-67.73-69.95l67.73,67.73,67.73-67.73-67.73-67.73-67.73,67.73Z"/><path d="m323.95,536.75l-74.41-74.41,74.41-74.41,74.41,74.41-74.41,74.41Zm-63.27-74.41l63.27,63.27,63.27-63.27-63.27-63.28-63.27,63.28Z"/><rect class="cls-4" x="413.55" y="413.9" width="97.36" height="97.36" transform="translate(462.48 -191.36) rotate(45)"/><path d="m462.23,535.88l-73.3-73.3,73.3-73.3,73.3,73.3-73.3,73.3Zm-64.39-73.3l64.39,64.39,64.39-64.39-64.39-64.39-64.39,64.39Z"/><path class="cls-7" d="m462.23,532.54l-69.96-69.95,69.96-69.96,69.96,69.96-69.96,69.95Zm-67.73-69.95l67.73,67.73,67.73-67.73-67.73-67.73-67.73,67.73Z"/><path d="m462.23,536.99l-74.41-74.41,74.41-74.41,74.41,74.41-74.41,74.41Zm-63.27-74.41l63.27,63.27,63.27-63.27-63.27-63.28-63.27,63.28Z"/><rect class="cls-4" x="136.98" y="413.9" width="97.36" height="97.36" transform="translate(381.47 4.21) rotate(45)"/><path d="m185.66,535.88l-73.3-73.3,73.3-73.3,73.3,73.3-73.3,73.3Zm-64.39-73.3l64.39,64.39,64.39-64.39-64.39-64.39-64.39,64.39Z"/><path class="cls-7" d="m185.66,532.54l-69.96-69.95,69.96-69.96,69.96,69.96-69.96,69.95Zm-67.73-69.95l67.73,67.73,67.73-67.73-67.73-67.73-67.73,67.73Z"/><path d="m185.66,536.99l-74.41-74.41,74.41-74.41,74.41,74.41-74.41,74.41Zm-63.27-74.41l63.27,63.27,63.27-63.27-63.27-63.28-63.27,63.28Z"/><rect class="cls-4" x="275.51" y="551.95" width="97.36" height="97.36" transform="translate(519.66 -53.31) rotate(45)"/><path d="m324.18,673.92l-73.3-73.3,73.3-73.3,73.3,73.3-73.3,73.3Zm-64.39-73.3l64.39,64.39,64.39-64.39-64.39-64.39-64.39,64.39Z"/><path class="cls-7" d="m324.19,670.58l-69.96-69.96,69.96-69.95,69.95,69.95-69.95,69.96Zm-67.73-69.96l67.73,67.73,67.73-67.73-67.73-67.73-67.73,67.73Z"/><path d="m324.19,675.04l-74.41-74.41,74.41-74.41,74.41,74.41-74.41,74.41Zm-63.27-74.41l63.27,63.28,63.27-63.28-63.27-63.27-63.27,63.27Z"/><path d="m780.15,340.09h-43.29c-4.22,0-7.66-3.44-7.66-7.66V88.25c0-4.22,3.44-7.66,7.66-7.66h43.29c4.22,0,7.66,3.44,7.66,7.66v244.19c0,4.22-3.44,7.66-7.66,7.66Zm-43.29-258.25c-3.53,0-6.4,2.87-6.4,6.4v244.19c0,3.53,2.87,6.4,6.4,6.4h43.29c3.53,0,6.4-2.87,6.4-6.4V88.25c0-3.53-2.87-6.4-6.4-6.4h-43.29Z"/><path class="cls-2" d="m742.4,64.35c-2.48-3.82-2.28-8.35-1.07-12.83,6.06-22.43,16.67-29.4,16.67-29.4,6.79,6.38,14.86,16.35,17.72,29.89,1.82,8.62.06,11.74-.45,12.55-5.6,9.01-26.79,9.16-32.88-.2Z"/><path class="cls-7" d="m759.04,71.97c-7.68,0-14.23-2.77-17.16-7.28-2.26-3.47-2.63-7.84-1.15-13.34,6.05-22.4,16.49-29.47,16.93-29.76.24-.16.56-.13.77.07,9.54,8.96,15.56,19.13,17.91,30.21,1.26,5.94,1.07,10.44-.53,13.01-2.67,4.29-8.97,7.01-16.45,7.08-.11,0-.22,0-.33,0Zm-1.08-49.03c-1.96,1.53-10.76,9.29-16.02,28.75-1.39,5.14-1.07,9.17.99,12.33h0c2.7,4.15,8.85,6.7,16.11,6.7.11,0,.21,0,.32,0,7.05-.07,12.96-2.56,15.4-6.49,1.41-2.26,1.53-6.55.36-12.09-2.26-10.68-8.03-20.5-17.16-29.2Z"/><path class="cls-7" d="m758.5,81.42c-.69,0-1.25-.56-1.25-1.25v-21.17c0-.69.56-1.25,1.25-1.25s1.25.56,1.25,1.25v21.17c0,.69-.56,1.25-1.25,1.25Z"/><polygon class="cls-5" points="725.87 339.15 732.13 380.29 785.78 380.29 791.15 339.15 725.87 339.15"/><path class="cls-7" d="m786.34,380.92h-54.75l-6.45-42.39h66.73l-5.53,42.39Zm-53.67-1.25h52.57l5.2-39.88h-63.84l6.07,39.88Z"/><path class="cls-5" d="m737.21,661.2c-1.73,0-3.13-1.4-3.14-3.13-.18-51.53-.21-97.46-.23-134.36-.03-45.54-.05-78.44-.31-96.24v-.2c-.13-8.96-.48-32.77,14.22-42.36,1.83-1.2,8.37-4.96,15.72-3.27,12.58,2.89,20.8,19.39,19.99,40.14-.07,1.73-1.54,3.05-3.26,3.01-1.73-.07-3.08-1.53-3.01-3.26.67-17.13-5.83-31.65-15.12-33.78-5.06-1.16-9.96,1.81-10.89,2.41-11.8,7.71-11.49,29.01-11.38,37.02v.2c.26,17.85.28,50.77.32,96.33.03,36.9.06,82.82.23,134.35,0,1.73-1.39,3.14-3.13,3.15h-.01Z"/><path class="cls-7" d="m737.23,661.83h-.01c-2.07,0-3.76-1.68-3.76-3.75-.17-51.03-.21-96.64-.23-133.28v-1.61c-.03-45.27-.06-77.97-.31-95.71v-.2c-.13-9.05-.48-33.11,14.5-42.9,1.88-1.23,8.62-5.1,16.21-3.36,12.88,2.96,21.3,19.72,20.47,40.78-.08,2.04-1.81,3.61-3.9,3.61-2.08-.08-3.71-1.83-3.63-3.91.66-16.83-5.63-31.08-14.63-33.15-4.81-1.1-9.51,1.74-10.41,2.33-11.51,7.52-11.2,28.56-11.09,36.48v.2c.26,17.79.28,50.51.32,95.81v1.61c.03,36.64.06,82.24.23,133.26,0,1.01-.38,1.95-1.09,2.67-.71.71-1.65,1.11-2.66,1.11Zm22.42-280c-5.53,0-10.09,2.65-11.55,3.6-14.41,9.41-14.06,32.96-13.94,41.83v.2c.26,17.74.28,50.45.31,95.72v1.61c.03,36.64.06,82.25.23,133.28,0,1.38,1.13,2.5,2.51,2.5h.01c.67,0,1.3-.27,1.77-.74.47-.48.73-1.11.73-1.78-.17-51.02-.21-96.62-.23-133.26v-1.61c-.03-45.29-.06-78.02-.31-95.79v-.2c-.12-8.12-.43-29.66,11.66-37.56.97-.63,6.07-3.71,11.38-2.5,9.58,2.2,16.29,17,15.61,34.42-.05,1.38,1.03,2.55,2.41,2.6.02,0,.04,0,.05,0,1.36,0,2.5-1.07,2.55-2.41.8-20.44-7.22-36.69-19.5-39.51-1.26-.29-2.5-.41-3.69-.41Z"/><circle class="cls-5" cx="737.78" cy="663.75" r="10.66"/><path class="cls-7" d="m737.78,675.04c-6.22,0-11.28-5.06-11.28-11.28s5.06-11.28,11.28-11.28,11.28,5.06,11.28,11.28-5.06,11.28-11.28,11.28Zm0-21.31c-5.53,0-10.03,4.5-10.03,10.03s4.5,10.03,10.03,10.03,10.03-4.5,10.03-10.03-4.5-10.03-10.03-10.03Z"/><path class="cls-4" d="m870.39,340.09h-43.29c-4.22,0-7.66-3.44-7.66-7.66V88.25c0-4.22,3.44-7.66,7.66-7.66h43.29c4.22,0,7.66,3.44,7.66,7.66v244.19c0,4.22-3.44,7.66-7.66,7.66Z"/><path class="cls-3" d="m1280.83,654.2c-19.71,0-38.91-8.51-48.92-18.03-4.77-4.54-7.14-9.01-6.86-12.94.33-4.6,4.19-8.24,9.63-11.08-2.15-6.13-2.27-13.58-.26-19.87,2.11-6.62,6.26-10.94,10.6-13.84-1.65-2.65-2.44-5.22-2.37-7.68.24-7.73,8.1-13.1,13.98-16.46-3.54-5.34-4.02-9.61-3.65-12.51.5-3.91,2.71-7.39,6.46-10.23-.79-1.97-1.25-4.13-1.05-6.4.33-3.82,2.41-7.01,5.35-9.53-1.36-1.77-4.79-6.29-3.97-10.87.52-2.93,2.56-5.05,5.31-6.57-.68-1.28-1.07-2.65-1.04-4.08.04-1.86.77-3.56,1.93-5.05-.13-.17-.27-.38-.37-.65-.86-2.18.48-6.02,15.88-19.21.56-.48,1.4-.41,1.88.15.48.56.41,1.4-.15,1.88-12.03,10.3-14.54,14.25-15.03,15.61,3.11-2.52,7.41-4.14,10.93-4.55,5.35-.62,11.05,1.31,13.45,3.54.92.85,1.36,1.73,1.33,2.63-.04,1.08-.16,3.96-13.82,5.03-.29.02-6.42.45-11.95-2.85-.85,1.08-1.38,2.27-1.4,3.53-.02.98.27,1.96.79,2.9,4.69-1.83,10.53-2.37,14.68-2.29,1.5.03,14.65.41,14.95,5.14.08,1.2-.7,2.49-2.25,3.72-3.15,2.5-10.56,5.41-18.06,3.19-3.35-1-7.54-3.31-10.19-6.39-2.26,1.18-3.88,2.76-4.24,4.8-.62,3.43,2.33,7.3,3.48,8.79,4.61-3.08,10.52-4.79,15.32-4.96,7.12-.24,14.22,2.55,17.03,5.39,1.01,1.02,1.5,2.07,1.46,3.11-.04,1.01-.58,1.94-1.59,2.77-3.48,2.85-12.58,4.29-19.87,3.15-6.39-1-10.42-3.75-12.68-5.88-2.48,2.1-4.22,4.72-4.49,7.79-.14,1.61.14,3.18.66,4.64.47-.28.95-.55,1.46-.82,4.81-2.53,10.95-4.09,16.43-4.17,8.09-.13,17.89,3.18,21.94,7.35,1.32,1.36,1.97,2.74,1.91,4.1-.12,2.73-3.15,5.63-8.1,7.74-7.83,3.34-20.13,4.46-29.02-3.38-1.14-1.01-3.73-3.49-5.65-6.82-2.71,2.17-4.62,4.88-5.03,8.09-.32,2.46.14,6.14,3.34,10.88.16-.09.32-.17.47-.25,12.06-6.54,22.77-5.76,26.81-5.12,7.73,1.22,22.5,6.84,22.01,12.79-.22,2.65-3.4,5.24-8.73,7.12-8.65,3.05-26.51,4.81-38.58-7.91-1.03-1.09-1.94-2.14-2.74-3.16-5.41,3.06-12.69,7.92-12.89,14.36-.06,1.95.6,4.02,1.97,6.21,3.45-1.93,6.8-3.07,9.14-3.87,21.57-7.33,45.04,2.51,54.76,10.43,2.83,2.31,6.13,5.73,5.72,8.95-.19,1.55-1.37,3.73-5.91,5.36-13.43,4.83-44.55,1.94-60.86-13.42-1.38-1.3-2.58-2.59-3.58-3.86-3.96,2.65-7.73,6.55-9.61,12.45-1.81,5.67-1.73,12.35.14,17.9,11.01-4.9,26.63-7.04,33.84-7.47,18.25-1.09,40.17,3.55,46.93,9.91,1.42,1.33,2.13,2.72,2.14,4.14,0,1.37-.67,2.71-2.01,3.96-6.4,6.02-28.17,10.3-46.59,9.14-11.57-.73-28.95-1.81-35.69-15.98-4.68,2.48-7.78,5.42-8.02,8.72-.22,3.07,1.93,6.91,6.04,10.82,10.89,10.36,33.16,19.47,54.65,16.84,10.44-1.28,20.66-5.36,30.37-12.14.6-.42,1.43-.27,1.86.33.42.6.27,1.43-.33,1.86-10.07,7.04-20.69,11.28-31.57,12.61-2.63.32-5.26.47-7.89.47Zm-42.71-40.68c6.06,12.77,21.86,13.76,33.46,14.49,18.8,1.18,39.42-3.56,44.59-8.42.53-.5,1.17-1.26,1.17-2.02,0-.81-.71-1.64-1.3-2.2-5.6-5.27-26.03-10.32-44.95-9.19-10.67.63-23.94,3.26-32.98,7.34Zm10.74-34.28c.88,1.08,1.91,2.19,3.11,3.32,16.09,15.16,46.78,16.94,58.13,12.86,2.51-.9,4.03-2.06,4.17-3.18.15-1.17-1.03-3.51-4.76-6.55-9.97-8.12-32.76-16.58-52.22-9.97-2.16.73-5.25,1.78-8.42,3.54Zm11.71-24.07c.68.85,1.45,1.72,2.31,2.63,11.14,11.73,27.72,10.06,35.77,7.23,4.44-1.56,6.86-3.61,6.96-4.82.23-2.72-10.15-8.42-19.77-9.94-3.78-.6-13.78-1.32-25.13,4.83-.05.03-.09.05-.14.08Zm2.27-22.67c1.72,3.07,4.18,5.42,5.23,6.36,7.45,6.57,18.54,6.2,26.22,2.93,4.18-1.78,6.43-4.07,6.49-5.4.02-.58-.39-1.34-1.15-2.13-3.17-3.26-11.98-6.63-19.99-6.55-5.25.08-11.83,1.73-16.79,4.8Zm4.89-16.51c2.02,1.8,5.49,4,10.9,4.85,7.02,1.1,15.18-.46,17.77-2.58.56-.46.62-.75.62-.82,0-.19-.17-.59-.69-1.11-2.36-2.39-8.99-4.81-15.04-4.6-4.17.14-9.44,1.63-13.56,4.27Zm1.51-16.68c2.25,2.29,5.61,4.12,8.35,4.94,6.11,1.82,12.44-.44,15.2-2.4,1.37-.97,1.67-1.66,1.68-1.8-.41-1.07-6.18-2.52-12.33-2.63-3.78-.08-8.83.47-12.9,1.88Zm.85-10.6c4.65,2.47,9.72,2.11,9.77,2.1,7.61-.59,11.02-1.89,11.39-2.57-.26-.97-5.67-4.05-11.83-3.32-3,.35-6.7,1.75-9.33,3.79Z"/><polygon class="cls-6" points="1281.76 25.98 1368.67 202.08 1563 230.32 1422.38 367.39 1455.58 560.94 1281.76 469.56 1107.94 560.94 1141.14 367.39 1000.52 230.32 1194.85 202.08 1281.76 25.98"/></svg>