<?xml version="1.0" encoding="UTF-8"?><svg id="Layer_99" xmlns="http://www.w3.org/2000/svg" width="1400" height="700" viewBox="0 0 1400 700"><defs><style>.cls-1{fill:#b40a00;}.cls-2{fill:#d4af37;}.cls-3{fill:#e0f1fb;}.cls-4{fill:#42502f;}.cls-5{fill:#428c2f;}.cls-6{fill:#426e2f;}.cls-7{fill:#5e110c;}.cls-8{fill:#7d0a00;}</style></defs><circle class="cls-1" cx="506.32" cy="148.95" r="112.96"/><path d="m446.96,293.51h3.52l-.35,2.14h-3.49l-1.02,6.62h-2.4l1.02-6.62h-4.32l-1.02,6.62h-2.37l1.02-6.62h-3.58l.32-2.14h3.58l.64-4.22h-3.55l.32-2.14h3.55l.96-6.21h2.4l-.96,6.21h4.29l.96-6.21h2.4l-.93,6.21h3.46l-.32,2.14h-3.49l-.64,4.22Zm-2.4,0l.64-4.22h-4.29l-.64,4.22h4.29Z"/><path d="m471.6,285.96c0,2.18-1.24,3.71-3.71,4.61.9.28,1.63.59,2.21.93,1.73,1,2.59,2.51,2.59,4.51s-.76,3.53-2.27,4.69-3.54,1.74-6.08,1.74c-.92,0-2.08-.05-3.49-.16-1.41-.11-2.44-.16-3.1-.16-.58,0-1.12.03-1.63.1l-1.5.19s-.12.01-.22.03h-.22c-.92-.02-1.38-.41-1.38-1.15,0-.68.33-1.02.99-1.02.17,0,.46.03.86.1.28.04.5.06.67.06,1.09,0,1.63-.79,1.63-2.37v-12.86c0-1.6-.54-2.4-1.63-2.4-.19,0-.42.02-.67.06-.38.06-.67.1-.86.1-.66,0-.99-.34-.99-1.02,0-.75.49-1.12,1.47-1.12h.42l1.57.22c.45.06,1.06.1,1.82.1.81,0,1.96-.06,3.46-.19,1-.08,2.08-.13,3.23-.13,2.16,0,3.83.45,5.04,1.36,1.21.91,1.81,2.17,1.81,3.79Zm-12.26,1.38c0,1.13.1,1.83.3,2.1.2.27.76.4,1.68.4h1.79c3.78,0,5.66-1.23,5.66-3.68,0-2.24-1.56-3.36-4.67-3.36-2.18,0-3.51.14-4.02.42-.5.28-.75.99-.75,2.14v1.98Zm0,6.5v3.55c0,1.39.23,2.24.7,2.56.47.32,1.75.48,3.84.48,3.99,0,5.98-1.49,5.98-4.48,0-2.75-1.92-4.13-5.76-4.13h-2.66c-1.15,0-1.81.26-1.98.77-.09.26-.13.67-.13,1.25Z"/><path d="m488.82,282.5v11.04h3.78c.7,0,1.06.36,1.06,1.09s-.37,1.09-1.12,1.09h-3.71v1.95c0,1.77.48,2.66,1.44,2.66.26,0,.83-.04,1.73-.13.9,0,1.34.36,1.34,1.09s-.38,1.12-1.15,1.12c-.47,0-1.1-.06-1.89-.19-.66-.11-1.48-.16-2.46-.16-.6,0-1.49.06-2.69.18-1.2.12-2.09.18-2.69.18-.81,0-1.22-.36-1.22-1.07,0-.76.49-1.14,1.47-1.14.21,0,.53.02.94.06.42.04.73.06.94.06,1.07,0,1.6-.88,1.6-2.66v-1.95h-9.92c-.98,0-1.47-.43-1.47-1.28,0-.34.12-.68.35-1.02l8.48-10.53c.9-1.11,1.56-1.83,1.98-2.16.43-.33.92-.5,1.47-.5,1.15,0,1.73.76,1.73,2.27Zm-10.91,11.04h8.29l.22-10.46-8.51,10.46Z"/><path d="m504.72,302.98c-2.71,0-4.84-1-6.38-2.99-1.55-1.99-2.32-4.74-2.32-8.24s.8-6.37,2.42-8.43c1.61-2.06,3.81-3.09,6.61-3.09s4.77.99,6.32,2.96,2.32,4.65,2.32,8.02c0,3.65-.8,6.52-2.4,8.62-1.6,2.1-3.79,3.15-6.56,3.15Zm.26-20.38c-3.93,0-5.96,2.93-6.11,8.8v.48c0,2.79.51,4.96,1.54,6.48,1.02,1.53,2.47,2.29,4.35,2.29s3.42-.83,4.51-2.5,1.63-3.96,1.63-6.88-.51-4.94-1.54-6.43c-1.02-1.49-2.49-2.24-4.38-2.24Z"/><path d="m531.79,298.66l-1.15-3.14c-.13-.34-.26-.55-.4-.64-.14-.09-.42-.13-.85-.13h-5.7c-.43,0-.72.08-.88.22-.16.15-.37.55-.62,1.22l-.93,2.46c-.09.24-.13.46-.13.67,0,.68.42,1.02,1.25,1.02.21,0,.52-.02.91-.06.39-.04.69-.06.88-.06.87,0,1.31.37,1.31,1.12,0,.71-.48,1.06-1.44,1.06-.17,0-.41-.02-.7-.06l-1.6-.2c-.3-.04-.79-.06-1.47-.06-.75,0-1.27.02-1.57.05l-1.34.16c-.6.07-1.04.11-1.31.11-.83,0-1.25-.35-1.25-1.06,0-.75.41-1.12,1.22-1.12.17,0,.3.04.38.13h.42c.58,0,1.01-.22,1.31-.67.13-.17.34-.67.64-1.51l5.95-16.15c.34-.9,1.01-1.35,2.02-1.35s1.63.45,1.95,1.34l5.73,15.87c.36,1,.69,1.66.99,1.98.3.32.73.48,1.28.48.17,0,.3-.01.38-.04l.9-.09c.81,0,1.22.35,1.22,1.05,0,.75-.41,1.12-1.22,1.12-.24,0-.54-.02-.93-.07-1.34-.17-2.35-.25-3.01-.25-.79,0-2.07.09-3.84.26-.45.04-.79.06-1.02.06-.85,0-1.28-.36-1.28-1.09s.47-1.09,1.41-1.09c.19,0,.47.02.85.06s.66.06.85.06c.7,0,1.06-.29,1.06-.86,0-.08-.09-.36-.26-.83Zm-2.3-6.53l-2.88-8.83-2.94,8.83c-.04.13-.06.2-.06.22,0,.19.16.29.48.29h5.09c.26,0,.38-.08.38-.26,0-.04-.02-.13-.06-.26Z"/><path d="m548.97,302.98c-2.71,0-4.84-1-6.38-2.99-1.55-1.99-2.32-4.74-2.32-8.24s.81-6.37,2.42-8.43,3.81-3.09,6.61-3.09,4.77.99,6.32,2.96c1.55,1.97,2.32,4.65,2.32,8.02,0,3.65-.8,6.52-2.4,8.62-1.6,2.1-3.79,3.15-6.56,3.15Zm.26-20.38c-3.92,0-5.96,2.93-6.11,8.8v.48c0,2.79.51,4.96,1.54,6.48,1.02,1.53,2.47,2.29,4.35,2.29s3.42-.83,4.51-2.5,1.63-3.96,1.63-6.88-.51-4.94-1.54-6.43c-1.02-1.49-2.49-2.24-4.38-2.24Z"/><path d="m569.36,302.98c-2.71,0-4.84-1-6.38-2.99-1.55-1.99-2.32-4.74-2.32-8.24s.81-6.37,2.42-8.43,3.81-3.09,6.61-3.09,4.77.99,6.32,2.96c1.55,1.97,2.32,4.65,2.32,8.02,0,3.65-.8,6.52-2.4,8.62-1.6,2.1-3.79,3.15-6.56,3.15Zm.26-20.38c-3.92,0-5.96,2.93-6.11,8.8v.48c0,2.79.51,4.96,1.54,6.48,1.02,1.53,2.47,2.29,4.35,2.29s3.42-.83,4.51-2.5,1.63-3.96,1.63-6.88-.51-4.94-1.54-6.43c-1.02-1.49-2.49-2.24-4.38-2.24Z"/><circle class="cls-8" cx="893.68" cy="148.95" r="112.96"/><path d="m833.75,293.51h3.52l-.35,2.14h-3.49l-1.02,6.62h-2.4l1.02-6.62h-4.32l-1.02,6.62h-2.37l1.02-6.62h-3.58l.32-2.14h3.58l.64-4.22h-3.55l.32-2.14h3.55l.96-6.21h2.4l-.96,6.21h4.29l.96-6.21h2.4l-.93,6.21h3.46l-.32,2.14h-3.49l-.64,4.22Zm-2.4,0l.64-4.22h-4.29l-.64,4.22h4.29Z"/><path d="m843.38,282.15l-.06.35c.53-.85,1.01-1.43,1.44-1.73.43-.3,1-.45,1.73-.45,1.05,0,2.27.54,3.68,1.63,1.58,1.22,2.79,1.82,3.65,1.82.9,0,1.45-.31,1.66-.93h-.26c-.3,0-.57-.13-.82-.39s-.37-.55-.37-.87c0-.41.15-.76.46-1.05s.68-.44,1.1-.44c1.41,0,2.11.95,2.11,2.86,0,1.41-.35,2.65-1.06,3.72-.45.66-.93,1.24-1.44,1.73-.23.24-.7.66-1.41,1.28-1.45,1.26-2.44,2.43-2.98,3.5-.77,1.52-1.15,3.36-1.15,5.52,0-.04,0,.19.03.71.04,1.03.06,1.49.06,1.38,0,1.35-.53,2.02-1.6,2.02s-1.66-.87-1.66-2.62c0-2.75.51-5.15,1.54-7.2.83-1.66,2.6-3.61,5.31-5.82,1.11-.92,1.74-1.67,1.89-2.27-.73.62-1.65.93-2.77.93-1.37,0-2.71-.49-4.02-1.47l-1.32-.99c-.47-.34-1-.51-1.58-.51-1.37,0-2.06.88-2.06,2.62,0,.53.05,1.01.15,1.44.18.75.27,1.3.27,1.66s-.12.67-.37.93c-.25.26-.55.38-.91.38-.85,0-1.28-.46-1.28-1.38,0-.36.05-.92.14-1.66.1-.75.14-1.32.14-1.73,0-.6-.03-1.24-.1-1.92-.06-.68-.1-1.28-.1-1.79,0-.88.37-1.31,1.12-1.31.62,0,.93.37.93,1.12,0,.15-.04.46-.13.93Z"/><path d="m864.11,285.19c0-1.6-.54-2.4-1.63-2.4-.19,0-.42.02-.67.06-.38.06-.67.1-.86.1-.66,0-.99-.34-.99-1.02,0-.75.48-1.12,1.44-1.12.11,0,.25.01.42.03l1.7.22c.64.09,1.32.13,2.05.13.6,0,1.2-.03,1.79-.1l2.08-.22c.41-.04.94-.06,1.6-.06,1.94,0,3.56.28,4.86.83,1.71.73,3.06,1.98,4.05,3.78s1.49,3.87,1.49,6.24c0,2.09-.4,3.97-1.18,5.65-.79,1.67-1.87,2.91-3.23,3.7-1.64.96-3.63,1.44-5.95,1.44-.47,0-.95-.02-1.44-.06l-2.21-.19c-.75-.06-1.53-.1-2.34-.1-.7,0-1.28.03-1.73.1l-1.54.22s-.12.01-.22.03h-.26c-.92,0-1.38-.37-1.38-1.12,0-.3.1-.55.29-.75.19-.2.43-.3.7-.3.23,0,.52.03.86.1.15.04.37.06.67.06,1.09,0,1.63-.8,1.63-2.4v-12.83Zm2.69-.33v13.49c0,.98.48,1.57,1.44,1.79.32.08,1.22.13,2.69.13,2.56,0,4.42-.69,5.57-2.07,1.39-1.66,2.08-3.85,2.08-6.57,0-2.13-.42-3.93-1.26-5.4-.84-1.48-2-2.43-3.47-2.85-.94-.28-2.07-.42-3.39-.42-1.69,0-2.71.1-3.09.29-.37.19-.56.73-.56,1.63Z"/><path d="m892.66,302.98c-2.71,0-4.84-1-6.38-2.99-1.55-1.99-2.32-4.74-2.32-8.24s.8-6.37,2.42-8.43c1.61-2.06,3.81-3.09,6.61-3.09s4.77.99,6.32,2.96c1.55,1.97,2.32,4.65,2.32,8.02,0,3.65-.8,6.52-2.4,8.62-1.6,2.1-3.79,3.15-6.56,3.15Zm.26-20.38c-3.93,0-5.96,2.93-6.11,8.8v.48c0,2.79.51,4.96,1.54,6.48,1.02,1.53,2.47,2.29,4.35,2.29s3.42-.83,4.51-2.5,1.63-3.96,1.63-6.88-.51-4.94-1.54-6.43-2.49-2.24-4.38-2.24Z"/><path d="m919.73,298.66l-1.15-3.14c-.13-.34-.26-.55-.4-.64s-.42-.13-.85-.13h-5.7c-.43,0-.72.08-.88.22-.16.15-.37.55-.62,1.22l-.93,2.46c-.09.24-.13.46-.13.67,0,.68.42,1.02,1.25,1.02.21,0,.52-.02.91-.06.39-.04.69-.06.88-.06.87,0,1.31.37,1.31,1.12,0,.7-.48,1.06-1.44,1.06-.17,0-.41-.02-.7-.06l-1.6-.2c-.3-.04-.79-.06-1.47-.06-.75,0-1.27.02-1.57.05l-1.34.16c-.6.07-1.04.11-1.31.11-.83,0-1.25-.35-1.25-1.06,0-.75.41-1.12,1.22-1.12.17,0,.3.04.38.13h.42c.58,0,1.01-.22,1.31-.67.13-.17.34-.67.64-1.51l5.95-16.15c.34-.9,1.01-1.35,2.02-1.35s1.63.45,1.95,1.34l5.73,15.87c.36,1,.69,1.66.99,1.98.3.32.73.48,1.28.48.17,0,.3-.01.38-.04l.9-.09c.81,0,1.22.35,1.22,1.05,0,.75-.41,1.12-1.22,1.12-.24,0-.54-.02-.93-.07-1.34-.17-2.35-.25-3.01-.25-.79,0-2.07.08-3.84.26-.45.04-.79.06-1.02.06-.85,0-1.28-.36-1.28-1.09s.47-1.09,1.41-1.09c.19,0,.47.02.85.06s.66.06.85.06c.7,0,1.06-.29,1.06-.86,0-.08-.09-.36-.26-.83Zm-2.3-6.53l-2.88-8.83-2.94,8.83c-.04.13-.06.2-.06.22,0,.19.16.29.48.29h5.09c.26,0,.38-.08.38-.26,0-.04-.02-.13-.06-.26Z"/><path d="m936.91,302.98c-2.71,0-4.84-1-6.38-2.99-1.55-1.99-2.32-4.74-2.32-8.24s.81-6.37,2.42-8.43c1.61-2.06,3.81-3.09,6.61-3.09s4.77.99,6.32,2.96c1.55,1.97,2.32,4.65,2.32,8.02,0,3.65-.8,6.52-2.4,8.62-1.6,2.1-3.79,3.15-6.56,3.15Zm.26-20.38c-3.92,0-5.96,2.93-6.11,8.8v.48c0,2.79.51,4.96,1.54,6.48,1.02,1.53,2.47,2.29,4.35,2.29s3.42-.83,4.51-2.5,1.63-3.96,1.63-6.88-.51-4.94-1.54-6.43c-1.02-1.49-2.49-2.24-4.38-2.24Z"/><path d="m957.3,302.98c-2.71,0-4.84-1-6.38-2.99-1.55-1.99-2.32-4.74-2.32-8.24s.81-6.37,2.42-8.43c1.61-2.06,3.81-3.09,6.61-3.09s4.77.99,6.32,2.96c1.55,1.97,2.32,4.65,2.32,8.02,0,3.65-.8,6.52-2.4,8.62-1.6,2.1-3.79,3.15-6.56,3.15Zm.26-20.38c-3.92,0-5.96,2.93-6.11,8.8v.48c0,2.79.51,4.96,1.54,6.48,1.02,1.53,2.47,2.29,4.35,2.29s3.42-.83,4.51-2.5,1.63-3.96,1.63-6.88-.51-4.94-1.54-6.43c-1.02-1.49-2.49-2.24-4.38-2.24Z"/><circle class="cls-7" cx="1277.04" cy="148.95" r="112.96"/><path d="m1222.29,293.51h3.52l-.35,2.14h-3.49l-1.02,6.62h-2.4l1.02-6.62h-4.32l-1.02,6.62h-2.37l1.02-6.62h-3.58l.32-2.14h3.58l.64-4.22h-3.55l.32-2.14h3.55l.96-6.21h2.4l-.96,6.21h4.29l.96-6.21h2.4l-.93,6.21h3.46l-.32,2.14h-3.49l-.64,4.22Zm-2.4,0l.64-4.22h-4.29l-.64,4.22h4.29Z"/><path d="m1233.43,284.45l-.38,5.12c1.66-1.15,3.5-1.73,5.5-1.73,2.39,0,4.28.63,5.66,1.9s2.08,3,2.08,5.2c0,2.39-.83,4.33-2.48,5.81s-3.81,2.22-6.48,2.22c-2.2,0-4.06-.54-5.58-1.62-1.53-1.08-2.29-2.39-2.29-3.95,0-.77.25-1.41.74-1.94.49-.52,1.09-.78,1.79-.78.55,0,1.01.16,1.36.48.35.32.53.75.53,1.28,0,.36-.12.68-.37.94-.25.27-.54.4-.88.4-.26.02-.38.1-.38.22,0,.7.56,1.34,1.68,1.9s2.37.85,3.76.85c1.71,0,3.11-.53,4.21-1.58s1.65-2.41,1.65-4.05-.46-2.82-1.39-3.73c-.93-.91-2.2-1.36-3.82-1.36-1.98,0-3.56.58-4.74,1.73-.47.45-.8.74-.99.88-.19.14-.44.23-.74.27h-.13c-.83,0-1.25-.47-1.25-1.41,0-.04.01-.08.03-.13l.45-6.18c.02-.34.04-.93.06-1.76.02-1.17.11-1.89.26-2.16.15-.27.54-.4,1.18-.4h7.94c.62,0,1.09-.01,1.41-.03.64-.04,1.08-.06,1.31-.06.85,0,1.28.63,1.28,1.89l-.03.22c0,.55.08,1.21.26,1.95.08.26.13.49.13.7,0,.68-.36,1.02-1.09,1.02-.68,0-1.05-.5-1.09-1.5-.04-1.19-.57-1.79-1.57-1.79h-6.69c-.53,0-.83.38-.9,1.15Z"/><path d="m1252.66,285.19c0-1.58-.54-2.37-1.63-2.37-.3,0-.52.02-.67.06-.34.06-.63.1-.86.1-.28,0-.51-.1-.7-.3-.19-.2-.29-.45-.29-.75,0-.75.45-1.12,1.34-1.12.02,0,.18.01.48.03,3.19.21,4.68.32,4.46.32h.32l7.69-.22c.15,0,.7-.03,1.66-.1.34-.02.65-.03.92-.03,1.11,0,1.66.49,1.66,1.47,0,.17-.03.71-.09,1.63-.05.68-.07,1.31-.07,1.89,0,.75.02,1.27.05,1.57.07.62.11,1.08.11,1.38,0,.81-.38,1.22-1.14,1.22s-1.14-.57-1.14-1.7v-1.66c0-1.79-.37-2.85-1.12-3.17-.55-.23-1.98-.35-4.29-.35-1.51,0-2.41.03-2.69.1-.92.23-1.38.88-1.38,1.92v3.2c0,.85.19,1.34.57,1.47.15.04.4.06.76.06h1.29c1.33,0,1.99-.46,1.99-1.38,0-.26-.03-.59-.08-.99-.05-.41-.08-.77-.08-1.09,0-.85.38-1.28,1.14-1.28s1.14.46,1.14,1.38c0,.17-.07.83-.21,1.98-.12.98-.18,1.85-.18,2.59,0,.43.04,1.18.13,2.27.02.17.07.54.16,1.12.06.47.1.84.1,1.12,0,.77-.38,1.15-1.15,1.15s-1.12-.45-1.12-1.34c0-.23.03-.58.08-1.02.05-.45.08-.79.08-1.02,0-.92-.61-1.38-1.82-1.38h-1.44c-.62,0-1,.11-1.14.32s-.21.67-.21,1.38v1.98c0,.34.01.8.03,1.38.02.7.03,1.17.03,1.41.02.85.19,1.39.51,1.6.23.15.79.22,1.66.22h4.35c1.26,0,2.12-.19,2.59-.56.47-.37.7-1.07.7-2.1,0-.32-.02-.79-.05-1.42-.03-.63-.05-1.1-.05-1.42,0-.96.38-1.44,1.14-1.44.8,0,1.2.49,1.2,1.47,0,.38-.02.97-.05,1.76-.03.79-.05,1.38-.05,1.76,0,.3.02.74.05,1.33.03.59.05,1.03.05,1.33,0,1-.49,1.5-1.47,1.5-.23,0-.61-.02-1.12-.06-.26-.02-.73-.03-1.41-.03.15,0-.68-.02-2.5-.06-1.81-.04-3.38-.06-4.7-.06-2.01,0-3.97.06-5.89.19-.08,0-.18.01-.29.03h-.19c-.9,0-1.34-.38-1.34-1.15,0-.68.33-1.02.99-1.02.11,0,.39.02.86.06.23.06.46.1.67.1,1.09,0,1.63-.8,1.63-2.4v-12.83Z"/><path d="m1278.45,294.88l-.1-9.28c-.02-1.09-.13-1.81-.34-2.18-.2-.36-.6-.54-1.2-.54-.21,0-.52.03-.93.08-.41.05-.72.08-.93.08-.83,0-1.25-.37-1.25-1.12s.39-1.12,1.18-1.12c.26,0,.66.03,1.2.08.54.05.96.08,1.26.08.68,0,1.25-.02,1.7-.06.66-.06,1.07-.1,1.22-.1.47,0,.76.14.86.42.08.19.13.52.13.99,0,.06-.01.32-.03.77-.11,2.28-.16,4.35-.16,6.21v3.62c0,.66.01,1.55.03,2.66.04,1.34.06,2.23.06,2.66.02,1.47.51,2.21,1.47,2.21.23,0,.59-.03,1.06-.08.47-.05.82-.08,1.06-.08,1.02,0,1.54.37,1.54,1.12s-.47,1.12-1.41,1.12c-.36,0-.7-.02-1.02-.06-1.79-.23-3.16-.35-4.1-.35s-2.09.09-3.46.27c-.77.1-1.31.15-1.63.15-.92,0-1.38-.38-1.38-1.14s.52-1.1,1.57-1.1c.32,0,.65.03.99.1.51.04.83.06.96.06.75,0,1.21-.29,1.38-.88.17-.59.26-2.11.26-4.56Z"/><path d="m1296.34,294.88l-.1-9.28c-.02-1.09-.13-1.81-.34-2.18-.2-.36-.6-.54-1.2-.54-.21,0-.52.03-.93.08s-.71.08-.93.08c-.83,0-1.25-.37-1.25-1.12s.39-1.12,1.18-1.12c.26,0,.66.03,1.2.08.54.05.96.08,1.26.08.68,0,1.25-.02,1.7-.06.66-.06,1.07-.1,1.22-.1.47,0,.76.14.86.42.08.19.13.52.13.99,0,.06-.01.32-.03.77-.11,2.28-.16,4.35-.16,6.21v3.62c0,.66.01,1.55.03,2.66.04,1.34.06,2.23.06,2.66.02,1.47.51,2.21,1.47,2.21.23,0,.59-.03,1.06-.08.47-.05.82-.08,1.06-.08,1.02,0,1.54.37,1.54,1.12s-.47,1.12-1.41,1.12c-.36,0-.7-.02-1.02-.06-1.79-.23-3.16-.35-4.1-.35s-2.09.09-3.46.27c-.77.1-1.31.15-1.63.15-.92,0-1.38-.38-1.38-1.14s.52-1.1,1.57-1.1c.32,0,.65.03.99.1.51.04.83.06.96.06.75,0,1.21-.29,1.38-.88.17-.59.26-2.11.26-4.56Z"/><path d="m1315.09,302.98c-2.71,0-4.84-1-6.38-2.99-1.55-1.99-2.32-4.74-2.32-8.24s.81-6.37,2.42-8.43c1.61-2.06,3.81-3.09,6.61-3.09s4.77.99,6.32,2.96c1.55,1.97,2.32,4.65,2.32,8.02,0,3.65-.8,6.52-2.4,8.62-1.6,2.1-3.79,3.15-6.56,3.15Zm.26-20.38c-3.92,0-5.96,2.93-6.11,8.8v.48c0,2.79.51,4.96,1.54,6.48,1.02,1.53,2.47,2.29,4.35,2.29s3.42-.83,4.51-2.5,1.63-3.96,1.63-6.88-.51-4.94-1.54-6.43c-1.02-1.49-2.49-2.24-4.38-2.24Z"/><path d="m1336.24,280.23c2.37,0,4.3.91,5.79,2.72v-.72c-.04-.13-.06-.21-.06-.23-.04-.48-.06-.7-.06-.66,0-.74.33-1.11.99-1.11.7,0,1.06.45,1.06,1.34,0,.17-.02.68-.06,1.54-.13,1.07-.19,1.8-.19,2.21,0,.58.04,1.16.11,1.76l.15,1.22v.32c0,.96-.38,1.44-1.15,1.44-.83,0-1.24-.46-1.22-1.36v-1.14c.04-1.52-.44-2.76-1.44-3.71-1-.95-2.31-1.43-3.93-1.43-2.11,0-3.75.81-4.95,2.43-1.19,1.62-1.79,3.86-1.79,6.72s.61,5.2,1.84,6.83c1.23,1.63,2.94,2.45,5.14,2.45,1.19,0,2.27-.29,3.22-.86s1.62-1.33,2-2.27c.26-.62.38-1.45.38-2.5,0-.98.41-1.47,1.22-1.47.87,0,1.31.49,1.31,1.47,0,2.28-.79,4.15-2.37,5.6-1.58,1.45-3.62,2.18-6.11,2.18-2.88,0-5.18-1.01-6.9-3.04-1.72-2.03-2.58-4.72-2.58-8.1s.88-6.28,2.64-8.42c1.76-2.13,4.08-3.2,6.96-3.2Z"/><circle class="cls-5" cx="506.32" cy="501.42" r="112.96"/><path d="m449.87,645.98h3.52l-.35,2.14h-3.49l-1.02,6.62h-2.4l1.02-6.62h-4.32l-1.02,6.62h-2.37l1.02-6.62h-3.58l.32-2.14h3.58l.64-4.22h-3.55l.32-2.14h3.55l.96-6.21h2.4l-.96,6.21h4.29l.96-6.21h2.4l-.93,6.21h3.46l-.32,2.14h-3.49l-.64,4.22Zm-2.4,0l.64-4.22h-4.29l-.64,4.22h4.29Z"/><path d="m469.58,634.97v11.04h3.78c.7,0,1.06.36,1.06,1.09s-.37,1.09-1.12,1.09h-3.71v1.95c0,1.77.48,2.66,1.44,2.66.26,0,.83-.04,1.73-.13.9,0,1.34.36,1.34,1.09s-.38,1.12-1.15,1.12c-.47,0-1.1-.06-1.89-.19-.66-.11-1.48-.16-2.46-.16-.6,0-1.49.06-2.69.18-1.2.12-2.09.18-2.69.18-.81,0-1.22-.36-1.22-1.07,0-.76.49-1.14,1.47-1.14.21,0,.53.02.94.06s.73.06.94.06c1.07,0,1.6-.88,1.6-2.66v-1.95h-9.92c-.98,0-1.47-.43-1.47-1.28,0-.34.12-.68.35-1.02l8.48-10.53c.9-1.11,1.56-1.83,1.98-2.16s.92-.5,1.47-.5c1.15,0,1.73.76,1.73,2.27Zm-10.91,11.04h8.29l.22-10.46-8.51,10.46Z"/><path d="m480.26,648.92c-.48.55-.77,1.23-.88,2.02.96-1.02,2.12-1.54,3.49-1.54,1.26,0,2.58.55,3.97,1.66,1.54,1.22,2.72,1.82,3.55,1.82.6,0,1.08-.2,1.46-.59.37-.39.56-.9.56-1.52,0-.21-.04-.45-.13-.7-.34.34-.73.51-1.15.51-.92,0-1.38-.45-1.38-1.34,0-.49.18-.9.54-1.22.36-.32.84-.48,1.44-.48.79,0,1.42.28,1.9.85.48.56.72,1.32.72,2.26,0,1.32-.42,2.45-1.25,3.39s-1.85,1.41-3.04,1.41c-1.13,0-2.49-.61-4.08-1.82s-2.98-1.82-4.18-1.82-1.94.43-2.24,1.28h.38c.62,0,.93.31.93.93,0,.96-.53,1.44-1.6,1.44-.7,0-1.27-.3-1.71-.91s-.66-1.42-.66-2.45c0-3.73,2.57-6.42,7.71-8.06l2.3-.74c2.58-.83,3.87-2.23,3.87-4.19,0-1.32-.46-2.37-1.39-3.14-.93-.77-2.2-1.15-3.82-1.15-1.43,0-2.61.29-3.55.86s-1.49,1.37-1.66,2.37c1.15.08,1.73.59,1.73,1.5,0,.56-.2,1.03-.61,1.42s-.91.59-1.5.59c-.73,0-1.31-.25-1.74-.75-.44-.5-.66-1.16-.66-1.97,0-1.75.79-3.21,2.37-4.38,1.58-1.17,3.53-1.76,5.86-1.76s4.11.59,5.55,1.78c1.44,1.18,2.16,2.71,2.16,4.59,0,1.28-.35,2.41-1.04,3.39s-1.66,1.72-2.9,2.21c-.38.15-1.66.6-3.84,1.34-1.56.53-2.81,1.05-3.74,1.54-.68.36-1.26.82-1.74,1.38Z"/><path d="m499.7,643.84c.55-.43,1.3-.81,2.24-1.15-1.17-.66-1.97-1.29-2.4-1.9s-.64-1.39-.64-2.35c0-1.62.69-2.98,2.06-4.08,1.38-1.1,3.07-1.65,5.07-1.65s3.7.55,5.07,1.65c1.38,1.1,2.06,2.46,2.06,4.08,0,.96-.22,1.74-.66,2.35-.44.61-1.23,1.24-2.38,1.9.9.34,1.63.73,2.21,1.15,1.49,1.13,2.24,2.7,2.24,4.7s-.78,3.71-2.34,4.99c-1.56,1.28-3.59,1.92-6.11,1.92s-4.73-.63-6.3-1.89c-1.58-1.26-2.37-2.93-2.37-5.02,0-1.98.75-3.55,2.24-4.7Zm6.46.06c-1.83,0-3.27.41-4.3,1.23-1.04.82-1.55,1.95-1.55,3.38s.53,2.51,1.58,3.38c1.06.86,2.44,1.29,4.14,1.29s3.09-.43,4.14-1.29c1.06-.87,1.58-1.99,1.58-3.38s-.51-2.5-1.54-3.34c-1.02-.84-2.38-1.26-4.06-1.26Zm-.13-8.93c-1.28,0-2.33.32-3.15.98-.82.65-1.23,1.48-1.23,2.48,0,.9.41,1.63,1.22,2.19s1.87.85,3.17.85,2.35-.28,3.15-.85,1.2-1.31,1.2-2.22c0-1-.41-1.82-1.23-2.46-.82-.64-1.86-.96-3.12-.96Z"/><path d="m527.02,632.7c2.37,0,4.3.91,5.79,2.72v-.72c-.04-.13-.06-.21-.06-.23-.04-.48-.06-.7-.06-.66,0-.74.33-1.11.99-1.11.7,0,1.06.45,1.06,1.34,0,.17-.02.68-.06,1.54-.13,1.07-.19,1.8-.19,2.21,0,.58.04,1.16.11,1.76l.15,1.22v.32c0,.96-.38,1.44-1.15,1.44-.83,0-1.24-.45-1.22-1.36v-1.14c.04-1.52-.44-2.76-1.44-3.71-1-.95-2.31-1.43-3.93-1.43-2.11,0-3.75.81-4.95,2.43-1.19,1.62-1.79,3.86-1.79,6.72s.61,5.2,1.84,6.83c1.23,1.63,2.94,2.45,5.14,2.45,1.19,0,2.27-.29,3.22-.87.95-.58,1.62-1.33,2-2.27.26-.62.38-1.45.38-2.5,0-.98.41-1.47,1.22-1.47.87,0,1.31.49,1.31,1.47,0,2.28-.79,4.15-2.37,5.6-1.58,1.45-3.62,2.18-6.11,2.18-2.88,0-5.18-1.01-6.9-3.04-1.72-2.03-2.58-4.72-2.58-8.1s.88-6.28,2.64-8.42c1.76-2.13,4.08-3.2,6.96-3.2Z"/><path d="m541.41,648.92c-.48.55-.77,1.23-.88,2.02.96-1.02,2.12-1.54,3.49-1.54,1.26,0,2.58.55,3.97,1.66,1.54,1.22,2.72,1.82,3.55,1.82.6,0,1.08-.2,1.46-.59.37-.39.56-.9.56-1.52,0-.21-.04-.45-.13-.7-.34.34-.73.51-1.15.51-.92,0-1.38-.45-1.38-1.34,0-.49.18-.9.54-1.22.36-.32.84-.48,1.44-.48.79,0,1.42.28,1.9.85.48.56.72,1.32.72,2.26,0,1.32-.42,2.45-1.25,3.39s-1.85,1.41-3.04,1.41c-1.13,0-2.49-.61-4.08-1.82-1.59-1.22-2.98-1.82-4.18-1.82s-1.94.43-2.24,1.28h.38c.62,0,.93.31.93.93,0,.96-.53,1.44-1.6,1.44-.7,0-1.27-.3-1.71-.91s-.66-1.42-.66-2.45c0-3.73,2.57-6.42,7.71-8.06l2.3-.74c2.58-.83,3.87-2.23,3.87-4.19,0-1.32-.46-2.37-1.39-3.14-.93-.77-2.2-1.15-3.82-1.15-1.43,0-2.61.29-3.55.86s-1.49,1.37-1.66,2.37c1.15.08,1.73.59,1.73,1.5,0,.56-.2,1.03-.61,1.42s-.91.59-1.5.59c-.73,0-1.31-.25-1.74-.75-.44-.5-.66-1.16-.66-1.97,0-1.75.79-3.21,2.37-4.38,1.58-1.17,3.53-1.76,5.86-1.76s4.11.59,5.55,1.78c1.44,1.18,2.16,2.71,2.16,4.59,0,1.28-.35,2.41-1.04,3.39s-1.66,1.72-2.9,2.21c-.38.15-1.66.6-3.84,1.34-1.56.53-2.81,1.05-3.74,1.54-.68.36-1.26.82-1.74,1.38Z"/><path d="m561.68,645.44v-7.78c0-1.58-.54-2.37-1.62-2.37-.28,0-.49.03-.63.09-.34.09-.61.13-.83.13-.28,0-.51-.1-.7-.31s-.29-.47-.29-.77c0-.77.45-1.15,1.34-1.15.11,0,.27.01.48.03l2.21.22c.83.08,1.76.13,2.78.13.55,0,1.75-.03,3.58-.1l3.68-.13c.49-.02,1.07-.05,1.73-.1.3-.04.62-.06.96-.06,1.13,0,1.7.5,1.7,1.5,0,.38-.05.97-.16,1.76-.11.79-.16,1.39-.16,1.79,0,.34.02.77.06,1.28.04.51.06.98.06,1.41,0,.88-.38,1.31-1.15,1.31s-1.18-.5-1.18-1.5c0-.3.02-.75.05-1.37.03-.62.05-1.07.05-1.37,0-1.12-.32-1.84-.96-2.13-.64-.3-2.16-.45-4.54-.45-2.03,0-3.18.18-3.46.54-.21.28-.32,1.26-.32,2.94v2.37c0,.6.08.97.24,1.1s.6.21,1.33.21h1.06c1.39,0,2.08-.51,2.08-1.54,0-.23-.03-.55-.08-.96-.05-.4-.08-.71-.08-.93,0-.81.38-1.22,1.15-1.22.73,0,1.09.47,1.09,1.41,0,.13-.02.38-.07.77l-.22,1.73c-.1.77-.15,1.34-.15,1.73,0,.88.11,1.98.34,3.33.07.45.11.88.11,1.28,0,.83-.38,1.25-1.15,1.25-.73,0-1.09-.45-1.09-1.34,0-.21.02-.53.05-.96.03-.43.05-.75.05-.96,0-.66-.18-1.09-.54-1.28-.24-.15-.73-.22-1.47-.22h-.99c-.75,0-1.21.09-1.38.25-.17.17-.26.63-.26,1.4v3.78c0,1,.11,1.67.34,2.02.22.35.65.52,1.26.52h1.41c.98,0,1.47.36,1.47,1.09,0,.3-.11.55-.34.77-.22.21-.5.32-.82.32-.34,0-.84-.05-1.5-.16-.94-.15-2-.22-3.2-.22-.77,0-1.59.06-2.46.19l-1.09.16c-.06,0-.14.01-.22.03h-.19c-.94,0-1.41-.38-1.41-1.15,0-.68.33-1.02.99-1.02.08,0,.36.02.83.06.23.06.46.1.67.1.58,0,.98-.18,1.2-.53.22-.35.35-.98.37-1.87v-5.06Z"/><circle class="cls-6" cx="893.68" cy="501.42" r="112.96"/><path d="m836.66,645.98h3.52l-.35,2.14h-3.49l-1.02,6.62h-2.4l1.02-6.62h-4.32l-1.02,6.62h-2.37l1.02-6.62h-3.58l.32-2.14h3.58l.64-4.22h-3.55l.32-2.14h3.55l.96-6.21h2.4l-.96,6.21h4.29l.96-6.21h2.4l-.93,6.21h3.46l-.32,2.14h-3.49l-.64,4.22Zm-2.4,0l.64-4.22h-4.29l-.64,4.22h4.29Z"/><path d="m856.37,634.97v11.04h3.78c.7,0,1.06.36,1.06,1.09s-.37,1.09-1.12,1.09h-3.71v1.95c0,1.77.48,2.66,1.44,2.66.26,0,.83-.04,1.73-.13.9,0,1.34.36,1.34,1.09s-.38,1.12-1.15,1.12c-.47,0-1.1-.06-1.89-.19-.66-.11-1.48-.16-2.46-.16-.6,0-1.49.06-2.69.18-1.2.12-2.09.18-2.69.18-.81,0-1.22-.36-1.22-1.07,0-.76.49-1.14,1.47-1.14.21,0,.53.02.94.06s.73.06.94.06c1.07,0,1.6-.88,1.6-2.66v-1.95h-9.92c-.98,0-1.47-.43-1.47-1.28,0-.34.12-.68.35-1.02l8.48-10.53c.9-1.11,1.56-1.83,1.98-2.16.43-.33.92-.5,1.47-.5,1.15,0,1.73.76,1.73,2.27Zm-10.91,11.04h8.29l.22-10.46-8.51,10.46Z"/><path d="m867.04,648.92c-.48.56-.77,1.23-.88,2.02.96-1.02,2.12-1.54,3.49-1.54,1.26,0,2.58.55,3.97,1.66,1.54,1.22,2.72,1.82,3.55,1.82.6,0,1.08-.2,1.46-.59.37-.39.56-.9.56-1.52,0-.21-.04-.45-.13-.7-.34.34-.73.51-1.15.51-.92,0-1.38-.45-1.38-1.34,0-.49.18-.9.54-1.22.36-.32.84-.48,1.44-.48.79,0,1.42.28,1.9.85.48.57.72,1.32.72,2.26,0,1.32-.42,2.45-1.25,3.39s-1.85,1.41-3.04,1.41c-1.13,0-2.49-.61-4.08-1.82-1.59-1.22-2.98-1.82-4.18-1.82s-1.94.43-2.24,1.28h.38c.62,0,.93.31.93.93,0,.96-.53,1.44-1.6,1.44-.7,0-1.27-.3-1.71-.91-.44-.61-.66-1.42-.66-2.45,0-3.73,2.57-6.42,7.71-8.06l2.3-.74c2.58-.83,3.87-2.23,3.87-4.19,0-1.32-.46-2.37-1.39-3.14-.93-.77-2.2-1.15-3.82-1.15-1.43,0-2.61.29-3.55.86-.94.58-1.49,1.37-1.66,2.37,1.15.09,1.73.59,1.73,1.5,0,.56-.2,1.03-.61,1.42s-.91.59-1.5.59c-.73,0-1.31-.25-1.74-.75s-.66-1.16-.66-1.97c0-1.75.79-3.21,2.37-4.38,1.58-1.17,3.53-1.76,5.86-1.76s4.11.59,5.55,1.78c1.44,1.18,2.16,2.71,2.16,4.59,0,1.28-.35,2.41-1.04,3.39-.69.98-1.66,1.72-2.9,2.21-.38.15-1.66.6-3.84,1.34-1.56.53-2.81,1.04-3.74,1.54-.68.36-1.26.82-1.74,1.38Z"/><path d="m893.55,634.81c-1.92,0-3.48.81-4.67,2.42-1.2,1.61-1.87,3.8-2.02,6.58,1.34-2.33,3.56-3.49,6.66-3.49,2.33,0,4.22.68,5.7,2.05s2.21,3.12,2.21,5.25c0,2.28-.79,4.16-2.37,5.63s-3.61,2.21-6.08,2.21c-2.73,0-4.88-.91-6.45-2.72-1.57-1.81-2.35-4.29-2.35-7.42,0-3.86.86-6.93,2.59-9.2,1.73-2.27,4.05-3.41,6.98-3.41,1.79,0,3.32.45,4.58,1.34,1.26.9,1.89,1.98,1.89,3.26,0,.6-.21,1.11-.62,1.54s-.9.64-1.46.64c-.45,0-.84-.17-1.17-.5-.33-.33-.5-.73-.5-1.2,0-.64.3-1.07.9-1.28-.64-1.13-1.91-1.7-3.81-1.7Zm-.48,7.68c-1.73,0-3.09.48-4.1,1.42-1,.95-1.5,2.24-1.5,3.86s.51,2.99,1.52,3.98c1.01.99,2.36,1.49,4.05,1.49s2.98-.51,4.02-1.54c1.03-1.02,1.55-2.35,1.55-3.97s-.51-2.85-1.52-3.81c-1.01-.96-2.35-1.44-4.02-1.44Z"/><path d="m907.79,637.66c0-1.58-.54-2.37-1.63-2.37-.3,0-.52.02-.67.06-.34.06-.63.1-.86.1-.28,0-.51-.1-.7-.3-.19-.2-.29-.45-.29-.75,0-.75.45-1.12,1.34-1.12.02,0,.18.01.48.03,3.19.21,4.68.32,4.47.32h.32l7.69-.22c.15,0,.7-.03,1.66-.1.34-.02.65-.03.92-.03,1.11,0,1.66.49,1.66,1.47,0,.17-.03.71-.09,1.63-.05.68-.07,1.31-.07,1.89,0,.75.02,1.27.05,1.57.07.62.11,1.08.11,1.38,0,.81-.38,1.22-1.14,1.22s-1.14-.57-1.14-1.7v-1.66c0-1.79-.37-2.85-1.12-3.17-.56-.23-1.98-.35-4.29-.35-1.52,0-2.41.03-2.69.1-.92.23-1.38.88-1.38,1.92v3.2c0,.85.19,1.34.57,1.47.15.04.4.06.76.06h1.29c1.33,0,1.99-.46,1.99-1.38,0-.26-.03-.59-.08-.99-.05-.41-.08-.77-.08-1.09,0-.85.38-1.28,1.14-1.28s1.14.46,1.14,1.38c0,.17-.07.83-.21,1.98-.12.98-.18,1.85-.18,2.59,0,.43.04,1.18.13,2.27.02.17.08.54.16,1.12.06.47.1.84.1,1.12,0,.77-.38,1.15-1.15,1.15s-1.12-.45-1.12-1.34c0-.23.03-.58.08-1.02.05-.45.08-.79.08-1.02,0-.92-.61-1.38-1.82-1.38h-1.44c-.62,0-1,.11-1.14.32s-.21.67-.21,1.38v1.98c0,.34.01.8.03,1.38.02.7.03,1.17.03,1.41.02.85.19,1.39.51,1.6.23.15.79.22,1.66.22h4.35c1.26,0,2.12-.19,2.59-.56.47-.37.7-1.07.7-2.1,0-.32-.02-.79-.05-1.42-.03-.63-.05-1.1-.05-1.42,0-.96.38-1.44,1.14-1.44.8,0,1.2.49,1.2,1.47,0,.38-.02.97-.05,1.76s-.05,1.38-.05,1.76c0,.3.02.74.05,1.33.03.59.05,1.03.05,1.33,0,1-.49,1.5-1.47,1.5-.24,0-.61-.02-1.12-.06-.26-.02-.73-.03-1.41-.03.15,0-.68-.02-2.5-.06-1.81-.04-3.38-.06-4.7-.06-2,0-3.97.06-5.89.19-.08,0-.18.01-.29.03h-.19c-.9,0-1.34-.38-1.34-1.15,0-.68.33-1.02.99-1.02.11,0,.39.02.86.06.23.06.46.1.67.1,1.09,0,1.63-.8,1.63-2.4v-12.83Z"/><path d="m929.34,648.92c-.48.56-.77,1.23-.88,2.02.96-1.02,2.12-1.54,3.49-1.54,1.26,0,2.58.55,3.97,1.66,1.54,1.22,2.72,1.82,3.55,1.82.6,0,1.08-.2,1.46-.59.37-.39.56-.9.56-1.52,0-.21-.04-.45-.13-.7-.34.34-.73.51-1.15.51-.92,0-1.38-.45-1.38-1.34,0-.49.18-.9.54-1.22.36-.32.84-.48,1.44-.48.79,0,1.42.28,1.9.85.48.57.72,1.32.72,2.26,0,1.32-.42,2.45-1.25,3.39s-1.85,1.41-3.04,1.41c-1.13,0-2.49-.61-4.08-1.82-1.59-1.22-2.98-1.82-4.18-1.82s-1.94.43-2.24,1.28h.38c.62,0,.93.31.93.93,0,.96-.53,1.44-1.6,1.44-.7,0-1.27-.3-1.71-.91-.44-.61-.66-1.42-.66-2.45,0-3.73,2.57-6.42,7.71-8.06l2.3-.74c2.58-.83,3.87-2.23,3.87-4.19,0-1.32-.46-2.37-1.39-3.14-.93-.77-2.2-1.15-3.82-1.15-1.43,0-2.61.29-3.55.86-.94.58-1.49,1.37-1.66,2.37,1.15.09,1.73.59,1.73,1.5,0,.56-.2,1.03-.61,1.42s-.91.59-1.5.59c-.73,0-1.31-.25-1.74-.75s-.66-1.16-.66-1.97c0-1.75.79-3.21,2.37-4.38,1.58-1.17,3.53-1.76,5.86-1.76s4.11.59,5.55,1.78c1.44,1.18,2.16,2.71,2.16,4.59,0,1.28-.35,2.41-1.04,3.39-.69.98-1.66,1.72-2.9,2.21-.38.15-1.66.6-3.84,1.34-1.56.53-2.81,1.04-3.74,1.54-.68.36-1.26.82-1.74,1.38Z"/><path d="m949.62,645.44v-7.78c0-1.58-.54-2.37-1.62-2.37-.28,0-.49.03-.63.09-.34.09-.61.13-.83.13-.28,0-.51-.1-.7-.31-.19-.21-.29-.47-.29-.77,0-.77.45-1.15,1.34-1.15.11,0,.27.01.48.03l2.21.22c.83.09,1.76.13,2.78.13.55,0,1.75-.03,3.58-.1l3.68-.13c.49-.02,1.07-.05,1.73-.1.3-.04.62-.06.96-.06,1.13,0,1.7.5,1.7,1.5,0,.38-.05.97-.16,1.76-.11.79-.16,1.39-.16,1.79,0,.34.02.77.06,1.28s.06.98.06,1.41c0,.88-.38,1.31-1.15,1.31s-1.18-.5-1.18-1.5c0-.3.02-.75.05-1.37.03-.62.05-1.07.05-1.37,0-1.12-.32-1.84-.96-2.13-.64-.3-2.16-.45-4.54-.45-2.03,0-3.18.18-3.46.54-.21.28-.32,1.26-.32,2.94v2.37c0,.6.08.97.24,1.1s.6.21,1.33.21h1.06c1.39,0,2.08-.51,2.08-1.54,0-.23-.03-.55-.08-.96-.05-.41-.08-.71-.08-.93,0-.81.38-1.22,1.15-1.22.73,0,1.09.47,1.09,1.41,0,.13-.02.38-.07.77l-.22,1.73c-.1.77-.15,1.34-.15,1.73,0,.88.11,1.98.34,3.33.07.45.11.88.11,1.28,0,.83-.38,1.25-1.15,1.25-.73,0-1.09-.45-1.09-1.34,0-.21.02-.53.05-.96.03-.43.05-.75.05-.96,0-.66-.18-1.09-.54-1.28-.24-.15-.73-.22-1.47-.22h-.99c-.75,0-1.21.08-1.38.25-.17.17-.26.63-.26,1.4v3.78c0,1,.11,1.67.34,2.02.22.35.65.52,1.26.52h1.41c.98,0,1.47.36,1.47,1.09,0,.3-.11.55-.34.77-.22.21-.5.32-.82.32-.34,0-.84-.05-1.5-.16-.94-.15-2-.22-3.2-.22-.77,0-1.59.06-2.46.19l-1.09.16c-.06,0-.14.01-.22.03h-.19c-.94,0-1.41-.38-1.41-1.15,0-.68.33-1.02.99-1.02.08,0,.36.02.83.06.23.06.46.1.67.1.58,0,.98-.18,1.2-.53s.35-.98.37-1.87v-5.06Z"/><circle class="cls-4" cx="1277.04" cy="501.42" r="112.96"/><path d="m1220.6,645.98h3.52l-.35,2.14h-3.49l-1.02,6.62h-2.4l1.02-6.62h-4.32l-1.02,6.62h-2.37l1.02-6.62h-3.58l.32-2.14h3.58l.64-4.22h-3.55l.32-2.14h3.55l.96-6.21h2.4l-.96,6.21h4.29l.96-6.21h2.4l-.93,6.21h3.46l-.32,2.14h-3.49l-.64,4.22Zm-2.4,0l.64-4.22h-4.29l-.64,4.22h4.29Z"/><path d="m1240.31,634.97v11.04h3.78c.7,0,1.06.36,1.06,1.09s-.37,1.09-1.12,1.09h-3.71v1.95c0,1.77.48,2.66,1.44,2.66.26,0,.83-.04,1.73-.13.9,0,1.34.36,1.34,1.09s-.38,1.12-1.15,1.12c-.47,0-1.1-.06-1.89-.19-.66-.11-1.48-.16-2.46-.16-.6,0-1.49.06-2.69.18-1.2.12-2.09.18-2.69.18-.81,0-1.22-.36-1.22-1.07,0-.76.49-1.14,1.47-1.14.21,0,.53.02.94.06s.73.06.94.06c1.07,0,1.6-.88,1.6-2.66v-1.95h-9.92c-.98,0-1.47-.43-1.47-1.28,0-.34.12-.68.35-1.02l8.48-10.53c.9-1.11,1.56-1.83,1.98-2.16.43-.33.92-.5,1.47-.5,1.15,0,1.73.76,1.73,2.27Zm-10.91,11.04h8.29l.22-10.46-8.51,10.46Z"/><path d="m1250.98,648.92c-.48.55-.77,1.23-.88,2.02.96-1.02,2.12-1.54,3.49-1.54,1.26,0,2.58.55,3.97,1.66,1.54,1.22,2.72,1.82,3.55,1.82.6,0,1.08-.2,1.46-.59.37-.39.56-.9.56-1.52,0-.21-.04-.45-.13-.7-.34.34-.72.51-1.15.51-.92,0-1.38-.45-1.38-1.34,0-.49.18-.9.54-1.22.36-.32.84-.48,1.44-.48.79,0,1.42.28,1.9.85.48.56.72,1.32.72,2.26,0,1.32-.42,2.45-1.25,3.39s-1.85,1.41-3.04,1.41c-1.13,0-2.49-.61-4.08-1.82-1.59-1.22-2.98-1.82-4.18-1.82s-1.94.43-2.24,1.28h.38c.62,0,.93.31.93.93,0,.96-.53,1.44-1.6,1.44-.7,0-1.27-.3-1.71-.91-.44-.61-.66-1.42-.66-2.45,0-3.73,2.57-6.42,7.71-8.06l2.3-.74c2.58-.83,3.87-2.23,3.87-4.19,0-1.32-.46-2.37-1.39-3.14-.93-.77-2.2-1.15-3.82-1.15-1.43,0-2.61.29-3.55.86-.94.58-1.49,1.37-1.66,2.37,1.15.08,1.73.59,1.73,1.5,0,.56-.2,1.03-.61,1.42-.41.39-.91.59-1.5.59-.73,0-1.31-.25-1.74-.75-.44-.5-.66-1.16-.66-1.97,0-1.75.79-3.21,2.37-4.38,1.58-1.17,3.53-1.76,5.86-1.76s4.11.59,5.55,1.78c1.44,1.18,2.16,2.71,2.16,4.59,0,1.28-.35,2.41-1.04,3.39-.69.98-1.66,1.72-2.9,2.21-.38.15-1.66.6-3.84,1.34-1.56.53-2.81,1.05-3.74,1.54-.68.36-1.26.82-1.74,1.38Z"/><path d="m1272.5,636.92l-.38,5.12c1.66-1.15,3.5-1.73,5.5-1.73,2.39,0,4.28.63,5.66,1.9s2.08,3,2.08,5.2c0,2.39-.83,4.33-2.48,5.81-1.65,1.48-3.81,2.22-6.48,2.22-2.2,0-4.06-.54-5.58-1.62-1.53-1.08-2.29-2.39-2.29-3.95,0-.77.25-1.41.74-1.94.49-.52,1.09-.78,1.79-.78.55,0,1.01.16,1.36.48.35.32.53.75.53,1.28,0,.36-.12.68-.37.94s-.54.4-.88.4c-.26.02-.38.1-.38.22,0,.7.56,1.34,1.68,1.9,1.12.56,2.37.85,3.76.85,1.71,0,3.11-.53,4.21-1.58,1.1-1.06,1.65-2.41,1.65-4.05s-.46-2.82-1.39-3.73c-.93-.91-2.2-1.36-3.82-1.36-1.98,0-3.56.58-4.74,1.73-.47.45-.8.74-.99.88-.19.14-.44.23-.74.27h-.13c-.83,0-1.25-.47-1.25-1.41,0-.04,0-.08.03-.13l.45-6.18c.02-.34.04-.93.06-1.76.02-1.17.11-1.89.26-2.16.15-.27.54-.4,1.18-.4h7.94c.62,0,1.09-.01,1.41-.03.64-.04,1.08-.06,1.31-.06.85,0,1.28.63,1.28,1.89l-.03.22c0,.55.08,1.21.26,1.95.09.26.13.49.13.7,0,.68-.36,1.02-1.09,1.02-.68,0-1.04-.5-1.09-1.5-.04-1.2-.57-1.79-1.57-1.79h-6.69c-.53,0-.83.38-.9,1.15Z"/><path d="m1296.98,655.45c-2.71,0-4.84-1-6.38-2.99s-2.32-4.74-2.32-8.24.81-6.37,2.42-8.43c1.61-2.06,3.81-3.09,6.61-3.09s4.77.99,6.32,2.96c1.55,1.97,2.32,4.65,2.32,8.02,0,3.65-.8,6.52-2.4,8.62-1.6,2.1-3.79,3.15-6.56,3.15Zm.26-20.38c-3.92,0-5.96,2.93-6.11,8.8v.48c0,2.79.51,4.96,1.54,6.48,1.02,1.53,2.47,2.29,4.35,2.29s3.42-.83,4.51-2.5,1.63-3.96,1.63-6.88-.51-4.94-1.54-6.43c-1.02-1.49-2.49-2.24-4.38-2.24Z"/><path d="m1312.13,648.92c-.48.55-.77,1.23-.88,2.02.96-1.02,2.12-1.54,3.49-1.54,1.26,0,2.58.55,3.97,1.66,1.54,1.22,2.72,1.82,3.55,1.82.6,0,1.08-.2,1.46-.59.37-.39.56-.9.56-1.52,0-.21-.04-.45-.13-.7-.34.34-.73.51-1.15.51-.92,0-1.38-.45-1.38-1.34,0-.49.18-.9.54-1.22.36-.32.84-.48,1.44-.48.79,0,1.42.28,1.9.85.48.56.72,1.32.72,2.26,0,1.32-.42,2.45-1.25,3.39s-1.85,1.41-3.04,1.41c-1.13,0-2.49-.61-4.08-1.82-1.59-1.22-2.98-1.82-4.18-1.82s-1.94.43-2.24,1.28h.38c.62,0,.93.31.93.93,0,.96-.53,1.44-1.6,1.44-.7,0-1.27-.3-1.71-.91s-.66-1.42-.66-2.45c0-3.73,2.57-6.42,7.71-8.06l2.3-.74c2.58-.83,3.87-2.23,3.87-4.19,0-1.32-.46-2.37-1.39-3.14-.93-.77-2.2-1.15-3.82-1.15-1.43,0-2.61.29-3.55.86s-1.49,1.37-1.66,2.37c1.15.08,1.73.59,1.73,1.5,0,.56-.2,1.03-.61,1.42s-.91.59-1.5.59c-.73,0-1.31-.25-1.74-.75-.44-.5-.66-1.16-.66-1.97,0-1.75.79-3.21,2.37-4.38,1.58-1.17,3.53-1.76,5.86-1.76s4.11.59,5.55,1.78c1.44,1.18,2.16,2.71,2.16,4.59,0,1.28-.35,2.41-1.04,3.39s-1.66,1.72-2.9,2.21c-.38.15-1.66.6-3.84,1.34-1.56.53-2.81,1.05-3.74,1.54-.68.36-1.26.82-1.74,1.38Z"/><path d="m1332.4,645.44v-7.78c0-1.58-.54-2.37-1.62-2.37-.28,0-.49.03-.63.09-.34.09-.61.13-.83.13-.28,0-.51-.1-.7-.31s-.29-.47-.29-.77c0-.77.45-1.15,1.34-1.15.11,0,.27.01.48.03l2.21.22c.83.08,1.76.13,2.78.13.55,0,1.75-.03,3.58-.1l3.68-.13c.49-.02,1.07-.05,1.73-.1.3-.04.62-.06.96-.06,1.13,0,1.7.5,1.7,1.5,0,.38-.05.97-.16,1.76-.11.79-.16,1.39-.16,1.79,0,.34.02.77.06,1.28.04.51.06.98.06,1.41,0,.88-.38,1.31-1.15,1.31s-1.18-.5-1.18-1.5c0-.3.02-.75.05-1.37.03-.62.05-1.07.05-1.37,0-1.12-.32-1.84-.96-2.13-.64-.3-2.16-.45-4.54-.45-2.03,0-3.18.18-3.46.54-.21.28-.32,1.26-.32,2.94v2.37c0,.6.08.97.24,1.1s.6.21,1.33.21h1.06c1.39,0,2.08-.51,2.08-1.54,0-.23-.03-.55-.08-.96-.05-.4-.08-.71-.08-.93,0-.81.38-1.22,1.15-1.22.73,0,1.09.47,1.09,1.41,0,.13-.02.38-.07.77l-.22,1.73c-.1.77-.15,1.34-.15,1.73,0,.88.11,1.98.34,3.33.07.45.11.88.11,1.28,0,.83-.38,1.25-1.15,1.25-.73,0-1.09-.45-1.09-1.34,0-.21.02-.53.05-.96.03-.43.05-.75.05-.96,0-.66-.18-1.09-.54-1.28-.24-.15-.73-.22-1.47-.22h-.99c-.75,0-1.21.09-1.38.25-.17.17-.26.63-.26,1.4v3.78c0,1,.11,1.67.34,2.02.22.35.65.52,1.26.52h1.41c.98,0,1.47.36,1.47,1.09,0,.3-.11.55-.34.77-.22.21-.5.32-.82.32-.34,0-.84-.05-1.5-.16-.94-.15-2-.22-3.2-.22-.77,0-1.59.06-2.46.19l-1.09.16c-.06,0-.14.01-.22.03h-.19c-.94,0-1.41-.38-1.41-1.15,0-.68.33-1.02.99-1.02.08,0,.36.02.83.06.23.06.46.1.67.1.58,0,.98-.18,1.2-.53.22-.35.35-.98.37-1.87v-5.06Z"/><circle class="cls-2" cx="122.96" cy="148.95" r="112.96"/><path d="m63.31,293.51h3.52l-.35,2.14h-3.49l-1.02,6.62h-2.4l1.02-6.62h-4.32l-1.02,6.62h-2.37l1.02-6.62h-3.58l.32-2.14h3.58l.64-4.22h-3.55l.32-2.14h3.55l.96-6.21h2.4l-.96,6.21h4.29l.96-6.21h2.4l-.93,6.21h3.46l-.32,2.14h-3.49l-.64,4.22Zm-2.4,0l.64-4.22h-4.29l-.64,4.22h4.29Z"/><path d="m73.29,285.19c0-1.6-.54-2.4-1.63-2.4-.19,0-.42.02-.67.06-.38.06-.67.1-.86.1-.66,0-.99-.34-.99-1.02,0-.75.48-1.12,1.44-1.12.11,0,.25.01.42.03l1.7.22c.64.09,1.32.13,2.05.13.6,0,1.2-.03,1.79-.1l2.08-.22c.41-.04.94-.06,1.6-.06,1.94,0,3.56.28,4.86.83,1.71.73,3.06,1.98,4.05,3.78s1.49,3.87,1.49,6.24c0,2.09-.4,3.97-1.18,5.65-.79,1.68-1.87,2.91-3.23,3.7-1.64.96-3.63,1.44-5.95,1.44-.47,0-.95-.02-1.44-.06l-2.21-.19c-.75-.06-1.53-.1-2.34-.1-.7,0-1.28.03-1.73.1l-1.54.22s-.12.01-.22.03h-.26c-.92,0-1.38-.37-1.38-1.12,0-.3.1-.55.29-.75.19-.2.43-.3.7-.3.23,0,.52.03.86.1.15.04.37.06.67.06,1.09,0,1.63-.8,1.63-2.4v-12.83Zm2.69-.33v13.49c0,.98.48,1.57,1.44,1.79.32.09,1.22.13,2.69.13,2.56,0,4.42-.69,5.57-2.07,1.39-1.66,2.08-3.85,2.08-6.57,0-2.13-.42-3.93-1.26-5.4-.84-1.48-2-2.43-3.47-2.85-.94-.28-2.07-.41-3.39-.41-1.69,0-2.71.1-3.09.29-.37.19-.56.73-.56,1.62Z"/><path d="m106.32,282.5v11.04h3.78c.7,0,1.06.36,1.06,1.09s-.37,1.09-1.12,1.09h-3.71v1.95c0,1.77.48,2.66,1.44,2.66.26,0,.83-.04,1.73-.13.9,0,1.34.36,1.34,1.09s-.38,1.12-1.15,1.12c-.47,0-1.1-.06-1.89-.19-.66-.11-1.48-.16-2.46-.16-.6,0-1.49.06-2.69.18-1.2.12-2.09.18-2.69.18-.81,0-1.22-.36-1.22-1.07,0-.76.49-1.13,1.47-1.13.21,0,.53.02.94.06.42.04.73.06.94.06,1.07,0,1.6-.88,1.6-2.66v-1.95h-9.92c-.98,0-1.47-.43-1.47-1.28,0-.34.12-.68.35-1.02l8.48-10.53c.9-1.11,1.56-1.83,1.98-2.16.43-.33.92-.5,1.47-.5,1.15,0,1.73.76,1.73,2.27Zm-10.91,11.04h8.29l.22-10.46-8.51,10.46Z"/><path d="m128.91,298.66l-1.15-3.13c-.13-.34-.26-.55-.4-.64-.14-.08-.42-.13-.85-.13h-5.7c-.43,0-.72.08-.88.22-.16.15-.37.55-.62,1.22l-.93,2.46c-.09.24-.13.46-.13.67,0,.68.42,1.02,1.25,1.02.21,0,.52-.02.91-.06s.69-.06.88-.06c.87,0,1.31.37,1.31,1.12,0,.7-.48,1.06-1.44,1.06-.17,0-.41-.02-.7-.06l-1.6-.2c-.3-.04-.79-.06-1.47-.06-.75,0-1.27.02-1.57.05l-1.34.16c-.6.07-1.04.11-1.31.11-.83,0-1.25-.35-1.25-1.06,0-.75.41-1.12,1.22-1.12.17,0,.3.04.38.13h.42c.58,0,1.01-.22,1.31-.67.13-.17.34-.67.64-1.51l5.95-16.15c.34-.9,1.01-1.35,2.02-1.35s1.63.45,1.95,1.34l5.73,15.87c.36,1,.69,1.66.99,1.98s.73.48,1.28.48c.17,0,.3-.01.38-.04l.9-.09c.81,0,1.22.35,1.22,1.05,0,.75-.41,1.12-1.22,1.12-.23,0-.54-.02-.93-.07-1.34-.17-2.35-.25-3.01-.25-.79,0-2.07.08-3.84.26-.45.04-.79.06-1.02.06-.85,0-1.28-.36-1.28-1.09s.47-1.09,1.41-1.09c.19,0,.47.02.85.06s.66.06.85.06c.7,0,1.06-.29,1.06-.87,0-.08-.09-.36-.26-.83Zm-2.3-6.53l-2.88-8.83-2.94,8.83c-.04.13-.06.2-.06.22,0,.19.16.29.48.29h5.09c.26,0,.38-.08.38-.26,0-.04-.02-.13-.06-.26Z"/><path d="m140.75,292.96v-7.78c0-1.58-.54-2.37-1.62-2.37-.28,0-.49.03-.63.09-.34.09-.62.13-.83.13-.28,0-.51-.1-.7-.31-.19-.21-.29-.47-.29-.77,0-.77.45-1.15,1.34-1.15.11,0,.27.01.48.03l2.21.22c.83.09,1.76.13,2.79.13.55,0,1.75-.03,3.58-.1l3.68-.13c.49-.02,1.07-.05,1.73-.1.3-.04.62-.06.96-.06,1.13,0,1.7.5,1.7,1.5,0,.38-.05.97-.16,1.76-.11.79-.16,1.39-.16,1.79,0,.34.02.77.06,1.28s.06.98.06,1.41c0,.88-.38,1.31-1.15,1.31s-1.18-.5-1.18-1.5c0-.3.02-.75.05-1.37.03-.62.05-1.07.05-1.37,0-1.12-.32-1.84-.96-2.13-.64-.3-2.16-.45-4.54-.45-2.03,0-3.18.18-3.46.54-.21.28-.32,1.26-.32,2.94v2.37c0,.6.08.97.24,1.1.16.14.6.21,1.33.21h1.05c1.39,0,2.08-.51,2.08-1.54,0-.23-.03-.55-.08-.96-.05-.4-.08-.71-.08-.93,0-.81.38-1.22,1.15-1.22.73,0,1.09.47,1.09,1.41,0,.13-.02.38-.07.77l-.22,1.73c-.1.77-.15,1.34-.15,1.73,0,.88.11,1.98.34,3.33.07.45.11.88.11,1.28,0,.83-.38,1.25-1.15,1.25-.73,0-1.09-.45-1.09-1.34,0-.21.02-.53.05-.96s.05-.75.05-.96c0-.66-.18-1.09-.54-1.28-.23-.15-.72-.22-1.47-.22h-.99c-.75,0-1.21.08-1.38.25-.17.17-.26.63-.26,1.4v3.78c0,1,.11,1.67.34,2.02s.64.52,1.26.52h1.41c.98,0,1.47.36,1.47,1.09,0,.3-.11.56-.34.77-.22.21-.5.32-.82.32-.34,0-.84-.05-1.5-.16-.94-.15-2.01-.22-3.2-.22-.77,0-1.59.06-2.46.19l-1.09.16c-.06,0-.14.01-.22.03h-.19c-.94,0-1.41-.38-1.41-1.15,0-.68.33-1.02.99-1.02.08,0,.36.02.83.06.23.06.46.1.67.1.58,0,.98-.18,1.2-.53.22-.35.35-.98.37-1.87v-5.06Z"/><path d="m163.85,289.83l6.66-6.53h-7.42c-.83,0-1.39.05-1.66.16-.54.17-.8.59-.8,1.25,0,.21.02.52.06.93.04.41.06.71.06.93,0,1.11-.38,1.66-1.12,1.66s-1.09-.46-1.09-1.38c0-.26.02-.65.05-1.17.03-.52.05-.91.05-1.17v-2.34c0-.58.11-.93.32-1.07s.74-.21,1.59-.21h7.84c.43,0,1.15-.02,2.17-.06.51-.02,1.1-.03,1.78-.03,1.25,0,1.88.38,1.88,1.15,0,.49-.27.99-.8,1.5l-5.89,5.64h.93c1.81,0,3.3.58,4.46,1.74,1.16,1.16,1.74,2.65,1.74,4.46,0,2.26-.83,4.11-2.48,5.54-1.65,1.43-3.78,2.14-6.38,2.14-2.39,0-4.38-.58-5.98-1.74-1.6-1.16-2.4-2.62-2.4-4.37,0-1,.29-1.85.86-2.54.58-.69,1.29-1.04,2.14-1.04.55,0,1.01.17,1.36.5.35.33.53.76.53,1.29,0,1.07-.63,1.6-1.89,1.6h-.35v.22c0,1.05.58,1.95,1.74,2.72,1.16.77,2.53,1.15,4.11,1.15,1.77,0,3.22-.51,4.35-1.52s1.7-2.31,1.7-3.89c0-2.77-1.58-4.16-4.74-4.16-.83,0-1.7.1-2.59.29-.19.04-.37.06-.54.06-.51,0-.77-.28-.77-.83,0-.26.17-.55.51-.9Z"/><path d="m180.69,282.15l-.06.35c.53-.85,1.01-1.43,1.44-1.73.43-.3,1-.45,1.73-.45,1.04,0,2.27.54,3.68,1.63,1.58,1.22,2.79,1.82,3.65,1.82.9,0,1.45-.31,1.66-.93h-.26c-.3,0-.57-.13-.82-.39-.25-.26-.37-.55-.37-.88,0-.41.16-.76.46-1.05.31-.29.68-.44,1.1-.44,1.41,0,2.11.95,2.11,2.86,0,1.41-.35,2.65-1.06,3.72-.45.66-.93,1.24-1.44,1.73-.24.24-.71.66-1.41,1.28-1.45,1.26-2.44,2.43-2.98,3.5-.77,1.52-1.15,3.36-1.15,5.52,0-.04.01.19.03.71.04,1.03.06,1.49.06,1.38,0,1.35-.53,2.02-1.6,2.02s-1.66-.87-1.66-2.62c0-2.75.51-5.15,1.54-7.2.83-1.66,2.6-3.6,5.31-5.82,1.11-.92,1.74-1.67,1.89-2.27-.73.62-1.65.93-2.77.93-1.37,0-2.71-.49-4.02-1.47l-1.32-.99c-.47-.34-1-.51-1.58-.51-1.37,0-2.06.88-2.06,2.62,0,.53.05,1.01.15,1.44.18.75.26,1.3.26,1.66s-.12.67-.37.93c-.25.26-.55.38-.91.38-.85,0-1.28-.46-1.28-1.38,0-.36.05-.92.14-1.66.1-.75.14-1.32.14-1.73,0-.6-.03-1.24-.1-1.92s-.1-1.28-.1-1.79c0-.87.37-1.31,1.12-1.31.62,0,.93.37.93,1.12,0,.15-.04.46-.13.93Z"/><circle class="cls-3" cx="122.96" cy="501.42" r="112.96"/><path d="m65.34,645.98h3.52l-.35,2.14h-3.49l-1.02,6.62h-2.4l1.02-6.62h-4.32l-1.02,6.62h-2.37l1.02-6.62h-3.58l.32-2.14h3.58l.64-4.22h-3.55l.32-2.14h3.55l.96-6.21h2.4l-.96,6.21h4.29l.96-6.21h2.4l-.93,6.21h3.46l-.32,2.14h-3.49l-.64,4.22Zm-2.4,0l.64-4.22h-4.29l-.64,4.22h4.29Z"/><path d="m75.33,637.66c0-1.58-.54-2.37-1.63-2.37-.3,0-.52.02-.67.06-.34.06-.63.1-.86.1-.28,0-.51-.1-.7-.3s-.29-.45-.29-.75c0-.75.45-1.12,1.34-1.12.02,0,.18.01.48.03,3.19.21,4.68.32,4.46.32h.32l7.68-.22c.15,0,.7-.03,1.66-.1.34-.02.65-.03.92-.03,1.11,0,1.66.49,1.66,1.47,0,.17-.03.71-.09,1.63-.05.68-.07,1.31-.07,1.89,0,.75.02,1.27.05,1.57.07.62.11,1.08.11,1.38,0,.81-.38,1.22-1.14,1.22s-1.14-.56-1.14-1.7v-1.66c0-1.79-.37-2.85-1.12-3.17-.55-.23-1.98-.35-4.29-.35-1.51,0-2.41.03-2.69.1-.92.23-1.38.88-1.38,1.92v3.2c0,.85.19,1.34.57,1.47.15.04.4.06.76.06h1.29c1.33,0,1.99-.46,1.99-1.38,0-.26-.03-.59-.08-.99-.05-.4-.08-.77-.08-1.09,0-.85.38-1.28,1.14-1.28s1.14.46,1.14,1.38c0,.17-.07.83-.21,1.98-.12.98-.18,1.85-.18,2.59,0,.43.04,1.18.13,2.27.02.17.07.54.16,1.12.06.47.1.84.1,1.12,0,.77-.38,1.15-1.15,1.15s-1.12-.45-1.12-1.34c0-.23.03-.58.08-1.02.05-.45.08-.79.08-1.02,0-.92-.61-1.38-1.82-1.38h-1.44c-.62,0-1,.11-1.14.32s-.21.67-.21,1.38v1.98c0,.34.01.8.03,1.38.02.7.03,1.17.03,1.41.02.85.19,1.39.51,1.6.23.15.79.22,1.66.22h4.35c1.26,0,2.12-.19,2.59-.56.47-.37.7-1.07.7-2.1,0-.32-.02-.79-.05-1.42-.03-.63-.05-1.1-.05-1.42,0-.96.38-1.44,1.14-1.44.8,0,1.2.49,1.2,1.47,0,.38-.02.97-.05,1.76s-.05,1.38-.05,1.76c0,.3.02.74.05,1.33.03.59.05,1.03.05,1.33,0,1-.49,1.5-1.47,1.5-.24,0-.61-.02-1.12-.06-.26-.02-.73-.03-1.41-.03.15,0-.68-.02-2.5-.06s-3.38-.06-4.7-.06c-2,0-3.97.06-5.89.19-.09,0-.18.01-.29.03h-.19c-.9,0-1.34-.38-1.34-1.15,0-.68.33-1.02.99-1.02.11,0,.39.02.86.06.23.06.46.1.67.1,1.09,0,1.63-.8,1.63-2.4v-12.83Z"/><path d="m102.11,655.45c-2.71,0-4.84-1-6.38-2.99s-2.32-4.74-2.32-8.24.8-6.37,2.42-8.43c1.61-2.06,3.81-3.09,6.61-3.09s4.77.99,6.32,2.96c1.55,1.97,2.32,4.65,2.32,8.02,0,3.65-.8,6.52-2.4,8.62-1.6,2.1-3.79,3.15-6.56,3.15Zm.26-20.38c-3.93,0-5.96,2.93-6.11,8.8v.48c0,2.79.51,4.96,1.54,6.48,1.02,1.53,2.47,2.29,4.35,2.29s3.42-.83,4.51-2.5c1.09-1.66,1.63-3.96,1.63-6.88s-.51-4.94-1.54-6.43c-1.02-1.49-2.49-2.24-4.38-2.24Z"/><path d="m117.15,645.44v-7.78c0-1.58-.54-2.37-1.62-2.37-.28,0-.49.03-.63.09-.34.09-.61.13-.83.13-.28,0-.51-.1-.7-.31s-.29-.47-.29-.77c0-.77.45-1.15,1.34-1.15.11,0,.27.01.48.03l2.21.22c.83.08,1.76.13,2.78.13.55,0,1.75-.03,3.58-.1l3.68-.13c.49-.02,1.07-.05,1.73-.1.3-.04.62-.06.96-.06,1.13,0,1.7.5,1.7,1.5,0,.38-.05.97-.16,1.76-.11.79-.16,1.39-.16,1.79,0,.34.02.77.06,1.28.04.51.06.98.06,1.41,0,.88-.38,1.31-1.15,1.31s-1.18-.5-1.18-1.5c0-.3.02-.75.05-1.37.03-.62.05-1.07.05-1.37,0-1.12-.32-1.84-.96-2.13-.64-.3-2.15-.45-4.54-.45-2.03,0-3.18.18-3.46.54-.21.28-.32,1.26-.32,2.94v2.37c0,.6.08.97.24,1.1.16.14.6.21,1.33.21h1.06c1.39,0,2.08-.51,2.08-1.54,0-.23-.03-.55-.08-.96-.05-.4-.08-.71-.08-.93,0-.81.38-1.22,1.15-1.22.73,0,1.09.47,1.09,1.41,0,.13-.02.38-.07.77l-.22,1.73c-.1.77-.15,1.34-.15,1.73,0,.88.11,1.98.34,3.33.07.45.11.88.11,1.28,0,.83-.38,1.25-1.15,1.25-.73,0-1.09-.45-1.09-1.34,0-.21.02-.53.05-.96s.05-.75.05-.96c0-.66-.18-1.09-.54-1.28-.24-.15-.73-.22-1.47-.22h-.99c-.75,0-1.21.09-1.38.25-.17.17-.26.63-.26,1.4v3.78c0,1,.11,1.67.34,2.02.22.35.64.52,1.26.52h1.41c.98,0,1.47.36,1.47,1.09,0,.3-.11.55-.34.77s-.5.32-.82.32c-.34,0-.84-.05-1.5-.16-.94-.15-2-.22-3.2-.22-.77,0-1.59.06-2.46.19l-1.09.16c-.06,0-.14.01-.22.03h-.19c-.94,0-1.41-.38-1.41-1.15,0-.68.33-1.02.99-1.02.08,0,.36.02.83.06.24.06.46.1.67.1.58,0,.98-.18,1.2-.53.22-.35.35-.98.37-1.87v-5.06Z"/><path d="m141.31,647.36l-.1-9.28c-.02-1.09-.13-1.81-.34-2.18-.2-.36-.6-.54-1.2-.54-.21,0-.52.03-.93.08-.41.05-.71.08-.93.08-.83,0-1.25-.37-1.25-1.12s.39-1.12,1.18-1.12c.26,0,.66.03,1.2.08.54.05.96.08,1.26.08.68,0,1.25-.02,1.7-.06.66-.06,1.07-.1,1.22-.1.47,0,.76.14.86.42.08.19.13.52.13.99,0,.06-.01.32-.03.77-.11,2.28-.16,4.35-.16,6.21v3.62c0,.66.01,1.55.03,2.66.04,1.34.06,2.23.06,2.66.02,1.47.51,2.21,1.47,2.21.23,0,.59-.03,1.06-.08.47-.05.82-.08,1.06-.08,1.02,0,1.54.37,1.54,1.12s-.47,1.12-1.41,1.12c-.36,0-.7-.02-1.02-.06-1.79-.23-3.16-.35-4.1-.35s-2.09.09-3.46.27c-.77.1-1.31.15-1.63.15-.92,0-1.38-.38-1.38-1.14s.52-1.1,1.57-1.1c.32,0,.65.03.99.1.51.04.83.06.96.06.75,0,1.21-.29,1.38-.88.17-.59.26-2.11.26-4.56Z"/><path d="m157.34,645.44v-7.78c0-1.58-.54-2.37-1.62-2.37-.28,0-.49.03-.63.09-.34.09-.61.13-.83.13-.28,0-.51-.1-.7-.31s-.29-.47-.29-.77c0-.77.45-1.15,1.34-1.15.11,0,.27.01.48.03l2.21.22c.83.08,1.76.13,2.78.13.55,0,1.75-.03,3.58-.1l3.68-.13c.49-.02,1.07-.05,1.73-.1.3-.04.62-.06.96-.06,1.13,0,1.7.5,1.7,1.5,0,.38-.05.97-.16,1.76-.11.79-.16,1.39-.16,1.79,0,.34.02.77.06,1.28.04.51.06.98.06,1.41,0,.88-.38,1.31-1.15,1.31s-1.18-.5-1.18-1.5c0-.3.02-.75.05-1.37.03-.62.05-1.07.05-1.37,0-1.12-.32-1.84-.96-2.13-.64-.3-2.16-.45-4.54-.45-2.03,0-3.18.18-3.46.54-.21.28-.32,1.26-.32,2.94v2.37c0,.6.08.97.24,1.1s.6.21,1.33.21h1.06c1.39,0,2.08-.51,2.08-1.54,0-.23-.03-.55-.08-.96-.05-.4-.08-.71-.08-.93,0-.81.38-1.22,1.15-1.22.73,0,1.09.47,1.09,1.41,0,.13-.02.38-.07.77l-.22,1.73c-.1.77-.15,1.34-.15,1.73,0,.88.11,1.98.34,3.33.07.45.11.88.11,1.28,0,.83-.38,1.25-1.15,1.25-.73,0-1.09-.45-1.09-1.34,0-.21.02-.53.05-.96.03-.43.05-.75.05-.96,0-.66-.18-1.09-.54-1.28-.24-.15-.73-.22-1.47-.22h-.99c-.75,0-1.21.09-1.38.25-.17.17-.26.63-.26,1.4v3.78c0,1,.11,1.67.34,2.02.22.35.65.52,1.26.52h1.41c.98,0,1.47.36,1.47,1.09,0,.3-.11.55-.34.77-.22.21-.5.32-.82.32-.34,0-.84-.05-1.5-.16-.94-.15-2-.22-3.2-.22-.77,0-1.59.06-2.46.19l-1.09.16c-.06,0-.14.01-.22.03h-.19c-.94,0-1.41-.38-1.41-1.15,0-.68.33-1.02.99-1.02.08,0,.36.02.83.06.23.06.46.1.67.1.58,0,.98-.18,1.2-.53.22-.35.35-.98.37-1.87v-5.06Z"/><path d="m191.9,638.43c0,2.18-1.24,3.71-3.71,4.61.9.28,1.63.59,2.21.93,1.73,1,2.59,2.51,2.59,4.51s-.76,3.53-2.27,4.69c-1.52,1.16-3.54,1.74-6.08,1.74-.92,0-2.08-.05-3.49-.16s-2.44-.16-3.1-.16c-.58,0-1.12.03-1.63.1l-1.5.19s-.12.01-.22.03h-.22c-.92-.02-1.38-.41-1.38-1.15,0-.68.33-1.02.99-1.02.17,0,.46.03.86.1.28.04.5.06.67.06,1.09,0,1.63-.79,1.63-2.37v-12.86c0-1.6-.54-2.4-1.63-2.4-.19,0-.42.02-.67.06-.38.06-.67.1-.86.1-.66,0-.99-.34-.99-1.02,0-.75.49-1.12,1.47-1.12h.42l1.57.22c.45.06,1.06.1,1.82.1.81,0,1.96-.06,3.46-.19,1-.09,2.08-.13,3.23-.13,2.15,0,3.83.45,5.04,1.36,1.2.91,1.81,2.17,1.81,3.79Zm-12.26,1.38c0,1.13.1,1.83.3,2.1.2.27.76.4,1.68.4h1.79c3.78,0,5.66-1.23,5.66-3.68,0-2.24-1.56-3.36-4.67-3.36-2.18,0-3.51.14-4.02.42-.5.28-.75.99-.75,2.14v1.98Zm0,6.5v3.55c0,1.39.23,2.24.7,2.56.47.32,1.75.48,3.84.48,3.99,0,5.98-1.49,5.98-4.48,0-2.75-1.92-4.13-5.76-4.13h-2.66c-1.15,0-1.81.26-1.98.77-.09.26-.13.67-.13,1.25Z"/></svg>