<?xml version="1.0" encoding="UTF-8"?><svg id="Layer_107" xmlns="http://www.w3.org/2000/svg" width="1600" height="700" viewBox="0 0 1600 700"><defs><style>.cls-1{fill:#f8e0c8;}.cls-2{fill:#f1cc8f;}.cls-3,.cls-4{fill:#fff;}.cls-5{fill:#ffea9f;}.cls-6{fill:#fbe7a1;}.cls-7{fill:#860a00;}.cls-8{fill:#ae544f;}.cls-9{fill:#c7c8ca;}.cls-10{fill:#221f20;}.cls-11{fill:#4b3024;}.cls-12{fill:#720a00;}.cls-13{fill:#765341;}.cls-14{fill:#7d0a00;}.cls-4{stroke:#221f20;stroke-miterlimit:10;}</style></defs><path class="cls-6" d="m97.4,178.1s-9.16,27.48,0,42.75c0,0,3.56-.38-2.04,21.76-5.6,22.14,16.92,65.27,16.92,65.27,0,0,3.82,9.16,17.94,3.05s95.42-4.2,95.42-4.2c0,0,20.61,9.92,29.01,4.58,8.4-5.34,12.98-74.05,12.98-74.05,0,0,13.74-40.84-6.11-72.14,0,0,17.56-48.85-8.78-70.99-26.34-22.14-120.23-3.82-120.23-3.82l-29.01,71.76-6.11,16.03Z"/><path class="cls-2" d="m121.47,313.8c-1.7,0-3.26-.29-4.68-.86-3.84-1.55-5.16-4.64-5.22-4.77-.9-1.71-22.56-43.59-16.96-65.76,4.4-17.38,3-20.35,2.67-20.77l-.3.03-.25-.42c-9.24-15.4-.45-42.26-.07-43.39v-.03s6.12-16.03,6.12-16.03l29.17-72.16.41-.08c.23-.05,23.83-4.61,50.33-6.41,35.73-2.42,59.46,1.07,70.54,10.39,25.24,21.22,10.67,66.94,9.13,71.49,19.06,30.46,6.75,70.12,6.02,72.39-.1,1.42-1.25,17.99-3.34,34.97-4.43,36.05-8.62,38.71-9.99,39.59-8.37,5.33-27.54-3.49-29.61-4.46-4.13-.09-81.42-1.7-94.93,4.14-3.34,1.44-6.37,2.17-9.07,2.17Zm-23.55-93.62c.16.08.34.2.51.4,1.7,1.96.92,9.43-2.31,22.21-5.46,21.6,16.63,64.29,16.86,64.72.04.08,1.19,2.71,4.43,4.01,3.28,1.31,7.48.87,12.51-1.31,14.11-6.1,92.42-4.34,95.74-4.26l.32.08c.2.1,20.31,9.68,28.25,4.62,6.62-4.21,11.35-54.44,12.62-73.44l.04-.2c.14-.41,13.39-40.86-6.03-71.48l-.2-.32.13-.36c.17-.48,17.07-48.6-8.55-70.14-24.87-20.91-112.38-5-119.17-3.73l-28.85,71.36-6.09,16c-.25.75-8.75,27.13-.22,41.83Z"/><path class="cls-1" d="m148.36,202.95c2.13,11.89.47,16.35-1.98,17.86-2.53,1.56-6.55.4-7.95,2.97-.53.97-.67,2.45-.91,4.95-.13,1.31-.15,2.29-.15,2.47-.18,7.81-.52,9.94-.48,17.93.07,13.13.15,19.74,2.61,21.98.66.6,2.28,1.88,10.94,2.75,6.93.69,11.35.09,18.4.21,9.05.16,18.1-.16,27.15-.21.9,0,4.92.15,10.3.1,8.24-.07,12.39-.13,13.92-1.15.1-.07.21-.14.34-.25,4.45-3.64,3.38-10.44,3.91-23.02.13-3,.16-7.53.23-16.59.02-3.14,0-6.4-2.11-7.99-1.15-.86-1.82-.42-5.77-1.38-3.33-.81-5.21-1.31-6.49-2.83-1.17-1.39-1.28-3.05-1.36-4.47-.26-4.58-.48-9.25-.63-14.12-19.99.26-39.98.52-59.97.78Z"/><path d="m157.53,274.98c-2.21,0-4.52-.08-7.18-.34-9.15-.92-10.71-2.34-11.38-2.94-2.66-2.42-2.8-8.3-2.87-22.55-.02-4.88.09-7.58.23-10.71.09-2.01.18-4.19.25-7.24,0-.25.03-1.23.16-2.53.25-2.58.4-4.14,1-5.25,1-1.85,2.98-2.12,4.89-2.38,1.19-.16,2.42-.33,3.33-.89,2.76-1.7,3.32-7.6,1.63-17.06l-.16-.9,61.65-.8.02.76c.14,4.52.35,9.14.63,14.1.07,1.25.16,2.8,1.18,4.02,1.1,1.32,2.75,1.77,6.08,2.58,1.67.41,2.74.56,3.52.66,1.07.15,1.72.24,2.53.85,2.47,1.86,2.44,5.45,2.42,8.62v.2c-.07,8.94-.11,13.42-.23,16.42-.11,2.67-.15,5.08-.19,7.25-.14,8.26-.22,13.24-4,16.34-.15.12-.28.22-.4.29-1.69,1.13-5.39,1.2-14.34,1.28-3.9.03-7.02-.03-8.89-.08-.69-.01-1.2-.02-1.42-.02-3.26.02-6.51.07-9.77.12-5.7.09-11.59.19-17.39.08-2.58-.04-4.8,0-6.95.06-1.45.03-2.87.07-4.34.07Zm-8.26-71.27c1.67,9.89.85,15.7-2.5,17.76-1.19.73-2.59.92-3.94,1.11-1.67.23-3.11.42-3.74,1.58-.45.83-.59,2.27-.82,4.66-.12,1.24-.14,2.18-.15,2.4-.07,3.09-.17,5.28-.26,7.29-.14,3.11-.25,5.79-.23,10.63.06,12.07.1,19.36,2.36,21.41.46.42,1.85,1.68,10.49,2.55,4.33.43,7.73.35,11.33.27,2.16-.05,4.4-.1,7.01-.06,5.78.1,11.66,0,17.34-.08,3.26-.05,6.53-.11,9.79-.12.27,0,.75.01,1.46.02,1.86.04,4.96.11,8.84.08,7.3-.06,12.12-.1,13.49-1.02.08-.05.17-.12.28-.2,3.23-2.64,3.31-7.36,3.44-15.16.04-2.18.08-4.61.19-7.29.13-2.97.16-7.45.23-16.36v-.2c.02-2.8.05-5.97-1.8-7.37-.47-.35-.79-.41-1.81-.55-.81-.11-1.92-.27-3.67-.69-3.26-.8-5.42-1.32-6.9-3.09-1.36-1.62-1.47-3.53-1.54-4.93-.27-4.7-.47-9.09-.61-13.38l-58.3.76Z"/><path class="cls-1" d="m115.6,160.9v4.56c7.84,13.28,15.96,23.06,22.12,29.66,14.08,15.11,26.12,28.01,42.3,27.56,9.12-.26,16.33-4.66,19.52-6.61,8.36-5.11,12.84-11.57,19.45-21.3,6.04-8.91,10.38-17.5,12.28-22.1,7.97-19.36,6.86-51.11-5.78-85.2h-101.94c-2.64,24.48-5.29,48.95-7.93,73.43Z"/><path d="m179.18,223.47c-16.11,0-28.14-12.91-42.03-27.81-8.37-8.97-15.84-19-22.22-29.8l-.11-.18v-4.86s8.01-74.12,8.01-74.12h103.17l.19.51c12.01,32.39,14.22,65.25,5.77,85.77-1.95,4.74-6.36,13.41-12.35,22.24-6.39,9.42-11.01,16.23-19.69,21.52-3.17,1.93-10.57,6.46-19.9,6.72-.28,0-.57.01-.85.01Zm-62.81-58.22c6.3,10.63,13.66,20.51,21.91,29.35,13.89,14.89,25.91,27.78,41.71,27.31,8.91-.25,16.07-4.63,19.13-6.49,8.39-5.12,12.93-11.81,19.21-21.07,5.93-8.74,10.28-17.29,12.2-21.96,8.26-20.06,6.11-52.26-5.61-84.13h-100.7l-7.86,72.69v4.31Z"/><ellipse class="cls-3" cx="151.4" cy="139.53" rx="14.27" ry="9.4"/><path d="m151.4,149.71c-8.3,0-15.05-4.57-15.05-10.18s6.75-10.18,15.05-10.18,15.05,4.57,15.05,10.18-6.75,10.18-15.05,10.18Zm0-18.81c-7.44,0-13.5,3.87-13.5,8.63s6.05,8.63,13.5,8.63,13.5-3.87,13.5-8.63-6.05-8.63-13.5-8.63Z"/><circle cx="151.4" cy="139.53" r="9.4"/><circle class="cls-3" cx="154.74" cy="135.7" r="1.89"/><path d="m137.13,140.31c-.05,0-.11,0-.17-.02-7-1.51-7.25-6.25-7.26-6.45-.02-.43.32-.79.75-.8.4-.06.78.32.8.74,0,.17.29,3.76,6.04,5,.42.09.68.5.59.92-.08.36-.4.61-.76.61Z"/><path d="m138.86,135.26c-.11,0-.22-.02-.32-.07-5.32-2.4-4.7-6.09-4.67-6.24.08-.42.49-.7.9-.62.42.08.7.48.62.9-.02.13-.35,2.69,3.79,4.56.39.18.56.64.39,1.03-.13.29-.41.46-.71.46Z"/><path d="m142.96,132.13c-.15,0-.3-.04-.43-.13-4.24-2.85-3.18-5.81-3.14-5.93.15-.4.59-.6,1-.45.4.15.6.59.46.99-.03.11-.59,2,2.55,4.11.36.24.45.72.21,1.08-.15.22-.4.34-.64.34Z"/><ellipse class="cls-3" cx="207.74" cy="139.53" rx="14.27" ry="9.4"/><path d="m207.74,149.71c-8.3,0-15.05-4.57-15.05-10.18s6.75-10.18,15.05-10.18,15.05,4.57,15.05,10.18-6.75,10.18-15.05,10.18Zm0-18.81c-7.44,0-13.5,3.87-13.5,8.63s6.05,8.63,13.5,8.63,13.5-3.87,13.5-8.63-6.05-8.63-13.5-8.63Z"/><circle cx="207.74" cy="139.53" r="9.4"/><circle class="cls-3" cx="210.69" cy="135.7" r="1.89"/><path d="m222.31,138.2c-.33,0-.55-.03-.58-.04-.42-.07-.7-.47-.63-.9.07-.42.48-.7.89-.63.16.03,3.74.49,6.13-4.88.17-.39.64-.57,1.02-.39.39.17.57.63.39,1.02-2.35,5.26-5.84,5.82-7.22,5.82Z"/><path d="m219.65,134.58s-.06,0-.07,0c-.43-.02-.76-.39-.73-.81.02-.41.36-.74.77-.74.01,0,.02,0,.04,0,.23,0,2.73-.1,4-4.36.12-.41.55-.64.97-.52.41.12.64.56.52.97-1.57,5.24-4.95,5.46-5.5,5.46Z"/><path d="m215.34,131.91c-.41,0-.76-.33-.78-.74-.02-.42.31-.78.73-.81.11-.01,2.07-.24,2.78-3.95.08-.42.5-.69.91-.62.42.08.7.49.62.91-.96,5.01-4.1,5.2-4.23,5.21-.01,0-.02,0-.03,0Z"/><path d="m131.24,121.94c-.25,0-.51-.06-.74-.19-.75-.41-1.03-1.35-.62-2.11,2.4-4.39,8.84-6.11,19.14-5.08,7.3.73,13.86,2.56,14.14,2.64.82.23,1.3,1.09,1.07,1.91-.23.82-1.08,1.31-1.92,1.07-7.04-1.98-26.09-5.67-29.71.94-.28.52-.81.81-1.36.81Z"/><path d="m222.79,121.54c-.65,0-1.25-.41-1.47-1.06-1.14-3.4-15.22-3.3-27.59-1.24-.87.14-1.65-.43-1.78-1.28-.14-.85.43-1.64,1.28-1.78.28-.05,6.94-1.14,14-1.42,10.25-.4,15.84,1.15,17.04,4.73.27.81-.17,1.69-.98,1.97-.16.06-.33.08-.49.08Z"/><path d="m176.44,172.63c-3.71,0-5.98-.98-6.93-2.97-2.12-4.48,4.59-11.52,5.95-12.89.61-.61,1.59-.61,2.19,0,.61.61.61,1.59,0,2.19-2.78,2.79-6.18,7.59-5.34,9.37.18.38,1.18,1.59,6.44,1.07.86-.09,1.61.54,1.7,1.39.08.85-.54,1.61-1.39,1.7-.94.09-1.82.14-2.62.14Z"/><path d="m180.62,188.71c-12.71,0-21.65-7.05-21.78-7.16-.67-.54-.77-1.51-.23-2.18.54-.67,1.51-.77,2.18-.24.74.6,18.5,14.49,39.39-.06.71-.49,1.67-.32,2.16.39.49.7.32,1.67-.38,2.16-7.63,5.32-14.95,7.09-21.32,7.09Z"/><path d="m179.09,198.48c-6.06,0-11.3-4.72-15.6-14.06-.36-.78-.02-1.7.76-2.06.78-.36,1.7-.02,2.06.76,3.92,8.52,8.44,12.64,13.52,12.22,6.84-.55,13.16-9.41,13.98-11.51-.01-.26.04-.53.17-.78.39-.76,1.33-1.06,2.09-.66.49.26,1.01.89.84,1.84-.34,1.93-7.26,12.99-16.27,14.15-.52.07-1.04.1-1.55.1Zm15.55-13.33h.02-.02Zm0,0h0Zm0,0h0Zm0,0h0s0,0,0,0Zm-.18-.12c.06.04.12.08.18.12-.07-.03-.13-.07-.18-.12Z"/><path class="cls-5" d="m152.86,97.88s-24.85,10.02-26.28,20.23c-1.43,10.21,9.04,36.78-28.53,72.24,1.79-6.9,1.64-12.35,1.13-16.15-.98-7.26-3.02-10.51-4.02-18.5-.75-5.98-.36-10.97.07-14.22,1.01-5.22,2.83-11.7,6.23-18.66,6.7-13.68,16.13-22.27,22.09-26.85l20.18-4.28,9.12,6.18Z"/><path class="cls-2" d="m96.62,192.77l.68-2.61c1.42-5.47,1.79-10.8,1.11-15.85-.46-3.43-1.15-5.91-1.89-8.54-.79-2.83-1.6-5.75-2.13-9.97-.6-4.75-.57-9.6.07-14.42,1.28-6.61,3.4-12.95,6.31-18.9,5.11-10.45,12.83-19.83,22.31-27.12l.31-.14,20.51-4.35,10.6,7.18-1.35.55c-.25.1-24.45,9.97-25.8,19.62-.25,1.8-.11,4.26.05,7.1.73,12.73,2.1,36.41-28.82,65.6l-1.96,1.85Zm27.26-96.06c-9.23,7.13-16.74,16.28-21.72,26.46-2.85,5.82-4.93,12.04-6.17,18.46-.62,4.64-.64,9.35-.06,13.97.51,4.1,1.31,6.97,2.09,9.75.71,2.56,1.45,5.21,1.93,8.75.6,4.46.42,9.12-.55,13.89,28.46-27.82,27.22-49.51,26.46-62.58-.17-2.92-.31-5.45-.04-7.4,1.29-9.25,20.15-18,25.42-20.28l-7.67-5.19-19.69,4.17Z"/><path class="cls-6" d="m191.92,96.24s45.6,14.86,40.94,35.04c-1.09,6.05-1.91,14.44-.75,24.28.81,6.87,2.38,12.73,3.99,17.36,5.94,8.3,8.06,9.69,8.85,9.28,1.19-.61-.53-5.22-1.28-12.44-.67-6.46-.23-11.86.28-15.55.36-1.35.9-3.39,1.57-5.86,1.57-5.8,2.72-9.93,2.86-10.42.73-2.66,6.55-23.76,2.14-33.27-5.32-11.48-29.76-15.23-58.61-8.42Z"/><path class="cls-2" d="m244.66,183.06c-1.19,0-3.39-1.58-9.19-9.69l-.1-.2c-1.97-5.67-3.33-11.57-4.03-17.52-.96-8.14-.71-16.38.75-24.5,4.45-19.3-39.97-34.02-40.42-34.17l-2.63-.86,2.69-.64c28.94-6.83,53.95-3.11,59.49,8.85,4.2,9.06-.54,28.16-2.1,33.8l-.11.38c-.34,1.22-1.39,5.01-2.75,10.05-.67,2.47-1.21,4.5-1.57,5.85-.69,5.02-.78,10.19-.25,15.27.3,2.86.75,5.3,1.11,7.27.65,3.54.98,5.32-.25,5.94-.19.1-.4.17-.65.17Zm-7.86-10.5c5.49,7.66,7.28,8.76,7.77,8.91.14-.59-.22-2.52-.53-4.24-.37-1.99-.82-4.47-1.12-7.39-.54-5.2-.45-10.5.28-15.74.38-1.45.92-3.48,1.59-5.95,1.37-5.04,2.42-8.83,2.75-10.06l.1-.37c1.52-5.52,6.16-24.16,2.18-32.74-5.07-10.94-28.01-14.43-55.11-8.58,4,1.47,12.09,4.67,19.81,9.12,14.69,8.47,21.11,17.19,19.09,25.94-1.43,7.94-1.67,16.03-.73,24.01.69,5.8,2,11.55,3.92,17.09Z"/><path class="cls-7" d="m114.24,81.33c1.01-7.61,5.24-31.83,25.8-48.56,15.38-12.51,32.43-14.77,43.81-16.27,17.76-2.35,31.77.44,39.31,2,8.7,1.81,20.1,4.27,32.8,11.77,0,0,16.39,9.68,28.54,26.54,17.9,24.85,20.88,69.41,3.88,115.61l-10.46,7.24-2.82-5.23s5.63-72.79-13.27-88.47c-18.9-15.68-46.25,6.84-46.25,6.84l-88.47-8.04-12.87-3.42Z"/><path class="cls-3" d="m215.12,102.68c-6.75-.68-15.44-1.92-25.45-4.35-2.75.58-6.65,1.32-11.37,1.87-7.69.9-14.05,1.64-21.86.44-5.97-.92-7.7-2.96-13.18-2.79-3.98.13-7.2,1.18-9.28,2.04-13.92,4.19-25.16,3.02-28.06-2.41-1.1-2.06-.8-4.3-.6-5.37,1.96-10.2,17.55-14.75,19.24-15.25,11.67-3.41,22.02-.01,26.62,1.86,4.6-2.1,10.33-4.14,17.09-5.32,19.16-3.35,34.96,2.19,42.63,5.55,6.93-2.28,29.55-9.07,43.58-1.35,1.83,1.01,5.65,3.15,6.6,7.07,1.49,6.15-5.13,12.34-6.04,13.17-8.56,7.81-21.42,6.69-39.92,4.83Z"/><path class="cls-9" d="m234.32,104.81c-5.78,0-12.23-.65-19.27-1.36-8.48-.85-17.01-2.31-25.38-4.32-3.69.78-7.48,1.4-11.27,1.84-7.59.89-14.15,1.66-22.07.43-2.59-.4-4.41-1.01-6.02-1.55-2.14-.71-3.98-1.33-7.02-1.23-3.03.1-6.06.77-9.01,1.98-14.23,4.29-25.87,3.17-29.04-2.76-.88-1.65-1.11-3.63-.67-5.88,1.9-9.89,15.63-14.63,19.79-15.85,10.66-3.12,20.41-.8,26.82,1.76,5.46-2.46,11.17-4.22,16.98-5.24,17.71-3.1,33.01,1.24,42.8,5.49,10.95-3.57,30.92-8.35,43.91-1.2,1.78.98,5.93,3.26,6.98,7.57,1.55,6.39-4.95,12.72-6.27,13.93-5.4,4.92-12.57,6.38-21.25,6.38Zm-19.12-2.9c17.23,1.73,30.84,3.1,39.32-4.63,1.21-1.1,7.16-6.87,5.81-12.41-.88-3.64-4.62-5.7-6.22-6.57-12.59-6.93-32.32-2.1-42.96,1.4l-.28.09-.27-.12c-9.59-4.2-24.69-8.56-42.18-5.5-5.79,1.01-11.47,2.78-16.9,5.26l-.31.14-.31-.13c-6.17-2.52-15.71-4.87-26.11-1.83-2.81.82-16.92,5.39-18.7,14.65-.37,1.9-.19,3.53.52,4.86,2.76,5.18,13.93,6.01,27.15,2.03,3.05-1.26,6.27-1.97,9.48-2.07,3.31-.11,5.37.58,7.56,1.31,1.63.54,3.31,1.1,5.77,1.48,7.71,1.19,13.86.47,21.65-.44,3.8-.44,7.6-1.07,11.3-1.86l.17-.04.17.04c8.35,2.02,16.88,3.48,25.34,4.33Z"/><path class="cls-3" d="m265.59,178.2s1.96-7.63,8.72-8.51c6.76-.87,7.63,3.05,7.63,3.05,7.33-2.31,14.61.62,17.22,5.99,2.41,4.96-.04,10.21-.43,11.02,1.06,5-.93,10.17-5.05,13.11-4.3,3.07-10.12,3.16-14.58.19-3.63,2.72-8.35,3.18-12.04,1.18-3.86-2.1-4.98-6.04-5.19-6.82-.58-1.65-1.17-4.01-1.1-6.87.16-6.34,3.48-10.77,4.8-12.35Z"/><path class="cls-9" d="m272.02,206.25c-1.85,0-3.68-.44-5.32-1.33-3.83-2.09-5.17-5.8-5.57-7.3-.8-2.27-1.18-4.68-1.12-7.09.15-6.03,3.07-10.5,4.87-12.7.35-1.22,2.63-8.04,9.33-8.91,5.54-.71,7.53,1.61,8.19,2.88,7.23-1.97,14.65.8,17.46,6.6,2.32,4.77.48,9.71-.32,11.45,1,5.23-1.1,10.56-5.41,13.64-4.4,3.15-10.37,3.33-15,.5-2.17,1.49-4.66,2.25-7.11,2.25Zm4.15-35.91c-.53,0-1.12.04-1.76.12-6.15.79-8.05,7.86-8.07,7.93l-.16.3c-1.66,2-4.47,6.19-4.62,11.87-.06,2.22.3,4.44,1.05,6.6.29,1.08,1.43,4.55,4.83,6.39,3.42,1.86,7.81,1.42,11.2-1.12l.44-.33.46.3c4.17,2.77,9.67,2.7,13.7-.18,3.88-2.77,5.74-7.61,4.74-12.32l-.05-.26.12-.24c.64-1.32,2.56-5.95.43-10.34-2.57-5.3-9.58-7.71-16.29-5.59l-.81.25-.18-.83c-.03-.11-.7-2.57-5.01-2.57Z"/><circle class="cls-3" cx="148.36" cy="224.38" r="4.18"/><path class="cls-10" d="m148.36,229.34c-.13,0-.26,0-.38-.01-2.73-.21-4.78-2.6-4.57-5.32s2.6-4.78,5.32-4.57c1.32.1,2.52.71,3.39,1.72.86,1.01,1.28,2.29,1.18,3.61-.1,1.32-.71,2.52-1.72,3.39-.91.78-2.04,1.2-3.22,1.2Zm-.02-8.37c-.81,0-1.59.29-2.21.82-.69.59-1.11,1.42-1.18,2.33-.07.91.22,1.79.81,2.48.59.69,1.42,1.11,2.33,1.18.9.07,1.79-.22,2.48-.81.69-.59,1.11-1.42,1.18-2.33.07-.91-.22-1.79-.81-2.48-.59-.69-1.42-1.11-2.33-1.18-.09,0-.18,0-.27,0Z"/><circle class="cls-3" cx="152.86" cy="230.69" r="4.18"/><path class="cls-10" d="m152.86,235.65c-2.73,0-4.96-2.22-4.96-4.96s2.23-4.96,4.96-4.96,4.96,2.22,4.96,4.96-2.23,4.96-4.96,4.96Zm0-8.37c-1.88,0-3.41,1.53-3.41,3.41s1.53,3.41,3.41,3.41,3.41-1.53,3.41-3.41-1.53-3.41-3.41-3.41Z"/><circle class="cls-3" cx="163.99" cy="240.84" r="4.18"/><path class="cls-10" d="m163.99,245.8c-2.73,0-4.96-2.22-4.96-4.96s2.22-4.96,4.96-4.96,4.96,2.22,4.96,4.96-2.23,4.96-4.96,4.96Zm0-8.37c-1.88,0-3.41,1.53-3.41,3.41s1.53,3.41,3.41,3.41,3.41-1.53,3.41-3.41-1.53-3.41-3.41-3.41Z"/><circle class="cls-3" cx="170.81" cy="245.03" r="4.18"/><path class="cls-10" d="m170.81,249.99c-2.73,0-4.96-2.22-4.96-4.96s2.23-4.96,4.96-4.96,4.96,2.22,4.96,4.96-2.23,4.96-4.96,4.96Zm0-8.37c-1.88,0-3.41,1.53-3.41,3.41s1.53,3.41,3.41,3.41,3.41-1.53,3.41-3.41-1.53-3.41-3.41-3.41Z"/><circle class="cls-3" cx="178.57" cy="247.39" r="4.18"/><path class="cls-10" d="m178.57,252.35c-2.73,0-4.96-2.22-4.96-4.96s2.23-4.96,4.96-4.96,4.96,2.22,4.96,4.96-2.23,4.96-4.96,4.96Zm0-8.37c-1.88,0-3.41,1.53-3.41,3.41s1.53,3.41,3.41,3.41,3.41-1.53,3.41-3.41-1.53-3.41-3.41-3.41Z"/><circle class="cls-3" cx="185.86" cy="245.03" r="4.18"/><path class="cls-10" d="m185.85,249.99c-.8,0-1.59-.19-2.31-.58-2.42-1.28-3.35-4.28-2.07-6.7,1.28-2.42,4.28-3.35,6.7-2.07,2.42,1.28,3.35,4.28,2.07,6.7-.62,1.17-1.66,2.03-2.92,2.42-.48.15-.98.22-1.47.22Zm.01-8.37c-1.22,0-2.41.66-3.02,1.82-.88,1.66-.24,3.73,1.42,4.61.81.42,1.72.51,2.6.24.87-.27,1.58-.86,2.01-1.67.88-1.66.24-3.73-1.42-4.61-.51-.27-1.05-.39-1.58-.39Z"/><circle class="cls-3" cx="193.23" cy="242.37" r="4.18"/><path class="cls-10" d="m193.23,247.33c-2.73,0-4.96-2.22-4.96-4.96s2.23-4.96,4.96-4.96,4.96,2.22,4.96,4.96-2.23,4.96-4.96,4.96Zm0-8.37c-1.88,0-3.41,1.53-3.41,3.41s1.53,3.41,3.41,3.41,3.41-1.53,3.41-3.41-1.53-3.41-3.41-3.41Z"/><circle class="cls-3" cx="200.02" cy="238.19" r="4.18"/><path class="cls-10" d="m200.03,243.15c-2.73,0-4.96-2.22-4.96-4.96s2.23-4.96,4.96-4.96,4.96,2.22,4.96,4.96-2.23,4.96-4.96,4.96Zm0-8.37c-1.88,0-3.41,1.53-3.41,3.41s1.53,3.41,3.41,3.41,3.41-1.53,3.41-3.41-1.53-3.41-3.41-3.41Z"/><circle class="cls-3" cx="205.35" cy="232.1" r="4.18"/><path class="cls-10" d="m205.36,237.06c-2.73,0-4.96-2.22-4.96-4.96s2.23-4.96,4.96-4.96,4.96,2.22,4.96,4.96-2.23,4.96-4.96,4.96Zm0-8.37c-1.88,0-3.41,1.53-3.41,3.41s1.53,3.41,3.41,3.41,3.41-1.53,3.41-3.41-1.53-3.41-3.41-3.41Z"/><circle class="cls-3" cx="209.54" cy="225.49" r="4.18"/><path class="cls-10" d="m209.54,230.45c-2.73,0-4.96-2.22-4.96-4.96s2.23-4.96,4.96-4.96,4.96,2.22,4.96,4.96-2.23,4.96-4.96,4.96Zm0-8.37c-1.88,0-3.41,1.53-3.41,3.41s1.53,3.41,3.41,3.41,3.41-1.53,3.41-3.41-1.53-3.41-3.41-3.41Z"/><circle class="cls-3" cx="157.04" cy="236.66" r="4.18"/><path class="cls-10" d="m157.04,241.62c-2.73,0-4.96-2.22-4.96-4.96s2.23-4.96,4.96-4.96,4.96,2.22,4.96,4.96-2.23,4.96-4.96,4.96Zm0-8.37c-1.88,0-3.41,1.53-3.41,3.41s1.53,3.41,3.41,3.41,3.41-1.53,3.41-3.41-1.53-3.41-3.41-3.41Z"/><ellipse class="cls-11" cx="140.23" cy="674.66" rx="23.98" ry="17.33"/><ellipse class="cls-11" cx="234.95" cy="677.55" rx="23.03" ry="17.45"/><path class="cls-14" d="m130.53,347.65l100.16,7.25s102.14-.33,111.36,298.5c0,0,6.59,11.53-34.92,18.12,0,0-32.95,20.43-92.25,0,0,0-38.88,9.23-71.17,0,0,0-69.19,5.93-81.71-16.47,0,0-32.95,8.57-48.76-10.54-15.81-19.11,55.32-301.34,117.29-296.86Z"/><circle class="cls-1" cx="92.66" cy="400.06" r="19.04"/><path d="m92.66,419.88c-10.93,0-19.82-8.89-19.82-19.82s8.89-19.82,19.82-19.82,19.82,8.89,19.82,19.82-8.89,19.82-19.82,19.82Zm0-38.08c-10.07,0-18.26,8.19-18.26,18.27s8.19,18.26,18.26,18.26,18.26-8.19,18.26-18.26-8.19-18.27-18.26-18.27Z"/><circle class="cls-1" cx="268.9" cy="391.65" r="19.04"/><path d="m268.9,411.47c-10.93,0-19.82-8.89-19.82-19.82s8.89-19.82,19.82-19.82,19.82,8.89,19.82,19.82-8.89,19.82-19.82,19.82Zm0-38.08c-10.07,0-18.26,8.19-18.26,18.27s8.19,18.27,18.26,18.27,18.27-8.19,18.27-18.27-8.19-18.27-18.27-18.27Z"/><path class="cls-12" d="m108.14,366.87c4.7,1.9,11.5,6.22,10.85,9.75-.26,1.39-1.6,2.25-2.76,2.9-6.62,3.68-13.17,3.65-23.51,4.04-10.72.41-15.21.89-17.67-2.24-.31-.4-1.18-1.54-1.26-3.12-.27-5.59,9.73-9.87,11.5-10.62,2.72-1.16,12.5-4.88,22.86-.7Z"/><path class="cls-12" d="m278.53,364.83c4.38,2.56,10.48,7.82,9.33,11.21-.45,1.34-1.9,2-3.15,2.47-7.08,2.69-13.56,1.71-23.85.61-10.66-1.14-15.18-1.31-17.16-4.77-.25-.44-.95-1.69-.8-3.27.54-5.57,11.05-8.36,12.91-8.86,2.86-.76,13.08-3.03,22.72,2.6Z"/><path class="cls-7" d="m127.36,233.85c-7.46-6.79-13.61-7.13-15.98-7.06-13.33.38-27.21,17.06-29.56,42.15-1.77,14.49-3.04,30.5-3.38,47.8-.39,20.02.52,38.39,2.11,54.79,0,0,18.5,9.8,32.65-2.18,5.22-27.74,9.49-58.12,11.97-90.88,1.17-15.4,1.86-30.29,2.18-44.62Z"/><path class="cls-7" d="m242.88,233.61c1.24-1.5,6.89-7.98,14.94-7.85,8.55.13,14.02,7.63,16.93,11.62,6.34,8.69,7.92,17.86,9.1,33.35,1.38,18.23,2.45,33.31.25,56.85-.88,9.46-2.47,22.22-5.56,37.25-3.45.65-7.85,1.16-12.94.99-5.7-.19-10.51-1.17-14.14-2.2,1.06-37.83-4.13-59.47-9.41-72.44-.94-2.31-2.93-6.91-4.26-13.6-3.52-17.7.85-33.44,5.1-43.97Z"/><path class="cls-3" d="m130.24,355.18h101.74c32.05,64.46,51.16,118.11,62.8,156.24,7.67,25.12,13.97,49.65,1.33,66-9.49,12.27-27.79,14.13-64,17.33-9.7.86-42.2,3.4-97.34-2.67-30.99-3.41-46.61-5.23-52.39-10.81-23.38-22.58-6.29-76,13.72-138.53,12.28-38.38,25.31-68.54,34.14-87.57Z"/><path d="m200.79,596.8c-19.97,0-42.32-1.32-66.1-3.94-32.42-3.57-47-5.38-52.84-11.03-23.73-22.92-6.47-76.86,13.51-139.32,9.6-30,21.1-59.5,34.18-87.67l.21-.45h102.72l.21.43c25.97,52.23,47.12,104.83,62.85,156.36,7.87,25.79,13.89,50.29,1.2,66.7-9.88,12.79-29.3,14.51-64.55,17.63-9.59.85-20.11,1.27-31.39,1.27Zm-70.05-240.85c-12.97,27.98-24.37,57.26-33.9,87.03-19.83,61.97-36.95,115.49-13.92,137.74,5.71,5.51,22.13,7.32,51.93,10.6,37.12,4.09,70.73,5.01,97.19,2.67,37.44-3.32,54.37-5.28,63.46-17.04,12.23-15.83,6.29-39.92-1.46-65.3-15.66-51.3-36.7-103.68-62.54-155.69h-100.77Z"/><path class="cls-3" d="m154.92,359.47s-5.25,13.2-4.5,24.64"/><path d="m149.65,384.16c-.75-11.48,4.34-24.43,4.55-24.98l1.44.57c-.05.13-5.18,13.18-4.45,24.3l-1.55.1Z"/><path class="cls-3" d="m211.76,384.16s.53-14.2-4-24.73"/><path d="m212.54,384.19l-1.55-.06c0-.14.47-14.15-3.94-24.39l1.42-.61c4.55,10.57,4.09,24.48,4.07,25.06Z"/><path class="cls-3" d="m145.35,359.81s-5.25,16.8-4.5,31.36"/><path d="m140.08,391.22c-.75-14.53,4.48-31.46,4.53-31.63l1.48.46c-.05.17-5.2,16.84-4.47,31.09l-1.55.08Z"/><path class="cls-3" d="m223.07,391.1s-.23-17.6-5.46-31.21"/><path d="m222.3,391.11c0-.17-.29-17.63-5.41-30.94l1.45-.56c5.22,13.58,5.51,31.3,5.51,31.48l-1.55.02Z"/><path class="cls-3" d="m174.84,359.75s-3.01,10.37-.45,18.17"/><path d="m173.66,378.16c-2.6-7.94.32-18.2.44-18.63l1.49.43c-.03.1-2.91,10.24-.46,17.71l-1.47.48Z"/><path class="cls-3" d="m186.82,378.25s1.65-11.04-1.91-18.83"/><path d="m187.59,378.37l-1.53-.23c.02-.11,1.57-10.91-1.85-18.39l1.41-.65c3.62,7.91,2.04,18.81,1.97,19.27Z"/><path class="cls-3" d="m124.05,232.06s7.43-8.99,14.47-9.78c7.04-.78-10.17,53.96,15.25,50.44l54.75.16c1.44-.05,2.71-.34,3.82-.8,14.72-6.13,10.18-45.11,9.81-48.12,1.67-.37,9.9-2.01,16.55,3.07,1.94,1.48,3.27,3.18,4.18,4.64-.3,20.49-1.38,42.51-3.57,65.86-2.06,21.92-4.87,42.51-8.11,61.62h-98.93c-3.34-19.17-6.1-40.62-7.59-64.07-1.45-22.86-1.45-43.98-.62-63.01Z"/><path d="m231.85,359.93h-100.24l-.11-.64c-3.68-21.16-6.24-42.74-7.6-64.16-1.33-20.91-1.54-42.14-.63-63.1v-.26s.18-.2.18-.2c.31-.38,7.71-9.25,14.98-10.05.59-.06,1.11.11,1.52.51,1.58,1.52,1.34,6.08.72,14.67-.83,11.47-1.96,27.17,4.31,33.04,2.15,2.01,4.99,2.74,8.69,2.23l54.85.16c1.24-.04,2.43-.29,3.52-.74,14.32-5.96,9.55-45.62,9.34-47.31l-.09-.7.69-.15c3.03-.67,10.77-1.7,17.19,3.21,1.72,1.31,3.19,2.94,4.37,4.85l.12.19v.23c-.32,21.93-1.53,44.11-3.58,65.92-1.93,20.55-4.66,41.31-8.12,61.68l-.11.65Zm-98.94-1.55h97.62c3.4-20.13,6.09-40.62,8-60.92,2.04-21.69,3.24-43.75,3.56-65.57-1.06-1.66-2.37-3.09-3.88-4.24-5.55-4.24-12.4-3.58-15.22-3.06.78,6.76,4.14,42.18-10.36,48.22-1.26.52-2.64.82-4.09.86l-54.77-.16c-4.03.56-7.37-.32-9.85-2.64-6.81-6.38-5.65-22.51-4.8-34.29.44-6.07.89-12.34-.24-13.44-.07-.07-.13-.11-.27-.08-6.08.68-12.67,8.01-13.79,9.3-.89,20.82-.68,41.9.64,62.66,1.34,21.14,3.85,42.45,7.46,63.35Z"/><path class="cls-1" d="m580.4,198.73c.08,13.48,3.98,19.4,7.84,22.25,3.87,2.85,7.12,2.19,12,6.87,1.39,1.33,5.44,5.32,6.84,11.79.55,2.57,1.1,4.94.34,6.85-5.59,14.05-55.84,4.89-55.84,4.89l-5.34-50.52,25.61-18.5,8.54,16.36Z"/><path class="cls-10" d="m582.43,255.19c-14.52,0-29.86-2.74-31-2.95l-.64-.12-5.46-51.67,26.84-19.39,9.1,17.45v.21c.06,10.68,2.58,17.93,7.48,21.55,1.49,1.1,2.91,1.66,4.41,2.24,2.19.86,4.68,1.83,7.68,4.7,3.72,3.57,6.11,7.69,7.09,12.24l.04.19c.57,2.61,1.1,5.07.26,7.18-2.61,6.54-13.94,8.37-25.81,8.37Zm-30.04-4.56c5.84.99,49.29,7.94,54.22-4.46.64-1.62.17-3.82-.34-6.16l-.04-.19c-.91-4.2-3.13-8.02-6.59-11.35-2.75-2.64-4.97-3.5-7.11-4.34-1.54-.6-3.13-1.22-4.81-2.46-5.34-3.93-8.09-11.58-8.19-22.73l-7.97-15.28-24.38,17.61,5.22,49.36Z"/><path class="cls-1" d="m621.09,170c-4.19,6.09-4.49,10.04-3.85,12.61.25,1.01,1.24,4.16-.03,5.17-.69.54-1.69.2-2,.8-.39.75,1,1.62.84,2.83-.14,1.08-1.36,1.27-2.5,2.34-1.48,1.4-1.18,2.75-2.3,6.86-.9,3.28-1.34,4.92-2.27,5.87-2.2,2.25-6.33,1.7-9.33,1.07-17.42-3.66-30.26-15.38-30.26-15.38-6.52-5.94-12.37-11.28-15.17-18.71-12.11-32.11,39.6-85.06,39.6-85.06l32.69-4.42s24.83,23.35,4.67,53.59c0,0-3.93,7.13,4.67,24.58,0,0,5.9,14.5-14.75,7.87Z"/><path class="cls-10" d="m604.11,208.97c-1.62,0-3.27-.28-4.66-.57-17.45-3.67-30.54-15.47-30.67-15.59-6.44-5.87-12.52-11.42-15.4-19.05-5.13-13.59.03-32.22,15.34-55.36,11.33-17.12,24.31-30.49,24.44-30.62l.21-.22.3-.04,33.11-4.48.3.29c.25.24,25.13,24.21,4.8,54.71,0,0-3.51,7.01,4.73,23.71.12.28,2.26,5.67-.66,8.82-2.37,2.55-7.25,2.71-14.52.46-2.99,4.5-4.12,8.33-3.36,11.37l.08.31c.42,1.57,1.19,4.48-.42,5.76-.51.4-1.08.49-1.49.55-.05,0-.11.02-.17.02.05.1.13.22.18.31.32.53.75,1.25.63,2.17-.14,1.08-.94,1.59-1.65,2.04-.37.24-.75.48-1.12.83-.8.75-.94,1.46-1.29,3.16-.18.87-.39,1.93-.77,3.29-.94,3.43-1.41,5.14-2.49,6.25-1.4,1.43-3.42,1.88-5.48,1.88Zm-9.89-119.75c-3.55,3.71-50.59,53.72-39.2,83.93,2.73,7.24,8.39,12.4,14.94,18.37.13.11,12.88,11.6,29.85,15.17,2.75.58,6.63,1.12,8.53-.82.76-.78,1.19-2.35,2.04-5.47.36-1.33.57-2.36.74-3.2.38-1.84.6-2.95,1.8-4.08.49-.46.98-.78,1.38-1.03.64-.41.82-.55.85-.79.04-.31-.17-.66-.4-1.04-.32-.53-.76-1.27-.35-2.07.37-.72,1.1-.83,1.58-.9.27-.04.52-.08.66-.19.32-.26.56-1.15-.18-3.94l-.09-.34c-.92-3.67.42-8.15,3.98-13.31l.37-.54.62.2c6.81,2.19,11.42,2.26,13.32.21,2.16-2.33.37-6.87.35-6.92-8.68-17.6-4.8-25.02-4.62-25.33,18.58-27.88-1.37-49.4-4.21-52.24l-31.97,4.33Z"/><circle class="cls-3" cx="564.46" cy="218.94" r="3.93"/><path class="cls-10" d="m564.46,223.75c-2.65,0-4.81-2.16-4.81-4.81s2.16-4.81,4.81-4.81,4.81,2.16,4.81,4.81-2.16,4.81-4.81,4.81Zm0-7.86c-1.69,0-3.06,1.37-3.06,3.06s1.37,3.06,3.06,3.06,3.06-1.37,3.06-3.06-1.37-3.06-3.06-3.06Z"/><circle class="cls-3" cx="568.39" cy="225.82" r="3.93"/><path class="cls-10" d="m568.39,230.63c-2.65,0-4.81-2.16-4.81-4.81s2.16-4.81,4.81-4.81,4.81,2.16,4.81,4.81-2.16,4.81-4.81,4.81Zm0-7.86c-1.69,0-3.06,1.37-3.06,3.06s1.37,3.06,3.06,3.06,3.06-1.37,3.06-3.06-1.37-3.06-3.06-3.06Z"/><circle class="cls-3" cx="575.67" cy="229.75" r="3.93"/><path class="cls-10" d="m575.67,234.56c-2.65,0-4.81-2.16-4.81-4.81s2.16-4.81,4.81-4.81,4.81,2.16,4.81,4.81-2.16,4.81-4.81,4.81Zm0-7.86c-1.69,0-3.06,1.37-3.06,3.06s1.37,3.06,3.06,3.06,3.06-1.37,3.06-3.06-1.37-3.06-3.06-3.06Z"/><circle class="cls-3" cx="583.09" cy="229.04" r="3.22"/><path class="cls-10" d="m583.09,232.97c-2.17,0-3.93-1.76-3.93-3.93s1.76-3.93,3.93-3.93,3.93,1.76,3.93,3.93-1.76,3.93-3.93,3.93Zm0-6.43c-1.38,0-2.5,1.12-2.5,2.5s1.12,2.5,2.5,2.5,2.5-1.12,2.5-2.5-1.12-2.5-2.5-2.5Z"/><circle class="cls-3" cx="586.53" cy="224.29" r="2.81"/><path class="cls-10" d="m586.53,227.72c-1.9,0-3.44-1.54-3.44-3.44s1.54-3.44,3.44-3.44,3.44,1.54,3.44,3.44-1.54,3.44-3.44,3.44Zm0-5.63c-1.21,0-2.19.98-2.19,2.19s.98,2.19,2.19,2.19,2.19-.98,2.19-2.19-.98-2.19-2.19-2.19Z"/><path class="cls-3" d="m621.09,170s-2.76-.96-5.52-4.67"/><path class="cls-10" d="m621.09,170.88c-.1,0-.19-.02-.29-.05-.12-.04-3.05-1.09-5.94-4.98-.29-.39-.21-.94.18-1.22.38-.29.93-.21,1.22.18,2.54,3.42,5.09,4.36,5.11,4.37.45.16.69.66.53,1.12-.13.36-.46.58-.82.58Z"/><path class="cls-3" d="m618.82,128.71s2,9.47-5.56,17.51l-17.03-14.3s22.39-7.56,22.58-3.22Z"/><path class="cls-10" d="m613.33,147.43l-18.85-15.83,1.47-.5c3.2-1.08,19.37-6.36,22.86-3.97.52.36.82.86.87,1.46.18.95,1.74,10.21-5.79,18.22l-.57.6Zm-15.34-15.16l15.18,12.74c6.48-7.46,4.8-16.03,4.78-16.12l-.02-.14c0-.05,0-.1-.11-.17-1.91-1.31-12.26,1.25-19.83,3.69Z"/><ellipse class="cls-10" cx="615.48" cy="136.31" rx="8" ry="3.19" transform="translate(336.37 701.55) rotate(-76.21)"/><circle class="cls-3" cx="617.52" cy="131.79" r=".81"/><path class="cls-10" d="m614.66,188.91h-.04c-.92-.04-13.19-4.59-16.77-15.75-.15-.46.1-.95.56-1.1.46-.15.95.1,1.1.56,3.29,10.22,14.06,14.15,15.16,14.51.26.04.43.08.6.24.27.25.36.66.22.99-.14.33-.48.54-.84.54Z"/><path class="cls-10" d="m595.91,174.2c-.1,0-.19,0-.27-.01-.48-.04-.84-.47-.79-.95.04-.48.47-.83.94-.79.12,0,2.13.1,3.09-2.19.19-.44.7-.66,1.14-.47.44.19.65.7.47,1.14-1.09,2.61-3.33,3.27-4.58,3.27Z"/><path class="cls-10" d="m625.39,121.85c-.29,0-.58-.07-.84-.22-.19-.1-18.65-10.14-26.53-2.65-.7.67-1.81.64-2.47-.06s-.64-1.81.06-2.47c9.74-9.23,29.78,1.66,30.63,2.13.85.47,1.15,1.53.69,2.38-.32.58-.92.91-1.53.91Z"/><ellipse class="cls-11" cx="522.42" cy="671.89" rx="17.5" ry="34.69" transform="translate(-266.97 990.03) rotate(-74.08)"/><ellipse class="cls-11" cx="615.78" cy="677.04" rx="17.5" ry="34.69" transform="translate(-137.57 1196.69) rotate(-82.31)"/><path class="cls-14" d="m589.97,344.14c-28.35,3.21-56.7,6.42-85.05,9.63-8.14,5.71-19.43,14.64-30.73,27.51-25.56,29.12-36.19,61.44-47.23,118.84-7.65,39.77-15.44,91.34-19.27,152.59,3.74,2.96,8.38,6.32,14.35,8.38,9.99,3.44,25.6,5.4,48.1-.57,0,0,49.85-7.94,52.48,3.84,0,0,19.97,20.96,84.31,9.02,0,0,45.05,6.43,48.72-10.1,4.13-60.3,1.52-111.19-2.36-149.4-9.17-90.15-27.03-125.24-45.38-149.31-6.87-9.01-13.35-15.87-17.93-20.41Z"/><path class="cls-7" d="m603.01,284.02s13.67,12.28,16.18,75.34c2.51,63.06-40.46-56.65-40.46-56.65l24.28-18.7Z"/><path class="cls-3" d="m530.56,353c21.35-1.18,42.71-2.36,64.06-3.55,5.26,4.89,12.71,12.45,20.28,22.69,24.22,32.74,29.92,66.12,35.79,102.93,3.37,21.16,6.47,50.45,5.33,85.79-7.57,5.91-19.16,13.34-34.55,17.11-14.51,3.56-15.88.11-43.75,1.29-31.83,1.35-38.07,6.99-55.33,2.57-3.65-.93-9.44-2.74-18.01-3.22-13.9-.77-20.25,2.8-23.16,1.93-8.81-2.64-6.51-52.11,31.16-228.61,6.06.35,12.13.71,18.19,1.06Z"/><path class="cls-10" d="m534.79,584.36c-3.88,0-7.85-.46-12.63-1.68l-1.51-.4c-3.56-.95-8.95-2.39-16.34-2.79-8.37-.46-14,.68-17.73,1.43-2.58.52-4.29.86-5.64.47-15.54-4.65,9.99-133.28,30.55-229.63l.16-.73,18.88,1.1c21.1-1.47,42.2-2.93,63.3-4.4,5.48,5.32,13.19,13.47,21.05,24.41,24.72,34.45,30.92,68.88,36.65,102.82,3.55,21,6.81,50.37,5.33,85.9v.43l-.34.26c-10.81,8.44-22.54,14.25-34.88,17.27-8.26,2.03-12.4,1.81-19.27,1.45-5.26-.28-12.46-.66-24.65-.14-12.91.54-21.56,1.8-28.52,2.8-5.43.78-9.86,1.42-14.43,1.42Zm-34.3-6.73c1.24,0,2.54.03,3.92.11,7.57.42,13.06,1.88,16.7,2.85l1.49.39c10.07,2.58,16.2,1.69,26.37.22,7-1.01,15.7-2.27,28.7-2.82,12.27-.52,19.52-.14,24.82.14,6.93.36,10.75.56,18.76-1.4,11.97-2.93,23.37-8.55,33.89-16.69,1.5-35.25-1.76-64.4-5.32-85.25-5.48-32.09-11.25-63.93-33.53-97.01-8.67-12.87-17.45-22.38-23.77-28.6-20.65,1.43-41.3,2.87-61.95,4.3l-17.5-1.02c-39.15,183.57-38.8,224.7-31.6,226.85.92.28,2.54-.05,4.79-.5,3.2-.65,7.78-1.57,14.25-1.57Z"/><path class="cls-3" d="m580.62,349.52s12.09,11.04,10.48,22.72"/><path class="cls-10" d="m591.11,373.12s-.08,0-.12,0c-.48-.06-.81-.51-.75-.99,1.53-11.08-9.82-21.61-10.17-21.92-.18-.15-.3-.37-.32-.62-.03-.48.34-.9.82-.93.39-.04.51-.03,2.32,1.91,3.17,3.41,10.39,12.36,9.08,21.81-.06.44-.44.76-.86.76Z"/><path class="cls-3" d="m569.76,350.96s5.23,5.41,5.64,13.46"/><path class="cls-10" d="m575.4,365.3c-.46,0-.85-.36-.87-.83-.38-7.64-5.34-12.84-5.39-12.9-.34-.35-.33-.9.02-1.24.35-.33.9-.33,1.24.02.22.23,5.47,5.74,5.88,14.02.02.48-.35.89-.83.92-.02,0-.03,0-.04,0Z"/><path class="cls-4" d="m558.75,211.99c.38,1.45.93,3.69,1.46,6.46,3.54,18.49-.3,27.12,4.52,31,1.5,1.2,5.83.71,14.5-.28,7.06-.8,20.93-2.38,25.41-6.11.35-.29,1.42-1.24,2.67-1.07,1.73.24,2.75,2.47,3.12,3.28,7.12,15.63.62,34,.62,34-4.6,13.02-9.7,14.11-13.3,28.3-1.33,5.25-1.72,9.38-2.15,13.94-1.13,12.06-.43,22.2.5,29.45-21.92,1.7-43.84,3.39-65.76,5.09-1.85-11.68-3.71-23.36-5.56-35.04l3.06-97.13,30.91-11.89Z"/><circle class="cls-1" cx="553.83" cy="434.14" r="21.05"/><path class="cls-10" d="m553.83,456.06c-12.09,0-21.92-9.84-21.92-21.93s9.83-21.93,21.92-21.93,21.93,9.84,21.93,21.93-9.84,21.93-21.93,21.93Zm0-42.1c-11.12,0-20.18,9.05-20.18,20.18s9.05,20.18,20.18,20.18,20.18-9.05,20.18-20.18-9.05-20.18-20.18-20.18Z"/><ellipse class="cls-12" cx="544.52" cy="418.01" rx="23.01" ry="10.95" transform="translate(-136.05 328.27) rotate(-30)"/><path class="cls-7" d="m491.35,326.03s13.56,104.88,43.47,95.71l16.75-6.38c2.75-2.16,5.94-5.46,6.94-10.06,3.02-13.88-18.16-20.43-24.88-44.18-3.93-13.9-1.41-28.4-6.38-29.51-1.95-.44-2.74,1.7-6.38,1.99-5.4.44-8.25-3.88-13.96-6.38-3.22-1.41-8.2-2.62-15.55-1.2Z"/><path class="cls-6" d="m528.56,87.87s73.19-20.4,88.15-11.58,4.48,13.61,4.48,13.61c0,0-37.15,15.27-40.34,50.6,0,0-.46,7.29-10.26,12.99,0,0,10.71,56.98-27.12,88.66,1.01,5.41,1.73,11.99,1.5,19.44-.46,14.91-4.53,26.82-7.95,34.52-.13,4.12-.57,8.58-1.49,13.3-4.06,20.72-15.29,35.39-22.95,43.6,0,0-50-20.71-20.31-109.78,0,0-9.83-118.51,36.3-155.36Z"/><path class="cls-2" d="m512.8,354.04l-.56-.23c-.52-.22-12.89-5.48-21.73-21.88-14.65-27.18-7.63-63.26.86-88.81-.4-5.3-8.48-119.89,36.64-155.93l.31-.16c3-.84,73.72-20.4,88.83-11.49,5.78,3.41,8.64,6.73,8.47,9.88-.18,3.46-3.92,5.21-4.07,5.28-.4.16-36.73,15.5-39.83,49.88-.02.29-.58,7.54-10.17,13.36.99,6.23,8.11,58.61-27.13,88.55,1.14,6.31,1.61,12.75,1.42,19.13-.37,11.9-3.04,23.58-7.95,34.69-.15,4.47-.66,8.93-1.51,13.27-3.12,15.91-11.13,31.14-23.17,44.03l-.41.44Zm16.17-265.38c-45.08,36.27-35.93,153.31-35.84,154.49l.02.18-.06.17c-8.4,25.18-15.4,60.81-1.1,87.48,7.5,13.99,17.9,19.74,20.37,20.95,11.58-12.55,19.29-27.3,22.31-42.7.84-4.3,1.34-8.73,1.48-13.16l.08-.33c4.86-10.96,7.51-22.46,7.87-34.19.2-6.42-.3-12.9-1.48-19.25l-.09-.5.39-.33c37-30.98,26.93-87.26,26.82-87.82l-.11-.61.53-.31c9.23-5.36,9.82-12.22,9.82-12.29,3.2-35.46,40.5-51.19,40.88-51.35h0s2.91-1.37,3.03-3.78c.08-1.68-1.17-4.47-7.61-8.27-14.12-8.33-83.34,10.53-87.3,11.62Z"/><path class="cls-2" d="m493.29,246.24c-.18.02-.36,0-.54-.04-.94-.21-1.54-1.15-1.33-2.09,1.04-4.66,8.62-11.69,9.48-12.48.71-.65,1.82-.6,2.47.11.65.71.6,1.82-.11,2.47-2.94,2.69-7.82,7.95-8.43,10.66-.17.76-.81,1.29-1.54,1.36Z"/><path class="cls-2" d="m522.09,257.61c-.89-.07-1.49-.5-1.83-.84-4.36-4.36,5.38-30.31,9.77-41.26.36-.89,1.34-1.33,2.2-.95.86.37,1.26,1.39.9,2.28-6.31,15.76-11.97,34.2-10.61,37.26.09-.02.22-.07.39-.15,9.32-4.51,24.02-18.63,24.17-18.77.68-.66,1.74-.62,2.37.09.63.71.58,1.81-.1,2.47-.62.59-15.24,14.64-25.04,19.38-.88.43-1.62.55-2.22.5Zm.53-3.35h.02s-.02,0-.02,0Z"/><path class="cls-2" d="m527.54,180.46c-1.72,0-2.79-.56-3.56-1.31-7.04-6.85,16.34-39.59,23.67-49.47.58-.77,1.67-.93,2.45-.36.78.58.94,1.67.36,2.45-14.21,19.14-27.27,41.73-24.04,44.87.77.75,6.53,3.01,44.03-26.41.76-.6,1.86-.46,2.46.3.6.76.46,1.86-.3,2.46-28.08,22.03-39.7,27.47-45.07,27.47Z"/><path class="cls-7" d="m636.23,81.4c-.35-4.08-3.71-36.67-32.14-54.93-23.96-15.39-56.05-14.38-81.09,2.72-6.45,4.86-15.98,13.04-24.66,25.31-17.52,24.74-20.29,50.08-22.87,73.75-1.59,14.6-2.62,36.04,1,62.05l5.8,4.93s14.28-94.41,41.06-106.91l112.91-6.92Z"/><path class="cls-3" d="m566.91,80.85s73.48-26.45,75.93,11.76c0,0,4.74,14.7-34.29,6.53-4.25,2.86-13.22,8.05-25.76,9.26-10.48,1.01-18.86-1.21-23.53-2.82-1.21.65-18.95,9.87-32.36.91-1.07-.72-9.53-6.46-9.19-14.43.4-9.69,12.93-15.96,21.29-14.85,3.45.46,4.25,1.91,8.69,3.39,7.48,2.5,14.51,1.48,19.22.25Z"/><path class="cls-9" d="m540.52,111.23c-4.68,0-9.63-1.03-14.1-4.01-2.33-1.56-9.91-7.27-9.58-15.19.16-3.85,2.09-7.44,5.59-10.38,4.62-3.88,11.33-6.01,16.69-5.3,2.09.28,3.3.9,4.7,1.63,1.06.55,2.27,1.17,4.15,1.8,5.69,1.9,11.97,1.98,18.68.24.77-.27,12.45-4.38,26.29-6.92,19.26-3.53,33.31-2.51,41.77,3.04,5.48,3.59,8.5,9.09,8.99,16.32.17.62.75,3.46-1.54,6.01-4.29,4.77-15.54,5.31-33.43,1.6-5.48,3.63-14.32,8.09-25.85,9.2-7.86.76-16-.19-23.54-2.75-1.79.91-9.81,4.7-18.82,4.7Zm-3.48-33.27c-4.5,0-9.8,1.93-13.48,5.02-2.17,1.82-4.8,4.89-4.97,9.12-.3,7.19,7.28,12.65,8.81,13.67,13.08,8.74,30.71-.55,31.46-.95l.34-.18.36.12c7.4,2.56,15.4,3.52,23.15,2.78,11.39-1.1,20.07-5.56,25.35-9.12l.31-.21.36.08c21.69,4.54,29.43,1.98,32.11-.96,1.88-2.06,1.2-4.36,1.17-4.46l-.04-.21c-.43-6.71-3.19-11.78-8.21-15.07-19.34-12.69-66.08,3.91-66.55,4.08l-.08.02c-7.06,1.84-13.69,1.75-19.71-.26-2.01-.67-3.28-1.33-4.4-1.91-1.36-.7-2.34-1.21-4.12-1.45-.6-.08-1.22-.12-1.86-.12Z"/><path class="cls-3" d="m481.37,187.05s-11.23-7.08-19.24,8.17c0,0-12.03,11.45,0,18.66,0,0,14.86,10.61,26.4-1.75,0,0,12.43-10.09,5.25-20.91,0,0-2.05-6.51-12.41-4.18Z"/><path class="cls-9" d="m475.43,218.98c-7.53,0-13.71-4.32-13.81-4.39-3.39-2.03-5.31-4.65-5.66-7.75-.65-5.85,4.61-11.31,5.46-12.15,2.84-5.35,6.39-8.62,10.56-9.74,4.58-1.22,8.42.56,9.53,1.17,9.88-2.07,12.65,3.72,13.05,4.71,7.42,11.32-5.35,21.89-5.48,21.99-4.38,4.68-9.25,6.17-13.65,6.17Zm-.27-32.7c-.87,0-1.79.1-2.75.36-3.7,1-6.9,4.02-9.51,8.98l-.17.23c-.06.05-5.63,5.44-5.03,10.8.28,2.53,1.92,4.7,4.88,6.48.64.45,14.44,10.04,25.32-1.59.57-.47,11.81-9.81,5.16-19.83l-.11-.22c-.08-.23-2-5.71-11.38-3.59l-.35.08-.31-.19s-2.46-1.51-5.75-1.51Z"/><path class="cls-13" d="m834.75,530.55l-3.61,32.46-20.29-2.25c-8.56-16-14.99-29.78-19.55-40.15-9.41-21.39-11.28-29.21-12.28-36.07-2.28-15.61-.14-26.99,3.59-35.78,2.19-5.15,6.74-13.69,9.67-13,2.96.69,1.75,10.19,4.07,23.32,1.99,11.3,5.47,19.01,9.84,28.67,4.71,10.41,13.27,26.22,28.56,42.79Z"/><path class="cls-10" d="m831.65,563.64l-21.16-2.35-.14-.26c-7.07-13.2-13.65-26.72-19.57-40.19-9.73-22.12-11.38-29.75-12.33-36.21-2.01-13.79-.82-25.59,3.63-36.09.62-1.47,6.2-14.3,10.33-13.34,2.18.51,2.46,4.14,2.93,10.14.29,3.75.65,8.41,1.57,13.64,1.97,11.22,5.43,18.86,9.8,28.53,6.94,15.35,16.51,29.7,28.46,42.65l.18.19-3.7,33.29Zm-20.43-3.42l19.42,2.16,3.51-31.64c-11.95-12.99-21.53-27.37-28.48-42.75-4.41-9.75-7.88-17.44-9.88-28.81-.93-5.29-1.29-9.98-1.59-13.75-.38-4.91-.68-8.8-2.05-9.11-2.08-.51-6.21,6.06-9.02,12.67-4.37,10.3-5.54,21.9-3.55,35.48.93,6.38,2.57,13.93,12.24,35.92,5.87,13.35,12.39,26.75,19.39,39.84Z"/><path class="cls-13" d="m960.15,628.7s12.43-5.88,17.18-23.05-2.49-37.74-2.49-37.74l-24.18,16.72-4.97,25.99-21.83-.24-22.13,45.75-3.5,7.31v4.77s36.21,6.68,40.36,4.45c4.15-2.23,30.85-4.45,33.39-9.85s9.22-19.39-12.08-22.25.26-11.85.26-11.85Z"/><path class="cls-10" d="m934.96,673.67c-9.93,0-33.7-4.32-36.84-4.9l-.47-.09.06-5.49,3.5-7.31,22.29-46.08,21.72.24,4.92-25.75.19-.13,24.8-17.15.25.71c.07.21,7.24,20.93,2.5,38.08-4.76,17.23-17.36,23.36-17.48,23.42h-.02c-3.75,1.58-9.59,4.91-9.29,7.2.12.9,1.43,2.56,8.89,3.57,7.43,1,12.27,3.47,14.37,7.34,2.98,5.46-.26,12.35-1.82,15.66-1.67,3.55-11.03,5.53-23.09,7.75-4.94.91-9.2,1.69-10.58,2.43-.66.36-2.04.51-3.89.51Zm-36.16-5.94c14.49,2.65,36.63,5.97,39.52,4.42,1.54-.83,5.68-1.59,10.91-2.55,8.74-1.61,20.71-3.81,22.23-7.04,1.62-3.45,4.58-9.74,1.88-14.69-1.92-3.53-6.47-5.8-13.52-6.75-6.35-.85-9.58-2.34-9.88-4.55-.51-3.88,8.83-7.91,9.97-8.39.41-.2,12.3-6.19,16.86-22.68,4.15-15.03-1.04-32.92-2.24-36.68l-23.36,16.15-5.02,26.23-21.95-.25-21.97,45.42-3.44,7.19v4.16Z"/><path class="cls-13" d="m919.38,425.77l65.24,4.89c6.15,10.44,13.87,26.48,17.72,47.28,5.88,31.78-.39,57.85-4.66,71.25,4.42,46.12,7.27,79.4,7.38,94.12.02,2.7-.02,8.98,4.03,12.1,5.43,4.19,12.25-1.92,22.28,1.72,1.56.57,9.95,3.82,11.79,11.28,1.61,6.51-2.75,12.3-3.19,12.87-2.89,3.72-6.93,5.51-29.21,8.28-18.32,2.28-25.34,2.28-26.09-.02-.22-.69.32-.97,1.18-3.6.48-1.45,1.61-4.92,1.39-8.62-.28-4.55-2.5-7.81-3.41-9.11-2.54-3.63-5.69-5.49-7.32-6.3-1.65-27.07-3.3-54.14-4.95-81.21-.58,1.47-1.26,2.99-2.07,4.55-3.42,6.58-7.82,11.37-11.61,14.69,1.59,20.22,3.18,40.45,4.77,60.67,2.89-.1,15.42-.24,21.18,7.6.31.43.99,1.4,1.63,2.8,2.77,6.08,2.06,14.27-1.77,18.87-3.44,4.13-10.54,4.3-24.59,4.46-12.37.14-18.56.36-21.34-1.73-5.88-4.41-6.4-14.74-7.43-35.4-.2-3.88-.52-13.09-3.98-24.62-.23-.78-.44-1.42-.58-1.85-.21,1.01-.4,1.79-.51,2.22-1.62,6.45-3.27,12.64-9.42,18.79,0,0-5.3,7.91-13.77,11.51-22.42,9.5-59.87-8.72-59.87-8.72l-21.28-98.96v-6.13s29.01-42.97,52.28-53.41c0,0,37.43-13.63,46.17-70.29Z"/><path class="cls-10" d="m950.14,695c-6.76,0-10.57-.32-12.71-1.92-6.09-4.57-6.62-15.02-7.66-35.83l-.03-.52c-.21-4.19-.63-12.89-3.88-23.78-.01.06-.03.11-.04.16-1.56,6.23-3.18,12.67-9.57,19.06-.15.24-5.42,8.01-13.95,11.63-11.73,4.97-27.53,2.33-38.72-.77-12.08-3.34-21.53-7.91-21.63-7.96l-.25-.12-.06-.27-21.29-99.08v-6.3l.1-.15c.07-.11,7.39-10.9,17.45-22.84,13.54-16.05,25.34-26.41,35.07-30.77.13-.05,9.44-3.52,19.68-13.83,9.46-9.51,21.67-26.95,26.15-56.03l.08-.52,66.07,4.95.15.26c8.72,14.8,14.7,30.77,17.79,47.47,4.35,23.51,2.75,48.2-4.64,71.41,5.07,52.89,7.27,81.02,7.37,94.05v.17c.02,2.79.06,8.6,3.81,11.48,2.51,1.93,5.33,1.5,8.9.97,3.77-.57,8.04-1.21,13.23.67,2.39.87,10.32,4.27,12.15,11.68,1.66,6.73-2.79,12.7-3.3,13.36-3.11,4-7.82,5.79-29.59,8.5-18.48,2.3-25.23,2.31-26.55-.06-.05.06-.1.12-.15.18-3.68,4.42-11.26,4.51-25.02,4.66l-2.34.03c-2.48.03-4.69.06-6.65.06Zm-24.48-66.48l.66,2.06c.14.43.34,1.08.58,1.86,3.34,11.11,3.77,19.98,3.98,24.24l.02.51c1.03,20.45,1.55,30.72,7.21,34.97,2.45,1.84,8.21,1.77,18.66,1.64l2.34-.03c14.43-.16,20.95-.4,24.16-4.25.68-.82,1.26-1.76,1.73-2.8.1-.27.21-.59.33-.95.27-.81.73-2.23,1.05-3.95.48-3.53.04-7.37-1.42-10.57-.29-.64-.63-1.27-1-1.86-.22-.34-.42-.62-.57-.84-5.21-7.09-16.21-7.51-20.69-7.36l-.55.02-4.83-61.5.22-.19c4.79-4.2,8.65-9.09,11.48-14.52.76-1.46,1.45-2.97,2.05-4.5l.95-2.4,5.08,83.45c2.08,1.09,4.93,3.04,7.23,6.33.23.31.45.65.67.99,1.04,1.63,2.62,4.61,2.85,8.42.09,1.45-.03,2.86-.23,4.14-.23,2.09-.77,4.1-1.61,5.87-.21.54-.39.93-.52,1.23-.27.6-.3.69-.25.84.77,2.36,13.31,1.14,25.47-.38,22.61-2.81,26.15-4.62,28.83-8.07.48-.61,4.62-6.18,3.09-12.38-1.69-6.86-9.17-10.06-11.43-10.88-4.92-1.79-9.03-1.17-12.67-.62-3.69.56-6.88,1.03-9.77-1.19-4.19-3.23-4.24-9.64-4.26-12.38v-.17c-.1-13.01-2.31-41.14-7.38-94.07v-.12s.02-.11.02-.11c7.36-23.07,8.97-47.61,4.64-70.97-3.05-16.47-8.94-32.23-17.5-46.84l-64.42-4.83c-2.56,16.21-9.24,38.93-26.44,56.19-10.42,10.46-19.63,13.89-20.02,14.03-22.15,9.94-50.03,50.3-51.91,53.05v5.89l21.2,98.62c3.3,1.55,38.18,17.47,59.15,8.59,8.21-3.48,13.47-11.22,13.52-11.3,6.24-6.25,7.81-12.54,9.34-18.61.1-.42.3-1.2.5-2.19l.44-2.11Zm38.34,31.5c3.03,0,7.63.32,11.95,1.91l-4.8-78.77c-.36.8-.74,1.58-1.14,2.35-2.84,5.48-6.72,10.41-11.52,14.67l4.7,59.85c.25,0,.52,0,.8,0Z"/><path class="cls-13" d="m910.76,583.05c3.05,7.22,6.07,15.23,8.85,24,2.88,9.08,5.07,17.66,6.75,25.55"/><path class="cls-10" d="m926.36,633.17c-.26,0-.5-.18-.56-.45-1.82-8.56-4.09-17.13-6.74-25.5-2.56-8.08-5.53-16.14-8.83-23.95-.12-.29.01-.63.3-.75.29-.12.63.01.75.3,3.31,7.84,6.3,15.93,8.87,24.05,2.66,8.4,4.93,17.01,6.77,25.6.07.31-.13.61-.44.68-.04,0-.08.01-.12.01Z"/><path class="cls-13" d="m948.38,568.82c1.87,4.61,3.72,9.73,5.42,15.33,1.76,5.8,3.11,11.28,4.14,16.32"/><path class="cls-10" d="m957.94,601.04c-.27,0-.5-.19-.56-.46-1.12-5.47-2.51-10.94-4.12-16.27-1.57-5.15-3.38-10.3-5.4-15.28-.12-.29.02-.63.31-.74.29-.12.63.02.74.31,2.04,5.02,3.87,10.19,5.44,15.38,1.63,5.36,3.02,10.87,4.15,16.37.06.31-.14.61-.45.68-.04,0-.08.01-.12.01Z"/><path class="cls-13" d="m966.99,551.2c1.1,4.42,2.12,9.3,2.94,14.6.86,5.49,1.38,10.64,1.68,15.35"/><path class="cls-10" d="m971.62,581.72c-.3,0-.55-.23-.57-.53-.33-5.11-.89-10.26-1.68-15.3-.76-4.88-1.75-9.78-2.93-14.55-.08-.31.11-.62.42-.69.31-.08.62.11.69.42,1.19,4.81,2.19,9.74,2.95,14.65.79,5.08,1.36,10.26,1.69,15.4.02.31-.22.59-.53.61-.01,0-.02,0-.04,0Z"/><path class="cls-13" d="m995.43,535.65c.54,2.08,1.05,4.39,1.46,6.89.43,2.59.69,5.02.85,7.24"/><path class="cls-10" d="m997.75,550.35c-.3,0-.55-.23-.57-.53-.17-2.39-.45-4.81-.84-7.19-.38-2.29-.87-4.59-1.45-6.84-.08-.31.1-.62.41-.7.31-.08.62.11.7.41.59,2.29,1.09,4.62,1.47,6.94.4,2.41.69,4.86.86,7.29.02.31-.22.59-.53.61-.01,0-.03,0-.04,0Z"/><path class="cls-13" d="m820.85,682.37c-7.78-5.82-8.26-14.13-14.03-28.31-5.06-12.44-7.84-13.79-11.28-21.73-8.81-20.38-9.75-55.96,11.94-74.49,14-11.96,31.66-11.9,35.6-11.78,5.05.15,18.41.54,29.23,9.51,21.28,17.65,16.38,54.98,15.57,60.51-2.8,19.2-10.84,28.94-5.05,36.17,5.93,7.4,18.18,1.93,25.31,11.09,4.12,5.3,5.16,13.75,1.79,19.02-2.19,3.41-5.99,5.11-26.52,6.57-14.54,1.03-30.12,1.42-48.9-1.71-9.78-1.63-12.32-3.84-13.65-4.83Z"/><path class="cls-10" d="m864.56,690.23c-9.12,0-19.05-.62-30.15-2.47-9.46-1.58-12.22-3.67-13.7-4.79l-.2-.15c-5.68-4.25-7.6-9.9-10.26-17.72-1.08-3.17-2.3-6.76-3.95-10.83-2.88-7.07-5.04-10.59-6.95-13.69-1.46-2.36-2.83-4.6-4.32-8.04-8.5-19.65-10.37-55.96,12.09-75.15,13.25-11.32,29.59-12.11,35.99-11.92,5.09.15,18.61.55,29.58,9.64,20.95,17.38,16.81,53.89,15.77,61.03-1.09,7.44-2.98,13.54-4.5,18.45-2.44,7.87-4.05,13.07-.68,17.27,2.66,3.32,6.75,3.92,11.08,4.56,5.08.75,10.33,1.52,14.23,6.53,4.43,5.7,5.23,14.34,1.82,19.67-2.44,3.8-6.88,5.41-26.96,6.84-5.96.42-12.21.76-18.89.76Zm-43.36-8.32l.2.15c1.3.99,4.02,3.05,13.2,4.58,19.11,3.18,34.73,2.7,48.77,1.7,19.88-1.41,23.97-3.02,26.08-6.31,3.12-4.87,2.33-13.1-1.76-18.36-3.61-4.65-8.64-5.39-13.49-6.1-4.56-.67-8.86-1.31-11.81-4.98-3.75-4.68-1.98-10.4.47-18.33,1.51-4.87,3.39-10.93,4.46-18.28.56-3.87,1.74-14.1.49-25.56-1.69-15.51-7.03-27.09-15.86-34.42-10.66-8.84-23.89-9.23-28.88-9.38-6.28-.18-22.27.59-35.21,11.65-12.29,10.5-16.14,25.47-17.21,36.18-1.28,12.77.75,26.85,5.42,37.65,1.45,3.36,2.81,5.56,4.24,7.89,1.93,3.14,4.13,6.7,7.04,13.85,1.66,4.09,2.89,7.7,3.97,10.89,2.69,7.91,4.47,13.13,9.87,17.18h0Z"/><path class="cls-10" d="m908.12,684.54s-.07,0-.11-.01c-.31-.06-.51-.36-.46-.67,1.42-7.55-6.94-11.61-7.02-11.65-.28-.14-.41-.48-.27-.76.14-.29.48-.4.76-.27.09.04,9.24,4.47,7.66,12.89-.05.27-.29.47-.56.47Z"/><path class="cls-10" d="m778.08,445.14s-.08,0-.13-.01c-.31-.07-.5-.38-.43-.68,2.03-9.1,11.03-12.49,11.41-12.63.3-.11.63.04.73.34s-.04.62-.34.73c-.09.03-8.79,3.32-10.69,11.81-.06.27-.3.45-.56.45Z"/><path class="cls-10" d="m772.11,442.6s-.09,0-.14-.02c-.31-.08-.49-.39-.42-.69,2.91-11.58,15.75-15.88,16.3-16.06.3-.1.62.07.72.37.1.3-.07.62-.37.72-.13.04-12.79,4.29-15.54,15.25-.07.26-.3.43-.55.43Z"/><path class="cls-10" d="m765.96,439.86s-.09,0-.14-.02c-.31-.08-.49-.39-.41-.7,3.69-14.47,20.54-20.01,20.71-20.07.3-.09.62.07.72.37.1.3-.07.62-.37.72-.16.05-16.42,5.41-19.95,19.26-.07.26-.3.43-.55.43Z"/><path class="cls-10" d="m901.81,687.2s-.07,0-.11-.01c-.31-.06-.51-.36-.46-.67,1.42-7.55-6.94-11.61-7.02-11.65-.28-.14-.41-.48-.27-.76.14-.29.48-.41.76-.27.09.04,9.24,4.47,7.66,12.89-.05.27-.29.47-.56.47Z"/><path class="cls-10" d="m984.15,689.79s-.07,0-.11-.01c-.31-.06-.51-.36-.46-.67,1.42-7.55-6.94-11.61-7.02-11.65-.28-.14-.41-.48-.27-.76.14-.29.48-.4.76-.27.09.04,9.24,4.47,7.66,12.89-.05.27-.29.47-.56.47Z"/><path class="cls-10" d="m979.54,693.03s-.07,0-.11-.01c-.31-.06-.51-.36-.46-.67,1.42-7.55-6.94-11.61-7.02-11.65-.28-.14-.41-.48-.27-.76.14-.29.48-.4.76-.27.09.04,9.24,4.47,7.66,12.89-.05.27-.29.47-.56.47Z"/><path class="cls-10" d="m1041.47,678.41s-.07,0-.11-.01c-.31-.06-.51-.36-.46-.67,1.42-7.55-6.94-11.61-7.02-11.65-.28-.14-.41-.48-.27-.76.14-.29.48-.4.76-.27.09.04,9.24,4.47,7.66,12.89-.05.27-.29.47-.56.47Z"/><path class="cls-10" d="m1036.78,684.55s-.07,0-.11-.01c-.31-.06-.51-.36-.46-.67,1.42-7.55-6.94-11.61-7.02-11.65-.28-.14-.41-.48-.27-.76.14-.29.48-.41.76-.27.09.04,9.24,4.47,7.66,12.89-.05.27-.29.47-.56.47Z"/><path class="cls-10" d="m972.14,661.44s-.06,0-.09,0c-.31-.05-.53-.34-.48-.65.81-5.43-3.81-8.24-4-8.36-.27-.16-.36-.51-.2-.78.16-.27.51-.36.78-.2.05.03,5.48,3.31,4.55,9.52-.04.28-.29.49-.56.49Z"/><path class="cls-10" d="m968.65,661.44c-.25,0-.48-.16-.55-.41-.97-3.39-3.18-4.52-3.28-4.57-.28-.14-.4-.48-.26-.76.14-.28.48-.4.76-.26.11.05,2.75,1.38,3.87,5.28.09.3-.09.62-.39.71-.05.02-.1.02-.16.02Z"/><path class="cls-13" d="m909.04,430.56c2.67,13.73,1.07,18.16-1.21,19.4-5.47,2.96-19.41-10.06-27.69-21.85-6.33-9.02-5.31-11.56-15.66-30.6-8.59-15.81-9.69-14.81-11.11-20.04-2.84-10.53.88-17.45,11.47-44.54,12.89-32.96,13.2-37.63,21.14-47.29,3.79-4.61,18.07-21.98,29.1-18.22,3.75,1.28,6.17,4.68,7.74,7.96,0,0,60.51-22.95,79.1-3,1.72-1.86,4.25-3.97,7.68-4.82,14.04-3.49,29.2,17.49,31.38,20.5,7.07,9.78,3.6,10.13,13.21,29.08,9.3,18.32,15.54,23.9,15.44,36.15-.02,2.56-1.14,6.82-3.38,15.24-5.49,20.63-8.38,31.2-15.53,43.49-1.75,3.01-5.6,9.31-11.81,16.35-4.77,5.41-16.68,18.93-21.81,16.6-6.18-2.82-.42-27.66,1.38-35.01,0,0-37.06,63.34-67.22,50.01,0,0-24.77-3.51-42.22-29.42Z"/><path class="cls-10" d="m965.47,461.86c-5.15,1.12-9.98.73-14.42-1.21-1.69-.28-24.07-4.37-40.78-27.11,1.61,9.81.91,15.39-2.12,17.03-6.18,3.32-20.59-10.66-28.6-22.06-3.36-4.78-4.67-7.76-6.66-12.27-1.74-3.95-4.13-9.36-9.03-18.4-4.05-7.47-6.41-11.14-7.97-13.56-1.72-2.67-2.43-3.78-3.2-6.63-2.55-9.46.08-16.1,7.89-35.84,1.1-2.77,2.3-5.8,3.6-9.13,3.23-8.26,5.67-14.75,7.64-19.97,5.83-15.5,7.59-20.18,13.61-27.5,12.2-14.83,22.24-21.04,29.86-18.44,3.16,1.08,5.8,3.68,7.86,7.74,6.63-2.45,60.32-21.47,78.75-3.13,2.28-2.3,4.8-3.81,7.51-4.49.13-.03.26-.06.39-.09,12.96-2.83,26.47,13.6,31.72,20.86,3.72,5.15,4.58,7.74,5.87,11.67,1.17,3.54,2.77,8.4,7.4,17.51,2.75,5.42,5.2,9.67,7.37,13.42,5.13,8.88,8.22,14.25,8.15,23.06-.02,2.6-1.06,6.61-3.41,15.42-5.33,20.01-8.26,31.04-15.6,43.66-3.37,5.79-7.37,11.33-11.89,16.46-8.42,9.56-17.7,19.02-22.63,16.77-5.27-2.4-3.16-17.7,0-31.63-3.54,5.54-10.92,16.47-20.12,26.46-11.17,12.15-21.73,19.35-31.22,21.42Zm-57.77-34.53l1.92,2.84c8.91,13.23,19.78,20.44,27.33,24.16,8.19,4.04,14.35,4.95,14.41,4.96l.18.05c29.26,12.93,65.97-49.1,66.34-49.73l2.42-4.14-1.14,4.66c-4.84,19.72-5.51,32.51-1.77,34.21,4.66,2.12,16.96-11.83,21-16.42,4.46-5.06,8.41-10.53,11.73-16.24,6.95-11.96,9.76-21.92,15.46-43.32,2.15-8.08,3.34-12.54,3.36-15.07.07-8.43-2.95-13.67-7.96-22.35-2.17-3.76-4.64-8.03-7.4-13.48-4.67-9.2-6.29-14.11-7.48-17.7-1.26-3.81-2.09-6.32-5.68-11.29-4-5.54-18.11-23.34-30.65-20.23-2.65.66-5.12,2.21-7.34,4.61l-.51.55-.51-.55c-9.38-10.07-30.12-8.7-45.86-5.78-17.19,3.2-32.32,8.89-32.48,8.95l-.6.23-.28-.58c-1.93-4.04-4.4-6.6-7.33-7.6-4.82-1.64-13.64.14-28.33,18-5.88,7.15-7.47,11.37-13.39,27.11-1.97,5.22-4.41,11.72-7.64,19.99-1.3,3.34-2.51,6.37-3.6,9.14-7.69,19.41-10.28,25.95-7.85,34.96.71,2.65,1.34,3.63,3.03,6.24,1.57,2.44,3.94,6.13,8.02,13.65,4.93,9.09,7.33,14.53,9.08,18.5,1.96,4.43,3.25,7.36,6.53,12.04,8.51,12.11,22.07,24.19,26.79,21.64,1.85-1,3.5-5.05.85-18.65l-.65-3.37Z"/><path class="cls-10" d="m908.36,430.72c-15.27-63.09,10.03-108.28,10.29-108.73l1.21.69c-.26.45-25.28,45.19-10.15,107.71l-1.35.33Z"/><path class="cls-10" d="m1019.13,410.2l-1.31-.47c10.57-29.33,7.31-53.19,2.71-68.05-4.99-16.11-12.58-25.41-12.66-25.5l1.07-.89c.31.37,30.7,38.02,10.19,94.92Z"/><path class="cls-10" d="m940.84,417.46c1.96,8.53,7.9,15.26,15.11,16.77,10.28,2.16,22.84-6.37,24.99-20.7-1.93.56-6.17,1.52-11.3.27-4.4-1.07-7.41-3.26-8.92-4.53-1.65,1.27-3.63,2.6-5.96,3.82-5.31,2.78-10.29,3.89-13.92,4.36Z"/><path class="cls-8" d="m968.47,431.72s1.53-22.65-9.49-10.95c0,0-8.21-7.13-10.7,9.12,0,0,5.6,9.49,20.19,1.83"/><path class="cls-10" d="m961.89,434.95c-9.99,2.18-14.16-4.63-14.21-4.71l-.13-.21.04-.25c.96-6.23,2.89-9.92,5.73-10.97,2.36-.86,4.59.35,5.58,1.03,2.68-2.72,4.87-3.65,6.68-2.86,4.33,1.89,3.67,13.47,3.58,14.79l-.03.39-.34.18c-2.56,1.34-4.86,2.17-6.91,2.61Zm-12.88-5.22c.9,1.3,6.26,7.95,18.79,1.55.26-4.62-.26-11.93-2.78-13.03-1.26-.55-3.17.48-5.54,2.99l-.46.48-.51-.44s-2.4-2.03-4.73-1.17c-2.26.84-3.92,4.16-4.79,9.61Z"/><path class="cls-7" d="m958.98,420.77s-2.35,7.67-1.01,13.79"/><path class="cls-10" d="m958.65,434.41l-1.36.3c-1.36-6.22.93-13.82,1.03-14.14l1.33.41c-.02.08-2.28,7.58-1,13.44Z"/><circle class="cls-3" cx="938.43" cy="361.09" r="16.58"/><path class="cls-10" d="m942.14,378.12c-9.39,2.05-18.69-3.93-20.74-13.32-2.05-9.39,3.93-18.69,13.32-20.74,9.39-2.05,18.69,3.93,20.74,13.32,2.05,9.39-3.93,18.69-13.32,20.74Zm-7.06-32.39c-8.47,1.85-13.86,10.24-12.01,18.71,1.85,8.47,10.24,13.86,18.71,12.01,8.47-1.85,13.86-10.24,12.01-18.71-1.85-8.47-10.24-13.86-18.71-12.01Z"/><circle class="cls-3" cx="988.88" cy="360.2" r="16.58"/><path class="cls-10" d="m992.6,377.23c-9.39,2.05-18.69-3.93-20.74-13.32-2.05-9.39,3.93-18.69,13.32-20.74s18.69,3.93,20.74,13.32c2.05,9.39-3.93,18.69-13.32,20.74Zm-7.06-32.39c-8.47,1.85-13.86,10.24-12.01,18.71,1.85,8.47,10.24,13.86,18.71,12.01,8.47-1.85,13.86-10.24,12.01-18.71-1.85-8.47-10.24-13.86-18.71-12.01Z"/><ellipse class="cls-10" cx="939.29" cy="335.11" rx="8.74" ry="3.06" transform="translate(-35.63 125.11) rotate(-7.48)"/><path class="cls-10" d="m941.87,338.47c-.67.15-1.37.27-2.09.36-4.65.61-9.52-.05-9.84-2.49-.11-.8.27-2,2.63-3.19,1.63-.82,3.84-1.45,6.23-1.76,2.39-.31,4.69-.28,6.48.09,2.59.54,3.26,1.61,3.37,2.4.11.8-.27,2-2.63,3.19-1.14.58-2.57,1.06-4.14,1.4Zm-4.87-5.36c-1.46.32-2.77.76-3.81,1.28-1.37.69-1.93,1.38-1.88,1.76.13.95,3.41,1.93,8.28,1.29,2.24-.3,4.29-.87,5.79-1.62,1.37-.69,1.93-1.38,1.88-1.76-.05-.35-.67-.89-2.27-1.22-1.64-.34-3.77-.37-6.01-.08-.68.09-1.34.21-1.98.34Z"/><ellipse class="cls-10" cx="988.29" cy="334.15" rx="3.06" ry="8.74" transform="translate(503.07 1257.69) rotate(-80.96)"/><path class="cls-10" d="m994.55,337.87c-1.89.41-4.41.38-6.85-.01-4.63-.74-9.12-2.76-8.73-5.19h0c.39-2.44,5.28-2.96,9.91-2.23,2.38.38,4.58,1.06,6.18,1.93,2.33,1.26,2.67,2.47,2.55,3.26-.18,1.15-1.37,1.87-3.05,2.24Zm-14.21-4.99h0c-.15.95,2.72,2.82,7.57,3.6,4.85.77,8.16-.12,8.31-1.07.06-.38-.48-1.09-1.83-1.82-1.47-.79-3.51-1.43-5.74-1.78-4.85-.77-8.16.12-8.31,1.07Z"/><circle class="cls-10" cx="938.43" cy="361.09" r="10.69"/><path class="cls-10" d="m940.89,372.37c-6.22,1.36-12.38-2.6-13.74-8.82-1.36-6.22,2.6-12.38,8.82-13.74,6.22-1.36,12.38,2.6,13.74,8.82,1.36,6.22-2.6,12.38-8.82,13.74Zm-4.55-20.89c-5.3,1.16-8.67,6.41-7.52,11.71,1.15,5.3,6.41,8.67,11.71,7.52,5.3-1.15,8.67-6.41,7.52-11.71s-6.41-8.67-11.71-7.52Z"/><circle class="cls-10" cx="988.88" cy="360.2" r="10.69"/><path class="cls-10" d="m991.34,371.48c-6.22,1.36-12.38-2.6-13.74-8.82-1.36-6.22,2.6-12.38,8.82-13.74s12.38,2.6,13.74,8.82c1.36,6.22-2.6,12.38-8.82,13.74Zm-4.55-20.89c-5.3,1.16-8.67,6.41-7.52,11.71,1.16,5.3,6.41,8.67,11.71,7.52s8.67-6.41,7.52-11.71c-1.15-5.3-6.41-8.67-11.71-7.52Z"/><circle class="cls-3" cx="943.36" cy="353.41" r="3.67"/><path class="cls-10" d="m944.32,357.82c-2.44.53-4.85-1.02-5.38-3.45-.53-2.44,1.02-4.85,3.45-5.38,2.43-.53,4.85,1.02,5.38,3.45.53,2.43-1.02,4.85-3.45,5.38Zm-1.56-7.16c-1.52.33-2.48,1.83-2.15,3.35s1.83,2.48,3.35,2.15,2.48-1.83,2.15-3.35c-.33-1.52-1.83-2.48-3.35-2.15Z"/><circle class="cls-3" cx="995.17" cy="352.47" r="3.67"/><path class="cls-10" d="m996.14,356.89c-2.43.53-4.85-1.02-5.38-3.45-.53-2.43,1.02-4.85,3.45-5.38s4.85,1.02,5.38,3.45-1.02,4.85-3.45,5.38Zm-1.56-7.16c-1.52.33-2.48,1.83-2.15,3.35.33,1.52,1.83,2.48,3.35,2.15s2.48-1.83,2.15-3.35-1.83-2.48-3.35-2.15Z"/><path class="cls-10" d="m950.52,392.84c.66-4.29,6.48-6.2,7.47-6.52,6.18-2.02,14.66-.04,15.86,4.17,1.35,4.74-6.25,13.2-13.78,12.24-5-.63-10.23-5.44-9.54-9.9Z"/><path class="cls-10" d="m963.64,403.25c-1.18.26-2.41.34-3.67.18-3.13-.4-6.44-2.36-8.43-4.99-1.41-1.87-2-3.84-1.72-5.71h0c.66-4.25,5.77-6.36,7.94-7.07,4.23-1.39,9.7-1.01,13.31.91,1.83.97,3.02,2.26,3.44,3.74.63,2.21-.38,5.14-2.7,7.84-1.88,2.19-4.81,4.37-8.17,5.11Zm-12.43-10.31c-.29,1.87.63,3.56,1.45,4.65,1.77,2.35,4.71,4.1,7.49,4.45,4.31.55,8.41-2.25,10.61-4.81,1.98-2.31,2.91-4.82,2.42-6.55-.31-1.1-1.27-2.1-2.75-2.89-3.3-1.75-8.32-2.09-12.22-.82-1.92.63-6.46,2.48-6.99,5.96h0Z"/><path class="cls-10" d="m945.15,417.64c-2.82.61-5.72.76-8.44.05-4.28-1.12-7.51-4.19-9.6-9.15-.15-.35.02-.76.37-.91.35-.15.76.01.91.37,1.91,4.53,4.83,7.34,8.67,8.34,9.11,2.38,20.9-5.89,22.94-7.39l-.62-6.15c-.04-.38.25-.72.62-.76.38-.04.72.24.76.62l.66,6.54c.02.24-.08.47-.27.62-.42.32-7.85,6.04-16,7.82Z"/><path class="cls-10" d="m979.61,414.49c-5.98,1.3-12.74.62-19.32-4.67-.3-.24-.35-.68-.1-.98.24-.3.68-.35.98-.1,7.21,5.8,15.47,6.55,24.56,2.22,6.87-3.27,11.65-8.36,11.7-8.41.27-.28.7-.29.99-.04.28.26.3.7.04.99-.13.13-8.24,8.69-18.84,11Z"/><path class="cls-10" d="m962.08,435.05c-2.87.62-5.71.58-8.28-.17-6.51-1.91-11.86-8.69-13.64-17.28-.08-.38.13-.69.54-.82.38-.08.75.16.82.54,1.68,8.09,6.65,14.46,12.67,16.22,4.19,1.23,9.21.38,13.77-2.32,6.16-3.66,10.65-10.16,12.3-17.83.08-.38.45-.61.83-.53.38.08.62.45.53.83-1.74,8.04-6.46,14.87-12.95,18.73-2.13,1.27-4.37,2.15-6.59,2.64Z"/><path class="cls-13" d="m1274.45,615.18c-1.85,6.49-16.34,58.79,1.39,69.08,1.97,1.14,4.52,1.37,9.54,1.82,5.45.48,42.29,3.73,47.65-10.15,2.14-5.54-.54-14.33-4.87-16.45-.9-.44-2.21-.75-2.65-.86-2.86-.68-4.38-.29-8.87-.64-1.63-.13-2.44-.19-2.64-.28-2.28-1.04-2.81-4.56-2.71-18.3.07-10.27.41-13.73,3.12-16.52,1.44-1.49,2.93-2.12,3.74-2.49,4.4-2.01,10.91-6.24,19.99-16.12-6.28-4.47-12.56-8.94-18.83-13.4l-42.5,12.75c-.79,3.86-1.57,7.72-2.36,11.58Z"/><path class="cls-10" d="m1299.82,687.52c-5.61,0-10.79-.34-14.5-.66-4.99-.44-7.74-.68-9.87-1.92-17.72-10.28-4.6-60-1.76-69.94l2.45-12.01,43.32-13,19.87,14.14-.6.66c-7.43,8.07-14.24,13.56-20.24,16.3-.91.42-2.24,1.02-3.5,2.33-2.45,2.53-2.82,5.68-2.9,15.98-.09,12.95.39,16.73,2.25,17.57.16.04,1.13.12,2.37.21,1.76.14,3.03.16,4.16.18,1.69.03,3.03.05,4.84.49.45.11,1.82.44,2.81.92,4.72,2.3,7.52,11.59,5.26,17.44-3.58,9.27-20.08,11.31-33.94,11.31Zm-22.34-83.3l-2.28,11.17c-1.69,5.93-16.06,58.27,1.03,68.18,1.83,1.06,4.45,1.29,9.21,1.71,9.79.86,42.07,2.71,46.84-9.65,1.97-5.11-.46-13.49-4.48-15.46-.83-.4-2.07-.7-2.48-.8-1.65-.39-2.84-.42-4.5-.44-1.09-.02-2.45-.04-4.25-.18-2.13-.16-2.59-.2-2.91-.35-2.71-1.23-3.27-4.61-3.17-19.02.07-10.16.36-13.99,3.34-17.07,1.47-1.52,3.03-2.23,3.86-2.61,5.77-2.63,12.2-7.77,19.25-15.33l-17.79-12.66-41.68,12.51Z"/><path class="cls-13" d="m1443.47,584.49l28.44-10.73c.78,4.32,1.93,11.5,2.62,20.45,2.18,28.32-2.64,43.25,5.63,49.12,4.95,3.52,8.43-.6,16.88,4.22,1.76,1,10.19,5.8,11.77,14.88.3,1.74,1.07,6.16-1.11,10-1.64,2.88-6.19,7.6-49.31,6.66-11.1-.24-12.31-.59-13.77-1.55-9.59-6.35-6.18-23.76-6.36-58.48-.07-13.87-.69-25.06-1.15-31.84,2.12-.91,4.25-1.83,6.37-2.74Z"/><path class="cls-10" d="m1468.7,680.01c-3.18,0-6.61-.04-10.33-.12-11.46-.25-12.59-.63-14.19-1.69-7.68-5.08-7.42-16.51-6.97-37.25.14-6.39.3-13.64.26-21.88-.06-10.68-.44-21.37-1.15-31.79l-.04-.56,6.92-2.98,29.32-11.06.17.93c1.21,6.72,2.09,13.63,2.63,20.53.78,10.12.67,18.61.58,25.43-.16,12.2-.26,19.57,4.73,23.11,2.08,1.48,3.84,1.48,6.08,1.48,2.67,0,5.99,0,10.73,2.7,6.78,3.86,11.1,9.35,12.16,15.43.31,1.76,1.12,6.44-1.2,10.52-1.37,2.4-4.1,7.18-39.68,7.18Zm-30.78-92.28c.68,10.27,1.06,20.81,1.12,31.33.04,8.26-.12,15.52-.26,21.92-.44,20.18-.69,31.3,6.26,35.9,1.23.81,2.24,1.18,13.36,1.42,39.42.86,46.69-2.9,48.61-6.27,2.04-3.59,1.3-7.86,1.02-9.47-.98-5.62-5.02-10.71-11.39-14.34-4.38-2.49-7.34-2.49-9.96-2.49-2.32,0-4.51,0-6.99-1.77-5.66-4.02-5.56-11.7-5.39-24.41.09-6.79.2-15.24-.57-25.29-.5-6.53-1.32-13.06-2.44-19.44l-27.53,10.38-5.85,2.52Z"/><path class="cls-13" d="m1206.31,538.26c-10.29-18.09-17.1-33.68-21.51-44.97-3.05-7.81-5.35-13.74-7.48-22.24-2.95-11.74-6.34-25.82-3.64-43.27,2.83-18.31,10.49-28.16,15.16-32.96,2.92-3,5.5-5.58,7.7-4.9,5.81,1.8-3.43,22.48,2.86,47.82,6.27,25.29,27.48,53.08,29.25,60.68.14.61.66,3.25,2.62,5.91,1.42,1.92,2.58,2.5,2.98,3.1,1.41,2.12-3.51,9.49-27.94,30.82Z"/><path class="cls-10" d="m1206.1,539.49l-.48-.84c-8.36-14.7-15.62-29.87-21.56-45.08-2.85-7.3-5.32-13.6-7.51-22.33-2.71-10.81-6.43-25.62-3.65-43.58,2.15-13.88,7.32-25.11,15.38-33.38,2.98-3.06,5.79-5.94,8.5-5.11,3.25,1,2.79,5.73,2.03,13.56-.86,8.9-2.04,21.08,1.36,34.81,3.99,16.09,14.01,33.09,21.32,45.51,4.22,7.16,7.27,12.34,7.93,15.19.2.9.73,3.24,2.49,5.63.83,1.13,1.57,1.77,2.11,2.23.38.33.68.58.89.9,1.44,2.16-.46,7.74-28.08,31.85l-.73.63Zm-10.3-148.89c-1.75,0-4.11,2.42-6.4,4.77-7.82,8.03-12.85,18.97-14.95,32.53-2.73,17.65.79,31.68,3.63,42.96,2.17,8.63,4.5,14.6,7.45,22.15,5.8,14.85,12.86,29.66,20.99,44.03,27.23-23.85,27.61-28.35,27.08-29.16-.09-.13-.33-.34-.6-.58-.57-.49-1.42-1.22-2.36-2.49-1.95-2.65-2.53-5.24-2.73-6.09-.63-2.73-3.79-8.08-7.78-14.86-7.36-12.5-17.45-29.62-21.49-45.93-3.47-14-2.28-26.33-1.4-35.34.63-6.55,1.09-11.28-.93-11.91-.16-.05-.33-.07-.5-.07Z"/><path class="cls-13" d="m1415.65,614.2c15.86-1.22,50.34-20.24,64.03-43.91,14.89-25.73,5.12-56.77,1.5-66.77l-105.01-40.25c-69.8-7.78-130.74,7.07-155.33,41.24-9.75,13.54-13.76,26.75-13.76,26.75s-10.84,35.67,4.61,81.96c.3.89,1.5,4.3,2.01,9.05.42,3.88.18,6.81.12,7.7-.56,7.67.84,12.25,1.45,26.73.78,18.63-.96,24.33,3.94,29.3,1.56,1.58,3.32,2.62,6.02,3.71,14.04,5.65,43.09,8.27,49.91-5.79,3.4-7.02,1.18-18.03-4.77-22.17-5.7-3.97-12.73-.17-16.57-4.89-1.27-1.56-1.14-2.77-1.31-10.85-.33-15.78-1.02-20.65,2.5-23.48,1.34-1.08,2.71-1.4,3.34-1.55,11.5-2.78,22.84-10.08,35.64-14.07,25.29-7.87,63.5-5,68.19,8.34.21.6.18.73.36,6.44.26,8.41.73,16.81,1.01,25.22.89,26,1.5,29.83,4.9,32.98,3.35,3.11,7.63,3.9,10.34,4.14,14.04-.14,28.09-.27,42.13-.41,7.33-.46,13.71-4.21,15.89-9.85,3.12-8.05-3.16-17.65-9.92-21.08-8.02-4.07-15.55,1.15-19.97-3.82-1.29-1.45-1.56-4.32-2.07-10.02-1.04-11.71-1.49-17.64,1.94-21.27,2.92-3.09,7.29-3.27,8.86-3.39Z"/><path class="cls-10" d="m1250.39,695c-9.34,0-19.05-1.99-25.45-4.57-2.89-1.16-4.71-2.29-6.29-3.88-3.82-3.87-3.85-8.12-3.91-17.42-.02-3.31-.05-7.42-.26-12.4-.26-6.26-.68-10.7-1.01-14.28-.44-4.72-.76-8.14-.44-12.54.08-1.03.28-3.87-.11-7.56-.48-4.43-1.57-7.67-1.92-8.73l-.05-.16c-15.35-45.99-4.72-82.08-4.61-82.44.04-.13,4.16-13.49,13.87-26.98,24.23-33.66,84.03-49.59,156.06-41.56l.19.05,105.35,40.38.12.34c5.39,14.87,12.35,43.41-1.56,67.43-13.81,23.87-48.21,43.03-64.65,44.3l-.24.02c-1.66.12-5.54.4-8.11,3.13-3.12,3.31-2.78,8.72-1.73,20.66.46,5.17.73,8.28,1.87,9.56,2.04,2.29,4.84,2.15,8.39,1.97,3.41-.18,7.3-.38,11.35,1.68,7.45,3.78,13.51,13.77,10.29,22.07-2.24,5.8-8.75,9.86-16.57,10.35l-42.17.41c-4.56-.4-8.2-1.86-10.88-4.35-3.64-3.37-4.27-7.44-5.16-33.53-.13-3.91-.3-7.82-.48-11.73-.2-4.5-.4-9-.54-13.5l-.07-2.24c-.1-3.43-.11-3.58-.25-3.96-4.52-12.86-42.91-15.41-67.21-7.85-5.9,1.84-11.53,4.4-16.97,6.88-6.42,2.93-12.49,5.69-18.72,7.2-.62.15-1.85.45-3.03,1.4-2.74,2.21-2.64,5.93-2.35,17,.05,1.76.1,3.71.14,5.85l.05,2.41c.11,6,.16,6.81,1.09,7.95,1.8,2.2,4.42,2.32,7.46,2.46,2.84.13,6.05.27,8.94,2.28,6.13,4.27,8.62,15.74,5.03,23.16-3.85,7.94-14.39,10.74-25.46,10.74Zm89.97-232.99c-55.1,0-99.1,15.48-118.88,42.96-9.55,13.27-13.6,26.39-13.64,26.52-.11.35-10.58,35.99,4.6,81.48l.05.15c.37,1.1,1.5,4.47,2,9.06.41,3.83.2,6.79.13,7.76-.32,4.37,0,7.72.43,12.37.33,3.59.75,8.06,1.02,14.36.21,5,.24,9.13.26,12.45.06,9.14.09,12.92,3.45,16.33,1.43,1.45,3.04,2.44,5.76,3.53,13.52,5.44,42.23,8.37,48.9-5.4,3.3-6.81,1.07-17.3-4.51-21.18-2.52-1.75-5.36-1.88-8.12-2-3.13-.14-6.37-.28-8.62-3.04-1.31-1.6-1.33-2.86-1.44-8.92l-.05-2.41c-.04-2.14-.1-4.08-.14-5.84-.3-11.33-.41-15.57,2.94-18.27,1.45-1.17,2.91-1.52,3.61-1.69,6.12-1.48,12.12-4.22,18.47-7.11,5.49-2.5,11.16-5.09,17.16-6.95,25.45-7.92,64.31-5,69.17,8.84.22.63.22.77.33,4.44l.07,2.24c.14,4.49.34,8.99.53,13.48.17,3.91.34,7.83.48,11.74.87,25.51,1.44,29.45,4.65,32.43,2.42,2.25,5.75,3.57,9.87,3.93l42.06-.41c7.17-.45,13.14-4.12,15.16-9.35,3.06-7.9-3.49-17.03-9.54-20.09-3.67-1.87-7.33-1.68-10.55-1.51-3.65.19-7.1.37-9.65-2.49-1.48-1.67-1.76-4.79-2.26-10.47-1.02-11.55-1.59-17.92,2.15-21.88,2.99-3.17,7.3-3.48,9.14-3.62l.24-.02c15.74-1.21,50.06-20.45,63.41-43.52,13.48-23.29,6.84-51.06,1.56-65.77l-104.58-40.09c-12.27-1.36-24.19-2.03-35.62-2.03Z"/><path class="cls-10" d="m1505.94,674.11c-.4,0-.75-.31-.78-.72-.98-11.36-8.49-14.13-8.81-14.24-.41-.14-.63-.59-.48-1,.14-.41.6-.62,1-.48.36.12,8.79,3.18,9.86,15.6.04.43-.28.82-.72.85-.02,0-.05,0-.07,0Z"/><path class="cls-10" d="m1273.86,686.39c-.31,0-.6-.18-.73-.49-4.69-11.49-12.27-12.49-12.59-12.53-.43-.05-.74-.44-.69-.87s.43-.75.87-.7c.36.04,8.81,1.08,13.88,13.5.16.4-.03.86-.43,1.03-.1.04-.2.06-.3.06Z"/><path class="cls-10" d="m1426.46,682.24c-.3,0-.59-.17-.72-.47-5.07-11.33-12.68-12.08-13-12.11-.43-.04-.76-.41-.72-.85s.42-.76.84-.72c.36.03,8.84.8,14.32,13.04.18.4,0,.86-.4,1.04-.1.05-.21.07-.32.07Z"/><path class="cls-10" d="m1436.31,675.96c-.31,0-.6-.18-.73-.49-4.69-11.49-12.28-12.49-12.6-12.53-.43-.05-.74-.44-.69-.87.05-.43.44-.74.87-.7.36.04,8.81,1.08,13.88,13.49.16.4-.03.86-.43,1.03-.1.04-.2.06-.3.06Z"/><path class="cls-10" d="m1264.42,692.55c-.3,0-.58-.17-.71-.45-5.27-11.24-12.9-11.85-13.22-11.87-.43-.03-.76-.4-.74-.83.02-.43.36-.8.83-.74.36.02,8.86.63,14.55,12.77.19.39.02.86-.38,1.05-.11.05-.22.08-.34.08Z"/><path class="cls-10" d="m1254.49,622.7c-.35,0-.66-.23-.76-.58-.12-.42.13-.85.55-.97,18.01-4.93,32.89-13.72,44.25-26.13,6.27-6.85,12.19-13.32,12.96-22.78,1.32-16.37-13.32-34.25-31.34-38.26-11.93-2.66-22.35,1.43-27.5,4.11-.39.2-.86.05-1.06-.34-.2-.39-.05-.86.34-1.06,5.34-2.77,16.15-7.01,28.57-4.25,18.72,4.17,33.94,22.83,32.56,39.92-.8,10-6.9,16.66-13.36,23.72-11.56,12.63-26.7,21.58-44.99,26.59-.07.02-.14.03-.21.03Z"/><path class="cls-10" d="m1329.5,680.88c-.38,0-.72-.28-.78-.66-1.78-11.26-9.47-13.5-9.79-13.59-.42-.12-.67-.55-.55-.97s.54-.67.96-.55c.37.1,8.99,2.55,10.94,14.86.07.43-.23.83-.66.9-.04,0-.08,0-.12,0Z"/><path class="cls-10" d="m1320.55,684.88c-.38,0-.72-.28-.78-.66-1.78-11.26-9.47-13.5-9.79-13.59-.42-.12-.67-.55-.55-.97s.54-.66.96-.55c.37.1,8.99,2.55,10.94,14.86.07.43-.23.83-.66.9-.04,0-.08,0-.12,0Z"/><path class="cls-10" d="m1498.87,676.56c-.38,0-.72-.28-.78-.66-1.78-11.26-9.46-13.5-9.79-13.59-.42-.12-.67-.55-.55-.97.11-.42.54-.66.96-.55.37.1,8.99,2.55,10.94,14.86.07.43-.23.83-.66.9-.04,0-.08,0-.12,0Z"/><path class="cls-10" d="m1169.19,413.02c-.06,0-.13,0-.2-.02-.42-.11-.68-.54-.57-.96,5.66-22.11,21.22-27.53,21.87-27.75.41-.14.86.08,1,.5.14.41-.08.86-.5,1-.15.05-15.41,5.4-20.85,26.64-.09.36-.41.59-.76.59Z"/><path class="cls-10" d="m1161.01,403.58c-.12,0-.23-.03-.35-.08-.39-.19-.55-.66-.36-1.05,6.39-13.09,15.06-19.96,21.21-23.42,6.69-3.76,11.81-4.4,12.03-4.42.42-.07.82.26.87.69.05.43-.26.82-.69.88-.2.02-20.15,2.69-32.01,26.97-.14.28-.42.44-.71.44Z"/><path class="cls-10" d="m1153.87,397.46c-.11,0-.22-.02-.32-.07-.4-.18-.58-.64-.4-1.04,13.57-30.5,38.01-34.62,38.25-34.66.43-.06.83.23.9.66.07.43-.23.83-.66.9-.06,0-6.02.98-13.52,5.61-6.93,4.27-16.63,12.62-23.53,28.13-.13.29-.42.47-.72.47Z"/><path class="cls-13" d="m1392.35,476.5c-.36,15.81-3.19,20.32-6,21.14-6.76,1.96-19.02-15.79-25.33-30.8-4.83-11.49-3.09-14.04-9.92-37.57-5.68-19.54-7.14-18.7-7.44-24.81-.61-12.31,5.17-19.06,23.39-46.43,22.17-33.31,23.64-38.39,34.74-47.14,5.29-4.18,25.26-19.93,36.53-13.12,3.83,2.31,5.69,6.65,6.63,10.66,0,0,72.36-10.79,88.09,15.73,2.35-1.64,5.65-3.36,9.64-3.47,16.35-.47,28.05,26.35,29.73,30.2,5.46,12.51,1.53,12.06,7.59,35.3,5.86,22.48,11.42,30.14,8.35,43.65-.64,2.83-2.9,7.26-7.41,16.02-11.03,21.47-16.77,32.44-27.62,44.3-2.65,2.9-8.43,8.94-16.98,15.22-6.57,4.83-22.99,16.9-28.09,13.08-6.15-4.6,6.19-30.66,9.96-38.34,0,0-56.18,61.04-86.29,39.06,0,0-26.52-9.85-39.55-42.66Z"/><path class="cls-10" d="m1447.15,524.67c-5.96,0-11.19-1.6-15.63-4.81-1.8-.72-25.53-10.62-38.51-39.77-.59,11.22-2.7,17.22-6.44,18.31-7.63,2.18-20.17-16.73-26.28-31.26-2.56-6.09-3.29-9.7-4.41-15.16-.97-4.78-2.31-11.33-5.55-22.5-2.68-9.23-4.4-13.84-5.54-16.9-1.25-3.36-1.77-4.76-1.93-8.1-.54-11.06,3.96-17.77,17.35-37.69,1.88-2.79,3.93-5.85,6.18-9.22,5.56-8.35,9.82-14.93,13.24-20.22,10.17-15.72,13.24-20.46,21.66-27.1,17.04-13.45,29.63-17.88,37.42-13.18,3.23,1.95,5.52,5.46,6.82,10.45,7.92-1.11,71.8-9.19,87.74,15.5,3.07-2,6.22-3.06,9.38-3.15.15,0,.3,0,.45,0,15,0,25.97,21.4,30.01,30.67,2.87,6.58,3.19,9.65,3.68,14.3.44,4.2,1.04,9.94,3.95,21.12,1.73,6.65,3.42,11.93,4.91,16.59,3.52,11.05,5.65,17.72,3.45,27.43-.65,2.87-2.76,7.04-7.47,16.21-10.7,20.82-16.6,32.29-27.74,44.47-5.12,5.59-10.87,10.74-17.09,15.32-11.6,8.53-24.13,16.75-29.03,13.07-5.24-3.92.77-20.31,7.62-34.94-5.24,5.27-16.03,15.56-28.6,24.39-15.27,10.73-28.67,16.15-39.64,16.15Zm-55.5-52.06l1.43,3.6c6.66,16.76,16.93,27.34,24.37,33.26,8.07,6.43,14.66,8.92,14.72,8.95l.19.1c29.21,21.32,84.69-38.35,85.25-38.96l3.67-3.99-2.38,4.87c-10.1,20.62-13.91,34.58-10.19,37.36,4.64,3.47,21.58-8.99,27.15-13.08,6.15-4.52,11.82-9.61,16.87-15.12,10.56-11.53,16.06-21.86,27.5-44.13,4.32-8.41,6.7-13.04,7.34-15.84,2.11-9.3.03-15.81-3.41-26.61-1.49-4.68-3.19-9.99-4.93-16.68-2.94-11.29-3.55-17.1-4-21.35-.47-4.51-.78-7.48-3.55-13.84-3.09-7.08-14.38-30.14-28.98-29.73-3.09.09-6.18,1.21-9.21,3.33l-.7.49-.43-.73c-7.94-13.39-31.18-16.86-49.27-17.42-19.76-.61-37.85,2.04-38.03,2.07l-.72.11-.16-.71c-1.16-4.93-3.27-8.35-6.27-10.16-4.93-2.97-15.11-3.13-35.63,13.07-8.21,6.48-10.99,10.77-21.31,26.72-3.43,5.3-7.7,11.89-13.26,20.24-2.24,3.37-4.3,6.43-6.18,9.23-13.17,19.59-17.6,26.19-17.08,36.73.15,3.1.61,4.33,1.84,7.62,1.15,3.08,2.88,7.72,5.57,17.01,3.26,11.22,4.6,17.81,5.58,22.62,1.09,5.37,1.81,8.92,4.31,14.87,6.48,15.43,18.56,32.03,24.39,30.35,2.28-.66,5.08-4.74,5.43-20.4l.09-3.88Z"/><path class="cls-10" d="m1391.56,476.52c-1.68-73.36,37.15-117.2,37.55-117.63l1.17,1.06c-.39.43-38.8,43.83-37.14,116.54l-1.58.04Z"/><path class="cls-10" d="m1518.86,480.52l-1.34-.84c18.74-29.85,20.88-57,19.38-74.52-1.63-19-7.78-31.1-7.84-31.22l1.4-.72c.25.49,24.76,49.39-11.6,107.3Z"/><path class="cls-10" d="m1430.63,469.69c.11,9.89,5.05,18.76,12.66,22.17,10.84,4.86,26.76-1.54,32.59-16.84-2.27.16-7.18.19-12.55-2.42-4.6-2.24-7.4-5.39-8.76-7.15-2.13,1.01-4.64,2-7.51,2.79-6.53,1.79-12.31,1.82-16.43,1.47Z"/><path class="cls-8" d="m1457.72,492.09s7.14-24.65-7.85-14.38c0,0-7.36-9.85-14.02,7.5,0,0,3.9,11.83,21.87,6.88"/><path class="cls-10" d="m1449.67,494.07c-11.56,0-14.53-8.52-14.56-8.62l-.09-.27.1-.26c2.56-6.65,5.58-10.27,8.98-10.74,2.81-.39,4.99,1.49,5.92,2.48,3.62-2.35,6.26-2.86,8.06-1.56,4.33,3.13.81,15.76.4,17.2l-.12.42-.42.12c-3.15.87-5.89,1.22-8.26,1.22Zm-12.97-8.86c.68,1.66,5,10.29,20.39,6.24,1.4-5.04,2.58-13.24.07-15.06-1.26-.91-3.62-.23-6.84,1.97l-.62.43-.46-.6s-2.16-2.82-4.94-2.43c-2.7.38-5.33,3.65-7.6,9.46Z"/><path class="cls-7" d="m1449.88,477.71s-4.44,7.91-4.44,14.99"/><path class="cls-10" d="m1446.22,492.7h-1.58c0-7.2,4.36-15.05,4.54-15.38l1.37.77c-.04.08-4.34,7.82-4.34,14.61Z"/><circle class="cls-3" cx="1441.54" cy="406.84" r="18.74"/><path class="cls-10" d="m1441.54,426.55c-10.87,0-19.7-8.84-19.7-19.7s8.84-19.7,19.7-19.7,19.7,8.84,19.7,19.7-8.84,19.7-19.7,19.7Zm0-37.48c-9.8,0-17.77,7.97-17.77,17.77s7.97,17.77,17.77,17.77,17.77-7.97,17.77-17.77-7.97-17.77-17.77-17.77Z"/><circle class="cls-3" cx="1497.49" cy="418.01" r="18.74"/><path class="cls-10" d="m1497.49,437.71c-10.87,0-19.7-8.84-19.7-19.7s8.84-19.7,19.7-19.7,19.7,8.84,19.7,19.7-8.84,19.7-19.7,19.7Zm0-37.48c-9.8,0-17.77,7.97-17.77,17.77s7.97,17.77,17.77,17.77,17.77-7.97,17.77-17.77-7.97-17.77-17.77-17.77Z"/><ellipse class="cls-10" cx="1448.75" cy="378.35" rx="3.46" ry="9.88" transform="translate(950.06 1790.21) rotate(-85.18)"/><path class="cls-10" d="m1450.79,382.69c-.78,0-1.58-.03-2.39-.1-5.28-.44-10.51-2.35-10.27-5.13.08-.9.78-2.14,3.68-2.89,2-.52,4.59-.68,7.31-.44,2.72.23,5.25.82,7.13,1.66,2.73,1.22,3.22,2.56,3.14,3.47-.08.9-.78,2.14-3.68,2.89-1.4.36-3.09.55-4.91.55Zm-4.08-7.09c-1.68,0-3.24.17-4.51.5-1.68.43-2.46,1.06-2.5,1.5-.09,1.08,3.31,2.96,8.84,3.42,2.54.21,4.95.07,6.78-.4,1.68-.43,2.46-1.06,2.5-1.5.03-.4-.53-1.14-2.21-1.89-1.72-.77-4.08-1.32-6.62-1.53-.77-.06-1.53-.1-2.27-.1Z"/><ellipse class="cls-10" cx="1503.1" cy="389.09" rx="3.46" ry="9.88" transform="translate(593.88 1647.67) rotate(-68.67)"/><path class="cls-10" d="m1509.12,394.71c-2.19,0-4.96-.65-7.57-1.66-4.94-1.93-9.41-5.24-8.39-7.84h0c1.02-2.6,6.54-2,11.48-.07,2.54.99,4.8,2.28,6.36,3.62,2.27,1.95,2.36,3.37,2.03,4.21-.48,1.22-1.96,1.74-3.91,1.74Zm-14.49-8.93h0c-.4,1.01,2.33,3.78,7.5,5.8,5.17,2.02,9.04,1.83,9.44.82.16-.41-.27-1.32-1.58-2.45-1.44-1.23-3.54-2.42-5.91-3.35-5.17-2.02-9.04-1.84-9.44-.82Z"/><circle class="cls-10" cx="1441.54" cy="406.84" r="12.09"/><path class="cls-10" d="m1441.54,419.89c-7.2,0-13.05-5.85-13.05-13.05s5.86-13.05,13.05-13.05,13.05,5.86,13.05,13.05-5.85,13.05-13.05,13.05Zm0-24.17c-6.13,0-11.12,4.99-11.12,11.12s4.99,11.12,11.12,11.12,11.12-4.99,11.12-11.12-4.99-11.12-11.12-11.12Z"/><circle class="cls-10" cx="1497.49" cy="418.01" r="12.09"/><path class="cls-10" d="m1497.49,431.06c-7.2,0-13.05-5.86-13.05-13.05s5.86-13.05,13.05-13.05,13.05,5.85,13.05,13.05-5.85,13.05-13.05,13.05Zm0-24.17c-6.13,0-11.12,4.99-11.12,11.12s4.99,11.12,11.12,11.12,11.12-4.99,11.12-11.12-4.99-11.12-11.12-11.12Z"/><circle class="cls-3" cx="1448.84" cy="399.55" r="4.14"/><path class="cls-10" d="m1448.84,404.65c-2.82,0-5.11-2.29-5.11-5.11s2.29-5.11,5.11-5.11,5.11,2.29,5.11,5.11-2.29,5.11-5.11,5.11Zm0-8.29c-1.75,0-3.18,1.43-3.18,3.18s1.43,3.18,3.18,3.18,3.18-1.43,3.18-3.18-1.43-3.18-3.18-3.18Z"/><circle class="cls-3" cx="1506.3" cy="410.99" r="4.14"/><path class="cls-10" d="m1506.3,416.1c-2.82,0-5.11-2.29-5.11-5.11s2.29-5.11,5.11-5.11,5.11,2.29,5.11,5.11-2.29,5.11-5.11,5.11Zm0-8.29c-1.75,0-3.18,1.43-3.18,3.18s1.43,3.18,3.18,3.18,3.18-1.43,3.18-3.18-1.43-3.18-3.18-3.18Z"/><path class="cls-10" d="m1447.26,444.83c1.76-4.58,8.65-5.28,9.82-5.4,7.31-.75,16.2,3.48,16.51,8.43.35,5.56-10.08,13.08-18.17,10.21-5.37-1.9-9.99-8.47-8.16-13.23Z"/><path class="cls-10" d="m1459.24,459.49c-1.36,0-2.74-.21-4.09-.69-3.36-1.19-6.55-4.15-8.11-7.54-1.11-2.41-1.29-4.73-.52-6.72h0c1.75-4.54,7.9-5.64,10.47-5.9,5.01-.52,10.96,1.22,14.48,4.21,1.79,1.51,2.79,3.23,2.9,4.96.16,2.59-1.66,5.59-4.87,8.01-2.61,1.97-6.36,3.67-10.26,3.67Zm-11.25-14.38c-.77,2-.16,4.09.48,5.49,1.39,3.02,4.22,5.66,7.2,6.72,4.63,1.64,9.83-.46,12.87-2.76,2.75-2.07,4.38-4.63,4.25-6.66-.08-1.29-.89-2.62-2.34-3.85-3.23-2.73-8.69-4.31-13.3-3.84-2.28.23-7.73,1.18-9.16,4.9h0Z"/><path class="cls-10" d="m1435.35,470.93c-3.26,0-6.5-.54-9.34-1.98-4.46-2.26-7.29-6.44-8.4-12.41-.08-.43.2-.84.63-.92.42-.08.84.2.92.63,1.02,5.47,3.57,9.27,7.57,11.3,9.49,4.82,24.5-1.47,27.11-2.64l.79-6.94c.05-.43.45-.74.87-.69.43.05.74.44.69.87l-.84,7.38c-.03.27-.2.5-.44.62-.54.26-10.13,4.78-19.56,4.78Z"/><path class="cls-10" d="m1474.17,475.75c-6.92,0-14.22-2.38-20.21-9.81-.27-.34-.22-.83.12-1.11.34-.27.84-.22,1.11.12,6.56,8.15,15.51,10.96,26.6,8.36,8.37-1.96,14.88-6.43,14.95-6.48.36-.24.85-.16,1.1.2.25.36.16.85-.2,1.1-.17.12-11.19,7.62-23.46,7.62Z"/><path class="cls-10" d="m1449.86,494.24c-3.32,0-6.45-.73-9.11-2.19-6.73-3.68-11.01-12.46-10.91-22.37,0-.44.31-.72.8-.78.44,0,.78.36.78.8-.1,9.34,3.87,17.57,10.09,20.97,4.33,2.37,10.08,2.64,15.77.75,7.69-2.56,14.21-8.66,17.88-16.73.18-.4.65-.57,1.04-.39.4.18.57.65.39,1.04-3.85,8.47-10.71,14.87-18.82,17.57-2.66.89-5.34,1.33-7.91,1.33Z"/></svg>