<?xml version="1.0" encoding="UTF-8"?><svg id="Layer_4" xmlns="http://www.w3.org/2000/svg" width="209" height="420" viewBox="0 0 209 420"><defs><style>.cls-1{fill:#fff;}.cls-2{fill:#b40a00;}.cls-3{fill:silver;}</style></defs><path class="cls-3" d="m117.86,204.6l-1.65-10.33c-.22-1.36-1.4-2.36-2.79-2.36h-4c4.53-1.92,7.72-6.41,7.72-11.64,0-6.96-5.67-12.63-12.64-12.63s-12.63,5.67-12.63,12.63c0,5.23,3.19,9.72,7.72,11.64h-3.61c-1.35,0-2.51.94-2.77,2.26l-2.05,10.33c-.34,1.73,1,3.34,2.77,3.34h21.14c1.74,0,3.06-1.54,2.79-3.24Zm-23.99-24.33c0-6.17,5.52-10.12,9.64-10.58.43-.05.77-.05.99-.05,4.26.1,10.64,3.91,10.64,10.63,0,5.87-4.77,10.64-10.64,10.64s-10.63-4.77-10.63-10.64Z"/><circle class="cls-2" cx="104.5" cy="307.2" r="100.77"/><path d="m104.66,172.48s-.06,0-.09,0c-2.1-.06-3.94-2.2-5.63-6.54v-.02C69.29,83.53,66.75,22.08,92.27,5.55c6.42-4.16,16.34-6.65,24.02-2.84,14,6.94,16.8,32.72,16.69,53.11-.13,23.08-4.04,52.18-10.47,77.86-2.93,11.69-10.51,38.81-17.85,38.81Zm-3.86-7.25c1.83,4.69,3.29,5.24,3.83,5.25.01,0,.03,0,.04,0,3.17,0,9.49-11.64,15.91-37.29,11.66-46.59,17.77-117.32-5.17-128.69-6.97-3.46-16.09-1.12-22.04,2.73-12.24,7.93-17.9,27.19-16.35,55.72,1.5,27.81,9.73,63.18,23.79,102.28Z"/><path class="cls-3" d="m105.53,167.71c-.36-.03-.73-.06-1.1-.06-2.17,0-4.2.55-5.98,1.52.67.4,1.21.95,1.61,1.59,1.14-.57,2.3-.94,3.38-1.06.43-.05.77-.05.99-.05.43.01.88.06,1.34.15-.21-.67-.29-1.38-.24-2.09Z"/><path class="cls-1" d="m25.11,280.84c-2.1,2.99-8.87,15.72-4.5,37.68.49,2.48,5.01,24.09,16.68,30.26,1.33.7,5.17,2.74,7.12,1.24,1.44-1.11,1.26-3.7.93-5.88-1.38-9.05-5.9-14.28-8.98-20.75-.21-.45-3.89-8.34-4.34-17.96-.7-15.13,6.97-25.98,3.1-28.8-1.15-.84-2.91-.67-3.41-.62-3.44.33-5.66,3.5-6.6,4.83Z"/></svg>