<?xml version="1.0" encoding="UTF-8"?><svg id="grafik" xmlns="http://www.w3.org/2000/svg" width="1039" height="479" viewBox="0 0 1039 479"><defs><style>.cls-1{fill:#f8e0c8;}.cls-2{fill:#f1cc8f;}.cls-3,.cls-4{fill:#fff;}.cls-5{fill:#fbe7a1;}.cls-6{fill:#860a00;}.cls-7{fill:#ae544f;}.cls-8{fill:#c7c8ca;}.cls-9{fill:#221f20;}.cls-10{fill:#42502f;}.cls-11{fill:#428c2f;}.cls-12{fill:#42822f;}.cls-13{fill:#42782f;}.cls-14{fill:#426e2f;}.cls-15{fill:#42642f;}.cls-16{fill:#425a2f;}.cls-17{fill:#4b3024;}.cls-18{fill:#720a00;}.cls-19{fill:#765341;}.cls-20{fill:#7d0a00;}.cls-4{stroke:#221f20;stroke-miterlimit:10;}</style></defs><path class="cls-17" d="m337.03,350.67c-1.22,3,.78,6.46,1.45,7.62,7.91,13.66,34.57,12.63,44.63,12.34,49.35-1.42,98.65,4.77,148.02,4.82,80.3.08,109.18,6.44,125.91-15.06,10.4-13.37,9.6-29.15,9.37-33.73-2.09-41.15-52.66-76.63-77.99-66.46-9.04,3.63-16.54,13.94-17.63,24.07-1.39,12.87,4.99,28.8,13.22,29.84.91.12,2.7.34,4.03-.73,5.67-4.57-8.87-22.94-2.34-35.04,3.36-6.24,10.88-8.19,12.58-8.58,20.33-4.71,50.15,18.72,51.93,44.69,1.01,14.77-7.33,26.1-7.92,26.88-10.09,13.3-30.24,22.18-129.14,14.49-43.53-3.38-87.45-2.57-130.71-8.5-10.77-1.47-41.63-5.95-45.42,3.35Z"/><path class="cls-9" d="m601.4,376.93c-7.76,0-16.46-.17-26.27-.37-12.75-.26-27.21-.55-44.01-.56-22.06-.02-44.47-1.29-66.14-2.52-26.83-1.52-54.58-3.09-81.87-2.3l-.55.02c-10.96.32-36.64,1.07-44.57-12.63-.7-1.2-2.81-4.85-1.49-8.11h0c3.42-8.41,25.96-6.45,45.22-3.8l.78.11c26.63,3.64,53.97,4.75,80.41,5.83,16.49.67,33.54,1.36,50.27,2.66,93.06,7.23,117.64.25,128.66-14.27.36-.48,8.82-11.81,7.81-26.51-.88-12.77-9.1-26.39-21.46-35.54-10.01-7.42-21.15-10.65-29.8-8.65-2.07.48-9.08,2.5-12.21,8.3-3.46,6.42-.72,14.93,1.48,21.78,1.92,5.97,3.58,11.13.72,13.44-1.52,1.22-3.5.97-4.45.85-8.87-1.12-15.05-17.96-13.7-30.45,1.11-10.32,8.84-20.86,17.98-24.53,10.44-4.19,25.7-.92,40.82,8.75,16.67,10.67,36.61,32.31,37.93,58.19.69,13.65-2.5,25.12-9.48,34.1-10.62,13.65-26.41,16.21-56.08,16.21Zm-203.16-7.07c22.39,0,44.9,1.27,66.81,2.51,21.65,1.22,44.05,2.49,66.08,2.51,16.81.02,31.27.31,44.03.56,48.37.97,68.39,1.37,81.45-15.41,6.82-8.76,9.93-19.99,9.25-33.36-1.29-25.47-20.96-46.79-37.42-57.32-14.82-9.48-29.7-12.71-39.81-8.65-8.78,3.53-16.21,13.68-17.29,23.62-1.43,13.24,5.12,28.27,12.74,29.23.86.11,2.46.31,3.61-.61,2.27-1.83.72-6.65-1.07-12.24-2.27-7.04-5.09-15.81-1.4-22.64,3.35-6.22,10.75-8.35,12.94-8.86,8.95-2.07,20.43,1.23,30.7,8.84,12.61,9.34,21,23.27,21.9,36.36,1.04,15.11-7.66,26.76-8.03,27.25-9.35,12.34-26.31,22.75-129.62,14.71-16.7-1.3-33.74-1.99-50.22-2.66-26.47-1.08-53.84-2.19-80.52-5.84l-.78-.11c-11.08-1.52-40.51-5.56-44.05,3.12h0c-1.12,2.75.79,6.05,1.42,7.13,7.61,13.13,33.74,12.37,43.58,12.08l.55-.02c5.04-.15,10.1-.21,15.16-.21Z"/><polyline class="cls-17" points="579.75 376.38 582.59 388.63 601.68 392.86 595.52 373.74 579.75 376.38"/><path class="cls-9" d="m602.5,393.61l-20.37-4.51-3.06-13.16,16.82-2.82,6.61,20.5Zm-19.45-5.44l17.8,3.94-5.72-17.75-14.72,2.47,2.63,11.34Z"/><polyline class="cls-17" points="507.53 373.95 510.38 386.2 529.47 390.43 523.3 371.31 507.53 373.95"/><path class="cls-9" d="m530.29,391.18l-20.37-4.51-3.06-13.17,16.82-2.82,6.61,20.49Zm-19.45-5.44l17.8,3.94-5.72-17.74-14.72,2.47,2.63,11.34Z"/><polyline class="cls-17" points="466.45 371.79 469.29 384.04 488.38 388.27 482.22 369.15 466.45 371.79"/><path class="cls-9" d="m489.21,389.02l-20.37-4.51-3.06-13.16,16.82-2.82,6.61,20.49Zm-19.45-5.44l17.8,3.94-5.72-17.74-14.72,2.47,2.63,11.34Z"/><polyline class="cls-17" points="397.64 369.47 400.49 381.72 419.58 385.94 413.41 366.82 397.64 369.47"/><path class="cls-9" d="m420.4,386.69l-20.37-4.51-3.06-13.16,16.82-2.82,6.61,20.49Zm-19.45-5.44l17.8,3.94-5.72-17.74-14.72,2.47,2.63,11.34Z"/><polyline class="cls-17" points="365.47 366.82 368.31 379.07 387.4 383.3 381.24 364.18 365.47 366.82"/><path class="cls-9" d="m388.22,384.05l-20.37-4.51-3.06-13.17,16.82-2.82,6.61,20.49Zm-19.45-5.44l17.8,3.94-5.72-17.74-14.72,2.47,2.63,11.34Z"/><path class="cls-17" d="m443.47,371.75s-11.19,35.77-10.78,55.7c.41,19.92,7.32,3.66,7.32,3.66l17.48-59.35h-14.01Z"/><path class="cls-9" d="m435.21,437.91c-.1,0-.19,0-.29-.03-1.11-.22-2.61-1.53-2.8-10.43-.4-19.78,10.7-55.51,10.81-55.87l.12-.39h15.16l-17.69,60.07c-.5,1.19-2.95,6.65-5.32,6.65Zm8.66-65.61c-1.2,3.94-11.02,36.64-10.64,55.13.17,8.38,1.5,9.28,1.9,9.36,1.18.23,3.29-3.39,4.36-5.91l17.25-58.58h-12.87Z"/><path class="cls-17" d="m568.65,369.15s-11.19,35.77-10.78,55.7,7.32,3.66,7.32,3.66l17.48-59.35h-14.01Z"/><path class="cls-9" d="m560.4,435.31c-.1,0-.19,0-.29-.03-1.11-.21-2.62-1.53-2.8-10.43-.4-19.78,10.7-55.51,10.81-55.87l.12-.39h15.16l-17.69,60.06c-.5,1.19-2.95,6.65-5.32,6.65Zm8.66-65.61c-1.2,3.94-11.02,36.64-10.64,55.13.17,8.38,1.5,9.28,1.9,9.36,1.15.22,3.28-3.39,4.36-5.91l17.25-58.58h-12.87Z"/><polyline class="cls-17" points="546.89 373.95 549.73 386.2 568.82 390.43 562.66 371.31 546.89 373.95"/><path class="cls-9" d="m569.65,391.18l-20.37-4.51-3.06-13.17,16.82-2.82,6.61,20.49Zm-19.45-5.44l17.8,3.94-5.72-17.74-14.72,2.47,2.63,11.34Z"/><polyline class="cls-17" points="426.85 370.71 429.69 382.96 448.78 387.18 442.62 368.06 426.85 370.71"/><path class="cls-9" d="m449.61,387.93l-20.37-4.51-3.06-13.17,16.82-2.82,6.61,20.49Zm-19.45-5.44l17.8,3.94-5.72-17.74-14.72,2.47,2.63,11.34Z"/><path class="cls-17" d="m409.37,452.76c-8.75-1.05-18.27-1.56-19.24,1.34-.8,2.4,4.6,6.2,6.51,7.53,25.57,17.97,118.26,13.44,165.05,12.52,22.79-.45,31.07.03,45.9-3.27,34.65-7.72,71.9-28.71,70.27-44.02-.09-.85-.57-4.25-3.09-5.89-5.59-3.64-16.35,4.55-27.45,11.89,0,0-15.01,9.92-37.67,21.23-7.16,3.57-14.12,5.63-74.32,4.84-26.15-.34-45.85-.63-75.33-2.36-20.65-1.21-37.99-2.65-50.64-3.83Z"/><path class="cls-9" d="m496.07,475.9c-41.19,0-83.55-2.43-99.75-13.81-3.56-2.5-7.54-5.69-6.72-8.16.56-1.69,3.23-3.71,19.82-1.71,16.68,1.55,33.71,2.83,50.62,3.82,30.03,1.76,50.01,2.02,75.3,2.35,59.9.79,66.89-1.2,74.06-4.79,22.37-11.16,37.46-21.1,37.61-21.2,1.27-.84,2.54-1.69,3.8-2.54,9.78-6.57,19.02-12.79,24.27-9.36,2.66,1.73,3.23,5.25,3.34,6.29,1.69,15.88-36.62,37.03-70.7,44.62-12.48,2.78-20.33,2.89-35.97,3.12-3.03.04-6.35.09-10.05.16-4.94.1-10.39.23-16.21.38-14.9.37-32.06.81-49.42.81Zm-98.07-23.41c-5.65,0-7.08,1.01-7.34,1.79-.31.92.54,2.86,6.3,6.91,22.72,15.97,98.42,14.06,148.5,12.8,5.83-.15,11.28-.28,16.22-.38,3.71-.07,7.03-.12,10.05-.16,15.56-.23,23.37-.34,35.74-3.09,16.85-3.75,35.01-10.89,48.58-19.1,14.24-8.61,21.99-17.48,21.27-24.33-.1-.91-.59-4.01-2.84-5.48-4.64-3.03-13.58,2.99-23.04,9.35-1.26.85-2.53,1.7-3.8,2.54-.15.1-15.3,10.07-37.73,21.27-7.33,3.66-14.4,5.69-74.57,4.9-25.31-.33-45.29-.59-75.35-2.36-16.92-.99-33.96-2.28-50.66-3.83h-.02c-4.95-.6-8.61-.83-11.31-.83Z"/><path class="cls-17" d="m402.87,425.13c-8.75-1.05-18.27-1.56-19.24,1.34-.8,2.4,4.6,6.2,6.51,7.53,25.57,17.97,118.26,13.44,165.05,12.52,22.79-.45,31.07.03,45.9-3.27,34.65-7.72,71.9-28.71,70.27-44.02-.09-.85-.57-4.25-3.09-5.89-5.59-3.64-16.35,4.55-27.45,11.89,0,0-15.01,9.92-37.67,21.23-7.16,3.57-14.12,5.63-74.32,4.84-26.15-.34-45.85-.63-75.33-2.36-20.65-1.21-37.99-2.65-50.64-3.83Z"/><path class="cls-9" d="m489.57,448.27c-41.19,0-83.55-2.43-99.75-13.81-3.56-2.5-7.54-5.69-6.71-8.16.56-1.69,3.23-3.71,19.82-1.71,16.72,1.55,33.75,2.84,50.61,3.82,30.03,1.76,50.01,2.02,75.3,2.35,59.9.78,66.88-1.2,74.06-4.79,22.37-11.16,37.46-21.1,37.61-21.2,1.27-.84,2.54-1.69,3.79-2.54,9.78-6.57,19.02-12.78,24.27-9.36,2.66,1.73,3.23,5.25,3.34,6.29,1.69,15.88-36.62,37.03-70.7,44.62-12.48,2.78-20.33,2.89-35.97,3.12-3.03.04-6.35.09-10.05.16-4.94.1-10.39.23-16.21.38-14.9.37-32.06.81-49.42.81Zm-98.07-23.41c-5.65,0-7.08,1.01-7.34,1.79-.31.92.54,2.86,6.3,6.9,22.73,15.97,98.42,14.06,148.51,12.8,5.83-.15,11.28-.28,16.22-.38,3.7-.07,7.03-.12,10.05-.16,15.56-.23,23.37-.34,35.74-3.09,16.85-3.75,35.01-10.89,48.58-19.1,14.24-8.61,21.99-17.48,21.26-24.33-.1-.91-.59-4.01-2.84-5.48-4.65-3.03-13.58,2.99-23.05,9.35-1.26.85-2.53,1.7-3.8,2.54-.15.1-15.3,10.07-37.73,21.27-7.33,3.66-14.41,5.69-74.57,4.9-25.31-.33-45.3-.59-75.35-2.36-16.88-.99-33.92-2.28-50.66-3.83h-.02c-4.95-.6-8.61-.83-11.31-.83Z"/><path class="cls-17" d="m455.06,397.18s-11.19,35.77-10.78,55.7c.41,19.92,7.32,3.66,7.32,3.66l17.48-59.35h-14.01Z"/><path class="cls-9" d="m446.8,463.34c-.1,0-.19,0-.29-.03-1.11-.22-2.62-1.53-2.8-10.43-.4-19.78,10.7-55.51,10.81-55.87l.12-.39h15.16l-17.69,60.07c-.5,1.19-2.95,6.65-5.32,6.65Zm8.66-65.61c-1.2,3.94-11.02,36.64-10.64,55.13.17,8.38,1.5,9.28,1.9,9.36,1.16.23,3.29-3.39,4.36-5.91l17.25-58.58h-12.87Z"/><path class="cls-17" d="m576.96,398.11s-4.07,37.26.18,56.73c4.25,19.47,7.89,2.18,7.89,2.18l5.69-61.61-13.75,2.71Z"/><path class="cls-9" d="m581.35,464.65c-1.13,0-2.86-1.01-4.75-9.69-4.22-19.33-.23-56.53-.19-56.91l.04-.4,14.88-2.93-5.75,62.35c-.27,1.32-1.72,7.57-4.22,7.58h0Zm-3.88-66.07c-.42,4.1-3.73,38.08.21,56.15,1.78,8.18,3.26,8.82,3.67,8.82h0c1.18,0,2.57-3.96,3.13-6.64l5.61-60.81-12.62,2.48Z"/><path class="cls-17" d="m362.93,378.84c-1.22,3,.78,6.46,1.45,7.62,7.91,13.66,34.57,12.63,44.63,12.34,49.35-1.42,98.65,4.77,148.02,4.82,80.3.08,109.18,6.44,125.91-15.06,10.4-13.37,9.6-29.15,9.37-33.73-2.09-41.15-52.66-76.63-77.99-66.46-9.04,3.63-16.54,13.94-17.63,24.07-1.39,12.87,4.99,28.8,13.22,29.84.91.12,2.7.34,4.03-.73,5.67-4.57-8.87-22.94-2.34-35.04,3.36-6.24,10.88-8.19,12.58-8.58,20.33-4.71,50.15,18.72,51.93,44.69,1.01,14.77-7.33,26.1-7.92,26.88-10.09,13.3-30.24,22.18-129.14,14.49-43.53-3.38-87.45-2.57-130.71-8.5-10.77-1.47-41.63-5.95-45.42,3.35Z"/><path class="cls-9" d="m627.3,405.1c-7.75,0-16.46-.17-26.27-.37-12.75-.26-27.21-.55-44.01-.56-22.06-.02-44.47-1.29-66.14-2.52-26.83-1.52-54.58-3.09-81.87-2.3l-.55.02c-10.97.32-36.64,1.07-44.58-12.63-.69-1.2-2.81-4.85-1.48-8.11,3.42-8.41,25.96-6.45,45.22-3.8l.78.11c26.63,3.64,53.97,4.75,80.41,5.83,16.49.67,33.55,1.36,50.27,2.66,93.07,7.23,117.65.25,128.66-14.27.36-.48,8.82-11.81,7.81-26.51-.88-12.77-9.1-26.39-21.46-35.54-10.01-7.42-21.16-10.65-29.79-8.65-2.07.48-9.09,2.5-12.22,8.3-3.46,6.42-.72,14.93,1.48,21.78,1.92,5.97,3.58,11.13.72,13.44-1.52,1.22-3.49.97-4.44.85-8.87-1.12-15.06-17.96-13.7-30.45,1.11-10.32,8.84-20.86,17.98-24.53,10.44-4.19,25.7-.92,40.82,8.75,16.67,10.67,36.61,32.31,37.93,58.2.7,13.65-2.5,25.12-9.48,34.1-10.62,13.65-26.41,16.21-56.08,16.21Zm-203.16-7.07c22.39,0,44.9,1.27,66.81,2.51,21.65,1.22,44.05,2.49,66.08,2.51,16.81.02,31.27.31,44.03.56,48.37.97,68.39,1.37,81.45-15.41,6.82-8.77,9.93-19.99,9.25-33.37-1.29-25.47-20.96-46.79-37.42-57.32-14.82-9.48-29.7-12.71-39.81-8.65-8.78,3.53-16.21,13.68-17.29,23.62-1.43,13.24,5.12,28.27,12.74,29.23.86.11,2.46.31,3.61-.61,2.27-1.83.72-6.65-1.07-12.24-2.27-7.04-5.09-15.81-1.4-22.64,3.35-6.22,10.75-8.35,12.94-8.86,8.95-2.07,20.43,1.23,30.7,8.84,12.61,9.34,21,23.27,21.9,36.36,1.04,15.11-7.66,26.76-8.03,27.25-9.35,12.34-26.31,22.74-129.63,14.71-16.7-1.3-33.74-1.99-50.22-2.66-26.47-1.08-53.84-2.19-80.52-5.84l-.78-.11c-11.08-1.52-40.51-5.57-44.05,3.12h0c-1.12,2.75.79,6.05,1.42,7.13,7.6,13.13,33.74,12.37,43.58,12.08l.55-.02c5.04-.15,10.1-.21,15.16-.21Z"/><rect class="cls-17" x="196.35" y="252.43" width="57.86" height="43.1" rx="3.42" ry="3.42" transform="translate(530.72 93.63) rotate(98.87)"/><path class="cls-10" d="m347.78,175.34c-5.87-10.81-14.85-25.81-27.7-42.32-14.02-18-37.86-48.62-51.27-43.46-5.09,1.96-7.2,8.44-10.17,24.9-6.47,35.8-7.15,64.07-7.28,69.29-1.85,73.59-7.38,95.35-9.44,102.8-.76,2.74-2.59,9.05-6.87,24.46-2.84,10.22-6.55,23.83-11.86,43.98-.3,1.14-.72,2.74-1.22,4.76-.98,3.98-3.9,16.13-5.74,29.8-2.11,15.69-.31,14.73-2.23,32.28-2.05,18.7-4.4,22.44-1.57,25.32,7.67,7.82,35.99-8.55,41.51-11.74,9.39-5.43,29.2-17.45,44.41-38.46,22.96-31.73,14.19-61.48,19.58-112.65,2.73-25.94,9.77-63.69,29.87-108.96Z"/><path class="cls-16" d="m381.37,170.56c-5.06-14-11.29-24.77-16.61-32.55-6.21-9.06-16.84-24.59-24.38-22.46-3.1.88-4.23,4.32-7.17,12.91-13.33,39.04-16.49,45.91-17.3,61.8-.25,4.87-.18,8.78-.12,10.93,3.2,23.04-.67,39.28-5.02,50.07-5.51,13.67-12.98,21.52-20.92,42.64-3.9,10.36-5.82,18.39-7.43,25.13-2.75,11.48-4.06,20.47-4.62,28.37-2.87,40.36,4.91,47.41-2.08,72.76-3.81,13.83-8.79,20.08-5.47,24.01,5.19,6.14,24.09-1.22,39.59-8.61,10.29-5.13,25.21-14.01,39-28.95,68.37-74.04,41.87-223.83,41.87-223.83-3.11-4.07-6.22-8.14-9.33-12.21Z"/><path class="cls-15" d="m436.13,211.03c-3.04-8.86-8.06-21.6-16.2-35.94-8.35-14.71-18.57-32.72-26.71-31.1-5.27,1.05-5.49,9.49-12.64,28.72-9.48,25.51-14.46,25.07-19.93,42.97-5.47,17.93-4.88,32.8-4.25,48.64,1.37,34.46,9.77,33,6.38,50.42-4.29,21.99-18.25,27.23-23.03,56.65-1.06,6.53-1.63,14.02-1.83,16.93-.02.27-.04.59-.06.94-1.14,17.9,3.32,23.36-.37,32.54-1.38,3.45-3.04,5.25-2.1,6.84,1.46,2.47,7.47,1.47,11.05.79,7.04-1.34,19.69-4.29,39.58-11.47,2.73-2.32,6.74-5.85,11.33-10.42,0,0,12.88-8.24,18.27-20.98,4-9.48,23.95-167.65,23.95-167.65-1.14-2.63-2.29-5.25-3.43-7.88Z"/><path class="cls-14" d="m477.7,243.08c0-7.65-2.22-12.28-4.23-15.1-3.74-5.24-7.98-5.84-12.11-13.06-.89-1.55-2.25-4.25-3.51-7.17-1.95-4.52-1.82-5.29-2.83-7.31-2.39-4.76-7.9-10.06-12.04-9.24-3.74.74-5.44,6.31-7.09,11.65-11.48,37.09-11.56,32.9-12.28,38.97-2.24,19.07,3.21,20.79,2.29,36.94-.32,5.67-1.26,10.15-2.63,14.03-7.04,20.01-15.67,29.32-22.5,46.57-8.35,21.07-.03,22.96-9.76,55.27-4.3,14.27-7.83,20.23-5,23.32,3.22,3.52,14.34,2.94,52.83-20.46,5.12-3.22,10.26-7.23,15.05-12.25,26.75-27.99,24.33-67.75,23.22-79.23.2-20.98.39-41.96.59-62.94Z"/><path class="cls-13" d="m480.73,387.27c-28.91,10.69-36.67,9.7-38.43,6.84-2.3-3.75,6.27-9.74,16.03-30.9,6.56-14.23,8.41-23.95,9.13-30.56.61-5.6,1.01-9.6.23-15.08-1.8-12.57-8.36-18.44-6.11-35.2,2.34-17.45,10.11-16.07,15.36-41.82,2.32-11.35,2.67-20.76,6.95-21.72,3.59-.81,7.78,4.83,11.88,10.34,7.81,10.5,5.75,14.41,12.98,23.04,2.97,3.54,4.25,5.6,6.81,9.71.63,1.01,1.47,3.33,2.83,6.23.43.92.65,1.92.65,2.93l-.02,47.69c0,.72-.11,1.44-.33,2.12l-16.15,50.12c-.22.67-.53,1.31-.94,1.88,0,0-.36.51-.82.96-8.67,8.44-20.05,13.41-20.05,13.41Z"/><path class="cls-12" d="m507.54,373.95c-12.48,7.55-15.69,15.81-19.15,14.32-2.79-1.2-3.61-7.82-1.91-12.76,2.46-7.15,8.76-6.69,12.59-15.44,1.54-3.51.93-4.28,3.07-9.22,2.47-5.7,4.67-7.69,6.25-15.65,3.09-15.55-3.6-18.92.99-31.49,3.33-9.12,7.54-9.25,8.94-17.93,1.18-7.34-1.5-9.38-1.4-20.17.03-3.64.16-17.63,4.23-18.64,3.7-.91,7.4,9.68,20.12,26.66,10.94,14.61,12.2,12.11,15.34,18.64,1.7,3.53,7.31,32.76-19.23,64.38-3.68,4.38-8.07,6.12-10.65,7.6-10.92,6.25-13,5.96-19.19,9.7Z"/><path class="cls-11" d="m591,336.88c15.59-5.78,18.64-9.63,18.41-12.12-.34-3.68-7.73-4.15-19.53-11.55-6.11-3.83-11.96-7.51-17.04-14.1-7.06-9.18-9.3-19.68-17.26-23.64-.78-.39-1.85-.83-2.85-.45-4.34,1.65-2.36,16.46-2.03,18.96.64,4.77,1.7,8.64,2.55,11.27.18,12.35-2.78,20.28-5.68,25.34-1.07,1.86-1.87,3.33-2.65,4.89-.04.08-.09.19-.17.33-1.25,2.54-1.87,3.81-3.49,8.02-2.42,6.31-13.4,15.64-11.78,18.44,1.51,2.62,13.9-.68,24.1-6.09,7.12-3.77,8.75-6.22,15.83-10.43,4.75-2.82,11.84-6.35,21.58-8.87Z"/><path class="cls-1" d="m966.92,130.15c.06,9.36,2.76,13.46,5.44,15.44,2.69,1.98,4.94,1.52,8.33,4.77.96.92,3.78,3.69,4.75,8.18.39,1.78.76,3.43.24,4.76-3.88,9.75-38.75,3.39-38.75,3.39l-3.7-35.05,17.77-12.84,5.92,11.36Z"/><path class="cls-9" d="m968.33,169.33c-10.08,0-20.72-1.9-21.51-2.05l-.45-.08-3.79-35.86,18.63-13.45,6.32,12.11v.15c.05,7.41,1.79,12.44,5.19,14.95,1.04.76,2.02,1.15,3.06,1.55,1.52.59,3.25,1.27,5.33,3.26,2.58,2.48,4.24,5.33,4.92,8.49l.03.13c.39,1.81.76,3.52.18,4.98-1.81,4.54-9.67,5.81-17.91,5.81Zm-20.85-3.16c4.05.69,34.2,5.51,37.63-3.09.45-1.12.11-2.65-.24-4.27l-.03-.13c-.63-2.92-2.17-5.57-4.57-7.87-1.91-1.83-3.45-2.43-4.93-3.01-1.07-.42-2.17-.85-3.34-1.71-3.7-2.73-5.61-8.04-5.68-15.77l-5.53-10.6-16.92,12.22,3.62,34.25Z"/><path class="cls-1" d="m995.15,110.21c-2.91,4.22-3.12,6.97-2.67,8.75.18.7.86,2.89-.02,3.59-.48.38-1.17.14-1.39.56-.27.52.69,1.12.58,1.96-.1.75-.95.88-1.74,1.63-1.03.97-.82,1.91-1.6,4.76-.62,2.28-.93,3.42-1.57,4.07-1.52,1.56-4.39,1.18-6.48.74-12.09-2.54-21-10.67-21-10.67-4.52-4.12-8.58-7.83-10.53-12.98-8.41-22.28,27.48-59.03,27.48-59.03l22.69-3.07s17.23,16.2,3.24,37.18c0,0-2.73,4.95,3.24,17.06,0,0,4.09,10.06-10.23,5.46Z"/><path class="cls-9" d="m983.37,137.25c-1.12,0-2.27-.19-3.23-.39-12.11-2.55-21.19-10.73-21.28-10.82-4.47-4.07-8.69-7.92-10.69-13.22-3.56-9.43.02-22.36,10.65-38.42,7.86-11.88,16.87-21.15,16.96-21.25l.15-.15.21-.03,22.97-3.11.21.2c.18.17,17.44,16.8,3.33,37.96,0,0-2.43,4.86,3.28,16.45.08.2,1.57,3.93-.46,6.12-1.64,1.77-5.03,1.88-10.07.32-2.07,3.13-2.86,5.78-2.33,7.89l.06.22c.29,1.09.83,3.11-.29,3.99-.35.28-.75.34-1.03.38-.03,0-.08.01-.11.02.04.07.09.15.13.22.22.37.52.87.44,1.51-.1.75-.66,1.1-1.15,1.42-.26.16-.52.33-.78.57-.55.52-.65,1.01-.9,2.19-.12.6-.27,1.34-.53,2.28-.65,2.38-.98,3.57-1.72,4.34-.97.99-2.37,1.3-3.8,1.3Zm-6.86-83.09c-2.46,2.57-35.1,37.28-27.2,58.24,1.9,5.02,5.82,8.6,10.37,12.75.09.08,8.94,8.05,20.71,10.52,1.91.4,4.6.78,5.92-.57.53-.54.83-1.63,1.42-3.8.25-.92.4-1.64.52-2.22.26-1.28.42-2.05,1.25-2.83.34-.32.68-.54.96-.71.45-.28.57-.38.59-.55.03-.22-.12-.46-.28-.72-.22-.37-.53-.88-.24-1.44.26-.5.76-.57,1.09-.62.19-.03.36-.05.46-.13.23-.18.39-.8-.13-2.73l-.06-.23c-.64-2.54.29-5.65,2.76-9.24l.26-.37.43.14c4.72,1.52,7.92,1.57,9.24.15,1.5-1.61.25-4.77.24-4.8-6.02-12.21-3.33-17.36-3.21-17.58,12.9-19.35-.95-34.28-2.92-36.25l-22.18,3Z"/><circle class="cls-3" cx="955.86" cy="144.17" r="2.73"/><path class="cls-9" d="m955.86,147.51c-1.84,0-3.34-1.5-3.34-3.33s1.5-3.34,3.34-3.34,3.33,1.5,3.33,3.34-1.5,3.33-3.33,3.33Zm0-5.46c-1.17,0-2.12.95-2.12,2.12s.95,2.12,2.12,2.12,2.12-.95,2.12-2.12-.95-2.12-2.12-2.12Z"/><circle class="cls-3" cx="958.59" cy="148.95" r="2.73"/><path class="cls-9" d="m958.59,152.28c-1.84,0-3.34-1.5-3.34-3.33s1.5-3.34,3.34-3.34,3.33,1.5,3.33,3.34-1.5,3.33-3.33,3.33Zm0-5.46c-1.17,0-2.12.95-2.12,2.12s.95,2.12,2.12,2.12,2.12-.95,2.12-2.12-.95-2.12-2.12-2.12Z"/><circle class="cls-3" cx="963.64" cy="151.68" r="2.73"/><path class="cls-9" d="m963.64,155.01c-1.84,0-3.34-1.5-3.34-3.33s1.5-3.34,3.34-3.34,3.33,1.5,3.33,3.34-1.5,3.33-3.33,3.33Zm0-5.46c-1.17,0-2.12.95-2.12,2.12s.95,2.12,2.12,2.12,2.12-.95,2.12-2.12-.95-2.12-2.12-2.12Z"/><circle class="cls-3" cx="968.79" cy="151.18" r="2.23"/><path class="cls-9" d="m968.79,153.91c-1.51,0-2.73-1.22-2.73-2.73s1.22-2.73,2.73-2.73,2.73,1.22,2.73,2.73-1.22,2.73-2.73,2.73Zm0-4.46c-.96,0-1.74.78-1.74,1.74s.78,1.73,1.74,1.73,1.73-.78,1.73-1.73-.78-1.74-1.73-1.74Z"/><circle class="cls-3" cx="971.17" cy="147.88" r="1.95"/><path class="cls-9" d="m971.17,150.27c-1.32,0-2.39-1.07-2.39-2.39s1.07-2.39,2.39-2.39,2.39,1.07,2.39,2.39-1.07,2.39-2.39,2.39Zm0-3.9c-.84,0-1.52.68-1.52,1.52s.68,1.52,1.52,1.52,1.52-.68,1.52-1.52-.68-1.52-1.52-1.52Z"/><path class="cls-3" d="m995.15,110.21s-1.92-.67-3.83-3.24"/><path class="cls-9" d="m995.15,110.82c-.07,0-.13-.01-.2-.03-.09-.03-2.11-.76-4.12-3.45-.2-.27-.14-.65.12-.85.27-.2.65-.15.85.12,1.76,2.37,3.53,3.03,3.55,3.03.31.11.48.46.37.77-.09.25-.32.41-.57.41Z"/><path class="cls-3" d="m993.58,81.56s1.39,6.57-3.85,12.15l-11.82-9.92s15.54-5.25,15.67-2.23Z"/><path class="cls-9" d="m989.77,94.55l-13.08-10.98,1.02-.34c2.22-.75,13.44-4.41,15.87-2.75.36.25.57.6.6,1.02.13.66,1.21,7.08-4.02,12.65l-.39.42Zm-10.64-10.52l10.53,8.84c4.5-5.18,3.33-11.13,3.32-11.19v-.1s-.02-.07-.09-.12c-1.33-.91-8.51.87-13.76,2.56Z"/><ellipse class="cls-9" cx="991.26" cy="86.83" rx="5.55" ry="2.21" transform="translate(670.61 1028.81) rotate(-76.21)"/><circle class="cls-3" cx="992.67" cy="83.7" r=".56"/><path class="cls-9" d="m990.69,123.33h-.03c-.64-.03-9.15-3.19-11.64-10.93-.1-.32.07-.66.39-.76.32-.11.66.07.76.39,2.28,7.09,9.76,9.82,10.52,10.07.18.02.3.05.42.16.18.17.25.46.15.69-.1.23-.34.38-.58.38Z"/><path class="cls-9" d="m977.68,113.12c-.07,0-.13,0-.19,0-.33-.03-.58-.32-.55-.66.03-.33.33-.57.65-.55.08,0,1.48.07,2.14-1.52.13-.31.48-.46.79-.32.31.13.45.48.32.79-.76,1.81-2.31,2.27-3.18,2.27Z"/><path class="cls-9" d="m998.13,76.8c-.2,0-.4-.05-.58-.15-.13-.07-12.94-7.03-18.41-1.84-.48.46-1.26.44-1.72-.05s-.44-1.26.05-1.72c6.76-6.41,20.67,1.15,21.26,1.48.59.32.8,1.06.48,1.65-.22.4-.64.63-1.06.63Z"/><ellipse class="cls-17" cx="926.68" cy="458.48" rx="12.15" ry="24.07" transform="translate(231.66 1223.92) rotate(-74.08)"/><ellipse class="cls-17" cx="991.47" cy="462.05" rx="12.15" ry="24.07" transform="translate(400.9 1382.78) rotate(-82.31)"/><path class="cls-20" d="m973.56,231.05c-19.67,2.23-39.35,4.45-59.02,6.68-5.65,3.96-13.49,10.16-21.32,19.09-17.74,20.21-25.11,42.63-32.77,82.46-5.31,27.59-10.71,63.38-13.37,105.88,2.6,2.05,5.82,4.39,9.96,5.81,6.93,2.39,17.76,3.74,33.38-.4,0,0,34.59-5.51,36.42,2.66,0,0,13.86,14.54,58.5,6.26,0,0,31.26,4.46,33.81-7.01,2.87-41.84,1.06-77.16-1.64-103.67-6.36-62.56-18.76-86.91-31.49-103.61-4.77-6.26-9.27-11.02-12.44-14.16Z"/><path class="cls-6" d="m982.6,189.33s9.49,8.52,11.23,52.28c1.74,43.76-28.08-39.31-28.08-39.31l16.85-12.97Z"/><path class="cls-3" d="m932.33,237.2c14.82-.82,29.64-1.64,44.45-2.46,3.65,3.4,8.82,8.64,14.07,15.74,16.81,22.72,20.77,45.88,24.83,71.42,2.34,14.68,4.49,35.01,3.7,59.53-5.26,4.1-13.3,9.26-23.98,11.88-10.07,2.47-11.02.07-30.36.89-22.09.94-26.42,4.85-38.39,1.79-2.53-.65-6.55-1.9-12.5-2.23-9.64-.53-14.05,1.94-16.07,1.34-6.11-1.83-4.52-36.16,21.62-158.63,4.21.25,8.42.49,12.62.74Z"/><path class="cls-9" d="m935.27,397.74c-2.69,0-5.45-.32-8.76-1.17l-1.04-.28c-2.47-.66-6.21-1.66-11.34-1.94-5.81-.32-9.71.47-12.3.99-1.79.36-2.98.6-3.91.32-10.79-3.23,6.93-92.48,21.2-159.34l.11-.51,13.1.76c14.64-1.02,29.28-2.03,43.92-3.05,3.8,3.69,9.15,9.34,14.6,16.94,17.15,23.9,21.46,47.8,25.43,71.35,2.46,14.58,4.72,34.95,3.7,59.61v.3l-.23.18c-7.5,5.86-15.64,9.89-24.21,11.99-5.74,1.41-8.61,1.25-13.37,1.01-3.65-.19-8.65-.46-17.1-.09-8.96.38-14.96,1.25-19.79,1.95-3.77.54-6.84.99-10.02.99Zm-23.8-4.67c.86,0,1.76.02,2.72.08,5.25.29,9.06,1.31,11.59,1.98l1.03.27c6.98,1.79,11.24,1.17,18.3.15,4.85-.7,10.9-1.57,19.91-1.96,8.52-.36,13.55-.1,17.22.1,4.81.25,7.46.39,13.02-.97,8.31-2.04,16.21-5.93,23.51-11.58,1.04-24.46-1.22-44.69-3.69-59.16-3.8-22.27-7.81-44.37-23.27-67.32-6.02-8.93-12.11-15.53-16.49-19.84-14.33,1-28.66,1.99-42.99,2.99l-12.14-.71c-27.17,127.38-26.92,155.92-21.93,157.42.64.19,1.77-.04,3.32-.35,2.22-.45,5.4-1.09,9.89-1.09Z"/><path class="cls-3" d="m967.07,234.78s8.39,7.66,7.27,15.77"/><path class="cls-9" d="m974.35,251.16s-.06,0-.08,0c-.33-.05-.56-.35-.52-.68,1.06-7.69-6.81-14.99-7.06-15.21-.13-.1-.21-.26-.22-.43-.02-.33.23-.62.57-.64.27-.02.36-.02,1.61,1.32,2.2,2.37,7.21,8.58,6.3,15.13-.04.3-.3.52-.6.52Z"/><path class="cls-3" d="m959.54,235.79s3.63,3.75,3.91,9.34"/><path class="cls-9" d="m963.45,245.73c-.32,0-.59-.25-.61-.58-.27-5.3-3.71-8.91-3.74-8.95-.23-.24-.23-.62.01-.86.24-.23.62-.23.86.01.15.16,3.79,3.98,4.08,9.73.02.34-.24.62-.57.64-.01,0-.02,0-.03,0Z"/><path class="cls-4" d="m951.9,139.35c.26,1,.65,2.56,1.01,4.48,2.46,12.83-.21,18.82,3.14,21.51,1.04.84,4.05.49,10.06-.19,4.9-.56,14.52-1.65,17.63-4.24.24-.2.98-.86,1.85-.74,1.2.16,1.91,1.72,2.16,2.27,4.94,10.84.43,23.59.43,23.59-3.19,9.03-6.73,9.79-9.23,19.64-.92,3.64-1.19,6.51-1.49,9.67-.78,8.37-.3,15.4.35,20.44-15.21,1.18-30.42,2.35-45.63,3.53-1.29-8.1-2.57-16.21-3.86-24.31l2.12-67.4,21.45-8.25Z"/><circle class="cls-1" cx="948.48" cy="293.5" r="14.61"/><path class="cls-9" d="m948.48,308.72c-8.39,0-15.21-6.83-15.21-15.22s6.82-15.22,15.21-15.22,15.22,6.83,15.22,15.22-6.83,15.22-15.22,15.22Zm0-29.22c-7.72,0-14,6.28-14,14s6.28,14,14,14,14-6.28,14-14-6.28-14-14-14Z"/><ellipse class="cls-18" cx="942.02" cy="282.31" rx="15.97" ry="7.6" transform="translate(-14.95 508.83) rotate(-30)"/><path class="cls-6" d="m905.13,218.48s9.41,72.78,30.16,66.42l11.62-4.43c1.91-1.5,4.12-3.79,4.81-6.98,2.09-9.63-12.6-14.18-17.27-30.66-2.73-9.65-.98-19.71-4.43-20.48-1.35-.3-1.9,1.18-4.43,1.38-3.74.3-5.72-2.69-9.69-4.43-2.23-.98-5.69-1.82-10.79-.83Z"/><path class="cls-5" d="m930.95,53.22s50.79-14.16,61.17-8.04c10.38,6.12,3.11,9.44,3.11,9.44,0,0-25.78,10.6-27.99,35.11,0,0-.32,5.06-7.12,9.01,0,0,7.43,39.54-18.82,61.52.7,3.76,1.2,8.32,1.04,13.49-.32,10.35-3.14,18.61-5.51,23.96-.09,2.86-.39,5.95-1.04,9.23-2.82,14.38-10.61,24.55-15.93,30.25,0,0-34.7-14.37-14.1-76.18,0,0-6.82-82.23,25.19-107.8Z"/><path class="cls-2" d="m920.01,237.92l-.39-.16c-.36-.15-8.94-3.81-15.08-15.18-10.16-18.86-5.3-43.9.6-61.63-.28-3.68-5.89-83.19,25.43-108.2l.22-.11c2.08-.58,51.16-14.16,61.64-7.97,4.01,2.37,5.99,4.67,5.88,6.85-.13,2.4-2.72,3.61-2.83,3.67-.28.11-25.48,10.76-27.64,34.61-.01.2-.4,5.23-7.05,9.27.69,4.33,5.63,40.67-18.83,61.45.79,4.38,1.12,8.85.98,13.27-.26,8.26-2.11,16.36-5.52,24.07-.1,3.1-.46,6.2-1.05,9.21-2.16,11.04-7.72,21.61-16.08,30.55l-.29.31Zm11.22-184.15c-31.28,25.17-24.93,106.38-24.87,107.2v.12s-.03.12-.03.12c-5.83,17.48-10.69,42.19-.76,60.71,5.21,9.71,12.42,13.7,14.14,14.54,8.03-8.71,13.38-18.95,15.48-29.63.58-2.99.93-6.06,1.03-9.13l.05-.23c3.37-7.6,5.21-15.59,5.46-23.73.14-4.46-.21-8.95-1.03-13.36l-.07-.35.27-.23c25.67-21.5,18.69-60.55,18.61-60.94l-.08-.42.37-.22c6.4-3.72,6.81-8.48,6.82-8.53,2.22-24.61,28.11-35.52,28.37-35.63h0s2.02-.95,2.1-2.62c.06-1.16-.81-3.1-5.28-5.74-9.8-5.78-57.83,7.31-60.58,8.06Z"/><path class="cls-2" d="m906.47,163.11c-.12.01-.25,0-.38-.02-.65-.15-1.07-.79-.92-1.45.72-3.23,5.98-8.11,6.58-8.66.49-.45,1.26-.42,1.72.08.45.49.42,1.26-.08,1.72-2.04,1.86-5.43,5.52-5.85,7.4-.12.53-.56.9-1.07.94Z"/><path class="cls-2" d="m926.46,171c-.62-.05-1.03-.34-1.27-.58-3.02-3.03,3.74-21.03,6.78-28.63.25-.62.93-.92,1.52-.66.59.26.87.96.63,1.58-4.38,10.94-8.31,23.73-7.36,25.85.06-.02.15-.05.27-.11,6.47-3.13,16.67-12.93,16.77-13.03.47-.46,1.21-.43,1.65.06.44.49.41,1.26-.07,1.72-.43.41-10.57,10.16-17.38,13.45-.61.3-1.12.38-1.54.35Zm.37-2.32h.01s-.01,0-.01,0Z"/><path class="cls-2" d="m930.24,117.47c-1.19,0-1.94-.39-2.47-.91-4.88-4.76,11.34-27.48,16.43-34.33.4-.54,1.16-.65,1.7-.25.54.4.65,1.16.25,1.7-9.86,13.28-18.92,28.96-16.68,31.14.53.52,4.53,2.09,30.55-18.33.53-.41,1.29-.32,1.7.21.41.53.32,1.29-.21,1.7-19.48,15.28-27.55,19.06-31.27,19.06Z"/><path class="cls-6" d="m1005.66,48.73c-.24-2.83-2.58-25.45-22.3-38.12-16.63-10.68-38.89-9.98-56.27,1.89-4.48,3.37-11.09,9.05-17.12,17.56-12.16,17.16-14.08,34.75-15.87,51.18-1.11,10.13-1.82,25.01.7,43.05l4.03,3.42s9.91-65.51,28.49-74.18l78.35-4.8Z"/><path class="cls-3" d="m957.56,48.35s50.99-18.36,52.69,8.16c0,0,3.29,10.2-23.79,4.53-2.95,1.98-9.17,5.59-17.87,6.43-7.27.7-13.09-.84-16.32-1.96-.84.45-13.15,6.85-22.45.63-.74-.5-6.61-4.48-6.38-10.01.28-6.72,8.97-11.07,14.77-10.3,2.39.32,2.95,1.33,6.03,2.36,5.19,1.74,10.07,1.02,13.34.17Z"/><path class="cls-8" d="m939.24,69.43c-3.25,0-6.68-.71-9.78-2.79-1.62-1.08-6.88-5.05-6.65-10.54.11-2.67,1.45-5.16,3.88-7.21,3.2-2.69,7.86-4.17,11.58-3.68,1.45.19,2.29.63,3.26,1.13.74.38,1.57.81,2.88,1.25,3.95,1.32,8.31,1.38,12.96.17.53-.19,8.64-3.04,18.24-4.8,13.36-2.45,23.12-1.74,28.99,2.11,3.8,2.49,5.9,6.31,6.24,11.33.11.43.52,2.4-1.07,4.17-2.98,3.31-10.78,3.68-23.2,1.11-3.8,2.52-9.94,5.61-17.94,6.38-5.46.53-11.1-.13-16.33-1.91-1.24.63-6.81,3.26-13.06,3.26Zm-2.42-23.09c-3.13,0-6.8,1.34-9.35,3.48-1.51,1.27-3.33,3.39-3.45,6.33-.21,4.99,5.05,8.78,6.11,9.48,9.08,6.06,21.31-.38,21.83-.66l.23-.13.25.09c5.14,1.78,10.69,2.44,16.07,1.93,7.9-.76,13.93-3.86,17.59-6.33l.21-.14.25.05c15.05,3.15,20.42,1.38,22.28-.66,1.3-1.43.83-3.02.81-3.09l-.03-.14c-.3-4.65-2.21-8.17-5.7-10.46-13.42-8.81-45.85,2.71-46.18,2.83l-.05.02c-4.9,1.27-9.5,1.21-13.68-.18-1.4-.47-2.28-.92-3.05-1.32-.94-.49-1.63-.84-2.86-1.01-.41-.06-.85-.08-1.29-.08Z"/><path class="cls-3" d="m898.2,122.04s-7.79-4.91-13.35,5.67c0,0-8.35,7.94,0,12.95,0,0,10.31,7.36,18.32-1.21,0,0,8.63-7,3.64-14.51,0,0-1.42-4.52-8.61-2.9Z"/><path class="cls-8" d="m894.07,144.2c-5.22,0-9.52-3-9.58-3.04-2.35-1.41-3.69-3.23-3.93-5.38-.45-4.06,3.2-7.85,3.79-8.43,1.97-3.71,4.43-5.98,7.33-6.76,3.18-.85,5.84.39,6.62.81,6.86-1.44,8.78,2.58,9.05,3.27,5.15,7.85-3.71,15.19-3.8,15.26-3.04,3.25-6.42,4.28-9.47,4.28Zm-.19-22.69c-.6,0-1.24.07-1.91.25-2.57.7-4.79,2.79-6.6,6.23l-.12.16s-3.9,3.78-3.49,7.5c.2,1.75,1.33,3.26,3.38,4.5.45.31,10.02,6.97,17.57-1.11.39-.33,8.2-6.81,3.58-13.76l-.07-.15c-.05-.16-1.38-3.96-7.9-2.49l-.24.05-.21-.13s-1.71-1.04-3.99-1.04Z"/><path class="cls-17" d="m698.34,400.59c-36.98,0-72.08-7.78-104.62-23.22l2.85-6.01c38.63,18.33,80.98,25.56,125.89,21.47,36.04-3.28,73.81-13.8,112.27-31.27,65.67-29.84,111.1-70.14,111.55-70.54l4.43,4.95c-.46.41-46.52,41.29-113.07,71.56-39.16,17.81-77.67,28.55-114.48,31.9-8.36.76-16.63,1.14-24.82,1.14Z"/><path class="cls-19" d="m48.9,424.94c-.71,2.5-6.29,22.61.54,26.56.76.44,1.74.53,3.67.7,2.1.18,16.26,1.43,18.32-3.9.82-2.13-.21-5.51-1.87-6.33-.35-.17-.85-.29-1.02-.33-1.1-.26-1.69-.11-3.41-.25-.63-.05-.94-.07-1.02-.11-.88-.4-1.08-1.75-1.04-7.04.03-3.95.16-5.28,1.2-6.35.55-.57,1.13-.82,1.44-.96,1.69-.77,4.19-2.4,7.69-6.2-2.41-1.72-4.83-3.44-7.24-5.16l-16.34,4.9c-.3,1.48-.6,2.97-.91,4.45Z"/><path class="cls-9" d="m58.66,452.76c-2.16,0-4.15-.13-5.58-.25-1.92-.17-2.98-.26-3.8-.74-6.82-3.95-1.77-23.07-.68-26.9l.94-4.62,16.66-5,7.64,5.44-.23.25c-2.86,3.1-5.48,5.21-7.78,6.27-.35.16-.86.39-1.35.89-.94.97-1.09,2.19-1.11,6.15-.04,4.98.15,6.43.86,6.76.06.02.44.04.91.08.68.05,1.17.06,1.6.07.65.01,1.16.02,1.86.19.17.04.7.17,1.08.35,1.81.89,2.89,4.46,2.02,6.71-1.38,3.56-7.72,4.35-13.05,4.35Zm-8.59-32.03l-.88,4.3c-.65,2.28-6.17,22.41.4,26.22.71.41,1.71.5,3.54.66,3.76.33,16.18,1.04,18.01-3.71.76-1.97-.18-5.19-1.72-5.94-.32-.16-.8-.27-.96-.31-.63-.15-1.09-.16-1.73-.17-.42,0-.94-.02-1.63-.07-.82-.06-1-.08-1.12-.13-1.04-.47-1.26-1.77-1.22-7.31.03-3.91.14-5.38,1.28-6.56.57-.59,1.16-.86,1.48-1,2.22-1.01,4.69-2.99,7.4-5.9l-6.84-4.87-16.03,4.81Z"/><path class="cls-19" d="m113.9,413.13l10.94-4.12c.3,1.66.74,4.42,1.01,7.87.84,10.89-1.02,16.63,2.17,18.89,1.9,1.35,3.24-.23,6.49,1.62.68.39,3.92,2.23,4.53,5.72.12.67.41,2.37-.43,3.84-.63,1.11-2.38,2.92-18.96,2.56-4.27-.09-4.73-.23-5.3-.6-3.69-2.44-2.38-9.14-2.45-22.49-.03-5.34-.27-9.64-.44-12.24.82-.35,1.63-.7,2.45-1.06Z"/><path class="cls-9" d="m123.6,449.87c-1.22,0-2.54-.01-3.97-.05-4.41-.1-4.84-.24-5.46-.65-2.95-1.95-2.86-6.35-2.68-14.33.05-2.46.11-5.25.1-8.41-.02-4.11-.17-8.22-.44-12.22v-.21s2.65-1.15,2.65-1.15l11.28-4.25.06.36c.47,2.59.81,5.24,1.01,7.9.3,3.89.26,7.16.22,9.78-.06,4.69-.1,7.52,1.82,8.89.8.57,1.48.57,2.34.57,1.03,0,2.31,0,4.13,1.04,2.61,1.49,4.27,3.59,4.68,5.94.12.68.43,2.48-.46,4.05-.53.92-1.58,2.76-15.26,2.76Zm-11.84-35.49c.26,3.95.41,8,.43,12.05.02,3.18-.04,5.97-.1,8.43-.17,7.76-.26,12.04,2.41,13.81.47.31.86.45,5.14.55,15.16.33,17.96-1.11,18.7-2.41.79-1.38.5-3.02.39-3.64-.38-2.16-1.93-4.12-4.38-5.51-1.68-.96-2.82-.96-3.83-.96-.89,0-1.73,0-2.69-.68-2.18-1.55-2.14-4.5-2.07-9.39.03-2.61.08-5.86-.22-9.73-.19-2.51-.51-5.02-.94-7.48l-10.59,3.99-2.25.97Z"/><path class="cls-19" d="m22.69,395.36c-3.96-6.96-6.58-12.95-8.27-17.3-1.17-3-2.06-5.29-2.88-8.55-1.13-4.52-2.44-9.93-1.4-16.64,1.09-7.04,4.03-10.83,5.83-12.67,1.12-1.15,2.11-2.15,2.96-1.88,2.24.69-1.32,8.64,1.1,18.39,2.41,9.72,10.57,20.41,11.25,23.34.05.24.25,1.25,1.01,2.27.54.74.99.96,1.15,1.19.54.82-1.35,3.65-10.74,11.85Z"/><path class="cls-9" d="m22.61,395.83l-.18-.32c-3.22-5.65-6.01-11.49-8.29-17.34-1.1-2.81-2.05-5.23-2.89-8.59-1.04-4.16-2.47-9.85-1.4-16.76.83-5.34,2.82-9.66,5.91-12.84,1.15-1.18,2.23-2.29,3.27-1.96,1.25.39,1.07,2.2.78,5.22-.33,3.42-.79,8.11.52,13.39,1.53,6.19,5.39,12.73,8.2,17.5,1.62,2.75,2.79,4.74,3.05,5.84.08.34.28,1.25.96,2.16.32.43.61.68.81.86.15.13.26.22.34.35.55.83-.18,2.98-10.8,12.25l-.28.24Zm-3.96-57.26c-.67,0-1.58.93-2.46,1.84-3.01,3.09-4.94,7.3-5.75,12.51-1.05,6.79.31,12.18,1.39,16.52.83,3.32,1.73,5.61,2.87,8.52,2.23,5.71,4.95,11.41,8.07,16.93,10.47-9.17,10.62-10.9,10.41-11.21-.03-.05-.13-.13-.23-.22-.22-.19-.55-.47-.91-.96-.75-1.02-.97-2.01-1.05-2.34-.24-1.05-1.46-3.11-2.99-5.71-2.83-4.81-6.71-11.39-8.27-17.66-1.34-5.38-.88-10.13-.54-13.59.24-2.52.42-4.34-.36-4.58-.06-.02-.13-.03-.19-.03Z"/><path class="cls-19" d="m103.2,424.56c6.1-.47,19.36-7.78,24.62-16.89,5.73-9.89,1.97-21.83.58-25.68l-40.39-15.48c-26.84-2.99-50.28,2.72-59.74,15.86-3.75,5.21-5.29,10.29-5.29,10.29s-4.17,13.72,1.77,31.52c.11.34.58,1.65.77,3.48.16,1.49.07,2.62.05,2.96-.21,2.95.32,4.71.56,10.28.3,7.16-.37,9.36,1.52,11.27.6.61,1.28,1.01,2.32,1.42,5.4,2.17,16.57,3.18,19.19-2.23,1.31-2.7.45-6.94-1.83-8.53-2.19-1.53-4.89-.07-6.37-1.88-.49-.6-.44-1.07-.5-4.17-.13-6.07-.39-7.94.96-9.03.52-.41,1.04-.54,1.28-.6,4.42-1.07,8.78-3.88,13.71-5.41,9.73-3.03,24.42-1.92,26.22,3.21.08.23.07.28.14,2.48.1,3.23.28,6.47.39,9.7.34,10,.58,11.47,1.89,12.68,1.29,1.19,2.93,1.5,3.98,1.59,5.4-.05,10.8-.1,16.2-.16,2.82-.18,5.27-1.62,6.11-3.79,1.2-3.09-1.22-6.79-3.81-8.11-3.08-1.56-5.98.44-7.68-1.47-.49-.56-.6-1.66-.8-3.85-.4-4.5-.57-6.78.75-8.18,1.12-1.19,2.8-1.26,3.41-1.3Z"/><path class="cls-9" d="m39.64,455.63c-3.59,0-7.33-.77-9.79-1.76-1.11-.45-1.81-.88-2.42-1.49-1.47-1.49-1.48-3.12-1.5-6.7,0-1.27-.02-2.85-.1-4.77-.1-2.41-.26-4.12-.39-5.49-.17-1.82-.29-3.13-.17-4.82.03-.39.11-1.49-.04-2.91-.18-1.7-.6-2.95-.74-3.36l-.02-.06c-5.9-17.69-1.82-31.56-1.77-31.7.02-.05,1.6-5.19,5.33-10.38,9.32-12.95,32.31-19.07,60.02-15.98l.07.02,40.52,15.53.05.13c2.07,5.72,4.75,16.69-.6,25.93-5.31,9.18-18.54,16.55-24.86,17.04h-.09c-.64.05-2.13.16-3.12,1.21-1.2,1.27-1.07,3.36-.66,7.95.18,1.99.28,3.18.72,3.68.78.88,1.86.83,3.23.76,1.31-.07,2.81-.14,4.36.64,2.86,1.45,5.19,5.3,3.96,8.49-.86,2.23-3.37,3.79-6.37,3.98l-16.22.16c-1.75-.15-3.15-.72-4.19-1.67-1.4-1.3-1.64-2.86-1.98-12.9-.05-1.5-.12-3.01-.18-4.51-.08-1.73-.15-3.46-.21-5.19l-.03-.86c-.04-1.32-.04-1.38-.09-1.52-1.74-4.95-16.5-5.93-25.85-3.02-2.27.71-4.43,1.69-6.53,2.65-2.47,1.13-4.8,2.19-7.2,2.77-.24.06-.71.17-1.17.54-1.05.85-1.02,2.28-.9,6.54.02.68.04,1.43.05,2.25l.02.93c.04,2.31.06,2.62.42,3.06.69.85,1.7.89,2.87.94,1.09.05,2.33.1,3.44.88,2.36,1.64,3.32,6.05,1.93,8.91-1.48,3.05-5.53,4.13-9.79,4.13Zm34.6-89.6c-21.19,0-38.11,5.95-45.72,16.52-3.67,5.1-5.23,10.15-5.25,10.2-.04.14-4.07,13.84,1.77,31.34l.02.06c.14.42.58,1.72.77,3.49.16,1.47.08,2.61.05,2.98-.12,1.68,0,2.97.17,4.76.13,1.38.29,3.1.39,5.52.08,1.92.09,3.51.1,4.79.02,3.51.03,4.97,1.33,6.28.55.56,1.17.94,2.21,1.36,5.2,2.09,16.24,3.22,18.81-2.08,1.27-2.62.41-6.65-1.73-8.15-.97-.67-2.06-.72-3.12-.77-1.2-.05-2.45-.11-3.31-1.17-.5-.62-.51-1.1-.55-3.43l-.02-.93c-.02-.82-.04-1.57-.05-2.25-.11-4.36-.16-5.99,1.13-7.03.56-.45,1.12-.59,1.39-.65,2.35-.57,4.66-1.62,7.1-2.73,2.11-.96,4.29-1.96,6.6-2.67,9.79-3.05,24.73-1.92,26.6,3.4.08.24.09.3.13,1.71l.03.86c.05,1.73.13,3.46.21,5.18.07,1.51.13,3.01.18,4.52.33,9.81.55,11.33,1.79,12.47.93.86,2.21,1.37,3.8,1.51l16.17-.16c2.76-.17,5.05-1.59,5.83-3.6,1.18-3.04-1.34-6.55-3.67-7.73-1.41-.72-2.82-.65-4.06-.58-1.4.07-2.73.14-3.71-.96-.57-.64-.68-1.84-.87-4.03-.39-4.44-.61-6.89.83-8.41,1.15-1.22,2.81-1.34,3.51-1.39h.09c6.05-.47,19.25-7.87,24.39-16.74,5.18-8.96,2.63-19.64.6-25.29l-40.22-15.42c-4.72-.52-9.3-.78-13.7-.78Z"/><path class="cls-9" d="m137.92,447.6c-.15,0-.29-.12-.3-.28-.38-4.37-3.27-5.43-3.39-5.48-.16-.06-.24-.23-.19-.39.06-.16.23-.24.38-.19.14.05,3.38,1.22,3.79,6,.01.17-.11.31-.28.33,0,0-.02,0-.03,0Z"/><path class="cls-9" d="m48.67,452.32c-.12,0-.23-.07-.28-.19-1.8-4.42-4.72-4.8-4.84-4.82-.17-.02-.29-.17-.27-.33s.17-.29.33-.27c.14.01,3.39.42,5.34,5.19.06.15-.01.33-.17.4-.04.02-.08.02-.11.02Z"/><path class="cls-9" d="m107.36,450.73c-.12,0-.23-.07-.28-.18-1.95-4.36-4.88-4.65-5-4.66-.17-.01-.29-.16-.28-.33s.16-.29.32-.28c.14.01,3.4.31,5.51,5.01.07.15,0,.33-.15.4-.04.02-.08.03-.12.03Z"/><path class="cls-9" d="m111.15,448.31c-.12,0-.23-.07-.28-.19-1.81-4.42-4.72-4.8-4.85-4.82-.17-.02-.29-.17-.27-.33.02-.17.17-.29.33-.27.14.01,3.39.42,5.34,5.19.06.15-.01.33-.17.4-.04.02-.08.02-.11.02Z"/><path class="cls-9" d="m45.04,454.69c-.11,0-.22-.06-.27-.17-2.03-4.32-4.96-4.56-5.08-4.56-.17-.01-.29-.15-.28-.32,0-.17.14-.31.32-.28.14,0,3.41.24,5.6,4.91.07.15,0,.33-.14.4-.04.02-.09.03-.13.03Z"/><path class="cls-9" d="m41.22,427.83c-.13,0-.25-.09-.29-.22-.04-.16.05-.33.21-.37,6.92-1.9,12.65-5.28,17.02-10.05,2.41-2.63,4.69-5.12,4.98-8.76.51-6.3-5.12-13.17-12.05-14.71-4.59-1.02-8.6.55-10.58,1.58-.15.08-.33.02-.41-.13-.08-.15-.02-.33.13-.41,2.05-1.07,6.21-2.7,10.99-1.63,7.2,1.6,13.05,8.78,12.52,15.35-.31,3.84-2.65,6.41-5.14,9.12-4.45,4.86-10.27,8.3-17.3,10.23-.03,0-.05.01-.08.01Z"/><path class="cls-9" d="m70.07,450.2c-.15,0-.28-.11-.3-.26-.68-4.33-3.64-5.19-3.77-5.23-.16-.04-.26-.21-.21-.37s.21-.26.37-.21c.14.04,3.46.98,4.21,5.72.03.17-.09.32-.25.35-.02,0-.03,0-.05,0Z"/><path class="cls-9" d="m66.63,451.74c-.15,0-.28-.11-.3-.26-.68-4.33-3.64-5.19-3.77-5.23-.16-.04-.26-.21-.21-.37s.21-.25.37-.21c.14.04,3.46.98,4.21,5.72.03.17-.09.32-.25.35-.02,0-.03,0-.05,0Z"/><path class="cls-9" d="m135.2,448.54c-.15,0-.28-.11-.3-.26-.68-4.33-3.64-5.19-3.77-5.23-.16-.04-.26-.21-.21-.37.04-.16.21-.26.37-.21.14.04,3.46.98,4.21,5.72.03.17-.09.32-.25.35-.02,0-.03,0-.05,0Z"/><path class="cls-9" d="m8.42,347.19s-.05,0-.08,0c-.16-.04-.26-.21-.22-.37,2.18-8.5,8.16-10.59,8.41-10.67.16-.05.33.03.38.19.05.16-.03.33-.19.38-.06.02-5.93,2.08-8.02,10.25-.03.14-.16.23-.29.23Z"/><path class="cls-9" d="m5.27,343.56s-.09-.01-.13-.03c-.15-.07-.21-.25-.14-.41,2.46-5.04,5.79-7.68,8.16-9.01,2.57-1.45,4.54-1.69,4.62-1.7.16-.03.32.1.34.26.02.17-.1.32-.26.34-.08,0-7.75,1.03-12.31,10.37-.05.11-.16.17-.27.17Z"/><path class="cls-9" d="m2.53,341.21s-.08,0-.12-.03c-.15-.07-.22-.25-.15-.4,5.22-11.73,14.62-13.31,14.71-13.33.16-.02.32.09.35.25.03.17-.09.32-.25.35-.02,0-2.31.38-5.2,2.16-2.66,1.64-6.39,4.85-9.05,10.82-.05.11-.16.18-.28.18Z"/><path class="cls-19" d="m94.24,371.61c-.14,6.08-1.23,7.82-2.31,8.13-2.6.75-7.32-6.07-9.74-11.85-1.86-4.42-1.19-5.4-3.82-14.45-2.18-7.51-2.75-7.19-2.86-9.54-.23-4.74,1.99-7.33,9-17.86,8.53-12.81,9.09-14.76,13.36-18.13,2.04-1.61,9.71-7.66,14.05-5.05,1.47.89,2.19,2.56,2.55,4.1,0,0,27.83-4.15,33.88,6.05.9-.63,2.17-1.29,3.71-1.34,6.29-.18,10.79,10.13,11.43,11.61,2.1,4.81.59,4.64,2.92,13.58,2.25,8.65,4.39,11.59,3.21,16.79-.25,1.09-1.12,2.79-2.85,6.16-4.24,8.26-6.45,12.48-10.62,17.04-1.02,1.12-3.24,3.44-6.53,5.85-2.53,1.86-8.84,6.5-10.8,5.03-2.36-1.77,2.38-11.79,3.83-14.74,0,0-21.61,23.48-33.19,15.02,0,0-10.2-3.79-15.21-16.4Z"/><path class="cls-9" d="m115.31,390.13c-2.29,0-4.31-.61-6.01-1.85-.69-.28-9.82-4.08-14.81-15.29-.23,4.32-1.04,6.62-2.48,7.04-2.93.84-7.76-6.43-10.1-12.02-.98-2.34-1.27-3.73-1.69-5.83-.37-1.84-.89-4.36-2.13-8.65-1.03-3.55-1.69-5.32-2.13-6.5-.48-1.29-.68-1.83-.74-3.11-.21-4.25,1.52-6.83,6.67-14.49.72-1.07,1.51-2.25,2.37-3.55,2.14-3.21,3.78-5.74,5.09-7.78,3.91-6.04,5.09-7.87,8.33-10.42,6.55-5.17,11.4-6.88,14.39-5.07,1.24.75,2.12,2.1,2.62,4.02,3.04-.43,27.61-3.54,33.74,5.96,1.18-.77,2.39-1.18,3.61-1.21.06,0,.12,0,.17,0,5.77,0,9.99,8.23,11.54,11.8,1.1,2.53,1.23,3.71,1.41,5.5.17,1.61.4,3.82,1.52,8.12.67,2.56,1.31,4.59,1.89,6.38,1.36,4.25,2.17,6.81,1.33,10.55-.25,1.1-1.06,2.71-2.87,6.23-4.12,8.01-6.38,12.42-10.67,17.1-1.97,2.15-4.18,4.13-6.57,5.89-4.46,3.28-9.28,6.44-11.16,5.03-2.01-1.51.3-7.81,2.93-13.44-2.02,2.03-6.17,5.98-11,9.38-5.87,4.12-11.02,6.21-15.24,6.21Zm-21.34-20.02l.55,1.39c2.56,6.44,6.51,10.51,9.37,12.79,3.1,2.47,5.64,3.43,5.66,3.44l.07.04c11.23,8.2,32.57-14.75,32.78-14.98l1.41-1.53-.92,1.87c-3.88,7.93-5.35,13.3-3.92,14.37,1.78,1.33,8.3-3.46,10.44-5.03,2.36-1.74,4.55-3.69,6.49-5.81,4.06-4.44,6.18-8.41,10.58-16.97,1.66-3.23,2.58-5.02,2.82-6.09.81-3.58.01-6.08-1.31-10.23-.57-1.8-1.23-3.84-1.9-6.41-1.13-4.34-1.37-6.58-1.54-8.21-.18-1.73-.3-2.88-1.37-5.32-1.19-2.72-5.53-11.59-11.14-11.43-1.19.03-2.38.46-3.54,1.28l-.27.19-.17-.28c-3.05-5.15-11.99-6.49-18.95-6.7-7.6-.23-14.55.79-14.62.8l-.28.04-.06-.27c-.45-1.9-1.26-3.21-2.41-3.91-1.89-1.14-5.81-1.2-13.7,5.02-3.16,2.49-4.23,4.14-8.2,10.28-1.32,2.04-2.96,4.57-5.1,7.78-.86,1.3-1.65,2.47-2.38,3.55-5.06,7.53-6.77,10.07-6.57,14.13.06,1.19.24,1.66.71,2.93.44,1.18,1.11,2.97,2.14,6.54,1.25,4.32,1.77,6.85,2.15,8.7.42,2.06.7,3.43,1.66,5.72,2.49,5.93,7.14,12.32,9.38,11.67.88-.25,1.95-1.82,2.09-7.84l.03-1.49Z"/><path class="cls-9" d="m93.94,371.61c-.65-28.21,14.29-45.07,14.44-45.24l.45.41c-.15.17-14.92,16.86-14.28,44.82h-.61Z"/><path class="cls-9" d="m142.89,373.15l-.51-.32c7.21-11.48,8.03-21.92,7.45-28.66-.63-7.31-2.99-11.96-3.02-12.01l.54-.28c.1.19,9.52,18.99-4.46,41.26Z"/><path class="cls-9" d="m108.96,368.99c.04,3.8,1.94,7.21,4.87,8.52,4.17,1.87,10.29-.59,12.53-6.48-.87.06-2.76.07-4.82-.93-1.77-.86-2.85-2.07-3.37-2.75-.82.39-1.78.77-2.89,1.07-2.51.69-4.73.7-6.32.56Z"/><path class="cls-7" d="m119.38,377.6s2.75-9.48-3.02-5.53c0,0-2.83-3.79-5.39,2.88,0,0,1.5,4.55,8.41,2.65"/><path class="cls-9" d="m116.28,378.36c-4.45,0-5.59-3.28-5.6-3.32l-.03-.1.04-.1c.98-2.56,2.14-3.95,3.45-4.13,1.08-.15,1.92.57,2.28.95,1.39-.91,2.41-1.1,3.1-.6,1.66,1.2.31,6.06.15,6.61l-.05.16-.16.04c-1.21.33-2.26.47-3.18.47Zm-4.99-3.41c.26.64,1.92,3.96,7.84,2.4.54-1.94.99-5.09.03-5.79-.48-.35-1.39-.09-2.63.76l-.24.16-.18-.23s-.83-1.08-1.9-.94c-1.04.15-2.05,1.4-2.92,3.64Z"/><path class="cls-6" d="m116.36,372.07s-1.71,3.04-1.71,5.76"/><path class="cls-9" d="m114.96,377.84h-.61c0-2.77,1.68-5.79,1.75-5.91l.53.3s-1.67,3.01-1.67,5.62Z"/><circle class="cls-3" cx="113.16" cy="344.82" r="7.21"/><path class="cls-9" d="m113.16,352.39c-4.18,0-7.58-3.4-7.58-7.58s3.4-7.58,7.58-7.58,7.58,3.4,7.58,7.58-3.4,7.58-7.58,7.58Zm0-14.41c-3.77,0-6.84,3.07-6.84,6.84s3.07,6.84,6.84,6.84,6.84-3.07,6.84-6.84-3.07-6.84-6.84-6.84Z"/><circle class="cls-3" cx="134.67" cy="349.11" r="7.21"/><path class="cls-9" d="m134.67,356.69c-4.18,0-7.58-3.4-7.58-7.58s3.4-7.58,7.58-7.58,7.58,3.4,7.58,7.58-3.4,7.58-7.58,7.58Zm0-14.41c-3.77,0-6.84,3.07-6.84,6.84s3.07,6.84,6.84,6.84,6.84-3.07,6.84-6.84-3.07-6.84-6.84-6.84Z"/><ellipse class="cls-9" cx="115.93" cy="333.86" rx="1.33" ry="3.8" transform="translate(-226.49 421.34) rotate(-85.18)"/><path class="cls-9" d="m116.71,335.53c-.3,0-.61-.01-.92-.04-2.03-.17-4.04-.9-3.95-1.97.03-.35.3-.82,1.41-1.11.77-.2,1.77-.26,2.81-.17,1.04.09,2.02.31,2.74.64,1.05.47,1.24.98,1.21,1.33-.03.35-.3.82-1.41,1.11-.54.14-1.19.21-1.89.21Zm-1.57-2.73c-.65,0-1.25.07-1.74.19-.64.17-.95.41-.96.58-.03.42,1.27,1.14,3.4,1.32.98.08,1.9.03,2.61-.15.64-.17.95-.41.96-.58.01-.15-.2-.44-.85-.73-.66-.3-1.57-.51-2.55-.59-.3-.02-.59-.04-.87-.04Z"/><ellipse class="cls-9" cx="136.83" cy="337.99" rx="1.33" ry="3.8" transform="translate(-227.78 342.49) rotate(-68.67)"/><path class="cls-9" d="m139.15,340.15c-.84,0-1.91-.25-2.91-.64-1.9-.74-3.62-2.01-3.23-3.01h0c.39-1,2.52-.77,4.42-.03.98.38,1.85.88,2.45,1.39.87.75.91,1.3.78,1.62-.18.47-.75.67-1.5.67Zm-5.57-3.43h0c-.15.39.9,1.45,2.88,2.23,1.99.78,3.48.71,3.63.32.06-.16-.1-.51-.61-.94-.55-.47-1.36-.93-2.27-1.29-1.99-.78-3.48-.71-3.63-.32Z"/><circle class="cls-9" cx="113.16" cy="344.82" r="4.65"/><path class="cls-9" d="m113.16,349.84c-2.77,0-5.02-2.25-5.02-5.02s2.25-5.02,5.02-5.02,5.02,2.25,5.02,5.02-2.25,5.02-5.02,5.02Zm0-9.3c-2.36,0-4.28,1.92-4.28,4.28s1.92,4.28,4.28,4.28,4.28-1.92,4.28-4.28-1.92-4.28-4.28-4.28Z"/><circle class="cls-9" cx="134.67" cy="349.11" r="4.65"/><path class="cls-9" d="m134.67,354.13c-2.77,0-5.02-2.25-5.02-5.02s2.25-5.02,5.02-5.02,5.02,2.25,5.02,5.02-2.25,5.02-5.02,5.02Zm0-9.3c-2.36,0-4.28,1.92-4.28,4.28s1.92,4.28,4.28,4.28,4.28-1.92,4.28-4.28-1.92-4.28-4.28-4.28Z"/><circle class="cls-3" cx="115.96" cy="342.01" r="1.59"/><path class="cls-9" d="m115.96,343.98c-1.08,0-1.97-.88-1.97-1.96s.88-1.97,1.97-1.97,1.96.88,1.96,1.97-.88,1.96-1.96,1.96Zm0-3.19c-.67,0-1.22.55-1.22,1.22s.55,1.22,1.22,1.22,1.22-.55,1.22-1.22-.55-1.22-1.22-1.22Z"/><circle class="cls-3" cx="138.06" cy="346.41" r="1.59"/><path class="cls-9" d="m138.06,348.38c-1.08,0-1.96-.88-1.96-1.96s.88-1.96,1.96-1.96,1.96.88,1.96,1.96-.88,1.96-1.96,1.96Zm0-3.19c-.67,0-1.22.55-1.22,1.22s.55,1.22,1.22,1.22,1.22-.55,1.22-1.22-.55-1.22-1.22-1.22Z"/><path class="cls-9" d="m115.35,359.42c.68-1.76,3.33-2.03,3.77-2.08,2.81-.29,6.23,1.34,6.35,3.24.14,2.14-3.88,5.03-6.99,3.93-2.06-.73-3.84-3.26-3.14-5.09Z"/><path class="cls-9" d="m119.96,365.06c-.52,0-1.05-.08-1.57-.26-1.29-.46-2.52-1.6-3.12-2.9-.43-.93-.5-1.82-.2-2.58h0c.67-1.74,3.04-2.17,4.03-2.27,1.92-.2,4.21.47,5.57,1.62.69.58,1.07,1.24,1.11,1.91.06,1-.64,2.15-1.87,3.08-1,.76-2.45,1.41-3.94,1.41Zm-4.33-5.53c-.3.77-.06,1.57.19,2.11.54,1.16,1.62,2.18,2.77,2.58,1.78.63,3.78-.18,4.95-1.06,1.06-.8,1.68-1.78,1.63-2.56-.03-.5-.34-1.01-.9-1.48-1.24-1.05-3.34-1.66-5.12-1.48-.88.09-2.97.45-3.52,1.89h0Z"/><path class="cls-9" d="m110.78,369.46c-1.25,0-2.5-.21-3.59-.76-1.72-.87-2.8-2.48-3.23-4.77-.03-.16.08-.32.24-.35.16-.03.32.08.35.24.39,2.1,1.37,3.56,2.91,4.34,3.65,1.85,9.42-.57,10.43-1.01l.3-2.67c.02-.17.17-.28.34-.27.17.02.29.17.27.34l-.32,2.84c-.01.1-.08.19-.17.24-.21.1-3.89,1.84-7.52,1.84Z"/><path class="cls-9" d="m125.7,371.32c-2.66,0-5.47-.92-7.77-3.77-.1-.13-.08-.32.05-.43.13-.1.32-.08.43.05,2.52,3.13,5.96,4.21,10.23,3.22,3.22-.75,5.72-2.47,5.75-2.49.14-.09.33-.06.42.08.1.14.06.33-.08.42-.07.05-4.3,2.93-9.02,2.93Z"/><path class="cls-9" d="m116.36,378.43c-1.28,0-2.48-.28-3.5-.84-2.59-1.41-4.23-4.79-4.19-8.6,0-.17.12-.28.31-.3.17,0,.3.14.3.31-.04,3.59,1.49,6.76,3.88,8.06,1.67.91,3.88,1.02,6.06.29,2.96-.99,5.46-3.33,6.88-6.43.07-.15.25-.22.4-.15.15.07.22.25.15.4-1.48,3.26-4.12,5.72-7.24,6.76-1.02.34-2.05.51-3.04.51Z"/></svg>