<?xml version="1.0" encoding="UTF-8"?><svg id="Layer_51" xmlns="http://www.w3.org/2000/svg" width="277" height="395.04" viewBox="0 0 277 395.04"><defs><style>.cls-1{fill:#fff;}.cls-2{fill:#860a00;}.cls-3{fill:#ae544f;}.cls-4{fill:#221f20;}.cls-5{fill:#765341;}</style></defs><path class="cls-5" d="m63.52,248.87l-3.16,28.4-17.75-1.97c-7.49-13.99-13.11-26.05-17.1-35.12-8.23-18.71-9.87-25.55-10.74-31.55-1.99-13.65-.12-23.61,3.14-31.3,1.91-4.51,5.89-11.97,8.46-11.37,2.59.61,1.53,8.91,3.56,20.4,1.74,9.88,4.79,16.62,8.61,25.08,4.12,9.11,11.61,22.94,24.98,37.43Z"/><path class="cls-4" d="m60.8,277.82l-18.51-2.06-.12-.23c-6.18-11.55-11.94-23.38-17.12-35.15-8.51-19.35-9.96-26.03-10.78-31.68-1.76-12.06-.72-22.38,3.18-31.57.54-1.28,5.42-12.51,9.03-11.67,1.91.45,2.15,3.62,2.56,8.87.25,3.28.57,7.35,1.37,11.93,1.73,9.82,4.75,16.5,8.57,24.96,6.07,13.43,14.44,25.98,24.89,37.3l.16.17-3.24,29.12Zm-17.87-2.99l16.99,1.89,3.07-27.68c-10.45-11.36-18.83-23.94-24.92-37.4-3.85-8.53-6.9-15.26-8.65-25.2-.81-4.62-1.13-8.73-1.39-12.03-.33-4.3-.59-7.69-1.79-7.97-1.82-.44-5.43,5.3-7.89,11.08-3.83,9.01-4.84,19.16-3.11,31.03.81,5.58,2.25,12.18,10.71,31.42,5.13,11.67,10.84,23.4,16.96,34.85Z"/><path class="cls-5" d="m173.21,334.73s10.87-5.14,15.02-20.16c4.15-15.02-2.17-33.01-2.17-33.01l-21.15,14.63-4.35,22.73-19.1-.21-19.36,40.02-3.06,6.4v4.17s31.67,5.84,35.3,3.89c3.63-1.95,26.99-3.89,29.21-8.62s8.06-16.96-10.57-19.47.22-10.37.22-10.37Z"/><path class="cls-4" d="m151.17,374.07c-8.68,0-29.48-3.78-32.22-4.29l-.41-.08.05-4.8,3.06-6.4,19.5-40.31,19,.21,4.31-22.52.17-.12,21.69-15,.22.62c.06.18,6.33,18.31,2.19,33.31-4.17,15.07-15.18,20.43-15.29,20.48h-.02c-3.28,1.38-8.39,4.3-8.13,6.3.1.79,1.25,2.24,7.78,3.12,6.5.87,10.73,3.03,12.57,6.42,2.6,4.78-.23,10.8-1.59,13.7-1.46,3.11-9.65,4.84-20.2,6.78-4.32.79-8.05,1.48-9.26,2.13-.58.31-1.78.44-3.41.44Zm-31.63-5.19c12.67,2.32,32.04,5.22,34.57,3.87,1.35-.72,4.97-1.39,9.55-2.23,7.65-1.41,18.12-3.33,19.45-6.16,1.42-3.01,4.01-8.52,1.65-12.85-1.68-3.09-5.66-5.08-11.83-5.91-5.56-.75-8.38-2.05-8.64-3.98-.45-3.39,7.72-6.92,8.72-7.34.36-.18,10.76-5.41,14.75-19.84,3.63-13.15-.91-28.79-1.96-32.09l-20.43,14.13-4.39,22.94-19.2-.21-19.22,39.73-3.01,6.29v3.64Z"/><path class="cls-5" d="m137.55,157.22l57.07,4.28c5.38,9.14,12.14,23.16,15.5,41.36,5.15,27.8-.34,50.61-4.08,62.32,3.87,40.34,6.36,69.45,6.46,82.33.02,2.36-.02,7.86,3.53,10.59,4.75,3.66,10.72-1.68,19.49,1.51,1.37.5,8.7,3.34,10.31,9.86,1.4,5.7-2.41,10.76-2.79,11.26-2.53,3.25-6.06,4.82-25.55,7.25-16.03,1.99-22.17,2-22.82-.01-.2-.6.28-.85,1.04-3.15.42-1.27,1.41-4.3,1.21-7.54-.24-3.98-2.18-6.83-2.98-7.97-2.22-3.18-4.97-4.8-6.4-5.51-1.44-23.68-2.88-47.36-4.33-71.03-.51,1.28-1.11,2.62-1.81,3.98-2.99,5.76-6.84,9.94-10.15,12.85,1.39,17.69,2.78,35.38,4.17,53.07,2.53-.08,13.49-.21,18.52,6.65.27.37.87,1.23,1.42,2.45,2.42,5.32,1.8,12.48-1.55,16.51-3.01,3.62-9.22,3.76-21.51,3.9-10.82.12-16.23.32-18.67-1.51-5.14-3.86-5.59-12.89-6.5-30.96-.17-3.39-.45-11.45-3.48-21.53-.2-.68-.38-1.24-.5-1.61-.18.88-.35,1.57-.45,1.94-1.42,5.64-2.86,11.05-8.24,16.44,0,0-4.63,6.92-12.05,10.06-19.61,8.31-52.37-7.62-52.37-7.62l-18.61-86.56v-5.36s25.38-37.58,45.73-46.72c0,0,32.74-11.92,40.38-61.49Z"/><path class="cls-4" d="m164.45,392.72c-5.91,0-9.25-.28-11.12-1.68-5.33-4-5.79-13.14-6.7-31.34l-.02-.45c-.18-3.67-.55-11.27-3.39-20.8-.01.05-.02.09-.03.14-1.37,5.45-2.78,11.08-8.37,16.67-.13.21-4.74,7.01-12.21,10.17-10.26,4.35-24.08,2.04-33.87-.67-10.56-2.92-18.84-6.92-18.92-6.96l-.22-.11-.05-.24-18.62-86.67v-5.51l.09-.13c.06-.09,6.46-9.54,15.26-19.98,11.84-14.04,22.17-23.1,30.68-26.92.12-.04,8.26-3.08,17.22-12.09,8.27-8.32,18.95-23.57,22.88-49.01l.07-.46,57.79,4.33.13.23c7.62,12.95,12.86,26.92,15.56,41.52,3.81,20.56,2.4,42.16-4.06,62.47,4.43,46.26,6.36,70.87,6.45,82.27v.15c.02,2.44.06,7.52,3.33,10.05,2.19,1.69,4.66,1.32,7.79.85,3.3-.5,7.03-1.06,11.57.59,2.09.76,9.03,3.73,10.62,10.21,1.45,5.88-2.44,11.11-2.88,11.68-2.72,3.5-6.84,5.07-25.88,7.44-16.17,2.01-22.07,2.02-23.23-.06-.04.05-.09.11-.13.16-3.22,3.87-9.85,3.94-21.89,4.08l-2.04.02c-2.17.03-4.1.05-5.81.05Zm-21.41-58.15l.58,1.8c.12.38.3.94.51,1.62,2.92,9.72,3.3,17.48,3.48,21.2l.02.45c.9,17.89,1.35,26.87,6.3,30.59,2.14,1.61,7.18,1.55,16.32,1.43l2.05-.02c12.62-.14,18.32-.35,21.13-3.72.59-.71,1.1-1.54,1.51-2.45.09-.24.19-.51.29-.83.23-.71.64-1.95.92-3.46.42-3.09.03-6.45-1.24-9.25-.26-.56-.55-1.12-.88-1.63-.19-.3-.37-.55-.5-.74-4.56-6.2-14.18-6.57-18.1-6.44l-.48.02-4.23-53.8.19-.17c4.19-3.68,7.57-7.95,10.04-12.7.66-1.27,1.26-2.6,1.79-3.93l.83-2.1,4.45,73c1.82.95,4.31,2.66,6.33,5.54.2.27.4.57.58.87.91,1.43,2.29,4.03,2.49,7.37.08,1.27-.02,2.5-.2,3.62-.2,1.83-.67,3.58-1.4,5.13-.18.47-.34.81-.46,1.08-.24.52-.26.6-.21.74.67,2.07,11.64.99,22.28-.33,19.78-2.46,22.87-4.04,25.22-7.06.42-.54,4.04-5.4,2.7-10.83-1.48-6-8.02-8.8-10-9.51-4.3-1.56-7.9-1.02-11.08-.54-3.23.49-6.02.91-8.55-1.04-3.67-2.82-3.71-8.44-3.72-10.83v-.15c-.09-11.38-2.02-35.98-6.46-82.28v-.1s.02-.1.02-.1c6.44-20.18,7.84-41.64,4.06-62.08-2.67-14.41-7.82-28.19-15.31-40.97l-56.35-4.22c-2.24,14.18-8.08,34.05-23.12,49.15-9.11,9.15-17.17,12.15-17.51,12.27-19.38,8.7-43.76,44-45.4,46.4v5.15l18.55,86.27c2.89,1.36,33.4,15.28,51.74,7.51,7.18-3.04,11.78-9.81,11.83-9.88,5.46-5.47,6.84-10.97,8.17-16.28.09-.37.26-1.05.44-1.92l.38-1.85Zm33.54,27.55c2.65,0,6.67.28,10.46,1.67l-4.2-68.9c-.32.7-.65,1.38-1,2.06-2.49,4.79-5.88,9.11-10.08,12.83l4.11,52.35c.22,0,.46,0,.7,0Z"/><path class="cls-5" d="m130.01,294.8c2.67,6.31,5.31,13.32,7.74,20.99,2.52,7.95,4.43,15.45,5.91,22.35"/><path class="cls-4" d="m143.65,338.64c-.23,0-.44-.16-.49-.4-1.59-7.48-3.58-14.99-5.89-22.3-2.24-7.07-4.84-14.12-7.72-20.95-.11-.25.01-.55.27-.66.25-.11.55.01.66.27,2.9,6.86,5.51,13.94,7.76,21.04,2.33,7.35,4.32,14.88,5.92,22.4.06.27-.12.54-.38.59-.04,0-.07.01-.11.01Z"/><path class="cls-5" d="m162.91,282.35c1.63,4.03,3.25,8.51,4.74,13.41,1.54,5.07,2.72,9.86,3.62,14.27"/><path class="cls-4" d="m171.27,310.53c-.23,0-.44-.16-.49-.4-.98-4.79-2.19-9.57-3.61-14.23-1.37-4.51-2.96-9.01-4.73-13.37-.1-.26.02-.55.28-.65.25-.11.55.02.65.28,1.78,4.39,3.38,8.92,4.76,13.45,1.42,4.69,2.64,9.5,3.63,14.32.05.27-.12.54-.39.59-.03,0-.07,0-.1,0Z"/><path class="cls-5" d="m179.19,266.94c.96,3.86,1.85,8.13,2.57,12.77.75,4.8,1.21,9.3,1.47,13.43"/><path class="cls-4" d="m183.24,293.64c-.26,0-.48-.2-.5-.47-.29-4.47-.78-8.97-1.47-13.38-.67-4.27-1.53-8.55-2.57-12.73-.07-.27.1-.54.37-.61.27-.07.54.1.61.37,1.04,4.2,1.91,8.52,2.58,12.81.69,4.44,1.19,8.97,1.48,13.47.02.28-.19.51-.47.53-.01,0-.02,0-.03,0Z"/><path class="cls-5" d="m204.07,253.34c.47,1.82.92,3.84,1.28,6.03.37,2.27.61,4.39.74,6.33"/><path class="cls-4" d="m206.09,266.19c-.26,0-.48-.2-.5-.46-.15-2.09-.4-4.21-.74-6.29-.33-2-.76-4.01-1.27-5.98-.07-.27.09-.54.36-.61.27-.07.54.09.61.36.52,2,.95,4.04,1.29,6.07.35,2.11.6,4.25.75,6.38.02.28-.19.51-.46.53-.01,0-.02,0-.04,0Z"/><path class="cls-5" d="m51.36,381.67c-6.81-5.09-7.23-12.36-12.27-24.76-4.43-10.88-6.86-12.06-9.87-19.01-7.71-17.82-8.53-48.95,10.45-65.16,12.24-10.46,27.69-10.41,31.14-10.31,4.42.13,16.11.47,25.57,8.32,18.61,15.44,14.33,48.09,13.62,52.93-2.45,16.8-9.49,25.32-4.42,31.63,5.19,6.47,15.91,1.69,22.14,9.7,3.61,4.64,4.51,12.03,1.56,16.63-1.91,2.99-5.24,4.47-23.2,5.75-12.72.9-26.34,1.25-42.78-1.49-8.56-1.43-10.77-3.36-11.94-4.23Z"/><path class="cls-4" d="m89.59,388.55c-7.98,0-16.66-.54-26.37-2.16-8.28-1.38-10.69-3.21-11.99-4.19l-.17-.13c-4.97-3.72-6.65-8.66-8.98-15.5-.94-2.77-2.01-5.92-3.46-9.47-2.52-6.19-4.41-9.26-6.08-11.97-1.28-2.07-2.48-4.02-3.78-7.03-7.44-17.19-9.07-48.95,10.58-65.74,11.59-9.9,25.88-10.6,31.48-10.43,4.46.13,16.28.48,25.87,8.43,18.33,15.21,14.71,47.14,13.8,53.38-.95,6.5-2.6,11.85-3.93,16.14-2.13,6.88-3.54,11.43-.59,15.11,2.33,2.91,5.91,3.43,9.69,3.99,4.44.65,9.04,1.33,12.45,5.71,3.88,4.99,4.58,12.55,1.59,17.21-2.13,3.33-6.01,4.73-23.59,5.98-5.21.37-10.68.66-16.52.66Zm-37.93-7.28l.17.13c1.14.87,3.51,2.67,11.55,4,16.71,2.78,30.38,2.36,42.66,1.49,17.39-1.24,20.97-2.64,22.81-5.52,2.73-4.26,2.04-11.46-1.54-16.06-3.16-4.06-7.55-4.71-11.8-5.34-3.99-.59-7.75-1.14-10.33-4.36-3.28-4.09-1.73-9.1.41-16.03,1.32-4.26,2.96-9.56,3.9-15.99.49-3.38,1.53-12.34.43-22.36-1.48-13.57-6.15-23.7-13.88-30.11-9.33-7.73-20.9-8.07-25.26-8.2-5.49-.16-19.48.51-30.8,10.19-10.75,9.18-14.12,22.28-15.06,31.65-1.12,11.17.66,23.49,4.75,32.94,1.27,2.94,2.46,4.87,3.71,6.9,1.69,2.75,3.61,5.86,6.16,12.12,1.46,3.58,2.53,6.74,3.48,9.53,2.35,6.92,3.91,11.49,8.63,15.02h0Z"/><path class="cls-4" d="m127.69,383.58s-.06,0-.09,0c-.27-.05-.45-.31-.4-.58,1.24-6.61-6.07-10.15-6.14-10.19-.25-.12-.36-.42-.24-.67.12-.25.42-.35.67-.24.08.04,8.08,3.91,6.7,11.28-.04.24-.25.41-.49.41Z"/><path class="cls-4" d="m13.95,174.17s-.07,0-.11-.01c-.27-.06-.44-.33-.38-.6,1.78-7.96,9.65-10.92,9.98-11.05.26-.09.55.04.64.3s-.04.55-.3.64c-.08.03-7.69,2.9-9.35,10.33-.05.23-.26.39-.49.39Z"/><path class="cls-4" d="m8.72,171.95s-.08,0-.12-.01c-.27-.07-.43-.34-.36-.61,2.54-10.13,13.78-13.89,14.26-14.04.26-.08.54.06.63.32.08.26-.06.54-.32.63-.11.04-11.19,3.75-13.59,13.34-.06.23-.26.38-.49.38Z"/><path class="cls-4" d="m3.34,169.55s-.08,0-.12-.02c-.27-.07-.43-.34-.36-.61,3.23-12.66,17.97-17.51,18.12-17.55.26-.08.54.06.63.32.08.26-.06.54-.32.63-.14.05-14.36,4.73-17.46,16.85-.06.23-.26.38-.48.38Z"/><path class="cls-4" d="m122.17,385.9s-.06,0-.09,0c-.27-.05-.45-.31-.4-.58,1.24-6.61-6.07-10.15-6.14-10.19-.25-.12-.36-.42-.24-.67.12-.25.42-.35.67-.24.08.04,8.08,3.91,6.7,11.28-.04.24-.25.41-.49.41Z"/><path class="cls-4" d="m194.2,388.17s-.06,0-.09,0c-.27-.05-.45-.31-.4-.58,1.24-6.61-6.07-10.15-6.14-10.19-.25-.12-.36-.42-.24-.67.12-.25.42-.35.67-.24.08.04,8.08,3.91,6.7,11.28-.04.24-.25.41-.49.41Z"/><path class="cls-4" d="m190.17,391s-.06,0-.09,0c-.27-.05-.45-.31-.4-.58,1.24-6.61-6.07-10.15-6.14-10.19-.25-.12-.36-.42-.24-.67.12-.25.42-.35.67-.24.08.04,8.08,3.91,6.7,11.28-.04.24-.25.41-.49.41Z"/><path class="cls-4" d="m244.34,378.22s-.06,0-.09,0c-.27-.05-.45-.31-.4-.58,1.24-6.61-6.07-10.15-6.14-10.19-.25-.12-.36-.42-.24-.67.12-.25.42-.35.67-.24.08.04,8.08,3.91,6.7,11.28-.04.24-.25.41-.49.41Z"/><path class="cls-4" d="m240.24,383.58s-.06,0-.09,0c-.27-.05-.45-.31-.4-.58,1.24-6.61-6.07-10.15-6.14-10.19-.25-.12-.36-.42-.24-.67.12-.25.42-.35.67-.24.08.04,8.08,3.91,6.7,11.28-.04.24-.25.41-.49.41Z"/><path class="cls-4" d="m183.7,363.37s-.05,0-.08,0c-.27-.04-.46-.29-.42-.57.71-4.75-3.33-7.21-3.5-7.31-.24-.14-.32-.45-.17-.68.14-.24.45-.32.68-.18.05.03,4.79,2.9,3.98,8.32-.04.25-.25.43-.49.43Z"/><path class="cls-4" d="m180.64,363.37c-.22,0-.42-.14-.48-.36-.85-2.96-2.78-3.95-2.87-3.99-.25-.12-.35-.42-.23-.67.12-.25.42-.35.67-.23.1.05,2.41,1.2,3.39,4.62.08.26-.08.54-.34.62-.05.01-.09.02-.14.02Z"/><path class="cls-5" d="m128.5,161.41c2.34,12.01.94,15.89-1.05,16.97-4.79,2.59-16.98-8.8-24.23-19.11-5.54-7.89-4.65-10.11-13.69-26.77-7.51-13.83-8.48-12.96-9.72-17.53-2.49-9.21.77-15.26,10.03-38.96,11.27-28.83,11.55-32.92,18.49-41.36,3.31-4.03,15.81-19.23,25.45-15.94,3.28,1.12,5.4,4.09,6.77,6.96,0,0,52.93-20.08,69.19-2.62,1.5-1.63,3.72-3.47,6.72-4.21,12.28-3.05,25.54,15.3,27.45,17.93,6.19,8.56,3.15,8.86,11.56,25.44,8.13,16.03,13.6,20.9,13.51,31.62-.02,2.24-1,5.97-2.96,13.33-4.8,18.05-7.33,27.29-13.58,38.04-1.53,2.63-4.9,8.15-10.33,14.3-4.17,4.74-14.59,16.56-19.08,14.52-5.41-2.46-.37-24.2,1.21-30.62,0,0-32.41,55.4-58.8,43.75,0,0-21.67-3.07-36.93-25.73Z"/><path class="cls-4" d="m177.86,188.79c-4.5.98-8.73.64-12.61-1.06-1.48-.24-21.05-3.82-35.67-23.72,1.41,8.58.79,13.46-1.85,14.9-5.41,2.91-18.01-9.32-25.01-19.3-2.94-4.19-4.09-6.79-5.83-10.74-1.52-3.46-3.61-8.19-7.9-16.09-3.55-6.53-5.61-9.74-6.97-11.86-1.5-2.34-2.12-3.3-2.8-5.8-2.23-8.27.07-14.09,6.91-31.35.96-2.42,2.01-5.07,3.15-7.99,2.82-7.23,4.96-12.91,6.68-17.47,5.1-13.56,6.64-17.65,11.91-24.05,10.67-12.98,19.45-18.4,26.12-16.13,2.76.94,5.07,3.22,6.87,6.77,5.8-2.14,52.77-18.78,68.88-2.74,1.99-2.02,4.2-3.34,6.57-3.93.11-.03.23-.05.34-.08,11.34-2.47,23.16,11.9,27.74,18.24,3.25,4.5,4,6.77,5.14,10.21,1.02,3.1,2.43,7.34,6.47,15.31,2.41,4.74,4.55,8.46,6.44,11.74,4.48,7.77,7.19,12.46,7.13,20.17-.02,2.28-.93,5.78-2.98,13.48-4.66,17.5-7.23,27.15-13.64,38.19-2.95,5.07-6.44,9.91-10.4,14.4-7.37,8.36-15.48,16.64-19.79,14.67-4.61-2.1-2.77-15.48,0-27.67-3.09,4.85-9.56,14.4-17.6,23.15-9.77,10.62-19.01,16.93-27.31,18.74Zm-50.54-30.21l1.68,2.49c7.79,11.57,17.3,17.88,23.9,21.13,7.16,3.53,12.55,4.33,12.61,4.34l.16.05c25.59,11.31,57.71-42.95,58.03-43.5l2.12-3.62-1,4.07c-4.24,17.25-4.82,28.44-1.55,29.92,4.08,1.86,14.84-10.35,18.37-14.36,3.9-4.43,7.35-9.21,10.26-14.21,6.08-10.46,8.54-19.17,13.52-37.89,1.88-7.07,2.92-10.97,2.94-13.18.06-7.38-2.58-11.96-6.97-19.55-1.9-3.29-4.05-7.02-6.47-11.79-4.09-8.05-5.5-12.34-6.54-15.48-1.1-3.33-1.83-5.53-4.97-9.87-3.5-4.85-15.84-20.41-26.81-17.7-2.32.58-4.48,1.93-6.42,4.04l-.45.48-.45-.48c-8.21-8.81-26.35-7.61-40.12-5.05-15.04,2.8-28.27,7.78-28.41,7.83l-.52.2-.24-.51c-1.69-3.53-3.85-5.77-6.42-6.65-4.21-1.44-11.94.12-24.78,15.75-5.14,6.25-6.53,9.95-11.71,23.71-1.72,4.57-3.86,10.25-6.69,17.49-1.14,2.92-2.19,5.57-3.15,7.99-6.73,16.98-8.99,22.7-6.86,30.58.63,2.32,1.18,3.17,2.65,5.46,1.37,2.14,3.45,5.37,7.02,11.94,4.31,7.95,6.41,12.71,7.95,16.18,1.71,3.88,2.84,6.44,5.71,10.53,7.44,10.59,19.31,21.16,23.44,18.93,1.62-.88,3.06-4.42.75-16.32l-.57-2.94Z"/><path class="cls-4" d="m127.9,161.56c-13.36-55.18,8.78-94.72,9-95.11l1.06.61c-.22.39-22.11,39.53-8.87,94.22l-1.18.29Z"/><path class="cls-4" d="m224.8,143.6l-1.15-.41c9.25-25.65,6.39-46.53,2.37-59.53-4.36-14.09-11.01-22.23-11.07-22.31l.94-.78c.27.33,26.86,33.26,8.91,83.02Z"/><path class="cls-4" d="m156.32,149.95c1.71,7.46,6.91,13.35,13.22,14.67,9,1.89,19.98-5.58,21.86-18.1-1.69.49-5.4,1.33-9.88.24-3.85-.94-6.48-2.85-7.8-3.96-1.44,1.11-3.18,2.28-5.22,3.34-4.64,2.43-9.01,3.41-12.18,3.81Z"/><path class="cls-3" d="m180.49,162.42s1.34-19.81-8.3-9.58c0,0-7.18-6.24-9.36,7.98,0,0,4.9,8.3,17.66,1.6"/><path class="cls-4" d="m174.73,165.25c-8.74,1.9-12.39-4.05-12.43-4.12l-.11-.19.03-.22c.84-5.45,2.52-8.68,5.02-9.6,2.06-.76,4.02.31,4.88.9,2.35-2.38,4.26-3.19,5.84-2.5,3.79,1.65,3.21,11.78,3.14,12.93l-.02.34-.3.16c-2.24,1.17-4.25,1.9-6.04,2.29Zm-11.27-4.56c.78,1.14,5.48,6.95,16.44,1.35.23-4.04-.23-10.43-2.43-11.39-1.1-.48-2.78.42-4.84,2.62l-.4.42-.44-.38s-2.1-1.78-4.14-1.03c-1.98.73-3.43,3.64-4.19,8.41Z"/><path class="cls-2" d="m172.19,152.85s-2.05,6.71-.89,12.06"/><path class="cls-4" d="m171.89,164.78l-1.19.26c-1.19-5.44.81-12.09.9-12.37l1.17.36c-.02.07-1.99,6.63-.87,11.76Z"/><circle class="cls-1" cx="154.21" cy="100.64" r="14.5"/><path class="cls-4" d="m157.45,115.54c-8.21,1.79-16.35-3.44-18.14-11.65s3.44-16.35,11.65-18.14c8.21-1.79,16.35,3.44,18.14,11.65,1.79,8.21-3.44,16.35-11.65,18.14Zm-6.18-28.33c-7.41,1.61-12.12,8.96-10.51,16.36,1.61,7.41,8.96,12.12,16.36,10.51,7.41-1.61,12.12-8.96,10.51-16.36-1.61-7.41-8.96-12.12-16.36-10.51Z"/><circle class="cls-1" cx="198.34" cy="99.87" r="14.5"/><path class="cls-4" d="m201.59,114.76c-8.21,1.79-16.35-3.44-18.14-11.65-1.79-8.21,3.44-16.35,11.65-18.14s16.35,3.44,18.14,11.65-3.44,16.35-11.65,18.14Zm-6.18-28.33c-7.41,1.61-12.12,8.96-10.51,16.36,1.61,7.41,8.96,12.12,16.36,10.51,7.41-1.61,12.12-8.96,10.51-16.36-1.61-7.41-8.96-12.12-16.36-10.51Z"/><ellipse class="cls-4" cx="154.96" cy="77.92" rx="7.64" ry="2.68" transform="translate(-8.82 20.83) rotate(-7.48)"/><path class="cls-4" d="m157.22,80.86c-.59.13-1.2.23-1.83.32-4.07.53-8.33-.04-8.61-2.18-.09-.7.23-1.75,2.3-2.79,1.43-.72,3.36-1.27,5.45-1.54,2.09-.27,4.1-.25,5.67.08,2.27.48,2.85,1.41,2.94,2.1.09.7-.23,1.75-2.3,2.79-1,.5-2.25.92-3.62,1.22Zm-4.26-4.69c-1.27.28-2.42.66-3.33,1.12-1.2.6-1.69,1.21-1.64,1.54.11.83,2.99,1.69,7.24,1.13,1.96-.26,3.76-.76,5.06-1.42,1.2-.6,1.69-1.21,1.64-1.54-.04-.31-.59-.77-1.99-1.07-1.43-.3-3.3-.32-5.26-.07-.6.08-1.18.18-1.73.3Z"/><ellipse class="cls-4" cx="197.82" cy="77.08" rx="2.68" ry="7.64" transform="translate(90.63 260.34) rotate(-80.96)"/><path class="cls-4" d="m203.3,80.34c-1.65.36-3.86.33-6-.01-4.05-.64-7.97-2.41-7.64-4.54h0c.34-2.13,4.62-2.59,8.67-1.95,2.08.33,4,.93,5.41,1.69,2.04,1.1,2.34,2.16,2.23,2.85-.16,1-1.2,1.64-2.67,1.96Zm-12.43-4.36h0c-.13.83,2.38,2.47,6.62,3.15,4.24.67,7.14-.1,7.27-.94.05-.33-.42-.95-1.6-1.59-1.29-.69-3.07-1.25-5.02-1.56-4.24-.68-7.14.1-7.27.93Z"/><circle class="cls-4" cx="154.21" cy="100.64" r="9.35"/><path class="cls-4" d="m156.36,110.51c-5.44,1.19-10.83-2.27-12.02-7.72s2.28-10.83,7.72-12.02c5.44-1.19,10.83,2.28,12.02,7.72s-2.28,10.83-7.72,12.02Zm-3.98-18.27c-4.64,1.01-7.59,5.6-6.58,10.24,1.01,4.64,5.6,7.58,10.24,6.57,4.64-1.01,7.58-5.6,6.57-10.24s-5.6-7.59-10.24-6.58Z"/><circle class="cls-4" cx="198.34" cy="99.87" r="9.35"/><path class="cls-4" d="m200.49,109.73c-5.44,1.19-10.83-2.28-12.02-7.72-1.19-5.44,2.28-10.83,7.72-12.02s10.83,2.28,12.02,7.72-2.27,10.83-7.72,12.02Zm-3.98-18.27c-4.64,1.01-7.59,5.6-6.58,10.24,1.01,4.64,5.6,7.59,10.24,6.58s7.58-5.6,6.57-10.24-5.6-7.58-10.24-6.57Z"/><circle class="cls-1" cx="158.52" cy="93.93" r="3.21"/><path class="cls-4" d="m159.36,97.79c-2.13.46-4.24-.89-4.71-3.02-.46-2.13.89-4.24,3.02-4.71,2.13-.46,4.24.89,4.7,3.02.46,2.13-.89,4.24-3.02,4.7Zm-1.37-6.27c-1.33.29-2.17,1.6-1.88,2.93.29,1.33,1.6,2.17,2.93,1.88s2.17-1.6,1.88-2.93c-.29-1.33-1.6-2.17-2.93-1.88Z"/><circle class="cls-1" cx="203.84" cy="93.11" r="3.21"/><path class="cls-4" d="m204.68,96.97c-2.13.46-4.24-.89-4.7-3.02-.46-2.13.89-4.24,3.02-4.7s4.24.89,4.7,3.02-.89,4.24-3.02,4.7Zm-1.37-6.27c-1.33.29-2.17,1.6-1.88,2.93.29,1.33,1.6,2.17,2.93,1.88s2.17-1.6,1.88-2.93-1.6-2.17-2.93-1.88Z"/><path class="cls-4" d="m164.79,128.42c.58-3.75,5.67-5.42,6.53-5.7,5.4-1.77,12.82-.04,13.87,3.65,1.18,4.15-5.46,11.55-12.06,10.71-4.37-.55-8.95-4.76-8.35-8.66Z"/><path class="cls-4" d="m176.26,137.53c-1.03.22-2.11.29-3.21.15-2.74-.35-5.63-2.06-7.37-4.37-1.23-1.64-1.75-3.36-1.5-4.99h0c.57-3.72,5.04-5.57,6.94-6.19,3.7-1.22,8.48-.88,11.64.79,1.6.85,2.64,1.98,3.01,3.27.55,1.93-.33,4.5-2.36,6.86-1.65,1.92-4.21,3.82-7.15,4.47Zm-10.88-9.02c-.25,1.64.55,3.12,1.27,4.07,1.55,2.06,4.12,3.58,6.55,3.89,3.77.48,7.35-1.96,9.28-4.21,1.74-2.02,2.55-4.22,2.11-5.73-.27-.96-1.11-1.84-2.41-2.53-2.89-1.53-7.28-1.83-10.69-.71-1.68.55-5.65,2.17-6.12,5.22h0Z"/><path class="cls-4" d="m160.09,150.11c-2.46.54-5,.66-7.39.04-3.75-.98-6.57-3.67-8.4-8-.13-.31.01-.67.32-.8.31-.13.67.01.8.32,1.67,3.96,4.22,6.42,7.58,7.29,7.97,2.08,18.28-5.15,20.06-6.46l-.54-5.38c-.03-.33.22-.63.54-.67.33-.03.63.21.67.54l.58,5.72c.02.21-.07.41-.23.54-.36.28-6.87,5.28-14,6.84Z"/><path class="cls-4" d="m190.23,147.36c-5.23,1.14-11.15.54-16.9-4.09-.26-.21-.3-.59-.09-.86.21-.26.6-.3.86-.09,6.3,5.08,13.53,5.73,21.49,1.94,6.01-2.86,10.19-7.31,10.23-7.36.23-.24.62-.26.86-.03.25.23.26.61.03.86-.11.12-7.21,7.6-16.48,9.62Z"/><path class="cls-4" d="m174.9,165.34c-2.51.55-5,.51-7.25-.15-5.69-1.67-10.37-7.6-11.93-15.11-.07-.33.12-.6.47-.72.33-.07.65.14.72.47,1.47,7.07,5.82,12.64,11.08,14.19,3.67,1.08,8.06.34,12.04-2.03,5.39-3.21,9.31-8.89,10.76-15.59.07-.33.4-.54.72-.47.33.07.54.4.47.72-1.52,7.03-5.65,13.01-11.33,16.38-1.87,1.11-3.82,1.88-5.76,2.31Z"/></svg>