<?xml version="1.0" encoding="UTF-8"?><svg id="Layer_50" xmlns="http://www.w3.org/2000/svg" width="285" height="266" viewBox="0 0 285 266"><defs><style>.cls-1{fill:#fff;}.cls-2{fill:#860a00;}.cls-3{fill:#ae544f;}.cls-4{fill:#221f20;}.cls-5{fill:#765341;}</style></defs><path class="cls-5" d="m80.9,204.44c-1.18,4.12-10.38,37.33.88,43.86,1.25.72,2.87.87,6.06,1.15,3.46.31,26.85,2.37,30.25-6.44,1.36-3.52-.34-9.1-3.09-10.44-.57-.28-1.4-.48-1.68-.54-1.82-.43-2.78-.19-5.63-.41-1.03-.08-1.55-.12-1.68-.18-1.45-.66-1.78-2.9-1.72-11.62.05-6.52.26-8.72,1.98-10.49.91-.94,1.86-1.35,2.38-1.58,2.79-1.27,6.92-3.96,12.69-10.23-3.99-2.84-7.97-5.67-11.96-8.51l-26.98,8.1c-.5,2.45-1,4.9-1.5,7.35Z"/><path class="cls-4" d="m97.02,250.37c-3.56,0-6.85-.21-9.21-.42-3.17-.28-4.91-.43-6.27-1.22-11.25-6.53-2.92-38.09-1.12-44.41l1.55-7.62,27.51-8.25,12.62,8.98-.38.42c-4.72,5.13-9.04,8.61-12.85,10.35-.58.26-1.42.65-2.22,1.48-1.56,1.61-1.79,3.61-1.84,10.15-.06,8.22.25,10.62,1.43,11.16.1.03.72.07,1.5.13,1.12.09,1.92.1,2.64.11,1.07.02,1.92.03,3.07.31.29.07,1.16.28,1.78.58,2.99,1.46,4.77,7.36,3.34,11.07-2.27,5.88-12.75,7.18-21.55,7.18Zm-14.18-52.88l-1.45,7.09c-1.08,3.77-10.19,36.99.65,43.29,1.16.67,2.83.82,5.85,1.09,6.21.55,26.71,1.72,29.74-6.12,1.25-3.25-.29-8.57-2.85-9.81-.53-.26-1.32-.45-1.58-.51-1.04-.25-1.81-.26-2.86-.28-.69-.01-1.55-.03-2.7-.12-1.35-.1-1.64-.13-1.84-.22-1.72-.78-2.08-2.92-2.01-12.08.05-6.45.23-8.88,2.12-10.83.93-.97,1.92-1.42,2.45-1.66,3.66-1.67,7.75-4.94,12.22-9.74l-11.29-8.04-26.46,7.94Z"/><path class="cls-5" d="m188.22,184.95l18.05-6.81c.49,2.74,1.22,7.3,1.66,12.99,1.38,17.98-1.68,27.46,3.57,31.19,3.15,2.23,5.35-.38,10.72,2.68,1.12.64,6.47,3.69,7.47,9.45.19,1.1.68,3.91-.71,6.35-1.04,1.83-3.93,4.83-31.31,4.23-7.05-.15-7.82-.37-8.74-.99-6.09-4.03-3.92-15.08-4.04-37.13-.05-8.81-.44-15.91-.73-20.21,1.35-.58,2.7-1.16,4.05-1.74Z"/><path class="cls-4" d="m204.24,245.6c-2.02,0-4.2-.02-6.56-.08-7.27-.16-8-.4-9.01-1.07-4.87-3.22-4.71-10.48-4.43-23.65.09-4.06.19-8.66.16-13.89-.04-6.78-.28-13.57-.73-20.18l-.02-.35,4.39-1.89,18.62-7.02.11.59c.77,4.27,1.33,8.66,1.67,13.04.5,6.43.42,11.82.37,16.15-.1,7.75-.17,12.42,3,14.67,1.32.94,2.44.94,3.86.94,1.7,0,3.81,0,6.82,1.71,4.3,2.45,7.05,5.93,7.72,9.8.2,1.12.71,4.09-.76,6.68-.87,1.52-2.6,4.56-25.19,4.56Zm-19.54-58.59c.43,6.52.67,13.21.71,19.89.03,5.25-.07,9.85-.16,13.92-.28,12.82-.44,19.88,3.98,22.79.78.52,1.42.75,8.48.9,25.03.54,29.64-1.84,30.86-3.98,1.3-2.28.83-4.99.65-6.01-.62-3.57-3.19-6.8-7.23-9.1-2.78-1.58-4.66-1.58-6.32-1.58-1.47,0-2.86,0-4.44-1.12-3.59-2.55-3.53-7.43-3.42-15.5.06-4.31.13-9.68-.36-16.06-.32-4.15-.84-8.29-1.55-12.34l-17.48,6.59-3.71,1.6Z"/><path class="cls-5" d="m37.64,155.6c-6.53-11.48-10.86-21.38-13.66-28.55-1.94-4.96-3.39-8.73-4.75-14.12-1.87-7.45-4.02-16.39-2.31-27.47,1.8-11.63,6.66-17.88,9.63-20.92,1.85-1.9,3.49-3.54,4.89-3.11,3.69,1.14-2.18,14.27,1.82,30.36,3.98,16.05,17.45,33.7,18.57,38.53.09.39.42,2.06,1.66,3.75.9,1.22,1.64,1.59,1.89,1.97.9,1.35-2.23,6.02-17.74,19.57Z"/><path class="cls-4" d="m37.51,156.38l-.3-.53c-5.31-9.33-9.92-18.96-13.69-28.62-1.81-4.63-3.38-8.64-4.77-14.18-1.72-6.86-4.08-16.26-2.32-27.67,1.36-8.81,4.65-15.94,9.76-21.2,1.89-1.94,3.68-3.77,5.4-3.24,2.06.64,1.77,3.64,1.29,8.61-.55,5.65-1.3,13.38.87,22.1,2.53,10.21,8.89,21.01,13.54,28.89,2.68,4.55,4.61,7.83,5.04,9.64.13.57.46,2.06,1.58,3.57.53.72,1,1.12,1.34,1.42.24.21.43.37.56.57.91,1.37-.29,4.91-17.83,20.22l-.46.4Zm-6.54-94.53c-1.11,0-2.61,1.54-4.07,3.03-4.97,5.1-8.16,12.05-9.49,20.65-1.73,11.21.5,20.11,2.3,27.27,1.38,5.48,2.86,9.27,4.73,14.06,3.69,9.43,8.17,18.83,13.33,27.96,17.29-15.14,17.53-18,17.19-18.51-.06-.08-.21-.21-.38-.37-.36-.31-.9-.78-1.5-1.58-1.24-1.68-1.61-3.32-1.73-3.86-.4-1.73-2.4-5.13-4.94-9.43-4.67-7.94-11.08-18.8-13.65-29.16-2.21-8.89-1.45-16.72-.89-22.44.4-4.16.69-7.16-.59-7.56-.1-.03-.21-.05-.32-.05Z"/><path class="cls-5" d="m170.55,203.82c10.07-.78,31.96-12.85,40.65-27.88,9.45-16.33,3.25-36.04.95-42.39l-66.67-25.56c-44.31-4.94-83.01,4.49-98.62,26.18-6.19,8.6-8.74,16.98-8.74,16.98s-6.88,22.65,2.92,52.04c.19.56.95,2.73,1.28,5.75.27,2.46.12,4.33.07,4.89-.35,4.87.54,7.78.92,16.97.5,11.83-.61,15.45,2.5,18.6.99,1,2.11,1.66,3.82,2.35,8.91,3.59,27.36,5.25,31.69-3.67,2.16-4.46.75-11.45-3.03-14.08-3.62-2.52-8.08-.11-10.52-3.1-.81-.99-.73-1.76-.83-6.89-.21-10.02-.65-13.11,1.59-14.91.85-.69,1.72-.89,2.12-.98,7.3-1.77,14.5-6.4,22.63-8.93,16.06-4.99,40.32-3.17,43.29,5.3.13.38.11.46.23,4.09.17,5.34.46,10.68.64,16.01.56,16.51.95,18.94,3.11,20.94,2.13,1.97,4.84,2.48,6.56,2.63,8.92-.09,17.83-.17,26.75-.26,4.66-.29,8.7-2.67,10.09-6.26,1.98-5.11-2.01-11.21-6.3-13.38-5.09-2.58-9.87.73-12.68-2.43-.82-.92-.99-2.74-1.31-6.36-.66-7.43-.94-11.2,1.23-13.5,1.85-1.96,4.63-2.07,5.63-2.15Z"/><path class="cls-4" d="m65.63,255.12c-5.93,0-12.09-1.26-16.16-2.9-1.84-.74-2.99-1.45-3.99-2.46-2.42-2.46-2.44-5.15-2.48-11.06-.01-2.1-.03-4.71-.17-7.87-.17-3.97-.43-6.8-.64-9.06-.28-3-.48-5.17-.28-7.96.05-.65.18-2.46-.07-4.8-.3-2.81-1-4.87-1.22-5.54l-.03-.1c-9.74-29.2-3-52.11-2.93-52.34.03-.08,2.64-8.56,8.81-17.13,15.39-21.37,53.35-31.48,99.08-26.39l.12.03,66.89,25.64.08.21c3.42,9.44,7.84,27.56-.99,42.81-8.77,15.16-30.61,27.32-41.05,28.12h-.15c-1.05.09-3.52.27-5.15,2-1.98,2.1-1.77,5.54-1.1,13.12.29,3.28.47,5.26,1.19,6.07,1.3,1.46,3.08,1.37,5.33,1.25,2.17-.11,4.63-.24,7.2,1.06,4.73,2.4,8.58,8.75,6.53,14.01-1.42,3.68-5.56,6.26-10.52,6.57l-26.78.26c-2.9-.25-5.2-1.18-6.91-2.76-2.31-2.14-2.71-4.73-3.27-21.29-.08-2.48-.19-4.96-.3-7.45-.12-2.86-.25-5.71-.34-8.57l-.04-1.42c-.07-2.18-.07-2.27-.16-2.52-2.87-8.17-27.25-9.79-42.67-4.99-3.75,1.17-7.32,2.79-10.78,4.37-4.08,1.86-7.93,3.61-11.88,4.57-.4.1-1.17.29-1.92.89-1.74,1.4-1.68,3.77-1.49,10.79.03,1.12.06,2.35.09,3.72l.03,1.53c.07,3.81.1,4.33.69,5.05,1.14,1.4,2.81,1.47,4.74,1.56,1.8.08,3.84.17,5.68,1.45,3.89,2.71,5.48,10,3.19,14.71-2.45,5.04-9.13,6.82-16.16,6.82Zm57.12-147.93c-34.98,0-62.92,9.83-75.48,27.28-6.06,8.42-8.64,16.75-8.66,16.84-.07.22-6.72,22.85,2.92,51.73l.03.1c.24.7.95,2.84,1.27,5.75.26,2.43.12,4.31.08,4.92-.2,2.77,0,4.9.27,7.85.21,2.28.48,5.11.64,9.12.13,3.18.15,5.8.17,7.9.04,5.8.06,8.2,2.19,10.37.91.92,1.93,1.55,3.66,2.24,8.58,3.45,26.81,5.31,31.05-3.43,2.1-4.32.68-10.98-2.86-13.45-1.6-1.11-3.41-1.19-5.15-1.27-1.99-.09-4.05-.18-5.47-1.93-.83-1.02-.84-1.82-.92-5.66l-.03-1.53c-.03-1.36-.06-2.59-.09-3.71-.19-7.2-.26-9.89,1.87-11.6.92-.74,1.85-.97,2.29-1.08,3.88-.94,7.69-2.68,11.73-4.51,3.48-1.59,7.09-3.23,10.89-4.41,16.16-5.03,40.83-3.17,43.91,5.61.14.4.14.49.21,2.82l.04,1.42c.09,2.85.21,5.71.34,8.56.11,2.49.22,4.97.3,7.46.55,16.2.91,18.7,2.95,20.59,1.54,1.43,3.65,2.27,6.27,2.5l26.7-.26c4.55-.29,8.34-2.62,9.63-5.94,1.94-5.01-2.22-10.81-6.06-12.76-2.33-1.18-4.65-1.07-6.7-.96-2.32.12-4.51.23-6.12-1.58-.94-1.06-1.12-3.04-1.44-6.65-.65-7.33-1.01-11.38,1.37-13.89,1.9-2.01,4.63-2.21,5.8-2.3h.15c9.99-.78,31.78-12.99,40.26-27.64,8.56-14.79,4.34-32.42.99-41.76l-66.4-25.45c-7.79-.87-15.36-1.29-22.62-1.29Z"/><path class="cls-4" d="m227.88,241.86c-.26,0-.47-.2-.5-.46-.62-7.21-5.39-8.97-5.59-9.04-.26-.09-.4-.38-.31-.64.09-.26.38-.4.63-.31.23.08,5.58,2.02,6.26,9.9.02.28-.18.52-.46.54-.01,0-.03,0-.04,0Z"/><path class="cls-4" d="m80.53,249.65c-.2,0-.38-.12-.46-.31-2.98-7.29-7.79-7.93-8-7.95-.27-.03-.47-.28-.44-.55s.27-.47.55-.44c.23.02,5.59.69,8.81,8.57.1.26-.02.55-.27.65-.06.03-.13.04-.19.04Z"/><path class="cls-4" d="m177.42,247.02c-.19,0-.37-.11-.46-.3-3.22-7.19-8.05-7.67-8.25-7.69-.27-.02-.48-.26-.46-.54s.26-.48.53-.46c.23.02,5.62.5,9.09,8.28.11.25,0,.55-.25.66-.07.03-.14.04-.2.04Z"/><path class="cls-4" d="m183.67,243.03c-.2,0-.38-.12-.46-.31-2.98-7.29-7.79-7.93-8-7.95-.27-.03-.47-.28-.44-.55.03-.28.28-.47.55-.44.23.02,5.59.69,8.82,8.57.1.26-.02.55-.27.65-.06.03-.13.04-.19.04Z"/><path class="cls-4" d="m74.53,253.56c-.19,0-.37-.11-.45-.29-3.35-7.13-8.19-7.52-8.39-7.54-.27-.02-.48-.25-.47-.53.02-.27.23-.51.53-.47.23.01,5.62.4,9.24,8.11.12.25.01.55-.24.67-.07.03-.14.05-.21.05Z"/><path class="cls-4" d="m68.23,209.21c-.22,0-.42-.15-.48-.37-.07-.27.08-.54.35-.61,11.43-3.13,20.88-8.71,28.09-16.59,3.98-4.35,7.74-8.46,8.23-14.46.84-10.39-8.46-21.74-19.9-24.29-7.57-1.69-14.19.91-17.46,2.61-.25.13-.55.03-.67-.21-.13-.25-.03-.55.21-.67,3.39-1.76,10.26-4.45,18.14-2.7,11.89,2.65,21.55,14.49,20.67,25.35-.51,6.35-4.38,10.58-8.48,15.06-7.34,8.02-16.95,13.7-28.57,16.88-.04.01-.09.02-.13.02Z"/><path class="cls-4" d="m115.86,246.15c-.24,0-.45-.18-.49-.42-1.13-7.15-6.01-8.57-6.22-8.63-.27-.07-.42-.35-.35-.61s.34-.42.61-.35c.23.06,5.71,1.62,6.94,9.44.04.27-.14.53-.42.57-.03,0-.05,0-.08,0Z"/><path class="cls-4" d="m110.17,248.69c-.24,0-.45-.18-.49-.42-1.13-7.15-6.01-8.57-6.22-8.63-.27-.07-.42-.35-.35-.61s.34-.42.61-.35c.23.06,5.71,1.62,6.94,9.44.04.27-.14.53-.42.57-.03,0-.05,0-.08,0Z"/><path class="cls-4" d="m223.39,243.41c-.24,0-.45-.18-.49-.42-1.13-7.15-6.01-8.57-6.22-8.63-.27-.07-.42-.35-.35-.61.07-.27.34-.42.61-.35.23.06,5.71,1.62,6.94,9.44.04.27-.14.53-.42.57-.03,0-.05,0-.08,0Z"/><path class="cls-4" d="m14.08,76.09s-.08,0-.12-.02c-.27-.07-.43-.34-.36-.61,3.59-14.04,13.47-17.48,13.89-17.62.26-.09.54.05.63.32.09.26-.05.54-.32.63-.1.03-9.78,3.43-13.24,16.92-.06.23-.26.38-.48.38Z"/><path class="cls-4" d="m8.88,70.09c-.07,0-.15-.02-.22-.05-.25-.12-.35-.42-.23-.67,4.06-8.31,9.56-12.67,13.47-14.87,4.25-2.39,7.5-2.79,7.63-2.81.26-.04.52.16.55.44.03.27-.16.52-.44.56-.13.02-12.79,1.71-20.32,17.12-.09.18-.26.28-.45.28Z"/><path class="cls-4" d="m4.35,66.21c-.07,0-.14-.01-.2-.04-.25-.11-.37-.41-.25-.66,8.61-19.37,24.13-21.98,24.29-22,.27-.04.53.14.57.42.04.27-.14.53-.42.57-.04,0-3.82.62-8.59,3.56-4.4,2.71-10.56,8.01-14.94,17.86-.08.19-.27.3-.46.3Z"/><path class="cls-5" d="m155.76,116.39c-.23,10.04-2.02,12.9-3.81,13.42-4.29,1.24-12.08-10.02-16.08-19.56-3.06-7.29-1.96-8.92-6.3-23.85-3.6-12.4-4.53-11.87-4.73-15.75-.38-7.82,3.28-12.1,14.85-29.48,14.08-21.15,15.01-24.37,22.05-29.93,3.36-2.65,16.04-12.65,23.19-8.33,2.43,1.47,3.61,4.22,4.21,6.76,0,0,45.94-6.85,55.93,9.99,1.49-1.04,3.59-2.13,6.12-2.21,10.38-.3,17.81,16.73,18.87,19.17,3.46,7.94.97,7.66,4.82,22.41,3.72,14.27,7.25,19.13,5.3,27.72-.41,1.79-1.84,4.61-4.7,10.17-7.01,13.63-10.65,20.6-17.54,28.12-1.68,1.84-5.35,5.67-10.78,9.66-4.17,3.07-14.59,10.73-17.84,8.3-3.9-2.92,3.93-19.46,6.32-24.34,0,0-35.67,38.76-54.79,24.8,0,0-16.84-6.25-25.11-27.08Z"/><path class="cls-4" d="m190.55,146.97c-3.78,0-7.11-1.01-9.92-3.05-1.14-.45-16.21-6.74-24.45-25.25-.37,7.12-1.72,10.93-4.09,11.62-4.84,1.39-12.81-10.62-16.68-19.84-1.62-3.87-2.09-6.16-2.8-9.63-.62-3.04-1.46-7.2-3.52-14.28-1.7-5.86-2.79-8.79-3.52-10.73-.8-2.14-1.12-3.02-1.23-5.14-.35-7.02,2.52-11.28,11.01-23.93,1.19-1.77,2.5-3.71,3.92-5.86,3.53-5.3,6.23-9.48,8.41-12.84,6.46-9.98,8.41-12.99,13.75-17.21,10.82-8.54,18.81-11.35,23.76-8.37,2.05,1.24,3.5,3.47,4.33,6.63,5.03-.7,45.59-5.84,55.7,9.84,1.95-1.27,3.95-1.94,5.96-2,.1,0,.19,0,.29,0,9.52,0,16.49,13.59,19.06,19.47,1.82,4.18,2.03,6.13,2.34,9.08.28,2.66.66,6.31,2.51,13.41,1.1,4.22,2.17,7.58,3.12,10.54,2.24,7.01,3.59,11.25,2.19,17.42-.41,1.82-1.75,4.47-4.75,10.29-6.79,13.22-10.54,20.5-17.61,28.23-3.25,3.55-6.9,6.82-10.85,9.73-7.37,5.41-15.32,10.63-18.43,8.3-3.33-2.49.49-12.9,4.84-22.18-3.33,3.34-10.18,9.88-18.16,15.48-9.69,6.81-18.2,10.25-25.17,10.25Zm-35.24-33.05l.91,2.29c4.23,10.64,10.75,17.36,15.47,21.12,5.13,4.08,9.31,5.66,9.35,5.68l.12.06c18.54,13.54,53.77-24.35,54.12-24.73l2.33-2.53-1.51,3.09c-6.41,13.09-8.83,21.96-6.47,23.72,2.95,2.2,13.7-5.71,17.24-8.3,3.9-2.87,7.51-6.1,10.71-9.6,6.7-7.32,10.2-13.88,17.46-28.02,2.74-5.34,4.26-8.28,4.66-10.05,1.34-5.9.02-10.04-2.17-16.89-.95-2.97-2.02-6.34-3.13-10.59-1.87-7.17-2.26-10.86-2.54-13.55-.3-2.86-.5-4.75-2.26-8.78-1.96-4.5-9.13-19.13-18.4-18.87-1.96.06-3.93.77-5.85,2.11l-.44.31-.27-.46c-5.04-8.5-19.79-10.71-31.28-11.06-12.55-.39-24.03,1.3-24.14,1.31l-.46.07-.1-.45c-.74-3.13-2.08-5.3-3.98-6.45-3.13-1.89-9.59-1.99-22.62,8.3-5.21,4.11-6.98,6.84-13.53,16.96-2.18,3.36-4.89,7.55-8.42,12.85-1.42,2.14-2.73,4.08-3.92,5.86-8.36,12.44-11.18,16.63-10.85,23.32.1,1.97.39,2.75,1.17,4.84.73,1.95,1.83,4.9,3.54,10.8,2.07,7.13,2.92,11.31,3.54,14.36.69,3.41,1.15,5.66,2.74,9.44,4.12,9.79,11.78,20.34,15.48,19.27,1.45-.42,3.23-3.01,3.45-12.95l.06-2.46Z"/><path class="cls-4" d="m155.26,116.41c-1.07-46.58,23.59-74.41,23.84-74.68l.74.67c-.25.27-24.64,27.83-23.58,73.99l-1,.02Z"/><path class="cls-4" d="m236.08,118.94l-.85-.53c11.9-18.95,13.26-36.19,12.3-47.31-1.04-12.06-4.94-19.74-4.98-19.82l.89-.46c.16.31,15.72,31.36-7.36,68.12Z"/><path class="cls-4" d="m180.07,112.07c.07,6.28,3.21,11.91,8.03,14.07,6.88,3.08,16.99-.98,20.69-10.69-1.44.1-4.56.12-7.96-1.54-2.92-1.42-4.7-3.42-5.56-4.54-1.35.64-2.94,1.27-4.77,1.77-4.15,1.14-7.82,1.16-10.43.93Z"/><path class="cls-3" d="m197.27,126.29s4.53-15.65-4.98-9.13c0,0-4.67-6.26-8.9,4.76,0,0,2.47,7.51,13.88,4.37"/><path class="cls-4" d="m192.15,127.55c-7.34,0-9.22-5.41-9.25-5.47l-.06-.17.06-.17c1.62-4.22,3.54-6.52,5.7-6.82,1.79-.25,3.17.95,3.76,1.58,2.3-1.49,3.97-1.82,5.12-.99,2.75,1.99.52,10.01.25,10.92l-.08.27-.27.07c-2,.55-3.74.78-5.25.78Zm-8.24-5.63c.43,1.05,3.18,6.53,12.94,3.96.89-3.2,1.64-8.41.04-9.56-.8-.58-2.3-.15-4.34,1.25l-.39.27-.29-.38s-1.37-1.79-3.14-1.55c-1.72.24-3.38,2.32-4.83,6.01Z"/><path class="cls-2" d="m192.28,117.16s-2.82,5.02-2.82,9.52"/><path class="cls-4" d="m189.96,126.68h-1c0-4.57,2.77-9.55,2.88-9.76l.87.49s-2.76,4.97-2.76,9.27Z"/><circle class="cls-1" cx="186.99" cy="72.17" r="11.9"/><path class="cls-4" d="m186.99,84.68c-6.9,0-12.51-5.61-12.51-12.51s5.61-12.51,12.51-12.51,12.51,5.61,12.51,12.51-5.61,12.51-12.51,12.51Zm0-23.79c-6.22,0-11.28,5.06-11.28,11.28s5.06,11.28,11.28,11.28,11.28-5.06,11.28-11.28-5.06-11.28-11.28-11.28Z"/><circle class="cls-1" cx="222.51" cy="79.25" r="11.9"/><path class="cls-4" d="m222.51,91.76c-6.9,0-12.51-5.61-12.51-12.51s5.61-12.51,12.51-12.51,12.51,5.61,12.51,12.51-5.61,12.51-12.51,12.51Zm0-23.79c-6.22,0-11.28,5.06-11.28,11.28s5.06,11.28,11.28,11.28,11.28-5.06,11.28-11.28-5.06-11.28-11.28-11.28Z"/><ellipse class="cls-4" cx="191.57" cy="54.08" rx="2.2" ry="6.27" transform="translate(121.59 240.43) rotate(-85.18)"/><path class="cls-4" d="m192.86,56.83c-.5,0-1-.02-1.52-.07-3.35-.28-6.67-1.49-6.52-3.25.05-.57.49-1.36,2.33-1.83,1.27-.33,2.92-.43,4.64-.28,1.72.15,3.33.52,4.53,1.05,1.74.78,2.04,1.63,1.99,2.2-.05.57-.49,1.36-2.33,1.83-.89.23-1.96.35-3.12.35Zm-2.59-4.5c-1.07,0-2.06.11-2.87.32-1.06.27-1.56.67-1.59.95-.06.69,2.1,1.88,5.61,2.17,1.61.13,3.14.05,4.31-.25,1.06-.27,1.56-.67,1.59-.95.02-.25-.33-.72-1.41-1.2-1.09-.49-2.59-.83-4.2-.97-.49-.04-.97-.06-1.44-.06Z"/><ellipse class="cls-4" cx="226.07" cy="60.9" rx="2.2" ry="6.27" transform="translate(87.11 249.33) rotate(-68.67)"/><path class="cls-4" d="m229.9,64.46c-1.39,0-3.15-.41-4.8-1.06-3.13-1.22-5.97-3.33-5.33-4.97h0c.64-1.65,4.15-1.27,7.29-.05,1.61.63,3.05,1.45,4.04,2.3,1.44,1.24,1.5,2.14,1.29,2.67-.3.78-1.25,1.1-2.48,1.1Zm-9.2-5.67h0c-.25.64,1.48,2.4,4.76,3.68,3.28,1.28,5.74,1.16,5.99.52.1-.26-.17-.84-1.01-1.55-.91-.78-2.25-1.54-3.75-2.13-3.28-1.28-5.74-1.17-5.99-.52Z"/><circle class="cls-4" cx="186.99" cy="72.17" r="7.67"/><path class="cls-4" d="m186.99,80.45c-4.57,0-8.29-3.72-8.29-8.29s3.72-8.29,8.29-8.29,8.29,3.72,8.29,8.29-3.72,8.29-8.29,8.29Zm0-15.35c-3.89,0-7.06,3.17-7.06,7.06s3.17,7.06,7.06,7.06,7.06-3.17,7.06-7.06-3.17-7.06-7.06-7.06Z"/><circle class="cls-4" cx="222.51" cy="79.25" r="7.67"/><path class="cls-4" d="m222.51,87.54c-4.57,0-8.29-3.72-8.29-8.29s3.72-8.29,8.29-8.29,8.29,3.72,8.29,8.29-3.72,8.29-8.29,8.29Zm0-15.35c-3.89,0-7.06,3.17-7.06,7.06s3.17,7.06,7.06,7.06,7.06-3.17,7.06-7.06-3.17-7.06-7.06-7.06Z"/><circle class="cls-1" cx="191.62" cy="67.53" r="2.63"/><path class="cls-4" d="m191.62,70.78c-1.79,0-3.25-1.46-3.25-3.24s1.46-3.25,3.25-3.25,3.24,1.46,3.24,3.25-1.46,3.24-3.24,3.24Zm0-5.26c-1.11,0-2.02.91-2.02,2.02s.91,2.02,2.02,2.02,2.02-.9,2.02-2.02-.9-2.02-2.02-2.02Z"/><circle class="cls-1" cx="228.1" cy="74.8" r="2.63"/><path class="cls-4" d="m228.1,78.04c-1.79,0-3.24-1.46-3.24-3.24s1.46-3.24,3.24-3.24,3.24,1.46,3.24,3.24-1.46,3.24-3.24,3.24Zm0-5.26c-1.11,0-2.02.9-2.02,2.02s.9,2.02,2.02,2.02,2.02-.9,2.02-2.02-.9-2.02-2.02-2.02Z"/><path class="cls-4" d="m190.62,96.28c1.12-2.91,5.49-3.35,6.23-3.43,4.64-.47,10.29,2.21,10.48,5.35.22,3.53-6.4,8.3-11.54,6.48-3.41-1.21-6.34-5.38-5.18-8.4Z"/><path class="cls-4" d="m198.23,105.59c-.87,0-1.74-.13-2.6-.44-2.14-.76-4.16-2.64-5.15-4.79-.7-1.53-.82-3-.33-4.26h0c1.11-2.88,5.02-3.58,6.65-3.75,3.18-.33,6.96.77,9.2,2.67,1.13.96,1.77,2.05,1.84,3.15.1,1.64-1.05,3.55-3.09,5.09-1.65,1.25-4.04,2.33-6.51,2.33Zm-7.14-9.13c-.49,1.27-.1,2.6.31,3.49.88,1.92,2.68,3.59,4.57,4.26,2.94,1.04,6.24-.29,8.17-1.75,1.75-1.32,2.78-2.94,2.7-4.23-.05-.82-.57-1.67-1.49-2.45-2.05-1.74-5.52-2.74-8.45-2.44-1.45.15-4.91.75-5.82,3.11h0Z"/><path class="cls-4" d="m183.06,112.86c-2.07,0-4.12-.34-5.93-1.26-2.83-1.44-4.63-4.09-5.34-7.88-.05-.27.13-.53.4-.58.27-.05.53.13.58.4.65,3.47,2.26,5.88,4.8,7.17,6.03,3.06,15.56-.93,17.21-1.67l.5-4.41c.03-.27.28-.47.55-.44.27.03.47.28.44.55l-.54,4.69c-.02.17-.13.32-.28.39-.34.16-6.43,3.04-12.42,3.04Z"/><path class="cls-4" d="m207.71,115.91c-4.39,0-9.03-1.51-12.83-6.23-.17-.21-.14-.53.08-.7.21-.17.53-.14.7.08,4.17,5.17,9.85,6.96,16.89,5.31,5.32-1.24,9.45-4.08,9.49-4.11.23-.16.54-.1.7.13.16.23.1.54-.13.7-.11.08-7.11,4.84-14.89,4.84Z"/><path class="cls-4" d="m192.27,127.65c-2.11,0-4.09-.47-5.78-1.39-4.27-2.33-6.99-7.91-6.92-14.2,0-.28.2-.46.5-.5.28,0,.5.23.5.5-.06,5.93,2.45,11.15,6.41,13.31,2.75,1.5,6.4,1.68,10.01.47,4.88-1.63,9.02-5.5,11.35-10.62.12-.25.41-.36.66-.25.25.11.36.41.25.66-2.45,5.38-6.8,9.44-11.95,11.16-1.69.56-3.39.84-5.02.84Z"/></svg>