<?xml version="1.0" encoding="UTF-8"?><svg id="Layer_66" xmlns="http://www.w3.org/2000/svg" width="370" height="430" viewBox="0 0 370 430"><defs><style>.cls-1{fill:#fff;}.cls-2{fill:#b40a00;}.cls-3{fill:#221f20;}</style></defs><rect class="cls-1" x="171.78" y="7.9" width="42.89" height="148.04" rx="3.76" ry="3.76"/><path d="m210.91,157.93h-35.36c-3.18,0-5.77-2.59-5.77-5.76V11.66c0-3.18,2.59-5.76,5.77-5.76h35.36c3.18,0,5.76,2.59,5.76,5.76v140.51c0,3.18-2.59,5.76-5.76,5.76ZM175.55,9.9c-.97,0-1.77.79-1.77,1.76v140.51c0,.97.79,1.76,1.77,1.76h35.36c.97,0,1.76-.79,1.76-1.76V11.66c0-.97-.79-1.76-1.76-1.76h-35.36Z"/><path class="cls-3" d="m210.91,156.43h-35.37c-2.35,0-4.26-1.91-4.26-4.26V11.66c0-2.35,1.91-4.26,4.26-4.26h35.37c2.35,0,4.26,1.91,4.26,4.26v140.51c0,2.35-1.91,4.26-4.26,4.26ZM175.54,8.4c-1.8,0-3.26,1.46-3.26,3.26v140.51c0,1.8,1.46,3.26,3.26,3.26h35.37c1.8,0,3.26-1.46,3.26-3.26V11.66c0-1.8-1.46-3.26-3.26-3.26h-35.37Z"/><path d="m210.91,158.43h-35.37c-3.45,0-6.26-2.81-6.26-6.26V11.66c0-3.45,2.81-6.26,6.26-6.26h35.37c3.45,0,6.26,2.81,6.26,6.26v140.51c0,3.45-2.81,6.26-6.26,6.26ZM175.54,10.4c-.7,0-1.26.57-1.26,1.26v140.51c0,.7.57,1.26,1.26,1.26h35.37c.7,0,1.26-.57,1.26-1.26V11.66c0-.7-.57-1.26-1.26-1.26h-35.37Z"/><path class="cls-2" d="m190.23,154.11s74.76-78.16,144.61-26.72c69.85,51.44-13.24,158.09-13.24,158.09l-120.8-85.88-10.57-45.49"/><path d="m322,288.22l-122.97-87.43-10.99-47.28.75-.78c.19-.2,19.26-19.96,46.69-33.07,36.59-17.49,71.36-15.37,100.55,6.12,15.97,11.76,25.39,27.33,28.01,46.28,2.08,15.12.7,40.79-17.73,77.26-10.97,21.71-23,37.24-23.12,37.39l-1.18,1.51Zm-119.42-89.81l118.59,84.31c7.18-9.75,45.26-64.05,38.9-110.13-2.46-17.83-11.35-32.5-26.42-43.59-28.33-20.86-60.78-22.79-96.45-5.74-23.75,11.36-41.04,27.77-44.78,31.47l10.15,43.67Z"/><path class="cls-3" d="m321.7,286.17l-.39-.28-120.95-85.99-10.68-45.94.19-.2c.19-.2,19.07-19.76,46.26-32.76,25.14-12.02,62.73-20.74,99.01,5.98,15.63,11.51,24.85,26.74,27.41,45.27,7.12,51.63-40.07,112.91-40.55,113.53l-.29.38Zm-120.45-86.86l120.25,85.49c3.98-5.26,46.83-63.3,40.06-112.4-2.52-18.25-11.61-33.25-27.01-44.6-35.87-26.42-73.07-17.79-97.96-5.9-25.59,12.23-43.77,30.3-45.8,32.37l10.47,45.04Z"/><path d="m322.1,288.9l-1.95-1.38-121.57-86.43-11.09-47.73.93-.98c.19-.2,19.28-20,46.84-33.18,25.64-12.26,63.98-21.14,101.06,6.17,16.08,11.85,25.57,27.53,28.21,46.61,7.23,52.43-40.47,114.41-40.96,115.03l-1.47,1.89Zm-119.08-90.79l118.03,83.92c3.74-5.1,13.68-19.33,22.7-37.87,13.27-27.29,18.6-51.34,15.82-71.49-2.44-17.69-11.26-32.25-26.22-43.26-35.07-25.83-71.52-17.36-95.91-5.7-23.27,11.12-40.35,27.14-44.47,31.19l10.05,43.22Z"/><path class="cls-1" d="m190.23,154.11s-59.72-97.18-148.27-33.84c-88.54,63.34,16.9,165.21,16.9,165.21l99.35-78.03,32.02-53.34Z"/><path d="m58.72,288.13l-1.25-1.21c-.14-.14-14.33-13.93-27.81-34.15-12.51-18.76-26.98-47.09-24.89-75.5,1.7-23,13.82-42.72,36.03-58.62,25.87-18.51,51.88-25.29,77.31-20.15,45.48,9.19,72.69,52.72,73.83,54.57l.64,1.03-32.84,54.7-101.01,79.33Zm42.88-187.29c-19.28,0-38.89,7.05-58.47,21.06-21.2,15.17-32.76,33.89-34.37,55.64-3.54,47.92,42.12,96.94,50.26,105.26l97.66-76.7,31.19-51.96c-4.39-6.61-30.57-43.67-70.59-51.74-5.2-1.05-10.43-1.57-15.69-1.57Z"/><path class="cls-3" d="m58.82,286.14l-.31-.3c-.56-.54-56.19-54.95-52.25-108.47,1.66-22.54,13.58-41.89,35.41-57.5,25.52-18.26,51.14-24.95,76.14-19.9,44.85,9.06,72.57,53.44,72.85,53.88l.16.26-32.3,53.74-99.69,78.3Zm42.76-186.81c-19.59,0-39.48,7.14-59.33,21.34-21.58,15.44-33.35,34.54-34.99,56.77-3.76,50.98,47.15,102.9,51.64,107.37l98.93-77.7,31.82-53c-2.33-3.64-29.39-44.56-72.04-53.17-5.31-1.07-10.65-1.61-16.02-1.61Z"/><path d="m58.69,288.79l-1.57-1.51c-.57-.55-56.87-55.57-52.85-110.05,1.71-23.16,13.9-43,36.24-58.98,25.99-18.59,52.13-25.4,77.7-20.24,45.74,9.24,73.88,54.34,74.16,54.8l.8,1.29-33.12,55.1-101.35,79.6Zm42.9-187.46c-19.15,0-38.72,7.06-58.17,20.97-21.08,15.08-32.57,33.68-34.16,55.29-1.54,20.88,6,44.4,22.41,69.9,11.22,17.42,23.09,30.22,27.4,34.65l97.23-76.37,30.98-51.61c-5.1-7.64-30.74-43.32-70.08-51.26-5.15-1.04-10.41-1.57-15.62-1.57Z"/><rect class="cls-1" x="97.33" y="192.59" width="185.79" height="185.79" transform="translate(257.58 -50.9) rotate(45)"/><path d="m190.23,419.68L56.03,285.48l134.2-134.2,134.2,134.2-134.2,134.2ZM61.69,285.48l128.54,128.54,128.54-128.54-128.54-128.54L61.69,285.48Z"/><path class="cls-3" d="m190.23,417.56L58.15,285.48l132.08-132.08,132.08,132.08-132.08,132.08ZM59.57,285.48l130.66,130.66,130.66-130.66-130.66-130.66L59.57,285.48Z"/><path d="m190.23,420.39L55.32,285.48l134.9-134.91,134.91,134.91-134.91,134.91Zm-127.83-134.91l127.83,127.83,127.84-127.83-127.84-127.83-127.83,127.83Z"/><rect class="cls-2" x="159.17" y="166.76" width="61.82" height="61.82" transform="translate(195.45 -76.51) rotate(45)"/><path d="m190.08,244.21l-46.54-46.54,46.54-46.54,46.54,46.54-46.54,46.54Zm-40.88-46.54l40.88,40.89,40.88-40.89-40.88-40.88-40.88,40.88Z"/><path class="cls-3" d="m190.08,242.09l-44.42-44.42,44.42-44.42,44.42,44.42-44.42,44.42Zm-43.01-44.42l43.01,43.01,43.01-43.01-43.01-43.01-43.01,43.01Z"/><path d="m190.08,244.92l-47.25-47.25,47.25-47.25,47.25,47.25-47.25,47.25Zm-40.18-47.25l40.18,40.18,40.18-40.18-40.18-40.18-40.18,40.18Z"/><rect class="cls-2" x="159.17" y="254.42" width="61.82" height="61.82" transform="translate(257.43 -50.83) rotate(45)"/><path d="m190.08,331.87l-46.54-46.54,46.54-46.54,46.54,46.54-46.54,46.54Zm-40.88-46.54l40.88,40.88,40.88-40.88-40.88-40.89-40.88,40.89Z"/><path class="cls-3" d="m190.08,329.75l-44.42-44.42,44.42-44.42,44.42,44.42-44.42,44.42Zm-43.01-44.42l43.01,43.01,43.01-43.01-43.01-43.01-43.01,43.01Z"/><path d="m190.08,332.58l-47.25-47.25,47.25-47.25,47.25,47.25-47.25,47.25Zm-40.18-47.25l40.18,40.18,40.18-40.18-40.18-40.18-40.18,40.18Z"/><rect class="cls-2" x="246.97" y="254.57" width="61.82" height="61.82" transform="translate(283.26 -112.88) rotate(45)"/><path d="m277.88,332.02l-46.54-46.54,46.54-46.54,46.54,46.54-46.54,46.54Zm-40.88-46.54l40.88,40.88,40.88-40.88-40.88-40.89-40.88,40.89Z"/><path class="cls-3" d="m277.88,329.9l-44.42-44.42,44.42-44.42,44.42,44.42-44.42,44.42Zm-43.01-44.42l43.01,43.01,43.01-43.01-43.01-43.01-43.01,43.01Z"/><path d="m277.88,332.73l-47.25-47.25,47.25-47.25,47.25,47.25-47.25,47.25Zm-40.18-47.25l40.18,40.18,40.18-40.18-40.18-40.18-40.18,40.18Z"/><rect class="cls-2" x="71.36" y="254.57" width="61.82" height="61.82" transform="translate(231.82 11.3) rotate(45)"/><path d="m102.27,332.02l-46.54-46.54,46.54-46.54,46.54,46.54-46.54,46.54Zm-40.88-46.54l40.88,40.88,40.88-40.88-40.88-40.89-40.88,40.89Z"/><path class="cls-3" d="m102.27,329.9l-44.42-44.42,44.42-44.42,44.42,44.42-44.42,44.42Zm-43.01-44.42l43.01,43.01,43.01-43.01-43.01-43.01-43.01,43.01Z"/><path d="m102.27,332.73l-47.25-47.25,47.25-47.25,47.25,47.25-47.25,47.25Zm-40.18-47.25l40.18,40.18,40.18-40.18-40.18-40.18-40.18,40.18Z"/><rect class="cls-2" x="159.32" y="342.23" width="61.82" height="61.82" transform="translate(319.56 -25.22) rotate(45)"/><path d="m190.23,419.68l-46.54-46.54,46.54-46.54,46.54,46.54-46.54,46.54Zm-40.88-46.54l40.88,40.89,40.88-40.89-40.88-40.89-40.88,40.89Z"/><path class="cls-3" d="m190.23,417.56l-44.42-44.42,44.42-44.42,44.42,44.42-44.42,44.42Zm-43.01-44.42l43.01,43.01,43.01-43.01-43.01-43.01-43.01,43.01Z"/><path d="m190.23,420.39l-47.25-47.25,47.25-47.25,47.25,47.25-47.25,47.25Zm-40.18-47.25l40.18,40.18,40.18-40.18-40.18-40.18-40.18,40.18Z"/></svg>