<?xml version="1.0" encoding="UTF-8"?><svg id="assets" xmlns="http://www.w3.org/2000/svg" width="1600" height="700" viewBox="0 0 1600 700"><defs><style>.cls-1{fill:#fff;}.cls-2{fill:#b40a00;}.cls-3{fill:silver;}.cls-4{fill:#3b0a00;}.cls-5{fill:#5e110c;}</style></defs><path class="cls-3" d="m157.44,296.77l-2.14-13.38c-.28-1.76-1.81-3.06-3.61-3.06h-5.18c5.87-2.49,10-8.3,10-15.07,0-9.01-7.34-16.36-16.37-16.36s-16.36,7.34-16.36,16.36c0,6.77,4.13,12.59,10,15.07h-4.68c-1.75,0-3.25,1.22-3.59,2.93l-2.65,13.38c-.44,2.24,1.3,4.33,3.59,4.33h27.38c2.25,0,3.96-1.99,3.61-4.2Zm-31.07-31.51c0-7.99,7.15-13.1,12.48-13.71.56-.06,1-.07,1.29-.06,5.51.13,13.78,5.06,13.78,13.77,0,7.6-6.18,13.78-13.78,13.78s-13.77-6.18-13.77-13.78Z"/><circle class="cls-2" cx="140.14" cy="429.64" r="130.51"/><path d="m140.34,255.17s-.08,0-.12,0c-2.72-.08-5.11-2.85-7.3-8.47v-.03c-38.39-106.71-41.68-186.29-8.62-207.7,8.32-5.39,21.17-8.61,31.11-3.68,18.13,8.99,21.76,42.37,21.61,68.79-.17,29.89-5.24,67.58-13.56,100.83-3.79,15.14-13.61,50.26-23.12,50.26Zm-4.99-9.39c2.37,6.08,4.26,6.78,4.96,6.8.02,0,.03,0,.05,0,4.11,0,12.28-15.07,20.6-48.3,15.1-60.34,23.01-151.94-6.69-166.67-9.03-4.48-20.84-1.45-28.55,3.53-15.85,10.27-23.18,35.22-21.18,72.17,1.95,36.02,12.6,81.82,30.81,132.47Z"/><path class="cls-3" d="m141.47,248.99c-.47-.04-.94-.08-1.42-.08-2.8,0-5.44.72-7.75,1.97.87.52,1.57,1.23,2.09,2.06,1.48-.74,2.98-1.22,4.37-1.37.56-.06,1-.07,1.29-.06.55.01,1.14.08,1.73.2-.27-.87-.37-1.79-.31-2.7Z"/><path class="cls-1" d="m37.32,395.5c-2.72,3.88-11.49,20.36-5.83,48.8.64,3.21,6.49,31.2,21.6,39.19,1.72.91,6.7,3.54,9.23,1.6,1.87-1.44,1.64-4.79,1.2-7.62-1.79-11.72-7.64-18.49-11.63-26.87-.28-.58-5.04-10.8-5.62-23.26-.91-19.59,9.03-33.65,4.01-37.3-1.49-1.08-3.77-.86-4.41-.8-4.45.43-7.34,4.54-8.55,6.26Z"/><path class="cls-3" d="m555.54,294.93l-2.15-13.47c-.29-1.77-1.83-3.08-3.64-3.08h-5.22c5.91-2.5,10.07-8.36,10.07-15.18,0-9.08-7.39-16.47-16.48-16.47s-16.47,7.39-16.47,16.47c0,6.82,4.16,12.68,10.07,15.18h-4.71c-1.76,0-3.27,1.23-3.61,2.95l-2.67,13.47c-.44,2.26,1.3,4.36,3.61,4.36h27.57c2.27,0,3.99-2.01,3.64-4.23Zm-31.29-31.73c0-8.04,7.2-13.19,12.57-13.8.56-.06,1-.07,1.29-.06,5.55.13,13.88,5.1,13.88,13.86,0,7.66-6.22,13.88-13.88,13.88s-13.86-6.22-13.86-13.88Z"/><circle class="cls-2" cx="538.12" cy="428.73" r="131.42"/><path d="m538.32,253.04s-.08,0-.12,0c-2.74-.08-5.14-2.87-7.35-8.53v-.03c-38.65-107.45-41.98-187.59-8.68-209.15,8.38-5.42,21.31-8.67,31.32-3.71,18.26,9.05,21.91,42.67,21.76,69.27-.17,30.09-5.27,68.05-13.65,101.54-3.82,15.25-13.7,50.61-23.28,50.61Zm-5.03-9.46c2.39,6.12,4.29,6.83,4.99,6.85.02,0,.03,0,.05,0,4.14,0,12.37-15.18,20.74-48.64,15.21-60.76,23.17-153.01-6.74-167.84-9.09-4.51-20.99-1.46-28.75,3.56-15.97,10.34-23.34,35.47-21.33,72.67,1.96,36.27,12.69,82.4,31.03,133.39Z"/><path class="cls-3" d="m539.46,246.81c-.47-.04-.95-.08-1.43-.08-2.82,0-5.48.72-7.8,1.98.87.52,1.58,1.24,2.1,2.07,1.49-.75,3.01-1.22,4.4-1.38.56-.06,1-.07,1.29-.06.56.01,1.14.08,1.75.2-.27-.87-.38-1.8-.31-2.72Z"/><path class="cls-1" d="m434.58,394.35c-2.74,3.9-11.57,20.5-5.87,49.14.64,3.23,6.53,31.42,21.75,39.47,1.73.92,6.75,3.57,9.29,1.62,1.88-1.45,1.65-4.82,1.21-7.67-1.81-11.8-7.69-18.62-11.71-27.06-.28-.58-5.07-10.87-5.65-23.43-.91-19.73,9.09-33.89,4.04-37.56-1.5-1.09-3.79-.87-4.44-.81-4.48.43-7.39,4.57-8.61,6.31Z"/><path class="cls-3" d="m439.55,304.61c-.38,0-.71-.26-.8-.63l-6.13-26.73-27.77-3.52c-.39-.05-.69-.37-.71-.77-.02-.4.25-.75.64-.84l27.83-5.94,6.52-29.05c.09-.38.41-.64.8-.64h0c.39,0,.71.27.79.65l5.95,29.02,26.22,4.62c.08,0,.25,0,.39,0,.33,0,1-.03,1.07.67l.07.7-.69.12-27.26,4.77-6.13,26.95c-.08.37-.41.63-.79.64h0Zm-.67-.97s0,0,0,0h0Zm-33.84-31.4h0s0,0,0,0Zm34.21-34.78s0,0,0,0h0Z"/><path class="cls-3" d="m567.71,413.56c-.38,0-.71-.26-.8-.63l-6.13-26.73-27.77-3.52c-.39-.05-.69-.37-.71-.77-.02-.4.25-.75.64-.84l27.83-5.94,6.52-29.05c.09-.38.41-.64.8-.64h0c.39,0,.71.27.79.65l5.95,29.02,26.22,4.62c.08,0,.25,0,.39,0,.33,0,1-.03,1.07.67l.07.7-.69.12-27.26,4.77-6.13,26.95c-.08.37-.41.63-.79.64h0Zm-.67-.97s0,0,0,0h0Zm-33.84-31.4h0s0,0,0,0Zm34.21-34.78s0,0,0,0h0Z"/><path class="cls-3" d="m636.83,333.21c-.38,0-.71-.26-.8-.63l-6.13-26.73-27.77-3.52c-.39-.05-.69-.37-.71-.77-.02-.4.25-.75.64-.84l27.83-5.94,6.52-29.05c.09-.38.41-.64.8-.64h0c.39,0,.71.27.79.65l5.95,29.02,26.22,4.62c.08,0,.25,0,.39,0,.33,0,1-.03,1.07.67l.07.7-.69.12-27.26,4.77-6.13,26.95c-.08.37-.41.63-.79.64h0Zm-.67-.97s0,0,0,0h0Zm-33.84-31.4h0s0,0,0,0Zm34.21-34.78s0,0,0,0h0Z"/><path class="cls-3" d="m626.09,567.05c-.38,0-.71-.26-.8-.63l-6.13-26.73-27.77-3.52c-.39-.05-.69-.37-.71-.77-.02-.4.25-.75.64-.84l27.83-5.94,6.52-29.05c.09-.38.41-.64.8-.64h0c.39,0,.71.27.79.65l5.95,29.02,26.22,4.62c.08,0,.25,0,.39,0,.33,0,1-.03,1.07.67l.07.7-.69.12-27.26,4.77-6.13,26.95c-.08.37-.41.63-.79.64h0Zm-.67-.97s0,0,0,0h0Zm-33.84-31.4h0s0,0,0,0Zm34.21-34.78s0,0,0,0h0Z"/><path class="cls-3" d="m965.18,298.41l-2.21-13.85c-.29-1.82-1.88-3.16-3.74-3.16h-5.36c6.07-2.57,10.35-8.59,10.35-15.61,0-9.33-7.6-16.93-16.95-16.93s-16.93,7.6-16.93,16.93c0,7.01,4.28,13.03,10.35,15.61h-4.84c-1.81,0-3.37,1.26-3.71,3.03l-2.75,13.85c-.46,2.32,1.34,4.48,3.71,4.48h28.34c2.33,0,4.1-2.06,3.74-4.34Zm-32.16-32.62c0-8.27,7.41-13.56,12.92-14.19.58-.07,1.03-.07,1.33-.06,5.71.13,14.27,5.24,14.27,14.25,0,7.87-6.4,14.27-14.27,14.27s-14.25-6.4-14.25-14.27Z"/><circle class="cls-5" cx="947.28" cy="435.96" r="135.11"/><path d="m947.49,255.34s-.08,0-.12,0c-2.81-.09-5.29-2.95-7.55-8.77v-.03c-39.74-110.47-43.15-192.85-8.93-215.02,8.61-5.57,21.91-8.92,32.2-3.81,18.77,9.31,22.53,43.86,22.37,71.21-.17,30.94-5.42,69.96-14.04,104.38-3.92,15.68-14.09,52.03-23.94,52.03Zm-5.17-9.72c2.46,6.29,4.41,7.02,5.13,7.04.02,0,.03,0,.05,0,4.26,0,12.72-15.6,21.32-50,15.63-62.47,23.82-157.3-6.92-172.54-9.35-4.64-21.58-1.5-29.55,3.66-16.41,10.63-24,36.46-21.93,74.71,2.02,37.29,13.05,84.71,31.9,137.13Z"/><path class="cls-1" d="m840.83,400.61c-2.82,4.01-11.9,21.08-6.04,50.52.66,3.32,6.72,32.3,22.36,40.57,1.78.94,6.93,3.67,9.55,1.66,1.94-1.49,1.69-4.96,1.25-7.89-1.86-12.13-7.9-19.14-12.04-27.82-.29-.6-5.21-11.18-5.81-24.08-.94-20.28,9.35-34.84,4.15-38.62-1.54-1.12-3.9-.89-4.57-.83-4.61.44-7.59,4.7-8.85,6.48Z"/><path class="cls-4" d="m1062.26,364.81c-.65.28-34.64,14.67-50.99,21.59l27.86,37.15-35.16,19.84,27.86,22.62-33.83,13.93c18.52,12.78,37.04,25.56,55.55,38.34,7.74-9.84,24.21-33.56,28.04-68.2,4.76-43.12-13.15-75.2-19.33-85.27Z"/><path class="cls-5" d="m1049.52,558.81l37.73,55.97s31.16-12.75,50.99-53.27l-21.28-8.34-8.57-31.86-39.98,5.64,17.69,31.23-36.59.63Z"/><path class="cls-5" d="m1167.9,524.57c-2.63,1.73-5.47,3.47-8.54,5.18-6.03,3.35-11.8,5.93-17.07,7.93-3.47-6.78-6.94-13.56-10.42-20.35l36.02,7.24Z"/><polygon class="cls-5" points="1120.92 641.35 1156.05 630.58 1120.44 623 1120.92 641.35"/><polygon class="cls-5" points="1055.28 640.47 1076.62 637.87 1075.68 649.63 1089.43 652.69 1081.31 664.17 1060.37 663.54 1055.28 640.47"/><path class="cls-5" d="m1178.74,606.54l-8.84-10.9-6.19,11.56-10.81-4.46,9.11-10.59-6.88-14.74c4.53,1.68,9.74,3.98,15.32,7.11,4.82,2.7,8.97,5.5,12.46,8.13l-4.17,13.89Z"/><path class="cls-5" d="m1088.72,495.53l35.49-22.11s-4.94,21.56-9.2,27.01l-15.5,5.6-10.79-10.5Z"/><polygon class="cls-5" points="1139.83 682.5 1130.42 667.67 1146.07 657.15 1139.83 682.5"/><polygon class="cls-5" points="1004.66 642.61 1008.42 627.36 983.77 637.8 996.09 648.37 1004.66 642.61"/><polygon class="cls-5" points="1038.16 613.54 1017.31 608.33 1022.73 571.07 1049.21 581.88 1050.41 598.07 1042.04 596.41 1038.16 613.54"/><polygon class="cls-5" points="1342.05 286.41 1336.45 328.46 1359.48 367.9 1342.05 286.41"/><polygon class="cls-5" points="1264.87 308.51 1243.95 327.66 1239.69 292.13 1264.87 308.51"/><path class="cls-3" d="m1429.25,262.05l-1.82-13.76c-.24-1.81-1.77-3.18-3.62-3.23l-5.31-.14c6.08-2.38,10.47-8.23,10.66-15.16.25-9.23-7.07-16.95-16.31-17.2s-16.95,7.07-17.2,16.3c-.19,6.94,3.88,13.01,9.82,15.71l-4.79-.13c-1.79-.05-3.36,1.16-3.75,2.9l-3.09,13.63c-.51,2.28,1.21,4.47,3.55,4.53l28.04.76c2.31.06,4.11-1.93,3.82-4.2Zm-30.95-33.13c.22-8.18,7.69-13.22,13.16-13.69.57-.05,1.02-.04,1.32-.03,5.64.28,13.97,5.57,13.73,14.48-.21,7.79-6.71,13.94-14.49,13.73-7.77-.21-13.93-6.71-13.72-14.49Z"/><path d="m1409.83,223.57s-.06-.06-.08-.08c-1.95-1.99-1.75-5.73.62-11.43v-.03c47.37-106.08,101.41-167.23,141.03-159.59,9.97,1.92,21.75,8.66,25.6,19.35,7.02,19.51-13.99,46.75-32.84,66.17-21.33,21.97-51.82,46.22-81.57,64.89-13.55,8.5-45.72,27.48-52.75,20.73Zm2.98-10.48c-2.56,6.17-1.67,8.03-1.17,8.54.01.01.02.02.04.04,3.04,2.92,19.77-2.42,49.49-21.07,53.98-33.87,124.82-95.95,113.32-127.91-3.5-9.72-14.37-15.86-23.6-17.65-19-3.66-42.12,9.58-66.86,38.3-24.12,28-48.75,69.41-71.23,119.75Z"/><path class="cls-3" d="m1414.22,212.67c-.48-.06-.96-.11-1.46-.12-2.87-.08-5.59.58-7.99,1.8.87.55,1.57,1.3,2.08,2.16,1.53-.72,3.09-1.16,4.52-1.29.57-.05,1.02-.04,1.32-.03.57.03,1.16.12,1.77.25-.25-.9-.33-1.84-.24-2.78Z"/><path class="cls-5" d="m1487.07,462.36l56.89,32.7s21.74-24.47,21.7-68.32l-22.14,1.83-21.11-24.14-32.48,22.03,28.81,19.68-31.66,16.21Z"/><path class="cls-5" d="m1555.98,377.6c-1.55,2.64-3.29,5.37-5.24,8.17-3.83,5.51-7.76,10.23-11.5,14.23-5.93-4.43-11.87-8.87-17.8-13.3l34.54-9.1Z"/><polygon class="cls-5" points="1557.48 504.44 1584 479.57 1549.06 488.34 1557.48 504.44"/><polygon class="cls-5" points="1515.62 511.82 1533.44 500.22 1537.73 511.08 1551.28 507.8 1549.07 521.55 1530.19 530.11 1515.62 511.82"/><path class="cls-5" d="m1582.5,409.23l-12.6-5.84-.47,12.97-11.55.75,3.48-13.38-12.54-10.09c4.76-.48,10.38-.71,16.71-.36,5.46.3,10.37.98,14.61,1.79l2.35,14.16Z"/><path class="cls-5" d="m1508.79,365.64l21.51-34.49s4.92,20.93,3.54,27.51l-11.13,11.52-13.91-4.55Z"/><polygon class="cls-5" points="1563.39 648.21 1548.57 639.13 1557.89 622.96 1563.39 648.21"/><polygon class="cls-5" points="1520.15 591.96 1516.85 576.77 1499.49 596.79 1515.05 600.81 1520.15 591.96"/><polygon class="cls-5" points="1494.38 506.25 1473.58 510.71 1462.16 475.24 1490.4 473.3 1498.52 487.17 1490.36 489.34 1494.38 506.25"/><path class="cls-5" d="m1470.02,350.67l-3.58,33.94-4.1,38.88c6.57-1.01,15.22-3,24.77-7.12,9.81-4.23,17.36-9.32,22.66-13.5-13.25-17.4-26.51-34.8-39.76-52.2Z"/><path class="cls-5" d="m1467.78,592.47l-3.4-55.44,24.61,31.28c-1.85,2.86-3.97,5.86-6.42,8.93-5,6.26-10.13,11.28-14.79,15.23Z"/><polygon class="cls-5" points="1457.39 457.55 1475.83 452.6 1476.68 466.51 1457.39 457.55"/><polygon class="cls-5" points="1290.83 600.26 1293.54 632.62 1312.31 627.57 1290.83 600.26"/><polygon class="cls-5" points="1440.72 485.27 1438.01 452.91 1462 425.79 1427.39 417.83 1399.91 442.17 1440.72 485.27"/><polygon class="cls-5" points="1416.61 361.74 1435.24 386.56 1408.25 410.46 1416.61 361.74"/><polygon class="cls-5" points="1464.52 339.44 1442.32 371.81 1423.69 346.99 1403.75 337.76 1424.3 318.94 1464.52 339.44"/><polygon class="cls-5" points="1296.68 566.15 1279.79 536.88 1300.09 546.28 1296.68 566.15"/><polygon class="cls-5" points="1392.26 395.99 1347.92 373.03 1382.29 349.42 1392.26 395.99"/><path class="cls-5" d="m1380.92,304.22l-24.63,17.37,25.19,16.38,35.9-41.4c-5.27-3.41-11.82-7.08-19.62-10.33-9.72-4.05-18.62-6.29-25.84-7.57,3,8.52,6,17.03,8.99,25.55Z"/><path class="cls-5" d="m1267.71,469.04l41.7-35.49,10.89,33.7,19.22,1.44-3.51,36.34,22.21,1.79,13.61,36.12c-12.94-1.62-42.77-7.19-70.46-30.58-18.18-15.37-28.32-32.41-33.65-43.32Z"/><path class="cls-5" d="m1361.46,462.28l-10.26,35.03,21.48,5.92,6.6,38.03c7.44,2.62,17.65,5.38,30.02,6.33,11.31.88,21.02-.02,28.39-1.24-18.56-29.9-37.12-59.81-55.68-89.71l-20.55,5.63Z"/><polygon class="cls-5" points="1236.7 473.6 1245.69 499.15 1221.06 516.52 1236.7 473.6"/><path class="cls-5" d="m1283.87,376.53l18.68-8.93,47.83,11.3-67.45-48.94c-1.17,6.38-2.09,14.41-1.88,23.67.21,8.96,1.42,16.71,2.82,22.9Z"/><path class="cls-5" d="m1278.35,436.77l-10.19-58.84c-6.71,4.23-14.9,10.23-23.2,18.53-8.44,8.44-14.5,16.77-18.75,23.57,17.38,5.58,34.76,11.16,52.14,16.74Z"/><polygon class="cls-5" points="1339.49 411.38 1350.38 445.08 1369.6 446.52 1388.73 437.14 1364.52 394.13 1356.47 414.43 1339.49 411.38"/><polygon class="cls-5" points="1320.57 421.42 1303.58 418.37 1289.09 388.8 1328.61 401.12 1320.57 421.42"/><path class="cls-5" d="m1461.46,281.26c-.1-.89-12.09,23.15-12.09,23.15l37.93,3.9-25.84-27.06Z"/><polygon class="cls-5" points="1486.6 324.88 1493.28 366.22 1521.44 306.75 1486.6 324.88"/><polygon class="cls-5" points="1537.15 259.83 1543.21 235.08 1551.82 252.63 1537.15 259.83"/><polygon class="cls-5" points="1307.54 235.7 1307.07 203.05 1320.32 222.43 1307.54 235.7"/><polygon class="cls-5" points="1309.07 307.78 1294.48 284.27 1317.48 280.9 1309.07 307.78"/><polygon class="cls-5" points="1217.58 343.44 1205.53 318.86 1223.16 327.87 1217.58 343.44"/><polygon class="cls-5" points="1232.45 453.89 1202.25 442.34 1218.31 439.15 1232.45 453.89"/></svg>