<?xml version="1.0" encoding="UTF-8"?><svg id="Layer_67" xmlns="http://www.w3.org/2000/svg" width="370" height="430" viewBox="0 0 370 430"><defs><style>.cls-1{fill:#fff;}.cls-2{fill:#b40a00;}.cls-3{fill:#221f20;}</style></defs><path class="cls-1" d="m215.8,14.19v122.98c-.17.12-.33.24-.5.35V14.19c0-1.8-1.47-3.27-3.27-3.27h-35.36c-1.8,0-3.27,1.47-3.27,3.27v121.21c-.16-.16-.33-.33-.5-.51V14.19c0-2.08,1.69-3.77,3.77-3.77h35.36c2.08,0,3.77,1.69,3.77,3.77Z"/><path class="cls-3" d="m212.03,9.92h-35.36c-2.35,0-4.27,1.92-4.27,4.27v120.21c.17.16.34.33.5.49.17.18.34.35.5.51V14.19c0-1.8,1.47-3.27,3.27-3.27h35.36c1.8,0,3.27,1.47,3.27,3.27v123.33c.17-.11.33-.23.5-.35.16-.11.33-.22.5-.34V14.19c0-2.35-1.91-4.27-4.27-4.27Z"/><path class="cls-2" d="m323.03,287.61c-.2.26-.31.4-.31.4l-2.42-1.72-2.14-2.14,2.42,1.72,2.04,1.45s.03-.05.05-.07c4.29-5.67,46.75-63.44,40.01-112.33-2.52-18.24-11.61-33.25-27.02-44.6-35.87-26.42-73.07-17.79-97.96-5.89-7.93,3.79-15.15,8.14-21.4,12.4-.17.12-.34.23-.5.34-.17.12-.33.24-.5.35v-.62c.16-.12.33-.23.5-.34.17-.12.33-.23.5-.34,27.79-18.86,74.74-39.38,119.66-6.3,67.36,49.6-7.51,150.55-12.93,157.69Z"/><path class="cls-3" d="m363.67,174.79c-2.56-18.53-11.78-33.76-27.41-45.27-36.28-26.72-73.87-18-99.01-5.98-7.74,3.7-14.8,7.93-20.95,12.09-.17.12-.34.23-.5.35-.17.1-.33.22-.5.34v1.2c.17-.11.33-.23.5-.35.16-.11.33-.22.5-.34,6.25-4.26,13.47-8.61,21.4-12.4,24.89-11.9,62.09-20.53,97.96,5.89,15.41,11.35,24.5,26.36,27.02,44.6,6.74,48.89-35.72,106.66-40.01,112.33-.02.02-.03.05-.05.07l-2.04-1.45-2.42-1.72,2.14,2.14,1.72,1.72-.07.07.41.29.07.05.35.24.04.03.3-.37.03-.03c.04-.06.12-.16.24-.32,3.82-5.07,47.12-63.58,40.28-113.18Z"/><path class="cls-1" d="m172.9,134.11c-.16-.17-.33-.34-.5-.5-24.3-24.07-70.43-52.93-129.31-10.81-85.55,61.2,9.97,158.36,16.54,164.86.23.23.35.35.35.35l3.31-2.6,2.97-2.97-3.31,2.6-2.93,2.3s-.02-.02-.04-.04c-4.72-4.69-55.35-56.48-51.6-107.32,1.64-22.23,13.42-41.33,35-56.77,19.85-14.2,39.74-21.34,59.33-21.34,5.36,0,10.7.53,16.02,1.6,22.82,4.61,41.18,18.47,53.67,30.93.17.16.34.33.5.49.17.18.34.35.5.51v-.8c-.17-.16-.33-.33-.5-.49Z"/><path class="cls-3" d="m172.9,133.49c-.16-.16-.33-.33-.5-.49-12.58-12.38-30.85-25.93-53.47-30.51-25-5.05-50.61,1.65-76.14,19.91-21.83,15.62-33.74,34.96-35.4,57.5-3.83,51.92,48.4,104.67,52.05,108.28l.13.13.22.21.16.15.39-.3.39-.32-.04-.04,5.57-5.57-3.31,2.6-2.93,2.3s-.02-.02-.04-.04c-4.72-4.69-55.35-56.48-51.6-107.32,1.64-22.23,13.42-41.33,35-56.77,19.85-14.2,39.74-21.34,59.33-21.34,5.36,0,10.7.53,16.02,1.6,22.82,4.61,41.18,18.47,53.67,30.93.17.16.34.33.5.49.17.18.34.35.5.51v-1.41c-.16-.17-.33-.33-.5-.5Z"/><path class="cls-3" d="m322.67,287.25s-.03.05-.05.07l-2.04-1.45-2.42-1.72,2.14,2.14,1.72,1.72-.07.07-130.6,130.59L60.73,288.05l-.04-.04,5.57-5.57-3.31,2.6-2.93,2.3s-.02-.02-.04-.04c-4.72-4.69-55.35-56.48-51.6-107.32,1.64-22.23,13.42-41.33,35-56.77,19.85-14.2,39.74-21.34,59.33-21.34,5.36,0,10.7.53,16.02,1.6,22.82,4.61,41.18,18.47,53.67,30.93.17.16.34.33.5.49.17.18.34.35.5.51V14.19c0-1.8,1.47-3.27,3.27-3.27h35.36c1.8,0,3.27,1.47,3.27,3.27v123.33c.17-.11.33-.23.5-.35.16-.11.33-.22.5-.34,6.25-4.26,13.47-8.61,21.4-12.4,24.89-11.9,62.09-20.53,97.96,5.89,15.41,11.35,24.5,26.36,27.02,44.6,6.74,48.89-35.72,106.66-40.01,112.33Z"/><path class="cls-3" d="m191.35,419.37L60.02,288.05l.16-.21-.22.18-.31-.34c-1.62-1.61-15.98-16.09-29.07-36.46-16.64-25.9-24.28-49.88-22.7-71.27,1.65-22.38,13.5-41.61,35.21-57.14,19.88-14.22,39.94-21.43,59.62-21.43,5.38,0,10.81.54,16.12,1.61,23.61,4.77,42.36,19.53,53.92,31.07.05.04.1.09.15.14V14.19c0-2.08,1.69-3.77,3.77-3.77h35.36c2.08,0,3.77,1.69,3.77,3.77v122.38l.21-.14c7.11-4.84,14.33-9.03,21.47-12.44,25.01-11.96,62.39-20.63,98.47,5.94,15.52,11.43,24.68,26.55,27.22,44.93,6.77,49.07-35.28,106.33-40.11,112.7l-.1.13-.29.28.05.05-131.38,131.37ZM61.4,288.01l129.95,129.95,129.96-129.95-3.51-3.51.64-.76,4.06,2.89c5.8-7.72,46.28-63.69,39.67-111.64-2.5-18.11-11.53-33-26.82-44.27-35.68-26.28-72.68-17.68-97.45-5.84-7.1,3.39-14.28,7.55-21.33,12.36l-.65.45c-.12.08-.24.17-.36.25l-.77.5V14.19c0-1.53-1.24-2.77-2.77-2.77h-35.36c-1.53,0-2.77,1.24-2.77,2.77v122.42l-.85-.85c-.16-.16-.34-.34-.51-.52-.15-.15-.31-.31-.48-.47-11.48-11.45-30.06-26.08-53.43-30.8-5.25-1.06-10.6-1.59-15.92-1.59-19.47,0-39.33,7.15-59.04,21.25-21.46,15.35-33.16,34.33-34.79,56.4-3.69,50.08,46.51,101.95,51.18,106.66l5.89-4.63.66.75-5.22,5.22Z"/><path class="cls-1" d="m320.58,285.87l-2.42-1.72,2.14,2.14,1.72,1.72-.07.07-130.6,130.59L60.73,288.05l-.04-.04,5.57-5.57-3.31,2.6-2.97,2.97,131.37,131.37,131.37-131.37-2.14-2.14Z"/><path class="cls-3" d="m323.39,287.96l-.72-.72s-.03.05-.05.07l-2.04-1.45-2.42-1.72,2.14,2.14,1.72,1.72-.07.07-130.6,130.59L60.73,288.05l-.04-.04,5.57-5.57-3.31,2.6-2.93,2.3s-.02-.02-.04-.04l-.35.36-.35.35.16.17.13.13.22.21,131.56,131.57,132.08-132.08-.04-.04Z"/></svg>