<?xml version="1.0" encoding="UTF-8"?><svg id="Layer_96" xmlns="http://www.w3.org/2000/svg" width="162" height="63.9" viewBox="0 0 162 63.9"><defs><style>.cls-1{fill:#fff;}.cls-2{fill:#428c2f;}</style></defs><rect class="cls-2" x="1.58" y="1.16" width="158.67" height="60.25" rx="12" ry="12"/><path class="cls-1" d="m16.59,6.73c-1.36.2-6.31,1.64-8.68,8.52-.27.78-2.52,7.6.81,12.4.38.55,1.48,2.12,2.5,2.27.76.11,1.17-.61,1.44-1.27,1.14-2.72.37-5.31.38-7.83,0-.17.05-3.22,1.65-5.83,2.52-4.11,7.47-4.81,6.51-6.6-.29-.53-.99-.97-1.19-1.09-1.38-.86-2.82-.64-3.43-.56Z"/><path class="cls-1" d="m28.85,18.34c1.96,0,3.56.63,4.8,1.89v-.42c0-.78.31-1.17.93-1.17.68,0,1.02.43,1.02,1.29v.18s-.03.34-.09.9c-.06.56-.09,1.23-.09,2.01,0,.1.02.42.06.96l.09,1.2c.02.1.03.24.03.42,0,.96-.37,1.44-1.11,1.44-.78,0-1.17-.4-1.17-1.2v-.15l.06-.81c.02-.28.03-.5.03-.66,0-1.2-.4-2.14-1.21-2.82-.81-.68-1.92-1.02-3.34-1.02-1.3,0-2.33.32-3.1.96-.77.64-1.16,1.5-1.16,2.58,0,1.26.57,2.19,1.71,2.79.64.32,1.76.61,3.36.87,2.38.38,4.01.9,4.89,1.56,1.32.98,1.98,2.37,1.98,4.17s-.67,3.41-2.02,4.59c-1.35,1.18-3.09,1.77-5.22,1.77-2.27,0-4.16-.72-5.66-2.16v.44c.08.32.12.52.12.62,0,.73-.37,1.09-1.11,1.09-.8,0-1.2-.42-1.2-1.26,0-.1.03-.18.09-.24l.14-1.56c.07-.78.1-1.28.1-1.5,0-.4-.06-1-.17-1.8-.11-.8-.17-1.4-.17-1.8,0-.9.38-1.35,1.14-1.35s1.17.45,1.17,1.36v1.23c0,1.51.48,2.7,1.44,3.58.96.88,2.25,1.33,3.89,1.33,1.52,0,2.72-.36,3.62-1.08.9-.72,1.35-1.7,1.35-2.94,0-1.9-1.2-3.06-3.6-3.48l-1.71-.3c-1.7-.3-3.02-.65-3.96-1.05-.86-.38-1.54-.97-2.05-1.79-.51-.81-.77-1.72-.77-2.75,0-1.76.64-3.19,1.92-4.29,1.28-1.1,2.94-1.65,4.98-1.65Z"/><path class="cls-1" d="m43.97,24.88v.96c1.12-1.56,2.65-2.34,4.59-2.34s3.59.69,4.77,2.07c1.18,1.38,1.77,3.25,1.77,5.61,0,2.54-.62,4.57-1.88,6.08s-2.92,2.26-5.02,2.26c-1.74,0-3.15-.61-4.23-1.83v2.49c0,.76.02,1.25.06,1.47.12.62.41.93.87.93.14,0,.35-.03.63-.09.28-.06.49-.09.63-.09.64,0,.96.33.96.99s-.42.99-1.26.99c-.3,0-.75-.04-1.35-.12-.44-.06-1.1-.09-1.97-.09-.48,0-.88.02-1.2.06-.8.1-1.33.15-1.58.15-.34,0-.63-.1-.87-.31s-.36-.45-.36-.72c0-.63.34-.95,1.01-.95.12,0,.31.03.56.08.34.07.58.1.74.1.38,0,.61-.2.7-.58.09-.39.14-1.48.16-3.25v-11.58c-.02-.92-.28-1.38-.77-1.38-.14,0-.35.04-.64.11-.29.07-.51.11-.67.11-.73,0-1.1-.33-1.1-.99s.44-.96,1.32-.96c.22,0,.46,0,.72.03.5.04.87.06,1.11.06.18,0,.44-.01.78-.04s.59-.04.75-.04c.5,0,.75.28.75.84Zm.45,3.66c-.18.78-.28,1.73-.3,2.85,0,.08-.01.23-.03.45v.42c0,1.34.11,2.32.33,2.92.22.61.66,1.16,1.3,1.63.65.48,1.46.72,2.42.72,1.44,0,2.55-.53,3.35-1.58.79-1.05,1.18-2.54,1.18-4.49,0-4-1.42-6-4.26-6-.96,0-1.82.29-2.57.87s-1.22,1.31-1.42,2.19Z"/><path class="cls-1" d="m62.24,30.31v3.9c0,1,0,1.59.03,1.77.1.9.37,1.35.81,1.35.1,0,.35-.05.75-.15.1-.04.25-.06.45-.06.76,0,1.14.33,1.14.99,0,.28-.13.52-.38.72-.25.2-.57.3-.95.3-.32,0-.81-.04-1.46-.13-.65-.09-1.14-.14-1.46-.14-.52,0-1.1.04-1.75.12-.78.1-1.3.15-1.57.15-.8,0-1.2-.34-1.2-1.02s.34-.99,1.03-.99c.16,0,.4.03.71.09.31.06.55.09.71.09.48,0,.78-.64.88-1.92v-7.68c-.1-1.26-.4-1.89-.91-1.89-.16,0-.39.04-.68.11-.29.07-.51.1-.65.1-.73,0-1.09-.32-1.09-.96,0-.68.44-1.02,1.32-1.02.38,0,.65,0,.81.03.64.08,1.05.12,1.23.12.16,0,.41-.02.74-.07s.58-.08.74-.08c.58,0,.87.39.87,1.17,0,.08,0,.2-.02.36-.02.16-.02.28-.02.36-.02.16-.03.78-.05,1.86-.02.82-.02,1.66-.02,2.52Zm-1.56-7.86c-.46,0-.85-.17-1.18-.5s-.5-.72-.5-1.19.17-.85.5-1.17c.33-.32.72-.48,1.18-.48s.86.16,1.19.48c.33.32.5.71.5,1.17s-.17.86-.5,1.19-.73.5-1.19.5Z"/><path class="cls-1" d="m71.39,26.48v9.31c.02,1.02.29,1.53.82,1.53.12,0,.37-.05.76-.15.24-.04.4-.06.49-.06.67,0,1,.34,1,1.02s-.41.99-1.23.99c-.32,0-.83-.04-1.52-.12s-1.24-.12-1.61-.12c-.32,0-.8.04-1.43.12-.64.08-1.11.12-1.41.12h-.15c-.84,0-1.26-.36-1.26-1.08,0-.62.34-.93,1.03-.93h.21c.12.03.21.04.27.04.5.11.8.17.88.17.36,0,.59-.16.68-.47s.15-1.12.17-2.42l.03-2.11v-10.03c-.02-.6-.05-1-.09-1.2-.14-.46-.42-.69-.84-.69-.06,0-.32.04-.78.12-.22.04-.4.06-.54.06-.68,0-1.02-.32-1.02-.96s.4-.99,1.2-.99c.22,0,.41.01.57.03l.72.09c.32.04.59.06.81.06.2,0,.5-.03.9-.09.4-.06.7-.09.9-.09.46,0,.69.29.69.87,0,.2-.01.35-.03.45-.14,1.54-.21,3.71-.21,6.53Z"/><path class="cls-1" d="m88.3,30.31v3.9c0,1,0,1.59.03,1.77.1.9.37,1.35.81,1.35.1,0,.35-.05.75-.15.1-.04.25-.06.45-.06.76,0,1.14.33,1.14.99,0,.28-.13.52-.38.72-.25.2-.57.3-.95.3-.32,0-.81-.04-1.46-.13-.65-.09-1.14-.14-1.46-.14-.52,0-1.1.04-1.75.12-.78.1-1.3.15-1.57.15-.8,0-1.2-.34-1.2-1.02s.34-.99,1.03-.99c.16,0,.4.03.71.09.31.06.55.09.71.09.48,0,.78-.64.88-1.92v-7.68c-.1-1.26-.4-1.89-.91-1.89-.16,0-.39.04-.68.11-.29.07-.51.1-.65.1-.73,0-1.09-.32-1.09-.96,0-.68.44-1.02,1.32-1.02.38,0,.65,0,.81.03.64.08,1.05.12,1.23.12.16,0,.41-.02.74-.07s.58-.08.74-.08c.58,0,.87.39.87,1.17,0,.08,0,.2-.02.36-.02.16-.02.28-.02.36-.02.16-.03.78-.05,1.86-.02.82-.02,1.66-.02,2.52Zm-1.56-7.86c-.46,0-.85-.17-1.18-.5s-.5-.72-.5-1.19.17-.85.5-1.17c.33-.32.72-.48,1.18-.48s.86.16,1.19.48c.33.32.5.71.5,1.17s-.17.86-.5,1.19-.73.5-1.19.5Z"/><path class="cls-1" d="m99.85,23.5c.52,0,1.11.08,1.77.24.1-1.96,1.24-2.94,3.42-2.94.92,0,1.69.24,2.31.72.62.48.93,1.09.93,1.83,0,.48-.16.89-.46,1.23-.31.34-.67.51-1.09.51-.32,0-.6-.11-.84-.33-.24-.22-.36-.48-.36-.78,0-.32.22-.65.66-.99-.32-.4-.73-.6-1.23-.6-1.06,0-1.6.66-1.62,1.98,1.52,1.02,2.28,2.39,2.28,4.11,0,1.38-.52,2.53-1.56,3.45s-2.35,1.38-3.91,1.38c-1.1,0-2.25-.26-3.43-.78-.32-.14-.59-.21-.81-.21-.28,0-.53.13-.75.38-.22.25-.33.55-.33.89,0,1.04,1.05,1.56,3.16,1.56h1.08c1.9,0,3.45.18,4.63.54,1.1.34,1.97.87,2.62,1.59.64.72.96,1.52.96,2.42,0,1.46-.68,2.61-2.03,3.45s-3.18,1.27-5.47,1.27-4.11-.4-5.42-1.2c-1.31-.8-1.97-1.9-1.97-3.3,0-1.62.91-2.77,2.73-3.45-1.64-.64-2.46-1.6-2.46-2.88,0-1.4.82-2.36,2.46-2.88-.52-.7-.78-1.52-.78-2.46,0-1.36.53-2.49,1.58-3.39,1.05-.9,2.37-1.35,3.95-1.35Zm.12,13.62c-1.6,0-2.86.24-3.78.72-.92.48-1.38,1.13-1.38,1.95s.45,1.46,1.35,1.93c.9.47,2.11.71,3.63.71,1.6,0,2.87-.24,3.79-.72.93-.48,1.4-1.12,1.4-1.92,0-.84-.44-1.5-1.32-1.96s-2.11-.71-3.69-.71Zm-.03-11.64c-.88,0-1.63.26-2.25.78-.62.52-.96,1.17-1.02,1.95v.18c0,.88.3,1.59.9,2.13s1.38.81,2.34.81,1.82-.27,2.45-.81.95-1.23.95-2.07-.32-1.57-.96-2.13c-.64-.56-1.44-.84-2.4-.84Z"/><path class="cls-1" d="m122.21,30.19c0,.76-.05,1.23-.15,1.4-.1.17-.39.25-.87.25h-9.54c-.26,0-.43.04-.51.1-.08.07-.12.19-.12.35,0,1.5.45,2.75,1.35,3.75.9,1,2.02,1.5,3.36,1.5.88,0,1.69-.24,2.42-.72.73-.48,1.21-1.09,1.43-1.83l.27-.87c.14-.48.47-.72.99-.72.74,0,1.11.38,1.11,1.14,0,1.3-.66,2.46-1.98,3.46s-2.82,1.51-4.5,1.51c-2.1,0-3.77-.71-5.01-2.12-1.24-1.41-1.86-3.3-1.86-5.68s.66-4.42,1.98-5.94c1.32-1.52,3.04-2.28,5.16-2.28,1.88,0,3.43.63,4.65,1.89s1.83,2.86,1.83,4.8Zm-10.89-.78c0,.28.22.42.66.42h7.17c.42,0,.63-.14.63-.42,0-1.06-.4-1.98-1.2-2.76-.8-.78-1.74-1.17-2.82-1.17s-2.14.41-3.06,1.21c-.92.81-1.38,1.72-1.38,2.72Z"/><path class="cls-1" d="m129.01,24.92v.85c1.2-1.52,2.8-2.28,4.8-2.28,1.08,0,2.1.28,3.06.83s1.61,1.23,1.95,2.05c.28.68.42,1.57.42,2.67v5.7c0,.86,0,1.37.03,1.53.1.68.37,1.02.81,1.02.18,0,.42-.02.71-.08.29-.05.5-.08.62-.08.26,0,.48.09.67.27.19.18.29.4.29.66,0,.3-.12.55-.36.75-.24.2-.53.3-.87.3-.28,0-.74-.04-1.38-.12-.64-.08-1.24-.12-1.8-.12-.52,0-.95.02-1.29.06-1,.12-1.53.18-1.59.18-.8,0-1.2-.35-1.2-1.05,0-.62.35-.93,1.04-.93.16,0,.35.02.55.06.39.08.63.12.73.12.49,0,.75-.55.8-1.65v-5.64c0-1.06-.05-1.79-.15-2.19-.18-.76-.57-1.35-1.17-1.77-.66-.46-1.4-.69-2.24-.69-1.59,0-2.74.57-3.44,1.71-.48.78-.72,2.11-.72,3.99v3.99c0,.88.06,1.48.18,1.8.12.32.34.48.66.48.16,0,.38-.03.66-.1.28-.07.51-.11.69-.11.62,0,.93.34.93,1s-.4.98-1.2.98c-.16,0-.68-.06-1.56-.18-.44-.06-.93-.09-1.47-.09-.42,0-.98.04-1.68.12-.88.1-1.38.15-1.5.15-.84,0-1.26-.34-1.26-1.02,0-.64.33-.96.98-.96.1,0,.29.03.57.09.27.06.54.09.81.09.61,0,.93-.58.95-1.74v-8.01c-.04-.68-.13-1.14-.26-1.4-.13-.25-.36-.38-.69-.38-.14,0-.35.03-.63.08-.27.05-.48.08-.63.08-.73,0-1.1-.32-1.1-.96s.45-.99,1.35-.99c.12,0,.22.01.3.03l1.11.12c.32,0,.6-.03.84-.08.52-.05.79-.08.81-.08.58,0,.87.3.87.92Z"/></svg>