<?xml version="1.0" encoding="UTF-8"?><svg id="Layer_93" xmlns="http://www.w3.org/2000/svg" width="162" height="63.9" viewBox="0 0 162 63.9"><defs><style>.cls-1{fill:#fff;}.cls-2{fill:#428c2f;}</style></defs><rect class="cls-2" x="1.58" y="1.16" width="158.67" height="60.25" rx="12" ry="12"/><path class="cls-1" d="m16.59,6.73c-1.36.2-6.31,1.64-8.68,8.52-.27.78-2.52,7.6.81,12.4.38.55,1.48,2.12,2.5,2.27.76.11,1.17-.61,1.44-1.27,1.14-2.72.37-5.31.38-7.83,0-.17.05-3.22,1.65-5.83,2.52-4.11,7.47-4.81,6.51-6.6-.29-.53-.99-.97-1.19-1.09-1.38-.86-2.82-.64-3.43-.56Z"/><path class="cls-1" d="m58.97,15.62c2.35,0,4.27.76,5.76,2.27v-.5c0-.94.37-1.4,1.12-1.4.82,0,1.22.52,1.22,1.55v.22s-.04.41-.11,1.08c-.07.67-.11,1.48-.11,2.41,0,.12.02.5.07,1.15l.11,1.44c.02.12.04.29.04.5,0,1.15-.44,1.73-1.33,1.73-.94,0-1.4-.48-1.4-1.44v-.18l.07-.97c.02-.34.04-.6.04-.79,0-1.44-.49-2.57-1.46-3.38-.97-.82-2.31-1.22-4.01-1.22-1.56,0-2.8.38-3.73,1.15-.92.77-1.39,1.8-1.39,3.1,0,1.51.68,2.63,2.05,3.35.77.38,2.11.73,4.03,1.04,2.86.46,4.81,1.08,5.87,1.87,1.58,1.18,2.38,2.84,2.38,5s-.81,4.09-2.42,5.51c-1.62,1.42-3.71,2.12-6.27,2.12-2.73,0-4.99-.86-6.79-2.59v.53c.1.38.14.63.14.75,0,.88-.44,1.31-1.33,1.31-.96,0-1.44-.5-1.44-1.51,0-.12.04-.22.11-.29l.16-1.87c.08-.94.12-1.54.12-1.8,0-.48-.07-1.2-.2-2.16-.13-.96-.2-1.68-.2-2.16,0-1.08.46-1.62,1.37-1.62s1.4.54,1.4,1.63v1.48c0,1.81.57,3.24,1.72,4.3,1.15,1.06,2.7,1.59,4.67,1.59,1.82,0,3.27-.43,4.34-1.3s1.62-2.04,1.62-3.53c0-2.28-1.44-3.67-4.32-4.18l-2.05-.36c-2.04-.36-3.62-.78-4.75-1.26-1.03-.46-1.85-1.17-2.47-2.14s-.92-2.07-.92-3.29c0-2.11.77-3.83,2.3-5.15,1.54-1.32,3.53-1.98,5.98-1.98Z"/><path class="cls-1" d="m77.11,23.46v1.15c1.34-1.87,3.18-2.81,5.51-2.81s4.31.83,5.72,2.48c1.42,1.66,2.12,3.9,2.12,6.73,0,3.05-.75,5.48-2.25,7.29-1.5,1.81-3.51,2.72-6.03,2.72-2.09,0-3.78-.73-5.08-2.2v2.99c0,.91.02,1.5.07,1.76.14.74.49,1.12,1.04,1.12.17,0,.42-.04.76-.11.34-.07.59-.11.76-.11.77,0,1.15.4,1.15,1.19s-.5,1.19-1.51,1.19c-.36,0-.9-.05-1.61-.14-.53-.07-1.32-.11-2.37-.11-.57,0-1.05.02-1.44.07-.96.12-1.59.18-1.9.18-.41,0-.75-.12-1.04-.37-.29-.25-.43-.54-.43-.87,0-.76.4-1.13,1.21-1.13.14,0,.37.03.68.09.4.08.7.12.89.12.45,0,.73-.23.84-.7s.17-1.77.2-3.91v-13.9c-.02-1.1-.33-1.66-.93-1.66-.17,0-.42.04-.77.13-.34.08-.61.13-.8.13-.88,0-1.32-.4-1.32-1.19s.53-1.15,1.58-1.15c.26,0,.55.01.86.04.6.05,1.04.07,1.33.07.22,0,.53-.02.94-.05s.71-.05.9-.05c.6,0,.9.34.9,1.01Zm.54,4.39c-.22.94-.34,2.08-.36,3.42,0,.1-.01.28-.04.54v.5c0,1.61.13,2.78.4,3.51.26.73.79,1.39,1.57,1.96.78.58,1.75.86,2.9.86,1.73,0,3.07-.63,4.01-1.89.95-1.26,1.42-3.05,1.42-5.38,0-4.8-1.7-7.2-5.11-7.2-1.15,0-2.18.35-3.08,1.04-.9.7-1.47,1.57-1.71,2.63Z"/><path class="cls-1" d="m99.04,29.98v4.68c0,1.2.01,1.91.04,2.12.12,1.08.44,1.62.97,1.62.12,0,.42-.06.9-.18.12-.05.3-.07.54-.07.91,0,1.37.4,1.37,1.19,0,.34-.15.62-.45.86-.3.24-.68.36-1.14.36-.39,0-.97-.05-1.75-.16-.78-.11-1.37-.16-1.75-.16-.63,0-1.32.05-2.1.14-.94.12-1.57.18-1.88.18-.96,0-1.44-.41-1.44-1.22s.41-1.19,1.24-1.19c.19,0,.48.04.85.11s.66.11.85.11c.58,0,.93-.77,1.05-2.3v-9.22c-.12-1.51-.48-2.27-1.09-2.27-.19,0-.47.04-.82.13s-.61.13-.78.13c-.87,0-1.31-.38-1.31-1.15,0-.82.53-1.22,1.58-1.22.46,0,.78.01.97.04.77.1,1.26.14,1.48.14.19,0,.49-.03.88-.09.4-.06.69-.09.88-.09.7,0,1.04.47,1.04,1.4,0,.1,0,.24-.03.43-.02.19-.03.34-.03.43-.02.19-.04.94-.06,2.23-.02.98-.03,1.99-.03,3.02Zm-1.87-9.43c-.55,0-1.03-.2-1.42-.59-.4-.4-.59-.87-.59-1.42s.2-1.02.59-1.4.87-.58,1.42-.58,1.03.19,1.42.58.59.85.59,1.4-.2,1.03-.59,1.42c-.4.4-.87.59-1.42.59Z"/><path class="cls-1" d="m110.02,25.39v11.18c.02,1.22.35,1.83.98,1.83.15,0,.45-.06.91-.18.29-.05.48-.07.58-.07.8,0,1.2.41,1.2,1.22s-.49,1.19-1.47,1.19c-.38,0-.99-.05-1.83-.14s-1.48-.14-1.94-.14c-.38,0-.96.05-1.72.14-.77.1-1.33.14-1.69.14h-.18c-1,0-1.51-.43-1.51-1.3,0-.74.41-1.12,1.24-1.12h.25c.15.03.25.05.33.05.61.13.96.2,1.05.2.44,0,.71-.19.82-.56.11-.37.18-1.34.2-2.91l.04-2.53v-12.03c-.02-.72-.06-1.2-.11-1.45-.17-.55-.5-.83-1.01-.83-.07,0-.38.05-.94.14-.26.05-.48.07-.65.07-.82,0-1.22-.38-1.22-1.15s.48-1.19,1.44-1.19c.26,0,.49.01.68.04l.86.11c.38.05.71.07.97.07.24,0,.6-.04,1.08-.11.48-.07.84-.11,1.08-.11.55,0,.83.35.83,1.04,0,.24-.01.42-.04.54-.17,1.85-.25,4.46-.25,7.84Z"/></svg>