<?xml version="1.0" encoding="UTF-8"?><svg id="Layer_95" xmlns="http://www.w3.org/2000/svg" width="162" height="63.9" viewBox="0 0 162 63.9"><defs><style>.cls-1{fill:#fff;}.cls-2{fill:#428c2f;}</style></defs><rect class="cls-2" x="1.58" y="1.16" width="158.67" height="60.25" rx="12" ry="12"/><path class="cls-1" d="m16.59,6.73c-1.36.2-6.31,1.64-8.68,8.52-.27.78-2.52,7.6.81,12.4.38.55,1.48,2.12,2.5,2.27.76.11,1.17-.61,1.44-1.27,1.14-2.72.37-5.31.38-7.83,0-.17.05-3.22,1.65-5.83,2.52-4.11,7.47-4.81,6.51-6.6-.29-.53-.99-.97-1.19-1.09-1.38-.86-2.82-.64-3.43-.56Z"/><path class="cls-1" d="m17.7,24.78c0-1.18-.41-1.78-1.22-1.78-.22,0-.39.02-.5.05-.26.05-.47.07-.65.07-.21,0-.38-.08-.53-.23-.14-.15-.22-.34-.22-.56,0-.56.35-.84,1.06-.84.1,0,.21,0,.34.02l1.27.17c.48.06.98.1,1.49.1s1.04-.04,1.63-.12l1.08-.14c.13-.02.24-.02.34-.02.7,0,1.06.28,1.06.84,0,.22-.07.41-.22.56-.14.15-.32.23-.53.23-.16,0-.38-.02-.65-.07-.11-.03-.28-.05-.5-.05-.82,0-1.22.59-1.22,1.78v9.62c0,1.2.41,1.8,1.22,1.8.13,0,.3-.02.5-.05.3-.05.52-.07.65-.07.5,0,.74.26.74.77,0,.58-.35.86-1.06.86h-.17c-.06-.02-.12-.02-.17-.02l-1.25-.19c-.42-.06-.86-.1-1.32-.1-.67,0-1.27.04-1.8.12l-1.1.17s-.09,0-.17.02h-.19c-.69,0-1.03-.29-1.03-.86,0-.51.25-.77.74-.77.08,0,.3.02.65.05.18.05.34.07.5.07.82,0,1.22-.6,1.22-1.8v-9.62Z"/><path class="cls-1" d="m27.9,26.33v.68c.96-1.22,2.24-1.82,3.84-1.82.86,0,1.68.22,2.45.66.77.44,1.29.99,1.56,1.64.22.54.34,1.26.34,2.14v4.56c0,.69,0,1.1.02,1.22.08.54.3.82.65.82.14,0,.33-.02.56-.06s.4-.06.49-.06c.21,0,.39.07.54.22.15.14.23.32.23.53,0,.24-.1.44-.29.6-.19.16-.42.24-.7.24-.22,0-.59-.03-1.1-.1-.51-.06-.99-.1-1.44-.1-.42,0-.76.02-1.03.05-.8.1-1.22.14-1.27.14-.64,0-.96-.28-.96-.84,0-.5.28-.74.83-.74.13,0,.28.02.44.05.31.06.51.1.59.1.39,0,.6-.44.64-1.32v-4.51c0-.85-.04-1.43-.12-1.75-.14-.61-.45-1.08-.93-1.42-.53-.37-1.12-.55-1.79-.55-1.28,0-2.19.46-2.75,1.37-.38.62-.57,1.69-.57,3.19v3.19c0,.7.05,1.18.14,1.44.1.26.27.38.53.38.13,0,.3-.03.53-.08.22-.06.41-.08.55-.08.5,0,.74.27.74.8s-.32.78-.96.78c-.13,0-.54-.05-1.25-.14-.35-.05-.74-.07-1.18-.07-.34,0-.78.03-1.34.1-.7.08-1.1.12-1.2.12-.67,0-1.01-.27-1.01-.82,0-.51.26-.77.78-.77.08,0,.23.02.45.07.22.05.44.07.65.07.49,0,.74-.46.76-1.39v-6.41c-.03-.54-.1-.92-.21-1.12-.11-.2-.29-.3-.55-.3-.11,0-.28.02-.5.06-.22.04-.39.06-.5.06-.59,0-.88-.25-.88-.77s.36-.79,1.08-.79c.1,0,.18,0,.24.02l.89.1c.26,0,.48-.02.67-.06.42-.04.63-.06.65-.06.46,0,.7.24.7.73Z"/><path class="cls-1" d="m46.62,23.41c0-.22.08-.42.24-.6-.27-.26-.67-.38-1.2-.38-.69,0-1.23.22-1.62.66s-.59,1.05-.59,1.84v.43c0,.21.1.31.31.31h1.87c.53,0,.79.29.79.86s-.26.86-.79.86h-1.78c-.27,0-.41.14-.41.43v6.72c0,.59,0,.94.02,1.03.08.43.28.65.6.65.08,0,.28-.04.6-.12.22-.03.38-.05.48-.05.54,0,.82.26.82.79,0,.56-.33.84-.98.84-.27,0-.68-.03-1.24-.1-.55-.06-.96-.1-1.24-.1-.48,0-.91.02-1.3.07-.62.08-1.02.12-1.2.12-.69,0-1.03-.28-1.03-.84,0-.21.08-.39.25-.55s.36-.24.59-.24c.16,0,.34.03.54.08.2.06.38.08.54.08.3,0,.5-.19.58-.58.08-.38.13-1.31.14-2.78v-5.04c0-.29-.14-.43-.43-.43h-1.19c-.55,0-.83-.3-.83-.89,0-.56.29-.84.86-.84h1.37c.21,0,.31-.1.31-.31v-.43c0-1.26.34-2.23,1.01-2.9.67-.67,1.62-1.01,2.86-1.01,1.01,0,1.82.2,2.42.61.61.41.91.96.91,1.64,0,.35-.11.64-.34.85-.22.22-.5.32-.84.32s-.59-.1-.8-.3c-.22-.2-.32-.44-.32-.73Z"/><path class="cls-1" d="m52.79,38c-1.68,0-3.02-.58-4.03-1.74-1.01-1.16-1.51-2.72-1.51-4.67s.51-3.51,1.52-4.67c1.02-1.16,2.38-1.74,4.09-1.74s3.12.57,4.13,1.7c1.01,1.14,1.51,2.68,1.51,4.63s-.52,3.52-1.56,4.7c-1.04,1.18-2.42,1.78-4.15,1.78Zm.12-11.23c-1.12,0-2,.39-2.64,1.18-.64.78-.99,1.9-1.06,3.34v.31c0,1.5.32,2.68.95,3.54.63.86,1.52,1.28,2.65,1.28s2.08-.43,2.75-1.28c.66-.86,1-2.04,1-3.56,0-3.2-1.22-4.8-3.65-4.8Z"/><path class="cls-1" d="m64,26.28v.66c.83-1.17,1.94-1.75,3.34-1.75,1.12,0,2.03.32,2.72.95.7.63,1.04,1.44,1.04,2.44,0,.71-.18,1.28-.53,1.72-.35.44-.82.66-1.39.66-.37,0-.68-.11-.94-.34-.26-.22-.38-.5-.38-.82,0-.26.1-.48.29-.68.19-.2.42-.3.67-.3.05,0,.15.02.31.07.1-.19.14-.37.14-.53,0-.46-.2-.86-.61-1.18s-.92-.48-1.52-.48c-1.25,0-2.08.56-2.5,1.68-.26.69-.38,1.73-.38,3.12v1.58c0,1.07,0,1.67.02,1.8.08.91.33,1.37.74,1.37.21,0,.42-.03.65-.08.18-.04.33-.06.46-.06.51,0,.77.25.77.76,0,.55-.33.83-.98.83h-.1c-.24,0-.6-.03-1.09-.08-.49-.06-.85-.08-1.09-.08-.64,0-1.14.02-1.51.05l-1.34.12c-.65,0-.98-.28-.98-.84,0-.5.31-.74.92-.74.16,0,.28,0,.36.02l.36.07c.16.03.27.05.34.05.4,0,.62-.37.65-1.1v-1.22l-.07-5.45c-.05-.94-.29-1.42-.72-1.42-.13,0-.3.02-.53.07-.22.05-.4.07-.53.07-.53,0-.79-.26-.79-.77,0-.56.34-.84,1.03-.84.16,0,.4.02.72.06.32.04.56.06.72.06.13,0,.34-.02.62-.06.13-.04.28-.06.46-.06.42,0,.62.23.62.68Z"/><path class="cls-1" d="m76.09,26.32v.7c.58-.69,1.12-1.16,1.63-1.43.51-.26,1.15-.4,1.92-.4,1.57,0,2.72.61,3.46,1.82.54-.67,1.1-1.14,1.66-1.42.56-.27,1.28-.41,2.16-.41s1.73.19,2.45.58c.8.43,1.35,1.04,1.66,1.83.21.53.31,1.36.31,2.5v4.14c0,.66,0,1.06.02,1.2.08.58.28.87.62.87.11,0,.28-.03.5-.08.22-.06.39-.08.5-.08.55,0,.83.24.83.72,0,.56-.32.84-.96.84-.24,0-.6-.03-1.09-.08-.49-.06-.86-.08-1.12-.08-.27,0-.67.03-1.19.08-.52.06-.92.08-1.19.08-.67,0-1.01-.28-1.01-.84,0-.48.26-.72.77-.72.06,0,.22.02.48.05.1.03.22.05.38.05.27,0,.44-.14.52-.41.07-.27.12-.95.13-2.04v-3.05c0-1.1-.08-1.91-.25-2.41-.17-.5-.48-.9-.94-1.19s-.99-.43-1.58-.43c-1.13,0-1.92.39-2.37,1.18-.35.62-.53,1.71-.53,3.26v1.7c0,1.5.04,2.44.11,2.82.07.38.26.56.56.56.1,0,.24-.02.42-.05s.32-.05.42-.05c.22,0,.41.08.56.22.15.15.23.33.23.56,0,.52-.38.78-1.13.78-.24,0-.6-.03-1.07-.1-.47-.06-.83-.1-1.07-.1-.34,0-.7.03-1.1.1-.4.06-.75.1-1.06.1-.66,0-.98-.27-.98-.82,0-.5.24-.74.72-.74.18,0,.31.02.41.07.22.07.39.1.5.1.38,0,.58-.41.6-1.23l.07-1.13v-3.5c0-1.4-.19-2.37-.56-2.92-.38-.55-1.04-.82-2-.82-1.06,0-1.86.39-2.42,1.16-.46.63-.7,1.72-.7,3.28v3.21c0,.64,0,1.02.02,1.13.06.55.24.82.53.82.08,0,.25-.04.5-.13.03,0,.08-.01.14-.03h.17c.62,0,.94.26.94.79s-.36.77-1.08.77c-.27,0-.61-.02-1.01-.07-.54-.06-1.01-.1-1.39-.1-.19,0-.54.02-1.06.07-.69.06-1.1.1-1.25.1-.64,0-.96-.27-.96-.82,0-.5.31-.74.93-.74h.15c.07.02.11.02.15.02l.61.12s.05.02.1.02c.44,0,.68-.39.71-1.18v-5.04c0-1.36-.04-2.21-.11-2.54s-.27-.5-.59-.5c-.06,0-.29.04-.67.12-.16.03-.29.05-.38.05-.59,0-.89-.26-.89-.77,0-.54.33-.82.98-.82.18,0,.42.02.72.05.3.03.57.05.79.05h.43l.58-.1h.07c.38,0,.58.23.58.7Z"/><path class="cls-1" d="m105.08,37.91c-1.31,0-2.12-.57-2.42-1.7-.82,1.2-2.1,1.8-3.84,1.8-1.3,0-2.33-.32-3.11-.96s-1.16-1.5-1.16-2.57c0-1.33.57-2.3,1.7-2.93.43-.24.8-.4,1.12-.47.31-.07.94-.16,1.88-.28,1.34-.14,2.22-.34,2.63-.6.41-.26.61-.73.61-1.42s-.23-1.17-.68-1.55c-.46-.38-1.09-.56-1.91-.56-.72,0-1.39.2-2.02.6-.24.16-.36.33-.36.5,0,.06.07.14.22.24.22.16.34.43.34.82,0,.32-.12.58-.35.79s-.52.31-.88.31c-.42,0-.76-.14-1.04-.43-.28-.29-.42-.64-.42-1.06,0-.9.44-1.66,1.33-2.3.89-.64,1.96-.96,3.23-.96,2.91,0,4.37,1.4,4.37,4.19v4.84c0,.77.02,1.22.05,1.37.1.56.37.84.82.84.56,0,.84-.51.84-1.53v-1.17c0-.51.24-.76.73-.76.52,0,.78.38.78,1.15v1.49c-.03,1.54-.85,2.3-2.45,2.3Zm-2.66-4.78v-1.7c-.35.32-.72.54-1.11.67s-1.09.24-2.09.34c-1.82.18-2.73.85-2.73,2.02,0,.61.22,1.09.66,1.44.44.35,1.04.53,1.79.53,1.07,0,1.92-.29,2.53-.88.62-.58.93-1.39.95-2.41Z"/><path class="cls-1" d="m114.97,34.28v-1.54c.02-.66.3-.98.86-.98s.84.37.84,1.1c0,1.74-.22,2.96-.67,3.65-.6.93-1.6,1.39-2.98,1.39-1.27,0-2.18-.41-2.72-1.22-.4-.59-.6-1.6-.6-3.02v-5.76c0-.34-.16-.5-.47-.5h-.79c-.26,0-.48-.08-.65-.25s-.26-.37-.26-.61c0-.22.08-.42.25-.6.17-.18.36-.26.56-.26h.94c.27,0,.41-.15.41-.46v-2.47c0-.61.31-.91.94-.91.58,0,.86.3.86.91v2.57c0,.24.14.36.43.36h2.62c.61,0,.91.28.91.84,0,.59-.33.89-.98.89h-2.64c-.22,0-.34.17-.34.5v5.9c0,1.68.56,2.52,1.68,2.52s1.73-.68,1.78-2.04Z"/><path class="cls-1" d="m121.79,30.64v3.12c0,.8,0,1.27.02,1.42.08.72.3,1.08.65,1.08.08,0,.28-.04.6-.12.08-.03.2-.05.36-.05.61,0,.91.26.91.79,0,.22-.1.42-.3.58-.2.16-.45.24-.76.24-.26,0-.65-.04-1.17-.11-.52-.07-.91-.11-1.17-.11-.42,0-.88.03-1.4.1-.63.08-1.04.12-1.25.12-.64,0-.96-.27-.96-.82s.27-.79.82-.79c.13,0,.32.02.57.07.25.05.44.07.57.07.39,0,.62-.51.7-1.54v-6.14c-.08-1.01-.32-1.51-.73-1.51-.13,0-.31.03-.55.08-.23.06-.41.08-.52.08-.58,0-.87-.26-.87-.77,0-.54.35-.82,1.06-.82.3,0,.52,0,.65.02.51.06.84.1.98.1.13,0,.32-.02.59-.06.26-.04.46-.06.59-.06.46,0,.7.31.7.94,0,.06,0,.16-.02.29s-.02.22-.02.29c-.01.13-.03.62-.04,1.49-.01.66-.02,1.33-.02,2.02Zm-1.25-6.29c-.37,0-.68-.13-.95-.4-.26-.26-.4-.58-.4-.95s.13-.68.4-.94c.26-.26.58-.38.95-.38s.68.13.95.38c.26.26.4.57.4.94s-.13.68-.4.95c-.26.26-.58.4-.95.4Z"/><path class="cls-1" d="m130.86,38c-1.68,0-3.02-.58-4.03-1.74-1.01-1.16-1.51-2.72-1.51-4.67s.51-3.51,1.52-4.67c1.02-1.16,2.38-1.74,4.09-1.74s3.12.57,4.13,1.7c1.01,1.14,1.51,2.68,1.51,4.63s-.52,3.52-1.56,4.7c-1.04,1.18-2.42,1.78-4.15,1.78Zm.12-11.23c-1.12,0-2,.39-2.64,1.18-.64.78-.99,1.9-1.06,3.34v.31c0,1.5.32,2.68.95,3.54.63.86,1.52,1.28,2.65,1.28s2.08-.43,2.75-1.28c.66-.86,1-2.04,1-3.56,0-3.2-1.22-4.8-3.65-4.8Z"/><path class="cls-1" d="m142.12,26.33v.68c.96-1.22,2.24-1.82,3.84-1.82.86,0,1.68.22,2.45.66.77.44,1.29.99,1.56,1.64.22.54.34,1.26.34,2.14v4.56c0,.69,0,1.1.02,1.22.08.54.3.82.65.82.14,0,.33-.02.56-.06s.4-.06.49-.06c.21,0,.39.07.54.22.15.14.23.32.23.53,0,.24-.1.44-.29.6-.19.16-.42.24-.7.24-.22,0-.59-.03-1.1-.1-.51-.06-.99-.1-1.44-.1-.42,0-.76.02-1.03.05-.8.1-1.22.14-1.27.14-.64,0-.96-.28-.96-.84,0-.5.28-.74.83-.74.13,0,.28.02.44.05.31.06.51.1.59.1.39,0,.6-.44.64-1.32v-4.51c0-.85-.04-1.43-.12-1.75-.14-.61-.45-1.08-.93-1.42-.53-.37-1.12-.55-1.79-.55-1.28,0-2.19.46-2.75,1.37-.38.62-.57,1.69-.57,3.19v3.19c0,.7.05,1.18.14,1.44.1.26.27.38.53.38.13,0,.3-.03.53-.08.22-.06.41-.08.55-.08.5,0,.74.27.74.8s-.32.78-.96.78c-.13,0-.54-.05-1.25-.14-.35-.05-.74-.07-1.18-.07-.34,0-.78.03-1.34.1-.7.08-1.1.12-1.2.12-.67,0-1.01-.27-1.01-.82,0-.51.26-.77.78-.77.08,0,.23.02.45.07.22.05.44.07.65.07.49,0,.74-.46.76-1.39v-6.41c-.03-.54-.1-.92-.21-1.12-.11-.2-.29-.3-.55-.3-.11,0-.28.02-.5.06-.22.04-.39.06-.5.06-.59,0-.88-.25-.88-.77s.36-.79,1.08-.79c.1,0,.18,0,.24.02l.89.1c.26,0,.48-.02.67-.06.42-.04.63-.06.65-.06.46,0,.7.24.7.73Z"/></svg>