<?xml version="1.0" encoding="UTF-8"?><svg id="Layer_94" xmlns="http://www.w3.org/2000/svg" width="162" height="63.9" viewBox="0 0 162 63.9"><defs><style>.cls-1{fill:#fff;}.cls-2{fill:#428c2f;}</style></defs><rect class="cls-2" x="1.58" y="1.16" width="158.67" height="60.25" rx="12" ry="12"/><path class="cls-1" d="m16.59,6.73c-1.36.2-6.31,1.64-8.68,8.52-.27.78-2.52,7.6.81,12.4.38.55,1.48,2.12,2.5,2.27.76.11,1.17-.61,1.44-1.27,1.14-2.72.37-5.31.38-7.83,0-.17.05-3.22,1.65-5.83,2.52-4.11,7.47-4.81,6.51-6.6-.29-.53-.99-.97-1.19-1.09-1.38-.86-2.82-.64-3.43-.56Z"/><path class="cls-1" d="m24.05,18.34c1.96,0,3.56.63,4.8,1.89v-.42c0-.78.31-1.17.93-1.17.68,0,1.02.43,1.02,1.29v.18s-.03.34-.09.9c-.06.56-.09,1.23-.09,2.01,0,.1.02.42.06.96l.09,1.2c.02.1.03.24.03.42,0,.96-.37,1.44-1.11,1.44-.78,0-1.17-.4-1.17-1.2v-.15l.06-.81c.02-.28.03-.5.03-.66,0-1.2-.4-2.14-1.21-2.82-.81-.68-1.93-1.02-3.35-1.02-1.3,0-2.34.32-3.1.96-.77.64-1.15,1.5-1.15,2.58,0,1.26.57,2.19,1.71,2.79.64.32,1.76.61,3.36.87,2.38.38,4.01.9,4.89,1.56,1.32.98,1.98,2.37,1.98,4.17s-.67,3.41-2.02,4.59c-1.35,1.18-3.09,1.77-5.22,1.77-2.27,0-4.16-.72-5.66-2.16v.44c.08.32.12.52.12.62,0,.73-.37,1.09-1.11,1.09-.8,0-1.2-.42-1.2-1.26,0-.1.03-.18.09-.24l.14-1.56c.07-.78.1-1.28.1-1.5,0-.4-.06-1-.17-1.8-.11-.8-.17-1.4-.17-1.8,0-.9.38-1.35,1.14-1.35s1.17.45,1.17,1.36v1.23c0,1.51.48,2.7,1.44,3.58.96.88,2.25,1.33,3.89,1.33,1.52,0,2.72-.36,3.62-1.08.9-.72,1.35-1.7,1.35-2.94,0-1.9-1.2-3.06-3.6-3.48l-1.71-.3c-1.7-.3-3.02-.65-3.96-1.05-.86-.38-1.54-.97-2.05-1.79-.51-.81-.77-1.72-.77-2.75,0-1.76.64-3.19,1.92-4.29,1.28-1.1,2.94-1.65,4.98-1.65Z"/><path class="cls-1" d="m42.56,34.87v-1.92c.02-.82.38-1.23,1.08-1.23s1.05.46,1.05,1.38c0,2.18-.28,3.7-.83,4.56-.75,1.16-2,1.74-3.72,1.74-1.59,0-2.72-.51-3.4-1.53-.5-.74-.75-2-.75-3.78v-7.2c0-.42-.19-.63-.58-.63h-.98c-.33,0-.6-.11-.81-.32s-.32-.46-.32-.76c0-.28.1-.53.31-.75.21-.22.44-.33.7-.33h1.17c.34,0,.51-.19.51-.57v-3.09c0-.76.39-1.14,1.17-1.14.72,0,1.08.38,1.08,1.14v3.21c0,.3.18.45.54.45h3.27c.76,0,1.14.35,1.14,1.05,0,.74-.41,1.11-1.23,1.11h-3.3c-.28,0-.42.21-.42.63v7.38c0,2.1.7,3.15,2.1,3.15s2.16-.85,2.22-2.55Z"/><path class="cls-1" d="m59.12,39.4c-1.64,0-2.65-.71-3.03-2.13-1.02,1.5-2.62,2.25-4.8,2.25-1.62,0-2.92-.4-3.89-1.2-.97-.8-1.46-1.87-1.46-3.21,0-1.66.71-2.88,2.13-3.66.54-.3,1.01-.5,1.4-.58.39-.09,1.17-.21,2.35-.35,1.68-.18,2.78-.43,3.29-.75.51-.32.77-.91.77-1.77s-.29-1.46-.85-1.94c-.57-.47-1.37-.71-2.39-.71-.9,0-1.74.25-2.52.75-.3.2-.45.41-.45.63,0,.08.09.18.27.3.28.2.42.54.42,1.02,0,.4-.15.73-.44.99-.29.26-.66.39-1.1.39-.52,0-.96-.18-1.3-.54-.35-.36-.52-.8-.52-1.32,0-1.12.55-2.08,1.67-2.88,1.11-.8,2.45-1.2,4.03-1.2,3.64,0,5.46,1.75,5.46,5.24v6.05c0,.96.02,1.53.06,1.71.12.7.46,1.05,1.02,1.05.7,0,1.05-.64,1.05-1.91v-1.46c0-.64.3-.95.92-.95.65,0,.97.48.97,1.44v1.86c-.04,1.92-1.06,2.88-3.06,2.88Zm-3.33-5.97v-2.13c-.44.4-.9.68-1.39.84-.49.16-1.36.3-2.61.42-2.27.22-3.41,1.06-3.41,2.52,0,.76.27,1.36.82,1.8.55.44,1.29.66,2.24.66,1.34,0,2.39-.37,3.17-1.1.77-.73,1.16-1.73,1.19-3.01Z"/><path class="cls-1" d="m67.67,24.86v.82c1.04-1.46,2.43-2.19,4.17-2.19,1.4,0,2.53.39,3.4,1.18s1.31,1.81,1.31,3.04c0,.88-.22,1.6-.66,2.15s-1.02.83-1.74.83c-.46,0-.85-.14-1.17-.42-.32-.28-.48-.62-.48-1.02,0-.32.12-.6.36-.86.24-.25.52-.38.84-.38.06,0,.19.03.39.09.12-.24.18-.46.18-.66,0-.58-.25-1.07-.76-1.47-.51-.4-1.15-.6-1.91-.6-1.56,0-2.6.7-3.12,2.1-.32.86-.48,2.16-.48,3.9v1.98c0,1.34.01,2.09.03,2.25.1,1.14.41,1.71.93,1.71.26,0,.53-.03.81-.1.22-.05.41-.08.57-.08.64,0,.96.32.96.95,0,.69-.41,1.03-1.23,1.03h-.12c-.3,0-.75-.04-1.36-.11-.61-.07-1.06-.1-1.36-.1-.8,0-1.43.02-1.88.06l-1.67.15c-.82,0-1.23-.35-1.23-1.05,0-.62.38-.93,1.15-.93.2,0,.35.01.45.03l.45.09c.2.04.34.06.42.06.5,0,.78-.46.82-1.38v-1.53l-.09-6.81c-.06-1.18-.36-1.77-.9-1.77-.16,0-.38.03-.66.09-.28.06-.5.09-.66.09-.66,0-.99-.32-.99-.96,0-.7.43-1.05,1.29-1.05.2,0,.5.03.9.08.4.05.7.08.9.08.16,0,.42-.03.78-.08.16-.05.35-.08.57-.08.52,0,.78.29.78.86Z"/><path class="cls-1" d="m86.77,34.87v-1.92c.02-.82.38-1.23,1.08-1.23s1.05.46,1.05,1.38c0,2.18-.28,3.7-.83,4.56-.75,1.16-2,1.74-3.72,1.74-1.59,0-2.72-.51-3.4-1.53-.5-.74-.75-2-.75-3.78v-7.2c0-.42-.19-.63-.58-.63h-.98c-.33,0-.6-.11-.81-.32s-.32-.46-.32-.76c0-.28.1-.53.31-.75.21-.22.44-.33.7-.33h1.17c.34,0,.51-.19.51-.57v-3.09c0-.76.39-1.14,1.17-1.14.72,0,1.08.38,1.08,1.14v3.21c0,.3.18.45.54.45h3.27c.76,0,1.14.35,1.14,1.05,0,.74-.41,1.11-1.23,1.11h-3.3c-.28,0-.42.21-.42.63v7.38c0,2.1.7,3.15,2.1,3.15s2.16-.85,2.22-2.55Z"/><path class="cls-1" d="m96.75,23.5c1.34,0,2.45.35,3.35,1.05v-.12c0-.74.32-1.11.96-1.11s.99.32.99.96c0,.12-.02.42-.05.9-.07.4-.1.8-.1,1.2,0,.24.02.59.08,1.05.05.46.07.81.07,1.05,0,.76-.33,1.14-.97,1.14s-.96-.32-.98-.96v-.99c-.02-.6-.37-1.12-1.04-1.54-.67-.43-1.46-.65-2.35-.65s-1.69.24-2.31.71c-.62.47-.93,1.06-.93,1.75,0,1.28.88,2.04,2.64,2.28l1.74.24c3.4.46,5.1,1.87,5.1,4.23,0,1.44-.55,2.61-1.65,3.5s-2.53,1.33-4.31,1.33c-1.66,0-3.09-.47-4.31-1.41v.57c0,.72-.34,1.08-1.02,1.08-.74,0-1.11-.41-1.11-1.23,0,.14.06-.38.18-1.56.04-.28.06-.56.06-.84,0-.48-.04-.93-.12-1.35-.08-.42-.12-.75-.12-.99,0-.7.32-1.05.96-1.05.42,0,.69.1.79.3s.17.73.2,1.59c.02.86.47,1.56,1.35,2.1.88.54,2,.81,3.36.81.98,0,1.79-.25,2.43-.75s.96-1.13.96-1.89c0-1.36-1.08-2.15-3.24-2.37-2.06-.22-3.63-.62-4.71-1.21-1.08-.59-1.62-1.62-1.62-3.1,0-1.4.53-2.54,1.58-3.41s2.43-1.3,4.13-1.3Z"/><path class="cls-1" d="m110.05,30.31v3.9c0,1,.01,1.59.03,1.77.1.9.37,1.35.81,1.35.1,0,.35-.05.75-.15.1-.04.25-.06.45-.06.76,0,1.14.33,1.14.99,0,.28-.13.52-.38.72-.25.2-.57.3-.95.3-.32,0-.81-.04-1.46-.13-.65-.09-1.14-.14-1.46-.14-.52,0-1.1.04-1.75.12-.78.1-1.3.15-1.56.15-.8,0-1.2-.34-1.2-1.02s.34-.99,1.03-.99c.16,0,.4.03.71.09.31.06.55.09.71.09.48,0,.78-.64.88-1.92v-7.68c-.1-1.26-.4-1.89-.91-1.89-.16,0-.39.04-.68.11s-.51.1-.65.1c-.73,0-1.09-.32-1.09-.96,0-.68.44-1.02,1.32-1.02.38,0,.65,0,.81.03.64.08,1.05.12,1.23.12.16,0,.4-.02.73-.07s.57-.08.73-.08c.58,0,.87.39.87,1.17,0,.08,0,.2-.02.36-.02.16-.02.28-.02.36-.02.16-.03.78-.05,1.86-.02.82-.02,1.66-.02,2.52Zm-1.56-7.86c-.46,0-.85-.17-1.19-.5s-.5-.72-.5-1.19.17-.85.5-1.17c.33-.32.72-.48,1.19-.48s.85.16,1.18.48c.33.32.5.71.5,1.17s-.17.86-.5,1.19c-.33.33-.73.5-1.18.5Z"/><path class="cls-1" d="m121.21,23.5c1.98,0,3.46.77,4.44,2.31v-3.03c0-.8-.02-1.29-.06-1.47-.1-.62-.38-.93-.84-.93-.16,0-.39.03-.68.09s-.52.09-.67.09c-.74,0-1.11-.32-1.11-.96s.5-.99,1.5-.99c.16,0,.45.02.87.06.64.06.97.09.99.09.18,0,.44-.02.78-.08.34-.05.6-.08.78-.08.56,0,.84.4.84,1.2v.33c-.02.06-.04.59-.06,1.59,0,.12-.03.89-.09,2.31-.04,1-.06,1.76-.06,2.28v7.96c.02,1.32.08,2.14.18,2.46.1.32.35.48.73.48.26,0,.47-.02.61-.06.33-.04.55-.06.67-.06.75,0,1.13.33,1.13.99s-.45,1.02-1.35,1.02c-.2,0-.51-.03-.92-.08-.41-.05-.72-.08-.92-.08-.06,0-.29.02-.69.06-.24.06-.45.09-.63.09-.54,0-.81-.36-.81-1.08v-.66c-1.06,1.42-2.59,2.13-4.61,2.13s-3.67-.74-4.91-2.22c-1.24-1.48-1.85-3.42-1.85-5.82s.61-4.35,1.83-5.8c1.22-1.45,2.85-2.17,4.89-2.17Zm4.32,10.59c.08-.66.12-1.51.12-2.55,0-1.34-.05-2.25-.15-2.73-.18-1-.61-1.78-1.3-2.34-.81-.66-1.73-.99-2.78-.99-1.41,0-2.51.53-3.31,1.59-.8,1.06-1.19,2.51-1.19,4.35s.41,3.39,1.24,4.48c.83,1.09,1.95,1.64,3.38,1.64,1.09,0,1.99-.32,2.72-.95s1.15-1.46,1.27-2.5Z"/><path class="cls-1" d="m146.11,30.19c0,.76-.05,1.23-.15,1.4-.1.17-.39.25-.87.25h-9.54c-.26,0-.43.04-.51.1-.08.07-.12.19-.12.35,0,1.5.45,2.75,1.35,3.75.9,1,2.02,1.5,3.36,1.5.88,0,1.68-.24,2.42-.72.73-.48,1.2-1.09,1.42-1.83l.27-.87c.14-.48.47-.72.99-.72.74,0,1.11.38,1.11,1.14,0,1.3-.66,2.46-1.98,3.46s-2.82,1.51-4.5,1.51c-2.1,0-3.77-.71-5.01-2.12-1.24-1.41-1.86-3.3-1.86-5.68s.66-4.42,1.98-5.94c1.32-1.52,3.04-2.28,5.16-2.28,1.88,0,3.43.63,4.65,1.89,1.22,1.26,1.83,2.86,1.83,4.8Zm-10.89-.78c0,.28.22.42.66.42h7.17c.42,0,.63-.14.63-.42,0-1.06-.4-1.98-1.2-2.76-.8-.78-1.74-1.17-2.82-1.17s-2.14.41-3.06,1.21c-.92.81-1.38,1.72-1.38,2.72Z"/></svg>