<?xml version="1.0" encoding="UTF-8"?><svg id="Layer_100" xmlns="http://www.w3.org/2000/svg" width="542" height="546" viewBox="0 0 542 546"><defs><style>.cls-1{fill:#fff;}.cls-2{fill:#fdec4b;}.cls-3{fill:#a6a68f;}.cls-4{fill:#b40a00;}.cls-5{fill:#d4af37;}.cls-6{fill:#221f20;}.cls-7{fill:#42502f;}.cls-8{fill:#428c2f;}.cls-9{fill:#42822f;}.cls-10{fill:#42782f;}.cls-11{fill:#426e2f;}.cls-12{fill:#42642f;}.cls-13{fill:#425a2f;}.cls-14{fill:#4b3024;}</style></defs><path d="m271,536.77c-70.46,0-136.69-27.44-186.51-77.26S7.23,343.45,7.23,273s27.44-136.69,77.26-186.51S200.55,9.23,271,9.23s136.69,27.44,186.51,77.26,77.26,116.06,77.26,186.51-27.44,136.69-77.26,186.51-116.06,77.26-186.51,77.26Zm0-517.54c-67.78,0-131.51,26.4-179.44,74.33S17.23,205.21,17.23,273s26.4,131.51,74.33,179.44,111.66,74.33,179.44,74.33,131.51-26.4,179.44-74.33,74.33-111.66,74.33-179.44-26.4-131.51-74.33-179.44S338.78,19.23,271,19.23Z"/><rect class="cls-14" x="251.32" y="451.16" width="52.17" height="38.86" rx="3.42" ry="3.42"/><path class="cls-7" d="m172.5,375.17c-8.82,6.73-20.93,16.82-33.85,30.57-14.09,14.99-38.05,40.49-31.6,51.72,2.45,4.26,8.52,5.24,23.6,5.6,32.8.79,58.07-2.53,62.74-3.14,65.82-8.59,85.97-6.68,92.9-5.88,2.54.29,8.42,1.05,22.75,2.72,9.5,1.11,22.14,2.52,40.83,4.45,4.37.45,16.22,1.64,31.76,1.39,2.17-.03,13.74-.26,29.07-2.5,15.23-2.23,22.89-3.42,24.7-7.19,3.42-7.12-7.51-18.97-18.15-30.28-11.75-12.5-24.2-25.94-40.44-34.21-31.46-16.04-56.74-4.09-103.09-1.78-23.49,1.17-58.1.15-101.23-11.46Z"/><path class="cls-13" d="m163.56,345.9c-11.77,6.46-20.5,13.5-26.69,19.33-7.21,6.79-19.57,18.42-16.62,24.85,1.21,2.64,4.44,3.17,12.5,4.59,36.63,6.45,43.2,8.31,57.46,6.82,4.37-.46,7.85-1.06,9.76-1.41,20.08-6.05,35.09-4.87,45.31-2.49,12.94,3.01,20.98,8.57,40.9,12.71,9.78,2.03,17.19,2.63,23.42,3.13,40.55,3.25,45.68-7.06,91.03-8.09,11.07-.25,19.27.17,22.03-4.8,4.26-7.65-7.8-21.93-13.07-27.73-6-8.46-15.99-20.51-31.22-30.72-75.47-50.62-205.24-6.18-205.24-6.18h0c-3.19,3.34-6.39,6.67-9.58,10.01Z"/><path class="cls-12" d="m192.01,291.49c-7.47,3.94-18.12,10.18-29.76,19.43-11.94,9.48-26.57,21.09-24,28.12,1.67,4.55,9.21,3.57,27.34,7.26,24.05,4.9,24.35,9.4,41.05,11.78,16.73,2.38,29.9-.21,43.93-2.97,30.51-6.01,28.04-13.3,44.03-12.69,20.19.76,26.8,12.47,53.67,12.64,5.97.04,12.72-.49,15.34-.72.21-.02.56-.05.85-.07,10.39-.96,18.22-4.49,27.6-6.65,10.62-2.45,12.53-.67,14-2.75,2.48-3.51-.09-12.65-22.73-37.49-2.45-2.11-6.15-5.19-10.86-8.64,0,0-9.13-10.33-21.23-13.36-9-2.25-152.7,1.97-152.7,1.97-2.18,1.38-4.36,2.77-6.54,4.15Z"/><path class="cls-11" d="m214.79,249.99c-6.81,1.06-10.64,3.68-12.86,5.86-4.14,4.06-4.1,7.92-9.95,12.6-1.26,1-3.47,2.6-5.9,4.13-3.75,2.37-4.46,2.36-6.12,3.54-3.91,2.79-7.87,8.44-6.56,12.01,1.18,3.23,6.38,3.97,11.37,4.7,34.64,5.07,30.92,5.73,36.43,5.52,17.3-.65,18.08-5.75,32.59-7.18,23.63-2.32,26.32,10.73,57.48,13.96,11.66,1.21,23.78-.42,48.03-3.67,22.9-3.07,26.27-5.4,27.21-8.1,3.21-9.25-21.11-25.35-28.74-30.22-3.58-4.12-7.87-8.13-13.01-11.71-28.65-19.94-63.74-12.26-73.82-9.67-18.72,2.74-37.44,5.48-56.16,8.23Z"/><path class="cls-10" d="m342.82,227.25c9.67,15.2,20.46,17.33,18.89,22.56-1.57,5.23-13.24,5.94-15.1,6.06-9.36.57-14.39-3.02-24.34-5.94,0,0-11.62-3.41-26.27-3.26-22.75.22-23.75,11.79-43.98,12.23-15.87.34-15.73-6.77-39.39-7.87-10.43-.49-18.86.51-20.31-3.17-1.22-3.09,3.22-7.61,7.56-12.02,8.27-8.42,12.04-7.13,18.72-14.77,2.74-3.13,4.4-4.56,7.71-7.42.82-.7,2.77-1.77,5.16-3.38.76-.51,1.62-.85,2.52-.99l42.49-6.62c.64-.1,1.3-.1,1.94,0l46.9,7.42c.63.1,1.24.29,1.81.58,0,0,.51.25.97.6,8.73,6.55,14.74,16,14.74,16Z"/><path class="cls-9" d="m330.2,201.19c6.63,4.78,11.42,7.67,10.76,10.21-1.07,4.17-15.95,4.18-24.93,3.3-13.25-1.31-13.22-4.43-23.46-4.85-14.28-.59-16.36,5.83-28.19,3.49-8.58-1.7-9.29-5.43-17.22-5.47-6.7-.03-8.15,2.64-17.77,4.05-3.24.48-15.73,2.31-17.19-1.18-1.32-3.17,7.59-7.94,20.96-21.64,11.49-11.78,9.09-12.55,14.47-16.25,2.91-2,28.17-11.07,54.02,4.01,11.68,6.81,8.1,9.58,28.54,24.32Z"/><path class="cls-8" d="m282.6,136.01c-7.32-13.09-11.17-15.27-13.36-14.72-3.23.81-2.62,7.47-7.58,19-2.57,5.98-5.02,11.7-10.2,17.14-7.19,7.57-16.24,11.02-18.66,18.66-.24.75-.48,1.76,0,2.6,2.07,3.64,15-.19,17.17-.83,4.16-1.23,7.46-2.72,9.69-3.84,10.98-1.88,18.46-.34,23.37,1.53,4.31,1.65,6.41,2.3,12.67,3.78,6.9,1.62,17.1,4.02,18.69,1.09.97-1.8-2.47-5.82-9.4-13.78-6.01-6.9-8.23-8.71-11.49-12.65-3.17-3.84-7.3-9.66-10.9-17.99Z"/><rect class="cls-1" x="241.2" y="127.61" width="9.57" height="43.08" rx="2.43" ry="2.43"/><path class="cls-6" d="m249.59,170.8h-7.22c-.7,0-1.28-.57-1.28-1.28v-40.73c0-.7.57-1.28,1.28-1.28h7.22c.7,0,1.28.57,1.28,1.28v40.73c0,.7-.57,1.28-1.28,1.28Zm-7.22-43.08c-.59,0-1.07.48-1.07,1.07v40.73c0,.59.48,1.07,1.07,1.07h7.22c.59,0,1.07-.48,1.07-1.07v-40.73c0-.59-.48-1.07-1.07-1.07h-7.22Z"/><path class="cls-2" d="m243.29,124.8c-.41-.64-.38-1.39-.18-2.14,1.01-3.74,2.78-4.9,2.78-4.9,1.13,1.06,2.48,2.73,2.96,4.99.3,1.44,0,1.96-.07,2.09-.93,1.5-4.47,1.53-5.48-.03Z"/><path class="cls-6" d="m246.07,126.07c-1.28,0-2.37-.46-2.86-1.21-.38-.58-.44-1.31-.19-2.23,1.01-3.74,2.75-4.92,2.82-4.96.04-.03.09-.02.13.01,1.59,1.49,2.6,3.19,2.99,5.04.21.99.18,1.74-.09,2.17-.45.72-1.5,1.17-2.74,1.18-.02,0-.04,0-.05,0Zm-.18-8.18c-.33.26-1.79,1.55-2.67,4.8-.23.86-.18,1.53.16,2.06h0c.45.69,1.48,1.12,2.69,1.12.02,0,.04,0,.05,0,1.18-.01,2.16-.43,2.57-1.08.23-.38.26-1.09.06-2.02-.38-1.78-1.34-3.42-2.86-4.87Z"/><path class="cls-6" d="m245.98,127.65c-.12,0-.21-.09-.21-.21v-3.53c0-.12.09-.21.21-.21s.21.09.21.21v3.53c0,.12-.09.21-.21.21Z"/><rect class="cls-1" x="264.15" y="166.89" width="5.58" height="19.26" rx="1.51" ry="1.51"/><path class="cls-6" d="m269.24,186.22h-4.6c-.31,0-.55-.25-.55-.55v-18.28c0-.31.25-.55.55-.55h4.6c.31,0,.55.25.55.55v18.28c0,.31-.25.55-.55.55Zm-4.6-19.26c-.23,0-.42.19-.42.42v18.28c0,.23.19.42.42.42h4.6c.23,0,.42-.19.42-.42v-18.28c0-.23-.19-.42-.42-.42h-4.6Z"/><path class="cls-4" d="m266.55,185.92s9.73-10.17,18.82-3.48c9.09,6.69-1.72,20.57-1.72,20.57l-15.72-11.18-1.38-5.92"/><path class="cls-6" d="m283.66,203.1l-.05-.04-15.74-11.19-1.39-5.98.02-.03s2.48-2.57,6.02-4.26c3.27-1.56,8.16-2.7,12.88.78,2.03,1.5,3.23,3.48,3.57,5.89.93,6.72-5.21,14.69-5.28,14.77l-.04.05Zm-15.67-11.3l15.65,11.12c.52-.68,6.09-8.24,5.21-14.63-.33-2.37-1.51-4.33-3.51-5.8-4.67-3.44-9.51-2.31-12.75-.77-3.33,1.59-5.7,3.94-5.96,4.21l1.36,5.86Z"/><path class="cls-1" d="m266.55,185.92s-7.77-12.64-19.29-4.4c-11.52,8.24,2.2,21.5,2.2,21.5l12.93-10.15,4.17-6.94Z"/><path class="cls-6" d="m249.45,203.1l-.04-.04c-.07-.07-7.31-7.15-6.8-14.11.22-2.93,1.77-5.45,4.61-7.48,3.32-2.38,6.65-3.25,9.91-2.59,5.84,1.18,9.44,6.95,9.48,7.01l.02.03-4.2,6.99-12.97,10.19Zm5.56-24.31c-2.55,0-5.14.93-7.72,2.78-2.81,2.01-4.34,4.49-4.55,7.39-.49,6.63,6.14,13.39,6.72,13.97l12.87-10.11,4.14-6.9c-.3-.47-3.82-5.8-9.37-6.92-.69-.14-1.39-.21-2.08-.21Z"/><rect class="cls-1" x="254.46" y="190.92" width="24.18" height="24.18" transform="translate(221.62 -129.02) rotate(45)"/><path class="cls-6" d="m266.55,220.2l-17.19-17.19,17.19-17.19,17.19,17.19-17.19,17.19Zm-17-17.19l17,17,17-17-17-17-17,17Z"/><rect class="cls-4" x="262.51" y="187.56" width="8.04" height="8.04" transform="translate(213.54 -132.35) rotate(45)"/><path class="cls-6" d="m266.53,197.37l-5.78-5.78,5.78-5.78,5.78,5.78-5.78,5.78Zm-5.6-5.78l5.6,5.6,5.6-5.6-5.6-5.6-5.6,5.6Z"/><rect class="cls-4" x="262.51" y="198.97" width="8.04" height="8.04" transform="translate(221.6 -129.01) rotate(45)"/><path class="cls-6" d="m266.53,208.77l-5.78-5.78,5.78-5.78,5.78,5.78-5.78,5.78Zm-5.6-5.78l5.6,5.6,5.6-5.6-5.6-5.6-5.6,5.6Z"/><rect class="cls-4" x="273.93" y="198.99" width="8.04" height="8.04" transform="translate(224.96 -137.08) rotate(45)"/><path class="cls-6" d="m277.95,208.79l-5.78-5.78,5.78-5.78,5.78,5.78-5.78,5.78Zm-5.6-5.78l5.6,5.6,5.6-5.6-5.6-5.6-5.6,5.6Z"/><rect class="cls-4" x="251.08" y="198.99" width="8.04" height="8.04" transform="translate(218.27 -120.92) rotate(45)"/><path class="cls-6" d="m255.1,208.79l-5.78-5.78,5.78-5.78,5.78,5.78-5.78,5.78Zm-5.6-5.78l5.6,5.6,5.6-5.6-5.6-5.6-5.6,5.6Z"/><rect class="cls-4" x="262.53" y="210.4" width="8.04" height="8.04" transform="translate(229.69 -125.68) rotate(45)"/><path class="cls-6" d="m266.55,220.2l-5.78-5.78,5.78-5.78,5.78,5.78-5.78,5.78Zm-5.6-5.78l5.6,5.6,5.6-5.6-5.6-5.6-5.6,5.6Z"/><circle class="cls-4" cx="293.79" cy="151.88" r="15.49"/><path class="cls-1" d="m281.59,147.83c-.32.46-1.36,2.42-.69,5.79.08.38.77,3.7,2.56,4.65.2.11.79.42,1.09.19.22-.17.19-.57.14-.9-.21-1.39-.91-2.19-1.38-3.19-.03-.07-.6-1.28-.67-2.76-.11-2.32,1.07-3.99.48-4.43-.18-.13-.45-.1-.52-.1-.53.05-.87.54-1.01.74Z"/><path class="cls-3" d="m271.52,134.29c-3.51,0-6.93-1.52-8.71-3.21-.85-.81-1.27-1.61-1.22-2.31.06-.82.75-1.47,1.72-1.97-.38-1.09-.4-2.42-.05-3.54.38-1.18,1.12-1.95,1.89-2.47-.29-.47-.43-.93-.42-1.37.04-1.38,1.44-2.33,2.49-2.93-.63-.95-.72-1.71-.65-2.23.09-.7.48-1.32,1.15-1.82-.14-.35-.22-.74-.19-1.14.06-.68.43-1.25.95-1.7-.24-.31-.85-1.12-.71-1.94.09-.52.46-.9.95-1.17-.12-.23-.19-.47-.19-.73,0-.33.14-.63.34-.9-.02-.03-.05-.07-.07-.11-.15-.39.08-1.07,2.83-3.42.1-.08.25-.07.33.03.09.1.07.25-.03.33-2.14,1.83-2.59,2.54-2.68,2.78.55-.45,1.32-.74,1.95-.81.95-.11,1.97.23,2.4.63.16.15.24.31.24.47,0,.19-.03.71-2.46.9-.05,0-1.14.08-2.13-.51-.15.19-.25.4-.25.63,0,.18.05.35.14.52.84-.33,1.87-.42,2.61-.41.27,0,2.61.07,2.66.92.01.21-.12.44-.4.66-.56.45-1.88.96-3.22.57-.6-.18-1.34-.59-1.81-1.14-.4.21-.69.49-.76.86-.11.61.41,1.3.62,1.57.82-.55,1.87-.85,2.73-.88,1.27-.04,2.53.45,3.03.96.18.18.27.37.26.55,0,.18-.1.35-.28.49-.62.51-2.24.76-3.54.56-1.14-.18-1.86-.67-2.26-1.05-.44.37-.75.84-.8,1.39-.02.29.02.57.12.83.08-.05.17-.1.26-.15.86-.45,1.95-.73,2.93-.74,1.44-.02,3.19.57,3.91,1.31.24.24.35.49.34.73-.02.49-.56,1-1.44,1.38-1.39.59-3.58.79-5.17-.6-.2-.18-.67-.62-1.01-1.22-.48.39-.82.87-.9,1.44-.06.44.03,1.09.59,1.94.03-.02.06-.03.08-.05,2.15-1.16,4.05-1.03,4.78-.91,1.38.22,4.01,1.22,3.92,2.28-.04.47-.61.93-1.56,1.27-1.54.54-4.72.86-6.87-1.41-.18-.19-.35-.38-.49-.56-.96.55-2.26,1.41-2.3,2.56-.01.35.11.72.35,1.11.61-.34,1.21-.55,1.63-.69,3.84-1.31,8.02.45,9.75,1.86.5.41,1.09,1.02,1.02,1.59-.03.28-.24.66-1.05.96-2.39.86-7.93.35-10.84-2.39-.25-.23-.46-.46-.64-.69-.71.47-1.38,1.17-1.71,2.22-.32,1.01-.31,2.2.02,3.19,1.96-.87,4.74-1.25,6.03-1.33,3.25-.19,7.15.63,8.36,1.77.25.24.38.49.38.74,0,.24-.12.48-.36.71-1.14,1.07-5.02,1.83-8.3,1.63-2.06-.13-5.16-.32-6.36-2.85-.83.44-1.39.97-1.43,1.55-.04.55.34,1.23,1.08,1.93,1.94,1.84,5.91,3.47,9.73,3,1.86-.23,3.68-.95,5.41-2.16.11-.08.26-.05.33.06.08.11.05.26-.06.33-1.79,1.25-3.69,2.01-5.62,2.25-.47.06-.94.08-1.41.08Zm-7.61-7.24c1.08,2.27,3.89,2.45,5.96,2.58,3.35.21,7.02-.63,7.94-1.5.1-.09.21-.22.21-.36,0-.14-.13-.29-.23-.39-1-.94-4.64-1.84-8.01-1.64-1.9.11-4.26.58-5.87,1.31Zm1.91-6.11c.16.19.34.39.55.59,2.87,2.7,8.33,3.02,10.35,2.29.45-.16.72-.37.74-.57.03-.21-.18-.63-.85-1.17-1.78-1.45-5.83-2.95-9.3-1.78-.38.13-.94.32-1.5.63Zm2.08-4.29c.12.15.26.31.41.47,1.98,2.09,4.94,1.79,6.37,1.29.79-.28,1.22-.64,1.24-.86.04-.48-1.81-1.5-3.52-1.77-.67-.11-2.45-.24-4.47.86,0,0-.02,0-.02.01Zm.4-4.04c.31.55.74.97.93,1.13,1.33,1.17,3.3,1.1,4.67.52.74-.32,1.14-.72,1.16-.96,0-.1-.07-.24-.21-.38-.56-.58-2.13-1.18-3.56-1.17-.93.01-2.11.31-2.99.85Zm.87-2.94c.36.32.98.71,1.94.86,1.25.2,2.7-.08,3.17-.46.1-.08.11-.13.11-.15,0-.03-.03-.1-.12-.2-.42-.43-1.6-.86-2.68-.82-.74.03-1.68.29-2.42.76Zm.27-2.97c.4.41,1,.73,1.49.88,1.09.32,2.22-.08,2.71-.43.24-.17.3-.3.3-.32-.07-.19-1.1-.45-2.2-.47-.67-.01-1.57.08-2.3.34Zm.15-1.89c.83.44,1.73.38,1.74.37,1.36-.11,1.96-.34,2.03-.46-.05-.17-1.01-.72-2.11-.59-.53.06-1.19.31-1.66.67Z"/><polygon class="cls-5" points="271.68 22.41 287.16 53.77 321.77 58.8 296.73 83.21 302.64 117.68 271.68 101.41 240.73 117.68 246.64 83.21 221.6 58.8 256.21 53.77 271.68 22.41"/><rect class="cls-1" x="321.88" y="198.56" width="9.57" height="43.08" rx="2.43" ry="2.43"/><path class="cls-6" d="m330.27,241.74h-7.22c-.7,0-1.28-.57-1.28-1.28v-40.73c0-.7.57-1.28,1.28-1.28h7.22c.7,0,1.28.57,1.28,1.28v40.73c0,.7-.57,1.28-1.28,1.28Zm-7.22-43.08c-.59,0-1.07.48-1.07,1.07v40.73c0,.59.48,1.07,1.07,1.07h7.22c.59,0,1.07-.48,1.07-1.07v-40.73c0-.59-.48-1.07-1.07-1.07h-7.22Z"/><path class="cls-2" d="m323.98,195.74c-.41-.64-.38-1.39-.18-2.14,1.01-3.74,2.78-4.9,2.78-4.9,1.13,1.06,2.48,2.73,2.96,4.99.3,1.44,0,1.96-.07,2.09-.93,1.5-4.47,1.53-5.48-.03Z"/><path class="cls-6" d="m326.75,197.02c-1.28,0-2.37-.46-2.86-1.21-.38-.58-.44-1.31-.19-2.23,1.01-3.74,2.75-4.92,2.82-4.96.04-.03.09-.02.13.01,1.59,1.49,2.6,3.19,2.99,5.04.21.99.18,1.74-.09,2.17-.45.72-1.5,1.17-2.74,1.18-.02,0-.04,0-.05,0Zm-.18-8.18c-.33.26-1.79,1.55-2.67,4.8-.23.86-.18,1.53.16,2.06h0c.45.69,1.48,1.12,2.69,1.12.02,0,.04,0,.05,0,1.18-.01,2.16-.43,2.57-1.08.23-.38.26-1.09.06-2.02-.38-1.78-1.34-3.42-2.86-4.87Z"/><path class="cls-6" d="m326.66,198.59c-.12,0-.21-.09-.21-.21v-3.53c0-.12.09-.21.21-.21s.21.09.21.21v3.53c0,.12-.09.21-.21.21Z"/><rect class="cls-1" x="247.18" y="238.25" width="9.57" height="43.08" rx="2.43" ry="2.43"/><path class="cls-6" d="m255.58,281.43h-7.22c-.7,0-1.28-.57-1.28-1.28v-40.73c0-.7.57-1.28,1.28-1.28h7.22c.7,0,1.28.57,1.28,1.28v40.73c0,.7-.57,1.28-1.28,1.28Zm-7.22-43.08c-.59,0-1.07.48-1.07,1.07v40.73c0,.59.48,1.07,1.07,1.07h7.22c.59,0,1.07-.48,1.07-1.07v-40.73c0-.59-.48-1.07-1.07-1.07h-7.22Z"/><path class="cls-2" d="m249.28,235.44c-.41-.64-.38-1.39-.18-2.14,1.01-3.74,2.78-4.9,2.78-4.9,1.13,1.06,2.48,2.73,2.96,4.99.3,1.44,0,1.96-.07,2.09-.93,1.5-4.47,1.53-5.48-.03Z"/><path class="cls-6" d="m252.06,236.71c-1.28,0-2.37-.46-2.86-1.21-.38-.58-.44-1.31-.19-2.23,1.01-3.74,2.75-4.92,2.82-4.96.04-.03.09-.02.13.01,1.59,1.49,2.6,3.19,2.99,5.04.21.99.18,1.74-.09,2.17-.45.72-1.5,1.17-2.74,1.18-.02,0-.04,0-.05,0Zm-.18-8.18c-.33.26-1.79,1.55-2.67,4.8-.23.86-.18,1.53.16,2.06h0c.45.69,1.48,1.12,2.69,1.12.02,0,.04,0,.05,0,1.18-.01,2.16-.43,2.57-1.08.23-.38.26-1.09.06-2.02-.38-1.78-1.34-3.42-2.86-4.87Z"/><path class="cls-6" d="m251.97,238.28c-.12,0-.21-.09-.21-.21v-3.53c0-.12.09-.21.21-.21s.21.09.21.21v3.53c0,.12-.09.21-.21.21Z"/><rect class="cls-1" x="289.01" y="284.68" width="9.57" height="43.08" rx="2.43" ry="2.43"/><path class="cls-6" d="m297.4,327.86h-7.22c-.7,0-1.28-.57-1.28-1.28v-40.73c0-.7.57-1.28,1.28-1.28h7.22c.7,0,1.28.57,1.28,1.28v40.73c0,.7-.57,1.28-1.28,1.28Zm-7.22-43.08c-.59,0-1.07.48-1.07,1.07v40.73c0,.59.48,1.07,1.07,1.07h7.22c.59,0,1.07-.48,1.07-1.07v-40.73c0-.59-.48-1.07-1.07-1.07h-7.22Z"/><path class="cls-2" d="m291.1,281.86c-.41-.64-.38-1.39-.18-2.14,1.01-3.74,2.78-4.9,2.78-4.9,1.13,1.06,2.48,2.73,2.96,4.99.3,1.44,0,1.96-.07,2.09-.93,1.5-4.47,1.53-5.48-.03Z"/><path class="cls-6" d="m293.88,283.13c-1.28,0-2.37-.46-2.86-1.21-.38-.58-.44-1.31-.19-2.23,1.01-3.74,2.75-4.92,2.82-4.96.04-.03.09-.02.13.01,1.59,1.49,2.6,3.19,2.99,5.04.21.99.18,1.74-.09,2.17-.45.72-1.5,1.17-2.74,1.18-.02,0-.04,0-.05,0Zm-.18-8.18c-.33.26-1.79,1.55-2.67,4.8-.23.86-.18,1.53.16,2.06h0c.45.69,1.48,1.12,2.69,1.12.02,0,.04,0,.05,0,1.18-.01,2.16-.43,2.57-1.08.23-.38.26-1.09.06-2.02-.38-1.78-1.34-3.42-2.86-4.87Z"/><path class="cls-6" d="m293.79,284.71c-.12,0-.21-.09-.21-.21v-3.53c0-.12.09-.21.21-.21s.21.09.21.21v3.53c0,.12-.09.21-.21.21Z"/><rect class="cls-1" x="150.5" y="291.54" width="9.57" height="43.08" rx="2.43" ry="2.43"/><path class="cls-6" d="m158.9,334.72h-7.22c-.7,0-1.28-.57-1.28-1.28v-40.73c0-.7.57-1.28,1.28-1.28h7.22c.7,0,1.28.57,1.28,1.28v40.73c0,.7-.57,1.28-1.28,1.28Zm-7.22-43.08c-.59,0-1.07.48-1.07,1.07v40.73c0,.59.48,1.07,1.07,1.07h7.22c.59,0,1.07-.48,1.07-1.07v-40.73c0-.59-.48-1.07-1.07-1.07h-7.22Z"/><path class="cls-2" d="m152.6,288.73c-.41-.64-.38-1.39-.18-2.14,1.01-3.74,2.78-4.9,2.78-4.9,1.13,1.06,2.48,2.73,2.96,4.99.3,1.44,0,1.96-.07,2.09-.93,1.5-4.47,1.53-5.48-.03Z"/><path class="cls-6" d="m155.38,290c-1.28,0-2.37-.46-2.86-1.21-.38-.58-.44-1.31-.19-2.23,1.01-3.74,2.75-4.92,2.82-4.96.04-.03.09-.02.13.01,1.59,1.49,2.6,3.19,2.99,5.04.21.99.18,1.74-.09,2.17-.45.72-1.5,1.17-2.74,1.18-.02,0-.04,0-.05,0Zm-.18-8.18c-.33.26-1.79,1.55-2.67,4.8-.23.86-.18,1.53.16,2.06h0c.45.69,1.48,1.12,2.69,1.12.02,0,.04,0,.05,0,1.18-.01,2.16-.43,2.57-1.08.23-.38.26-1.09.06-2.02-.38-1.78-1.34-3.42-2.86-4.87Z"/><path class="cls-6" d="m155.29,291.58c-.12,0-.21-.09-.21-.21v-3.53c0-.12.09-.21.21-.21s.21.09.21.21v3.53c0,.12-.09.21-.21.21Z"/><rect class="cls-1" x="393.71" y="329.79" width="9.57" height="43.08" rx="2.43" ry="2.43"/><path class="cls-6" d="m402.1,372.97h-7.22c-.7,0-1.28-.57-1.28-1.28v-40.73c0-.7.57-1.28,1.28-1.28h7.22c.7,0,1.28.57,1.28,1.28v40.73c0,.7-.57,1.28-1.28,1.28Zm-7.22-43.08c-.59,0-1.07.48-1.07,1.07v40.73c0,.59.48,1.07,1.07,1.07h7.22c.59,0,1.07-.48,1.07-1.07v-40.73c0-.59-.48-1.07-1.07-1.07h-7.22Z"/><path class="cls-2" d="m395.81,326.98c-.41-.64-.38-1.39-.18-2.14,1.01-3.74,2.78-4.9,2.78-4.9,1.13,1.06,2.48,2.73,2.96,4.99.3,1.44,0,1.96-.07,2.09-.93,1.5-4.47,1.53-5.48-.03Z"/><path class="cls-6" d="m398.58,328.25c-1.28,0-2.37-.46-2.86-1.21-.38-.58-.44-1.31-.19-2.23,1.01-3.74,2.75-4.92,2.82-4.96.04-.03.09-.02.13.01,1.59,1.49,2.6,3.19,2.99,5.04.21.99.18,1.74-.09,2.17-.45.72-1.5,1.17-2.74,1.18-.02,0-.04,0-.05,0Zm-.18-8.18c-.33.26-1.79,1.55-2.67,4.8-.23.86-.18,1.53.16,2.06h0c.45.69,1.48,1.12,2.69,1.12.02,0,.04,0,.05,0,1.18-.01,2.16-.43,2.57-1.08.23-.38.26-1.09.06-2.02-.38-1.78-1.34-3.42-2.86-4.87Z"/><path class="cls-6" d="m398.49,329.83c-.12,0-.21-.09-.21-.21v-3.53c0-.12.09-.21.21-.21s.21.09.21.21v3.53c0,.12-.09.21-.21.21Z"/><rect class="cls-1" x="202.41" y="349.35" width="9.57" height="43.08" rx="2.43" ry="2.43"/><path class="cls-6" d="m210.8,392.53h-7.22c-.7,0-1.28-.57-1.28-1.28v-40.73c0-.7.57-1.28,1.28-1.28h7.22c.7,0,1.28.57,1.28,1.28v40.73c0,.7-.57,1.28-1.28,1.28Zm-7.22-43.08c-.59,0-1.07.48-1.07,1.07v40.73c0,.59.48,1.07,1.07,1.07h7.22c.59,0,1.07-.48,1.07-1.07v-40.73c0-.59-.48-1.07-1.07-1.07h-7.22Z"/><path class="cls-2" d="m204.51,346.53c-.41-.64-.38-1.39-.18-2.14,1.01-3.74,2.78-4.9,2.78-4.9,1.13,1.06,2.48,2.73,2.96,4.99.3,1.44,0,1.96-.07,2.09-.93,1.5-4.47,1.53-5.48-.03Z"/><path class="cls-6" d="m207.28,347.8c-1.28,0-2.37-.46-2.86-1.21-.38-.58-.44-1.31-.19-2.23,1.01-3.74,2.75-4.92,2.82-4.96.04-.03.09-.02.13.01,1.59,1.49,2.6,3.19,2.99,5.04.21.99.18,1.74-.09,2.17-.45.72-1.5,1.17-2.74,1.18-.02,0-.04,0-.05,0Zm-.18-8.18c-.33.26-1.79,1.55-2.67,4.8-.23.86-.18,1.53.16,2.06h0c.45.69,1.48,1.12,2.69,1.12.02,0,.04,0,.05,0,1.18-.01,2.16-.43,2.57-1.08.23-.38.26-1.09.06-2.02-.38-1.78-1.34-3.42-2.86-4.87Z"/><path class="cls-6" d="m207.19,349.38c-.12,0-.21-.09-.21-.21v-3.53c0-.12.09-.21.21-.21s.21.09.21.21v3.53c0,.12-.09.21-.21.21Z"/><rect class="cls-1" x="341.81" y="366.97" width="9.57" height="43.08" rx="2.43" ry="2.43"/><path class="cls-6" d="m350.2,410.16h-7.22c-.7,0-1.28-.57-1.28-1.28v-40.73c0-.7.57-1.28,1.28-1.28h7.22c.7,0,1.28.57,1.28,1.28v40.73c0,.7-.57,1.28-1.28,1.28Zm-7.22-43.08c-.59,0-1.07.48-1.07,1.07v40.73c0,.59.48,1.07,1.07,1.07h7.22c.59,0,1.07-.48,1.07-1.07v-40.73c0-.59-.48-1.07-1.07-1.07h-7.22Z"/><path class="cls-2" d="m343.91,364.16c-.41-.64-.38-1.39-.18-2.14,1.01-3.74,2.78-4.9,2.78-4.9,1.13,1.06,2.48,2.73,2.96,4.99.3,1.44,0,1.96-.07,2.09-.93,1.5-4.47,1.53-5.48-.03Z"/><path class="cls-6" d="m346.68,365.43c-1.28,0-2.37-.46-2.86-1.21-.38-.58-.44-1.31-.19-2.23,1.01-3.74,2.75-4.92,2.82-4.96.04-.03.09-.02.13.01,1.59,1.49,2.6,3.19,2.99,5.04.21.99.18,1.74-.09,2.17-.45.72-1.5,1.17-2.74,1.18-.02,0-.04,0-.05,0Zm-.18-8.18c-.33.26-1.79,1.55-2.67,4.8-.23.86-.18,1.53.16,2.06h0c.45.69,1.48,1.12,2.69,1.12.02,0,.04,0,.05,0,1.18-.01,2.16-.43,2.57-1.08.23-.38.26-1.09.06-2.02-.38-1.78-1.34-3.42-2.86-4.87Z"/><path class="cls-6" d="m346.59,367.01c-.12,0-.21-.09-.21-.21v-3.53c0-.12.09-.21.21-.21s.21.09.21.21v3.53c0,.12-.09.21-.21.21Z"/><rect class="cls-1" x="115.03" y="411.12" width="9.57" height="43.08" rx="2.43" ry="2.43"/><path class="cls-6" d="m123.42,454.3h-7.22c-.7,0-1.28-.57-1.28-1.28v-40.73c0-.7.57-1.28,1.28-1.28h7.22c.7,0,1.28.57,1.28,1.28v40.73c0,.7-.57,1.28-1.28,1.28Zm-7.22-43.08c-.59,0-1.07.48-1.07,1.07v40.73c0,.59.48,1.07,1.07,1.07h7.22c.59,0,1.07-.48,1.07-1.07v-40.73c0-.59-.48-1.07-1.07-1.07h-7.22Z"/><path class="cls-2" d="m117.13,408.31c-.41-.64-.38-1.39-.18-2.14,1.01-3.74,2.78-4.9,2.78-4.9,1.13,1.06,2.48,2.73,2.96,4.99.3,1.44,0,1.96-.07,2.09-.93,1.5-4.47,1.53-5.48-.03Z"/><path class="cls-6" d="m119.9,409.58c-1.28,0-2.37-.46-2.86-1.21-.38-.58-.44-1.31-.19-2.23,1.01-3.74,2.75-4.92,2.82-4.96.04-.03.09-.02.13.01,1.59,1.49,2.6,3.19,2.99,5.04.21.99.18,1.74-.09,2.17-.45.72-1.5,1.17-2.74,1.18-.02,0-.04,0-.05,0Zm-.18-8.18c-.33.26-1.79,1.55-2.67,4.8-.23.86-.18,1.53.16,2.06h0c.45.69,1.48,1.12,2.69,1.12.02,0,.04,0,.05,0,1.18-.01,2.16-.43,2.57-1.08.23-.38.26-1.09.06-2.02-.38-1.78-1.34-3.42-2.86-4.87Z"/><path class="cls-6" d="m119.81,411.16c-.12,0-.21-.09-.21-.21v-3.53c0-.12.09-.21.21-.21s.21.09.21.21v3.53c0,.12-.09.21-.21.21Z"/><rect class="cls-1" x="347.25" y="293.21" width="5.58" height="19.26" rx="1.51" ry="1.51"/><path class="cls-6" d="m352.35,312.54h-4.6c-.31,0-.55-.25-.55-.55v-18.28c0-.31.25-.55.55-.55h4.6c.31,0,.55.25.55.55v18.28c0,.31-.25.55-.55.55Zm-4.6-19.26c-.23,0-.42.19-.42.42v18.28c0,.23.19.42.42.42h4.6c.23,0,.42-.19.42-.42v-18.28c0-.23-.19-.42-.42-.42h-4.6Z"/><path class="cls-4" d="m349.65,312.23s9.73-10.17,18.82-3.48c9.09,6.69-1.72,20.57-1.72,20.57l-15.72-11.18-1.38-5.92"/><path class="cls-6" d="m366.76,329.42l-.05-.04-15.74-11.19-1.39-5.98.02-.03s2.48-2.57,6.02-4.26c3.27-1.56,8.16-2.7,12.88.78,2.03,1.5,3.23,3.48,3.57,5.89.93,6.72-5.21,14.69-5.28,14.77l-.04.05Zm-15.67-11.3l15.65,11.12c.52-.68,6.09-8.24,5.21-14.63-.33-2.37-1.51-4.33-3.51-5.8-4.67-3.44-9.51-2.31-12.75-.77-3.33,1.59-5.7,3.94-5.96,4.21l1.36,5.86Z"/><path class="cls-1" d="m349.65,312.23s-7.77-12.64-19.29-4.4c-11.52,8.24,2.2,21.5,2.2,21.5l12.93-10.15,4.17-6.94Z"/><path class="cls-6" d="m332.56,329.42l-.04-.04c-.07-.07-7.31-7.15-6.8-14.11.22-2.93,1.77-5.45,4.61-7.48,3.32-2.38,6.65-3.25,9.91-2.59,5.84,1.18,9.44,6.95,9.48,7.01l.02.03-4.2,6.99-12.97,10.19Zm5.56-24.31c-2.55,0-5.14.93-7.72,2.78-2.81,2.01-4.34,4.49-4.55,7.39-.49,6.63,6.14,13.39,6.72,13.97l12.87-10.11,4.14-6.9c-.3-.47-3.82-5.8-9.37-6.92-.69-.14-1.39-.21-2.08-.21Z"/><rect class="cls-1" x="337.57" y="317.24" width="24.18" height="24.18" transform="translate(335.28 -150.79) rotate(45)"/><path class="cls-6" d="m349.65,346.52l-17.19-17.19,17.19-17.19,17.19,17.19-17.19,17.19Zm-17-17.19l17,17,17-17-17-17-17,17Z"/><rect class="cls-4" x="345.61" y="313.88" width="8.04" height="8.04" transform="translate(327.2 -154.12) rotate(45)"/><path class="cls-6" d="m349.64,323.68l-5.78-5.78,5.78-5.78,5.78,5.78-5.78,5.78Zm-5.6-5.78l5.6,5.6,5.6-5.6-5.6-5.6-5.6,5.6Z"/><rect class="cls-4" x="345.61" y="325.29" width="8.04" height="8.04" transform="translate(335.26 -150.78) rotate(45)"/><path class="cls-6" d="m349.64,335.09l-5.78-5.78,5.78-5.78,5.78,5.78-5.78,5.78Zm-5.6-5.78l5.6,5.6,5.6-5.6-5.6-5.6-5.6,5.6Z"/><rect class="cls-4" x="357.04" y="325.31" width="8.04" height="8.04" transform="translate(338.62 -158.85) rotate(45)"/><path class="cls-6" d="m361.06,335.11l-5.78-5.78,5.78-5.78,5.78,5.78-5.78,5.78Zm-5.6-5.78l5.6,5.6,5.6-5.6-5.6-5.6-5.6,5.6Z"/><rect class="cls-4" x="334.19" y="325.31" width="8.04" height="8.04" transform="translate(331.93 -142.69) rotate(45)"/><path class="cls-6" d="m338.21,335.11l-5.78-5.78,5.78-5.78,5.78,5.78-5.78,5.78Zm-5.6-5.78l5.6,5.6,5.6-5.6-5.6-5.6-5.6,5.6Z"/><rect class="cls-4" x="345.63" y="336.71" width="8.04" height="8.04" transform="translate(343.35 -147.44) rotate(45)"/><path class="cls-6" d="m349.65,346.52l-5.78-5.78,5.78-5.78,5.78,5.78-5.78,5.78Zm-5.6-5.78l5.6,5.6,5.6-5.6-5.6-5.6-5.6,5.6Z"/><rect class="cls-1" x="194.71" y="285.5" width="5.58" height="19.26" rx="1.51" ry="1.51"/><path class="cls-6" d="m199.8,304.83h-4.6c-.31,0-.55-.25-.55-.55v-18.28c0-.31.25-.55.55-.55h4.6c.31,0,.55.25.55.55v18.28c0,.31-.25.55-.55.55Zm-4.6-19.26c-.23,0-.42.19-.42.42v18.28c0,.23.19.42.42.42h4.6c.23,0,.42-.19.42-.42v-18.28c0-.23-.19-.42-.42-.42h-4.6Z"/><path class="cls-4" d="m197.11,304.53s9.73-10.17,18.82-3.48c9.09,6.69-1.72,20.57-1.72,20.57l-15.72-11.18-1.38-5.92"/><path class="cls-6" d="m214.22,321.71l-.05-.04-15.74-11.19-1.39-5.98.02-.03s2.48-2.57,6.02-4.26c3.27-1.56,8.16-2.7,12.88.78,2.03,1.5,3.23,3.48,3.57,5.89.93,6.72-5.21,14.69-5.28,14.77l-.04.05Zm-15.67-11.3l15.65,11.12c.52-.68,6.09-8.24,5.21-14.63-.33-2.37-1.51-4.33-3.51-5.8-4.67-3.44-9.51-2.31-12.75-.77-3.33,1.59-5.7,3.94-5.96,4.21l1.36,5.86Z"/><path class="cls-1" d="m197.11,304.53s-7.77-12.64-19.29-4.4c-11.52,8.24,2.2,21.5,2.2,21.5l12.93-10.15,4.17-6.94Z"/><path class="cls-6" d="m180.01,321.71l-.04-.04c-.07-.07-7.31-7.15-6.8-14.11.22-2.93,1.77-5.45,4.61-7.48,3.32-2.38,6.65-3.25,9.91-2.59,5.84,1.18,9.44,6.95,9.48,7.01l.02.03-4.2,6.99-12.97,10.19Zm5.56-24.31c-2.55,0-5.14.93-7.72,2.78-2.81,2.01-4.34,4.49-4.55,7.39-.49,6.63,6.14,13.39,6.72,13.97l12.87-10.11,4.14-6.9c-.3-.47-3.82-5.8-9.37-6.92-.69-.14-1.39-.21-2.08-.21Z"/><rect class="cls-1" x="185.02" y="309.54" width="24.18" height="24.18" transform="translate(285.15 -45.18) rotate(45)"/><path class="cls-6" d="m197.11,338.81l-17.19-17.19,17.19-17.19,17.19,17.19-17.19,17.19Zm-17-17.19l17,17,17-17-17-17-17,17Z"/><rect class="cls-4" x="193.07" y="306.17" width="8.04" height="8.04" transform="translate(277.07 -48.51) rotate(45)"/><path class="cls-6" d="m197.09,315.98l-5.78-5.78,5.78-5.78,5.78,5.78-5.78,5.78Zm-5.6-5.78l5.6,5.6,5.6-5.6-5.6-5.6-5.6,5.6Z"/><rect class="cls-4" x="193.07" y="317.58" width="8.04" height="8.04" transform="translate(285.13 -45.17) rotate(45)"/><path class="cls-6" d="m197.09,327.38l-5.78-5.78,5.78-5.78,5.78,5.78-5.78,5.78Zm-5.6-5.78l5.6,5.6,5.6-5.6-5.6-5.6-5.6,5.6Z"/><rect class="cls-4" x="204.49" y="317.6" width="8.04" height="8.04" transform="translate(288.49 -53.24) rotate(45)"/><path class="cls-6" d="m208.52,327.4l-5.78-5.78,5.78-5.78,5.78,5.78-5.78,5.78Zm-5.6-5.78l5.6,5.6,5.6-5.6-5.6-5.6-5.6,5.6Z"/><rect class="cls-4" x="181.64" y="317.6" width="8.04" height="8.04" transform="translate(281.8 -37.08) rotate(45)"/><path class="cls-6" d="m185.66,327.4l-5.78-5.78,5.78-5.78,5.78,5.78-5.78,5.78Zm-5.6-5.78l5.6,5.6,5.6-5.6-5.6-5.6-5.6,5.6Z"/><rect class="cls-4" x="193.09" y="329.01" width="8.04" height="8.04" transform="translate(293.22 -41.84) rotate(45)"/><path class="cls-6" d="m197.11,338.81l-5.78-5.78,5.78-5.78,5.78,5.78-5.78,5.78Zm-5.6-5.78l5.6,5.6,5.6-5.6-5.6-5.6-5.6,5.6Z"/><rect class="cls-1" x="230.98" y="387.43" width="5.58" height="19.26" rx="1.51" ry="1.51"/><path class="cls-6" d="m236.07,406.76h-4.6c-.31,0-.55-.25-.55-.55v-18.28c0-.31.25-.55.55-.55h4.6c.31,0,.55.25.55.55v18.28c0,.31-.25.55-.55.55Zm-4.6-19.26c-.23,0-.42.19-.42.42v18.28c0,.23.19.42.42.42h4.6c.23,0,.42-.19.42-.42v-18.28c0-.23-.19-.42-.42-.42h-4.6Z"/><path class="cls-4" d="m233.38,406.46s9.73-10.17,18.82-3.48c9.09,6.69-1.72,20.57-1.72,20.57l-15.72-11.18-1.38-5.92"/><path class="cls-6" d="m250.49,423.64l-.05-.04-15.74-11.19-1.39-5.98.02-.03s2.48-2.57,6.02-4.26c3.27-1.56,8.16-2.7,12.88.78,2.03,1.5,3.23,3.48,3.57,5.89.93,6.72-5.21,14.69-5.28,14.77l-.04.05Zm-15.67-11.3l15.65,11.12c.52-.68,6.09-8.24,5.21-14.63-.33-2.37-1.51-4.33-3.51-5.8-4.67-3.44-9.51-2.31-12.75-.77-3.33,1.59-5.7,3.94-5.96,4.21l1.36,5.86Z"/><path class="cls-1" d="m233.38,406.46s-7.77-12.64-19.29-4.4c-11.52,8.24,2.2,21.5,2.2,21.5l12.93-10.15,4.17-6.94Z"/><path class="cls-6" d="m216.28,423.64l-.04-.04c-.07-.07-7.31-7.15-6.8-14.11.22-2.93,1.77-5.45,4.61-7.48,3.32-2.38,6.65-3.25,9.91-2.59,5.84,1.18,9.44,6.95,9.48,7.01l.02.03-4.2,6.99-12.97,10.19Zm5.56-24.31c-2.55,0-5.14.93-7.72,2.78-2.81,2.01-4.34,4.49-4.55,7.39-.49,6.63,6.14,13.39,6.72,13.97l12.87-10.11,4.14-6.9c-.3-.47-3.82-5.8-9.37-6.92-.69-.14-1.39-.21-2.08-.21Z"/><rect class="cls-1" x="221.29" y="411.47" width="24.18" height="24.18" transform="translate(367.85 -40.97) rotate(45)"/><path class="cls-6" d="m233.38,440.74l-17.19-17.19,17.19-17.19,17.19,17.19-17.19,17.19Zm-17-17.19l17,17,17-17-17-17-17,17Z"/><rect class="cls-4" x="229.34" y="408.11" width="8.04" height="8.04" transform="translate(359.77 -44.3) rotate(45)"/><path class="cls-6" d="m233.36,417.91l-5.78-5.78,5.78-5.78,5.78,5.78-5.78,5.78Zm-5.6-5.78l5.6,5.6,5.6-5.6-5.6-5.6-5.6,5.6Z"/><rect class="cls-4" x="229.34" y="419.51" width="8.04" height="8.04" transform="translate(367.83 -40.96) rotate(45)"/><path class="cls-6" d="m233.36,429.31l-5.78-5.78,5.78-5.78,5.78,5.78-5.78,5.78Zm-5.6-5.78l5.6,5.6,5.6-5.6-5.6-5.6-5.6,5.6Z"/><rect class="cls-4" x="240.76" y="419.53" width="8.04" height="8.04" transform="translate(371.19 -49.03) rotate(45)"/><path class="cls-6" d="m244.78,429.33l-5.78-5.78,5.78-5.78,5.78,5.78-5.78,5.78Zm-5.6-5.78l5.6,5.6,5.6-5.6-5.6-5.6-5.6,5.6Z"/><rect class="cls-4" x="217.91" y="419.53" width="8.04" height="8.04" transform="translate(364.5 -32.87) rotate(45)"/><path class="cls-6" d="m221.93,429.33l-5.78-5.78,5.78-5.78,5.78,5.78-5.78,5.78Zm-5.6-5.78l5.6,5.6,5.6-5.6-5.6-5.6-5.6,5.6Z"/><rect class="cls-4" x="229.36" y="430.94" width="8.04" height="8.04" transform="translate(375.92 -37.63) rotate(45)"/><path class="cls-6" d="m233.38,440.74l-5.78-5.78,5.78-5.78,5.78,5.78-5.78,5.78Zm-5.6-5.78l5.6,5.6,5.6-5.6-5.6-5.6-5.6,5.6Z"/><rect class="cls-1" x="359.38" y="423.44" width="5.58" height="19.26" rx="1.51" ry="1.51"/><path class="cls-6" d="m364.48,442.77h-4.6c-.31,0-.55-.25-.55-.55v-18.28c0-.31.25-.55.55-.55h4.6c.31,0,.55.25.55.55v18.28c0,.31-.25.55-.55.55Zm-4.6-19.26c-.23,0-.42.19-.42.42v18.28c0,.23.19.42.42.42h4.6c.23,0,.42-.19.42-.42v-18.28c0-.23-.19-.42-.42-.42h-4.6Z"/><path class="cls-4" d="m361.78,442.47s9.73-10.17,18.82-3.48c9.09,6.69-1.72,20.57-1.72,20.57l-15.72-11.18-1.38-5.92"/><path class="cls-6" d="m378.89,459.65l-.05-.04-15.74-11.19-1.39-5.98.02-.03s2.48-2.57,6.02-4.26c3.27-1.56,8.16-2.7,12.88.78,2.03,1.5,3.23,3.48,3.57,5.89.93,6.72-5.21,14.69-5.28,14.77l-.04.05Zm-15.67-11.3l15.65,11.12c.52-.68,6.09-8.24,5.21-14.63-.33-2.37-1.51-4.33-3.51-5.8-4.67-3.44-9.51-2.31-12.75-.77-3.33,1.59-5.7,3.94-5.96,4.21l1.36,5.86Z"/><path class="cls-1" d="m361.78,442.47s-7.77-12.64-19.29-4.4c-11.52,8.24,2.2,21.5,2.2,21.5l12.93-10.15,4.17-6.94Z"/><path class="cls-6" d="m344.69,459.65l-.04-.04c-.07-.07-7.31-7.15-6.8-14.11.22-2.93,1.77-5.45,4.61-7.48,3.32-2.38,6.65-3.25,9.91-2.59,5.84,1.18,9.44,6.95,9.48,7.01l.02.03-4.2,6.99-12.97,10.19Zm5.56-24.31c-2.55,0-5.14.93-7.72,2.78-2.81,2.01-4.34,4.49-4.55,7.39-.49,6.63,6.14,13.39,6.72,13.97l12.87-10.11,4.14-6.9c-.3-.47-3.82-5.8-9.37-6.92-.69-.14-1.39-.21-2.08-.21Z"/><rect class="cls-1" x="349.7" y="447.47" width="24.18" height="24.18" transform="translate(430.92 -121.22) rotate(45)"/><path class="cls-6" d="m361.78,476.75l-17.19-17.19,17.19-17.19,17.19,17.19-17.19,17.19Zm-17-17.19l17,17,17-17-17-17-17,17Z"/><rect class="cls-4" x="357.74" y="444.11" width="8.04" height="8.04" transform="translate(422.84 -124.55) rotate(45)"/><path class="cls-6" d="m361.76,453.92l-5.78-5.78,5.78-5.78,5.78,5.78-5.78,5.78Zm-5.6-5.78l5.6,5.6,5.6-5.6-5.6-5.6-5.6,5.6Z"/><rect class="cls-4" x="357.74" y="455.52" width="8.04" height="8.04" transform="translate(430.9 -121.21) rotate(45)"/><path class="cls-6" d="m361.76,465.32l-5.78-5.78,5.78-5.78,5.78,5.78-5.78,5.78Zm-5.6-5.78l5.6,5.6,5.6-5.6-5.6-5.6-5.6,5.6Z"/><rect class="cls-4" x="369.17" y="455.54" width="8.04" height="8.04" transform="translate(434.26 -129.28) rotate(45)"/><path class="cls-6" d="m373.19,465.34l-5.78-5.78,5.78-5.78,5.78,5.78-5.78,5.78Zm-5.6-5.78l5.6,5.6,5.6-5.6-5.6-5.6-5.6,5.6Z"/><rect class="cls-4" x="346.32" y="455.54" width="8.04" height="8.04" transform="translate(427.57 -113.12) rotate(45)"/><path class="cls-6" d="m350.34,465.34l-5.78-5.78,5.78-5.78,5.78,5.78-5.78,5.78Zm-5.6-5.78l5.6,5.6,5.6-5.6-5.6-5.6-5.6,5.6Z"/><rect class="cls-4" x="357.76" y="466.95" width="8.04" height="8.04" transform="translate(438.99 -117.88) rotate(45)"/><path class="cls-6" d="m361.78,476.75l-5.78-5.78,5.78-5.78,5.78,5.78-5.78,5.78Zm-5.6-5.78l5.6,5.6,5.6-5.6-5.6-5.6-5.6,5.6Z"/><circle class="cls-4" cx="221.6" cy="254.86" r="15.49"/><path class="cls-1" d="m209.39,250.81c-.32.46-1.36,2.42-.69,5.79.08.38.77,3.7,2.56,4.65.2.11.79.42,1.09.19.22-.17.19-.57.14-.9-.21-1.39-.91-2.19-1.38-3.19-.03-.07-.6-1.28-.67-2.76-.11-2.32,1.07-3.99.48-4.43-.18-.13-.45-.1-.52-.1-.53.05-.87.54-1.01.74Z"/><circle class="cls-4" cx="245.77" cy="321.87" r="15.49"/><path class="cls-1" d="m233.57,317.82c-.32.46-1.36,2.42-.69,5.79.08.38.77,3.7,2.56,4.65.2.11.79.42,1.09.19.22-.17.19-.57.14-.9-.21-1.39-.91-2.19-1.38-3.19-.03-.07-.6-1.28-.67-2.76-.11-2.32,1.07-3.99.48-4.43-.18-.13-.45-.1-.52-.1-.53.05-.87.54-1.01.74Z"/><circle class="cls-4" cx="362.51" cy="274.71" r="15.49"/><path class="cls-1" d="m350.31,270.66c-.32.46-1.36,2.42-.69,5.79.08.38.77,3.7,2.56,4.65.2.11.79.42,1.09.19.22-.17.19-.57.14-.9-.21-1.39-.91-2.19-1.38-3.19-.03-.07-.6-1.28-.67-2.76-.11-2.32,1.07-3.99.48-4.43-.18-.13-.45-.1-.52-.1-.53.05-.87.54-1.01.74Z"/><circle class="cls-4" cx="295.6" cy="234.54" r="15.49"/><path class="cls-1" d="m283.39,230.49c-.32.46-1.36,2.42-.69,5.79.08.38.77,3.7,2.56,4.65.2.11.79.42,1.09.19.22-.17.19-.57.14-.9-.21-1.39-.91-2.19-1.38-3.19-.03-.07-.6-1.28-.67-2.76-.11-2.32,1.07-3.99.48-4.43-.18-.13-.45-.1-.52-.1-.53.05-.87.54-1.01.74Z"/><circle class="cls-4" cx="311.08" cy="369.59" r="15.49"/><path class="cls-1" d="m298.88,365.54c-.32.46-1.36,2.42-.69,5.79.08.38.77,3.7,2.56,4.65.2.11.79.42,1.09.19.22-.17.19-.57.14-.9-.21-1.39-.91-2.19-1.38-3.19-.03-.07-.6-1.28-.67-2.76-.11-2.32,1.07-3.99.48-4.43-.18-.13-.45-.1-.52-.1-.53.05-.87.54-1.01.74Z"/><circle class="cls-4" cx="385.32" cy="404.32" r="15.49"/><path class="cls-1" d="m373.12,400.27c-.32.46-1.36,2.42-.69,5.79.08.38.77,3.7,2.56,4.65.2.11.79.42,1.09.19.22-.17.19-.57.14-.9-.21-1.39-.91-2.19-1.38-3.19-.03-.07-.6-1.28-.67-2.76-.11-2.32,1.07-3.99.48-4.43-.18-.13-.45-.1-.52-.1-.53.05-.87.54-1.01.74Z"/><circle class="cls-4" cx="132.4" cy="369.59" r="15.49"/><path class="cls-1" d="m120.19,365.54c-.32.46-1.36,2.42-.69,5.79.08.38.77,3.7,2.56,4.65.2.11.79.42,1.09.19.22-.17.19-.57.14-.9-.21-1.39-.91-2.19-1.38-3.19-.03-.07-.6-1.28-.67-2.76-.11-2.32,1.07-3.99.48-4.43-.18-.13-.45-.1-.52-.1-.53.05-.87.54-1.01.74Z"/><circle class="cls-4" cx="166.1" cy="459.65" r="15.49"/><path class="cls-1" d="m153.89,455.6c-.32.46-1.36,2.42-.69,5.79.08.38.77,3.7,2.56,4.65.2.11.79.42,1.09.19.22-.17.19-.57.14-.9-.21-1.39-.91-2.19-1.38-3.19-.03-.07-.6-1.28-.67-2.76-.11-2.32,1.07-3.99.48-4.43-.18-.13-.45-.1-.52-.1-.53.05-.87.54-1.01.74Z"/><circle class="cls-4" cx="309.28" cy="447.41" r="15.49"/><path class="cls-1" d="m297.07,443.36c-.32.46-1.36,2.42-.69,5.79.08.38.77,3.7,2.56,4.65.2.11.79.42,1.09.19.22-.17.19-.57.14-.9-.21-1.39-.91-2.19-1.38-3.19-.03-.07-.6-1.28-.67-2.76-.11-2.32,1.07-3.99.48-4.43-.18-.13-.45-.1-.52-.1-.53.05-.87.54-1.01.74Z"/></svg>