<?xml version="1.0" encoding="UTF-8"?><svg id="Layer_69" xmlns="http://www.w3.org/2000/svg" width="49" height="260" viewBox="0 0 49 260"><defs><style>.cls-1{fill:#fff;}.cls-2{fill:#fdec4b;}.cls-3{fill:#221f20;}</style></defs><rect class="cls-1" x="1.87" y="51.23" width="45.71" height="205.84" rx="5.6" ry="5.6"/><path class="cls-3" d="m41.98,257.57H7.48c-3.37,0-6.1-2.74-6.1-6.1V56.83c0-3.37,2.74-6.1,6.1-6.1h34.51c3.37,0,6.1,2.74,6.1,6.1v194.63c0,3.37-2.74,6.1-6.1,6.1ZM7.48,51.72c-2.81,0-5.1,2.29-5.1,5.1v194.63c0,2.81,2.29,5.1,5.1,5.1h34.51c2.81,0,5.1-2.29,5.1-5.1V56.83c0-2.81-2.29-5.1-5.1-5.1H7.48Z"/><path class="cls-2" d="m11.9,37.78c-1.98-3.04-1.82-6.66-.85-10.23C15.88,9.67,24.34,4.12,24.34,4.12c5.41,5.08,11.85,13.03,14.13,23.82,1.45,6.87.05,9.35-.35,10-4.46,7.18-21.36,7.3-26.21-.16Z"/><path class="cls-3" d="m25.16,43.85c-6.12,0-11.34-2.21-13.68-5.8-1.8-2.77-2.1-6.25-.91-10.63C15.39,9.57,23.71,3.93,24.06,3.7c.19-.13.45-.1.62.05,7.6,7.14,12.4,15.24,14.27,24.08,1,4.73.86,8.32-.42,10.37-2.13,3.42-7.15,5.59-13.11,5.65-.09,0-.17,0-.26,0Zm-.86-39.08c-1.56,1.22-8.57,7.4-12.77,22.91-1.11,4.1-.85,7.31.79,9.83h0c2.15,3.31,7.05,5.34,12.84,5.34.08,0,.17,0,.25,0,5.62-.06,10.33-2.04,12.27-5.17,1.12-1.8,1.22-5.22.29-9.63-1.8-8.52-6.4-16.34-13.67-23.27Z"/><path class="cls-3" d="m24.73,51.38c-.55,0-1-.45-1-1v-16.87c0-.55.45-1,1-1s1,.45,1,1v16.87c0,.55-.45,1-1,1Z"/></svg>