<?xml version="1.0" encoding="UTF-8"?><svg id="Layer_70" xmlns="http://www.w3.org/2000/svg" width="62" height="525" viewBox="0 0 62 525"><defs><style>.cls-1{fill:none;}.cls-2{fill:#fdec4b;}.cls-3{fill:silver;}.cls-4{fill:#221f20;}</style></defs><rect class="cls-1" x="8.15" y="54.44" width="45.71" height="205.84" rx="5.6" ry="5.6"/><path d="m48.25,255.95H13.75c-3.37,0-6.1-2.74-6.1-6.1V55.21c0-3.37,2.74-6.1,6.1-6.1h34.51c3.37,0,6.1,2.74,6.1,6.1v194.63c0,3.37-2.74,6.1-6.1,6.1ZM13.75,50.11c-2.81,0-5.1,2.29-5.1,5.1v194.63c0,2.81,2.29,5.1,5.1,5.1h34.51c2.81,0,5.1-2.29,5.1-5.1V55.21c0-2.81-2.29-5.1-5.1-5.1H13.75Z"/><path class="cls-2" d="m18.17,36.16c-1.98-3.04-1.82-6.66-.85-10.23C22.15,8.06,30.61,2.5,30.61,2.5c5.41,5.08,11.85,13.03,14.13,23.82,1.45,6.87.05,9.35-.35,10-4.46,7.18-21.36,7.3-26.21-.16Z"/><path class="cls-4" d="m31.43,42.23c-6.12,0-11.34-2.21-13.68-5.8-1.8-2.77-2.1-6.25-.91-10.63C21.66,7.95,29.98,2.31,30.33,2.08c.19-.13.45-.1.62.05,7.6,7.14,12.4,15.24,14.27,24.08,1,4.73.86,8.32-.42,10.37-2.13,3.42-7.15,5.59-13.11,5.65-.09,0-.17,0-.26,0Zm-.86-39.08c-1.56,1.22-8.57,7.4-12.77,22.91-1.11,4.1-.85,7.31.79,9.83h0c2.15,3.31,7.05,5.34,12.84,5.34.08,0,.17,0,.25,0,5.62-.06,10.33-2.04,12.27-5.17,1.12-1.8,1.22-5.22.29-9.63-1.8-8.52-6.4-16.34-13.67-23.27Z"/><path class="cls-4" d="m31,49.77c-.55,0-1-.45-1-1v-16.87c0-.55.45-1,1-1s1,.45,1,1v16.87c0,.55-.45,1-1,1Z"/><polygon class="cls-3" points="4.99 255.2 9.98 287.99 52.75 287.99 57.02 255.2 4.99 255.2"/><path class="cls-4" d="m53.19,288.49H9.55l-5.14-33.79h53.19l-4.41,33.79Zm-42.78-1h41.9l4.15-31.79H5.57l4.84,31.79Z"/><path class="cls-3" d="m14.03,511.89c-1.38,0-2.5-1.11-2.5-2.49-.14-41.07-.16-77.68-.18-107.1-.03-36.3-.04-62.52-.25-76.71v-.16c-.11-7.14-.38-26.12,11.33-33.77,1.46-.95,6.67-3.95,12.53-2.61,10.03,2.3,16.58,15.46,15.93,32-.05,1.38-1.23,2.43-2.6,2.4-1.38-.05-2.45-1.22-2.4-2.6.53-13.65-4.65-25.23-12.05-26.93-4.04-.93-7.94,1.44-8.68,1.92-9.41,6.14-9.16,23.12-9.07,29.51v.16c.21,14.23.23,40.47.25,76.78.02,29.41.04,66.02.18,107.08,0,1.38-1.11,2.5-2.49,2.51h0Z"/><path class="cls-4" d="m14.04,512.39h-.01c-1.65,0-2.99-1.34-3-2.99-.14-40.67-.16-77.02-.18-106.23v-1.29c-.03-36.08-.04-62.15-.25-76.28v-.16c-.11-7.22-.38-26.39,11.56-34.19,1.5-.98,6.87-4.06,12.92-2.68,10.27,2.36,16.98,15.72,16.32,32.5-.06,1.62-1.45,2.88-3.11,2.88-1.66-.06-2.95-1.46-2.89-3.12.53-13.42-4.49-24.78-11.67-26.42-3.83-.88-7.58,1.39-8.3,1.85-9.17,5.99-8.93,22.76-8.84,29.08v.16c.21,14.18.23,40.26.25,76.37v1.29c.02,29.21.05,65.55.18,106.22,0,.8-.31,1.56-.87,2.12-.56.57-1.32.88-2.12.89Zm17.87-223.18c-4.41,0-8.04,2.11-9.21,2.87-11.48,7.5-11.21,26.27-11.11,33.34v.16c.21,14.14.23,40.21.25,76.3v1.29c.02,29.21.05,65.56.18,106.23,0,1.1.9,1.99,2,1.99h0c.53,0,1.03-.21,1.41-.59.38-.38.58-.88.58-1.42-.14-40.67-.16-77.01-.18-106.22v-1.29c-.03-36.1-.04-62.18-.25-76.35v-.16c-.1-6.47-.34-23.64,9.29-29.94.77-.5,4.84-2.96,9.07-1.99,7.64,1.75,12.98,13.55,12.44,27.44-.04,1.1.82,2.03,1.92,2.08.01,0,.03,0,.04,0,1.08,0,1.99-.85,2.03-1.92.64-16.29-5.75-29.24-15.54-31.49-1-.23-1.99-.33-2.94-.33Z"/><circle class="cls-3" cx="14.49" cy="513.93" r="8.49"/><path class="cls-4" d="m14.49,522.92c-4.96,0-8.99-4.04-8.99-8.99s4.04-8.99,8.99-8.99,8.99,4.03,8.99,8.99-4.03,8.99-8.99,8.99Zm0-16.99c-4.41,0-7.99,3.59-7.99,7.99s3.59,7.99,7.99,7.99,7.99-3.59,7.99-7.99-3.59-7.99-7.99-7.99Z"/></svg>