<?xml version="1.0" encoding="UTF-8"?><svg id="Layer_28" xmlns="http://www.w3.org/2000/svg" width="222.96" height="441.31" viewBox="0 0 222.96 441.31"><defs><style>.cls-1{fill:#f8e0c8;}.cls-2{fill:#f1cc8f;}.cls-3{fill:#fff;}.cls-4{fill:#ffea9f;}.cls-5{fill:#fbe7a1;}.cls-6{fill:#860a00;}.cls-7{fill:#c7c8ca;}.cls-8{fill:#221f20;}.cls-9{fill:#4b3024;}.cls-10{fill:#720a00;}.cls-11{fill:#7d0a00;}</style></defs><path class="cls-5" d="m61.38,106.34s-5.9,17.71,0,27.55c0,0,2.3-.25-1.31,14.02s10.91,42.07,10.91,42.07c0,0,2.46,5.9,11.56,1.97s61.5-2.71,61.5-2.71c0,0,13.28,6.4,18.7,2.95,5.41-3.44,8.36-47.73,8.36-47.73,0,0,8.86-26.32-3.94-46.5,0,0,11.32-31.49-5.66-45.76-16.97-14.27-77.49-2.46-77.49-2.46l-18.7,46.25-3.94,10.33Z"/><path class="cls-2" d="m76.89,193.81c-1.09,0-2.1-.19-3.01-.55-2.47-1-3.33-2.99-3.36-3.08-.58-1.1-14.54-28.09-10.93-42.38,2.83-11.2,1.93-13.12,1.72-13.39l-.19.02-.16-.27c-5.95-9.92-.29-27.24-.05-27.97v-.02s3.94-10.33,3.94-10.33l18.8-46.51.27-.05c.15-.03,15.36-2.97,32.44-4.13,23.03-1.56,38.33.69,45.47,6.7,16.27,13.68,6.88,43.15,5.89,46.08,12.28,19.63,4.35,45.19,3.88,46.66-.06.92-.81,11.6-2.15,22.54-2.86,23.24-5.55,24.95-6.44,25.52-5.39,3.43-17.75-2.25-19.08-2.88-2.66-.06-52.48-1.1-61.19,2.67-2.15.93-4.11,1.4-5.84,1.4Zm-15.18-60.34c.1.05.22.13.33.26,1.1,1.26.6,6.08-1.49,14.31-3.52,13.92,10.72,41.44,10.87,41.71.02.05.77,1.75,2.86,2.58,2.11.84,4.82.56,8.07-.84,9.1-3.93,59.57-2.8,61.71-2.75l.21.05c.13.06,13.09,6.24,18.21,2.98,4.26-2.71,7.32-35.09,8.13-47.34l.03-.13c.09-.26,8.63-26.34-3.88-46.07l-.13-.21.08-.23c.11-.31,11-31.33-5.51-45.21-16.03-13.47-72.43-3.23-76.81-2.4l-18.59,46-3.93,10.31c-.16.49-5.64,17.49-.14,26.96Z"/><path class="cls-1" d="m94.22,122.36c1.37,7.67.3,10.54-1.28,11.51-1.63,1-4.22.26-5.12,1.92-.34.62-.43,1.58-.59,3.19-.08.84-.1,1.48-.1,1.59-.12,5.04-.34,6.41-.31,11.56.04,8.46.1,12.73,1.68,14.17.43.39,1.47,1.21,7.05,1.77,4.46.45,7.32.06,11.86.14,5.83.1,11.67-.1,17.5-.13.58,0,3.17.09,6.64.07,5.31-.04,7.98-.08,8.97-.74.06-.04.14-.09.22-.16,2.87-2.35,2.18-6.73,2.52-14.84.08-1.94.1-4.85.15-10.69.02-2.02,0-4.12-1.36-5.15-.74-.56-1.18-.27-3.72-.89-2.15-.52-3.36-.84-4.18-1.83-.75-.9-.83-1.97-.88-2.88-.17-2.95-.31-5.96-.41-9.1l-38.65.5Z"/><path d="m100.14,168.78c-1.43,0-2.91-.05-4.63-.22-5.9-.59-6.91-1.51-7.34-1.9-1.72-1.56-1.8-5.35-1.85-14.54-.02-3.15.06-4.89.15-6.9.06-1.29.12-2.7.16-4.67,0-.16.02-.79.1-1.63.16-1.66.26-2.67.64-3.38.65-1.19,1.92-1.36,3.15-1.53.77-.1,1.56-.21,2.15-.57,1.78-1.09,2.14-4.9,1.05-11l-.1-.58,39.73-.52.02.49c.09,2.92.23,5.89.41,9.09.05.8.1,1.8.76,2.59.71.85,1.77,1.14,3.92,1.66,1.08.26,1.77.36,2.27.43.69.1,1.11.15,1.63.55,1.59,1.2,1.58,3.51,1.56,5.55v.13c-.05,5.76-.07,8.65-.15,10.58-.07,1.72-.1,3.27-.12,4.67-.09,5.32-.14,8.53-2.58,10.53-.1.08-.18.14-.26.19-1.09.73-3.47.77-9.25.82-2.51.02-4.53-.02-5.73-.05-.44,0-.77-.01-.91-.02-2.1.01-4.2.05-6.3.08-3.67.06-7.47.12-11.21.05-1.66-.03-3.1,0-4.48.04-.94.02-1.85.04-2.8.04Zm-5.32-45.93c1.07,6.37.54,10.12-1.61,11.44-.77.47-1.67.59-2.54.71-1.08.15-2,.27-2.41,1.02-.29.54-.38,1.46-.53,3-.08.8-.09,1.41-.1,1.54-.05,1.99-.11,3.4-.17,4.7-.09,2-.16,3.73-.15,6.85.04,7.78.06,12.48,1.52,13.8.29.27,1.19,1.08,6.76,1.64,2.79.28,4.98.23,7.3.17,1.39-.03,2.84-.07,4.52-.04,3.72.07,7.51,0,11.18-.05,2.1-.03,4.21-.07,6.31-.08.17,0,.49,0,.94.02,1.2.03,3.2.07,5.7.05,4.71-.04,7.81-.07,8.7-.65.05-.03.11-.08.18-.13,2.08-1.7,2.13-4.74,2.22-9.77.02-1.41.05-2.97.12-4.7.08-1.91.1-4.8.15-10.55v-.13c.01-1.81.03-3.85-1.16-4.75-.3-.23-.51-.26-1.17-.36-.52-.07-1.24-.17-2.37-.45-2.1-.51-3.49-.85-4.45-1.99-.88-1.04-.94-2.28-1-3.18-.17-3.03-.3-5.86-.39-8.62l-37.58.49Z"/><path class="cls-1" d="m73.11,95.25v2.94c5.05,8.56,10.29,14.86,14.25,19.12,9.08,9.74,16.83,18.06,27.26,17.76,5.88-.17,10.53-3.01,12.58-4.26,5.39-3.29,8.28-7.45,12.54-13.73,3.89-5.74,6.69-11.28,7.91-14.25,5.14-12.48,4.42-32.94-3.73-54.92h-65.71c-1.7,15.78-3.41,31.55-5.11,47.33Z"/><path d="m114.09,135.58c-10.38,0-18.14-8.32-27.09-17.93-5.39-5.78-10.21-12.24-14.32-19.21l-.07-.12v-3.13s5.17-47.78,5.17-47.78h66.5l.12.33c7.74,20.88,9.16,42.06,3.72,55.28-1.26,3.05-4.1,8.64-7.96,14.34-4.12,6.07-7.1,10.46-12.69,13.87-2.04,1.25-6.82,4.16-12.83,4.33-.18,0-.37,0-.55,0Zm-40.48-37.52c4.06,6.85,8.81,13.22,14.12,18.91,8.95,9.6,16.7,17.9,26.89,17.6,5.74-.16,10.36-2.98,12.33-4.19,5.41-3.3,8.33-7.61,12.38-13.58,3.82-5.63,6.62-11.15,7.86-14.16,5.32-12.93,3.94-33.68-3.61-54.23h-64.91l-5.06,46.86v2.78Z"/><ellipse class="cls-3" cx="96.19" cy="81.48" rx="9.2" ry="6.06"/><path d="m96.19,88.04c-5.35,0-9.7-2.94-9.7-6.56s4.35-6.56,9.7-6.56,9.7,2.94,9.7,6.56-4.35,6.56-9.7,6.56Zm0-12.12c-4.8,0-8.7,2.49-8.7,5.56s3.9,5.56,8.7,5.56,8.7-2.5,8.7-5.56-3.9-5.56-8.7-5.56Z"/><circle cx="96.19" cy="81.48" r="6.06"/><circle class="cls-3" cx="98.34" cy="79.01" r="1.22"/><path d="m86.99,81.98s-.07,0-.11-.01c-4.51-.97-4.68-4.03-4.68-4.16,0-.28.21-.51.48-.52.26-.04.5.2.52.48,0,.11.19,2.42,3.89,3.22.27.06.44.32.38.59-.05.23-.26.39-.49.39Z"/><path d="m88.1,78.73c-.07,0-.14-.01-.21-.04-3.43-1.55-3.03-3.92-3.01-4.02.05-.27.32-.45.58-.4.27.05.45.31.4.58-.01.08-.23,1.73,2.44,2.94.25.11.36.41.25.66-.08.19-.27.29-.46.29Z"/><path d="m90.74,76.71c-.1,0-.19-.03-.28-.08-2.73-1.83-2.05-3.74-2.02-3.82.1-.26.38-.39.64-.29.26.1.39.38.29.64-.02.07-.38,1.29,1.64,2.65.23.15.29.46.14.69-.1.14-.25.22-.42.22Z"/><ellipse class="cls-3" cx="132.5" cy="81.48" rx="9.2" ry="6.06"/><path d="m132.5,88.04c-5.35,0-9.7-2.94-9.7-6.56s4.35-6.56,9.7-6.56,9.7,2.94,9.7,6.56-4.35,6.56-9.7,6.56Zm0-12.12c-4.8,0-8.7,2.49-8.7,5.56s3.9,5.56,8.7,5.56,8.7-2.5,8.7-5.56-3.9-5.56-8.7-5.56Z"/><circle cx="132.5" cy="81.48" r="6.06"/><circle class="cls-3" cx="134.4" cy="79.01" r="1.22"/><path d="m141.89,80.62c-.22,0-.35-.02-.38-.03-.27-.05-.45-.31-.41-.58.05-.27.31-.45.57-.41.1.02,2.41.32,3.95-3.15.11-.25.41-.37.66-.25.25.11.37.41.25.66-1.51,3.39-3.77,3.75-4.66,3.75Z"/><path d="m140.17,78.29s-.04,0-.04,0c-.28-.01-.49-.25-.47-.52.01-.27.23-.47.5-.47,0,0,.01,0,.03,0,.15,0,1.76-.07,2.58-2.81.08-.26.36-.41.62-.34.26.08.42.36.33.62-1.01,3.38-3.19,3.52-3.55,3.52Z"/><path d="m137.4,76.57c-.27,0-.49-.21-.5-.48-.01-.27.2-.5.47-.52.07,0,1.33-.15,1.79-2.55.05-.27.32-.45.58-.4.27.05.45.31.4.59-.62,3.23-2.64,3.35-2.73,3.36,0,0-.01,0-.02,0Z"/><path d="m83.19,70.14c-.16,0-.33-.04-.48-.12-.49-.27-.66-.87-.4-1.36,1.55-2.83,5.7-3.94,12.33-3.27,4.7.47,8.93,1.65,9.11,1.7.53.15.84.7.69,1.23-.15.53-.7.85-1.23.69-4.54-1.28-16.82-3.66-19.15.61-.18.33-.52.52-.88.52Z"/><path d="m142.2,69.88c-.42,0-.81-.26-.95-.68-.74-2.19-9.81-2.12-17.79-.8-.56.09-1.06-.28-1.15-.82-.09-.54.28-1.06.82-1.15.18-.03,4.47-.74,9.02-.91,6.6-.26,10.21.74,10.99,3.05.18.52-.11,1.09-.63,1.27-.11.04-.21.05-.32.05Z"/><path d="m112.32,102.81c-2.39,0-3.86-.63-4.46-1.92-1.37-2.89,2.96-7.43,3.84-8.31.39-.39,1.02-.39,1.41,0,.39.39.39,1.02,0,1.41-1.79,1.8-3.98,4.89-3.44,6.04.12.25.76,1.02,4.15.69.56-.06,1.04.35,1.09.9.05.55-.35,1.04-.9,1.09-.61.06-1.17.09-1.69.09Z"/><path d="m115.01,113.18c-8.19,0-13.96-4.54-14.04-4.61-.43-.35-.5-.97-.15-1.4.35-.43.98-.5,1.41-.15.48.38,11.92,9.34,25.39-.04.46-.32,1.08-.2,1.39.25.32.45.2,1.08-.25,1.39-4.92,3.43-9.64,4.57-13.75,4.57Z"/><path d="m114.03,119.48c-3.91,0-7.28-3.04-10.05-9.06-.23-.5-.01-1.1.49-1.33.5-.23,1.1-.01,1.33.49,2.53,5.49,5.44,8.15,8.71,7.88,4.41-.36,8.48-6.07,9.01-7.42,0-.17.03-.34.11-.5.25-.49.86-.68,1.35-.43.32.17.65.58.54,1.19-.22,1.25-4.68,8.37-10.49,9.12-.34.04-.67.06-1,.06Zm10.02-8.59h.01-.01Zm0,0h0Zm0,0h0Zm0,0h0s0,0,0,0Zm-.12-.07s.08.05.12.07c-.04-.02-.08-.05-.12-.07Z"/><path class="cls-4" d="m97.12,54.63s-16.02,6.46-16.94,13.04c-.92,6.58,5.82,23.71-18.39,46.56,1.16-4.45,1.06-7.96.73-10.41-.63-4.68-1.94-6.77-2.59-11.92-.48-3.85-.23-7.07.05-9.16.65-3.36,1.82-7.54,4.02-12.03,4.32-8.82,10.4-14.35,14.24-17.3l13.01-2.76,5.88,3.98Z"/><path class="cls-2" d="m60.87,115.79l.44-1.68c.92-3.53,1.16-6.96.72-10.22-.3-2.21-.74-3.81-1.22-5.5-.51-1.82-1.03-3.71-1.37-6.43-.38-3.06-.37-6.19.04-9.29.82-4.26,2.19-8.35,4.07-12.18,3.3-6.74,8.27-12.78,14.38-17.48l.2-.09,13.22-2.8,6.83,4.63-.87.35c-.16.06-15.76,6.43-16.63,12.65-.16,1.16-.07,2.74.03,4.58.47,8.2,1.35,23.47-18.58,42.28l-1.26,1.19Zm17.57-61.92c-5.95,4.6-10.79,10.49-14,17.06-1.84,3.75-3.17,7.76-3.98,11.9-.4,2.99-.41,6.03-.04,9.01.33,2.64.85,4.49,1.34,6.28.46,1.65.94,3.36,1.24,5.64.39,2.87.27,5.88-.36,8.95,18.35-17.93,17.54-31.91,17.06-40.33-.11-1.88-.2-3.51-.03-4.77.83-5.96,12.99-11.6,16.39-13.07l-4.94-3.35-12.69,2.69Z"/><path class="cls-5" d="m122.3,53.58s29.39,9.58,26.39,22.59c-.7,3.9-1.23,9.31-.48,15.65.52,4.43,1.54,8.2,2.57,11.19,3.83,5.35,5.19,6.24,5.71,5.98.77-.39-.34-3.37-.82-8.02-.43-4.16-.15-7.65.18-10.02.23-.87.58-2.18,1.01-3.77,1.01-3.74,1.75-6.4,1.84-6.72.47-1.71,4.22-15.32,1.38-21.45-3.43-7.4-19.18-9.82-37.78-5.43Z"/><path class="cls-2" d="m156.29,109.54c-.77,0-2.18-1.02-5.92-6.25l-.07-.13c-1.27-3.66-2.14-7.46-2.6-11.29-.62-5.24-.46-10.56.49-15.79,2.87-12.44-25.76-21.93-26.05-22.02l-1.69-.55,1.73-.41c18.65-4.4,34.78-2,38.34,5.7,2.71,5.84-.35,18.15-1.35,21.79l-.07.25c-.22.79-.9,3.23-1.77,6.48-.43,1.59-.78,2.9-1.01,3.77-.44,3.24-.5,6.57-.16,9.84.19,1.84.48,3.42.71,4.68.42,2.28.63,3.43-.16,3.83-.12.06-.26.11-.42.11Zm-5.07-6.77c3.54,4.94,4.7,5.65,5.01,5.74.09-.38-.14-1.62-.34-2.73-.24-1.28-.53-2.88-.72-4.76-.35-3.35-.29-6.77.18-10.14.24-.93.59-2.24,1.02-3.84.88-3.25,1.56-5.69,1.78-6.48l.07-.24c.98-3.56,3.97-15.57,1.41-21.1-3.27-7.05-18.06-9.3-35.52-5.53,2.58.95,7.79,3.01,12.77,5.88,9.47,5.46,13.61,11.08,12.31,16.72-.92,5.11-1.08,10.33-.47,15.48.44,3.74,1.29,7.45,2.53,11.02Z"/><path class="cls-6" d="m72.23,43.97c.65-4.91,3.38-20.51,16.63-31.3,9.91-8.07,20.91-9.52,28.24-10.49,11.45-1.51,20.47.28,25.33,1.29,5.61,1.16,12.95,2.75,21.14,7.58,0,0,10.57,6.24,18.4,17.1,11.54,16.02,13.46,44.74,2.5,74.52l-6.74,4.67-1.81-3.37s3.63-46.92-8.55-57.03-29.81,4.41-29.81,4.41l-57.03-5.18-8.29-2.2Z"/><path class="cls-3" d="m137.25,57.73c-4.35-.44-9.95-1.24-16.4-2.8-1.77.38-4.29.85-7.33,1.2-4.96.58-9.06,1.06-14.09.28-3.85-.59-4.96-1.91-8.5-1.8-2.56.08-4.64.76-5.98,1.32-8.97,2.7-16.22,1.95-18.08-1.55-.71-1.33-.52-2.77-.38-3.46,1.26-6.57,11.31-9.51,12.4-9.83,7.52-2.2,14.19,0,17.16,1.2,2.96-1.35,6.66-2.67,11.02-3.43,12.35-2.16,22.54,1.41,27.48,3.58,4.47-1.47,19.05-5.84,28.09-.87,1.18.65,3.64,2.03,4.25,4.56.96,3.96-3.31,7.95-3.89,8.49-5.52,5.03-13.8,4.31-25.73,3.11Z"/><path class="cls-7" d="m149.63,59.1c-3.73,0-7.88-.42-12.42-.88-5.46-.55-10.97-1.49-16.36-2.79-2.38.5-4.82.9-7.26,1.19-4.89.57-9.12,1.07-14.22.28-1.67-.26-2.84-.65-3.88-1-1.38-.46-2.57-.86-4.52-.79-1.95.06-3.91.49-5.81,1.28-9.17,2.77-16.67,2.04-18.72-1.78-.57-1.06-.71-2.34-.43-3.79,1.23-6.38,10.07-9.43,12.75-10.21,6.87-2.01,13.16-.51,17.29,1.14,3.52-1.59,7.2-2.72,10.94-3.38,11.42-2,21.27.8,27.59,3.54,7.05-2.3,19.93-5.38,28.31-.77,1.14.63,3.82,2.1,4.5,4.88,1,4.12-3.19,8.2-4.04,8.98-3.48,3.17-8.1,4.11-13.7,4.11Zm-12.32-1.87c11.11,1.12,19.88,2,25.35-2.98.78-.71,4.61-4.43,3.75-8-.57-2.35-2.98-3.67-4.01-4.24-8.12-4.47-20.83-1.35-27.69.9l-.18.06-.17-.08c-6.18-2.71-15.91-5.52-27.19-3.54-3.73.65-7.4,1.79-10.89,3.39l-.2.09-.2-.08c-3.98-1.62-10.12-3.14-16.83-1.18-1.81.53-10.91,3.47-12.05,9.44-.24,1.22-.12,2.28.33,3.13,1.78,3.34,8.98,3.88,17.5,1.31,1.97-.81,4.04-1.27,6.11-1.34,2.13-.07,3.46.37,4.87.84,1.05.35,2.13.71,3.72.96,4.97.77,8.93.3,13.96-.28,2.45-.29,4.9-.69,7.28-1.2l.11-.02.11.03c5.38,1.3,10.88,2.24,16.33,2.79Z"/><path class="cls-3" d="m169.78,106.4s1.27-4.92,5.62-5.48c4.36-.56,4.92,1.97,4.92,1.97,4.73-1.49,9.42.4,11.1,3.86,1.55,3.2-.02,6.58-.28,7.1.68,3.23-.6,6.55-3.25,8.45-2.77,1.98-6.53,2.03-9.4.13-2.34,1.75-5.38,2.05-7.76.76-2.49-1.35-3.21-3.89-3.34-4.39-.37-1.06-.75-2.59-.71-4.43.1-4.09,2.25-6.94,3.09-7.96Z"/><path class="cls-7" d="m173.93,124.48c-1.2,0-2.37-.28-3.43-.86-2.47-1.34-3.33-3.74-3.59-4.71-.52-1.47-.76-3.02-.72-4.57.1-3.89,1.98-6.77,3.14-8.18.23-.78,1.7-5.18,6.01-5.74,3.57-.46,4.85,1.03,5.28,1.86,4.66-1.27,9.44.51,11.26,4.25,1.49,3.07.31,6.26-.2,7.38.65,3.37-.71,6.81-3.49,8.79-2.84,2.03-6.68,2.14-9.67.32-1.4.96-3.01,1.45-4.58,1.45Zm2.68-23.14c-.34,0-.72.02-1.14.08-3.96.51-5.19,5.06-5.2,5.11l-.1.2c-1.07,1.29-2.88,3.99-2.98,7.65-.04,1.43.19,2.86.68,4.25.19.69.92,2.93,3.11,4.12,2.2,1.2,5.03.91,7.22-.72l.28-.21.29.2c2.69,1.79,6.23,1.74,8.83-.12,2.5-1.79,3.7-4.9,3.06-7.94l-.04-.17.07-.15c.41-.85,1.65-3.84.28-6.66-1.66-3.42-6.17-4.97-10.5-3.6l-.52.16-.12-.53c-.02-.07-.45-1.66-3.23-1.66Z"/><circle class="cls-3" cx="94.22" cy="136.17" r="2.7"/><path class="cls-8" d="m94.23,139.36c-.08,0-.17,0-.25,0-1.76-.13-3.08-1.67-2.95-3.43s1.67-3.08,3.43-2.94c.85.06,1.63.46,2.18,1.11.56.65.83,1.47.76,2.33-.07.85-.46,1.63-1.11,2.18-.58.5-1.31.77-2.08.77Zm0-5.39c-.52,0-1.02.19-1.43.53-.45.38-.71.92-.76,1.5-.04.58.14,1.15.52,1.6.38.45.92.72,1.5.76.58.04,1.15-.14,1.6-.52.45-.38.71-.92.76-1.5.04-.58-.14-1.15-.52-1.6-.38-.45-.92-.72-1.5-.76-.06,0-.11,0-.17,0Z"/><circle class="cls-3" cx="97.12" cy="140.24" r="2.7"/><path class="cls-8" d="m97.12,143.43c-1.76,0-3.2-1.43-3.2-3.2s1.43-3.2,3.2-3.2,3.2,1.43,3.2,3.2-1.43,3.2-3.2,3.2Zm0-5.39c-1.21,0-2.2.99-2.2,2.2s.99,2.2,2.2,2.2,2.2-.99,2.2-2.2-.99-2.2-2.2-2.2Z"/><circle class="cls-3" cx="104.3" cy="146.78" r="2.7"/><path class="cls-8" d="m104.3,149.98c-1.76,0-3.2-1.43-3.2-3.2s1.43-3.2,3.2-3.2,3.2,1.43,3.2,3.2-1.43,3.2-3.2,3.2Zm0-5.39c-1.21,0-2.2.99-2.2,2.2s.99,2.2,2.2,2.2,2.2-.99,2.2-2.2-.99-2.2-2.2-2.2Z"/><circle class="cls-3" cx="108.69" cy="149.48" r="2.7"/><path class="cls-8" d="m108.69,152.67c-1.76,0-3.2-1.43-3.2-3.2s1.43-3.2,3.2-3.2,3.2,1.43,3.2,3.2-1.43,3.2-3.2,3.2Zm0-5.39c-1.21,0-2.2.99-2.2,2.2s.99,2.2,2.2,2.2,2.2-.99,2.2-2.2-.99-2.2-2.2-2.2Z"/><circle class="cls-3" cx="113.69" cy="151" r="2.7"/><path class="cls-8" d="m113.69,154.2c-1.76,0-3.2-1.43-3.2-3.2s1.43-3.2,3.2-3.2,3.2,1.43,3.2,3.2-1.43,3.2-3.2,3.2Zm0-5.39c-1.21,0-2.2.99-2.2,2.2s.99,2.2,2.2,2.2,2.2-.99,2.2-2.2-.99-2.2-2.2-2.2Z"/><circle class="cls-3" cx="118.4" cy="149.48" r="2.7"/><path class="cls-8" d="m118.39,152.67c-.51,0-1.02-.12-1.49-.37-1.56-.82-2.16-2.76-1.33-4.32.82-1.56,2.76-2.16,4.32-1.33,1.56.82,2.16,2.76,1.33,4.32-.4.76-1.07,1.31-1.88,1.56-.31.1-.63.14-.95.14Zm0-5.4c-.79,0-1.55.43-1.95,1.17-.57,1.07-.15,2.4.92,2.97.52.27,1.11.33,1.67.16.56-.17,1.02-.55,1.29-1.07.57-1.07.15-2.4-.92-2.97-.33-.17-.68-.25-1.02-.25Z"/><circle class="cls-3" cx="123.15" cy="147.77" r="2.7"/><path class="cls-8" d="m123.15,150.96c-1.76,0-3.2-1.43-3.2-3.2s1.43-3.2,3.2-3.2,3.2,1.43,3.2,3.2-1.43,3.2-3.2,3.2Zm0-5.39c-1.21,0-2.2.99-2.2,2.2s.99,2.2,2.2,2.2,2.2-.99,2.2-2.2-.99-2.2-2.2-2.2Z"/><circle class="cls-3" cx="127.52" cy="145.07" r="2.7"/><path class="cls-8" d="m127.53,148.27c-1.76,0-3.2-1.43-3.2-3.2s1.43-3.2,3.2-3.2,3.2,1.43,3.2,3.2-1.43,3.2-3.2,3.2Zm0-5.39c-1.21,0-2.2.99-2.2,2.2s.99,2.2,2.2,2.2,2.2-.99,2.2-2.2-.99-2.2-2.2-2.2Z"/><circle class="cls-3" cx="130.96" cy="141.14" r="2.7"/><path class="cls-8" d="m130.96,144.34c-1.76,0-3.2-1.43-3.2-3.2s1.43-3.2,3.2-3.2,3.2,1.43,3.2,3.2-1.43,3.2-3.2,3.2Zm0-5.39c-1.21,0-2.2.99-2.2,2.2s.99,2.2,2.2,2.2,2.2-.99,2.2-2.2-.99-2.2-2.2-2.2Z"/><circle class="cls-3" cx="133.66" cy="136.89" r="2.7"/><path class="cls-8" d="m133.66,140.08c-1.76,0-3.2-1.43-3.2-3.2s1.43-3.2,3.2-3.2,3.2,1.43,3.2,3.2-1.43,3.2-3.2,3.2Zm0-5.39c-1.21,0-2.2.99-2.2,2.2s.99,2.2,2.2,2.2,2.2-.99,2.2-2.2-.99-2.2-2.2-2.2Z"/><circle class="cls-3" cx="99.82" cy="144.08" r="2.7"/><path class="cls-8" d="m99.82,147.28c-1.76,0-3.2-1.43-3.2-3.2s1.43-3.2,3.2-3.2,3.2,1.43,3.2,3.2-1.43,3.2-3.2,3.2Zm0-5.39c-1.21,0-2.2.99-2.2,2.2s.99,2.2,2.2,2.2,2.2-.99,2.2-2.2-.99-2.2-2.2-2.2Z"/><ellipse class="cls-9" cx="88.99" cy="426.4" rx="15.46" ry="11.17"/><ellipse class="cls-9" cx="150.04" cy="428.26" rx="14.84" ry="11.25"/><path class="cls-11" d="m82.73,215.63l64.56,4.67s65.83-.21,71.78,192.4c0,0,4.25,7.43-22.51,11.68,0,0-21.24,13.17-59.46,0,0,0-25.06,5.95-45.87,0,0,0-44.6,3.82-52.67-10.62,0,0-21.24,5.52-31.43-6.8-10.19-12.32,35.66-194.23,75.6-191.34Z"/><circle class="cls-1" cx="58.32" cy="249.4" r="12.27"/><path d="m58.32,262.18c-7.04,0-12.77-5.73-12.77-12.77s5.73-12.77,12.77-12.77,12.77,5.73,12.77,12.77-5.73,12.77-12.77,12.77Zm0-24.55c-6.49,0-11.77,5.28-11.77,11.77s5.28,11.77,11.77,11.77,11.77-5.28,11.77-11.77-5.28-11.77-11.77-11.77Z"/><circle class="cls-1" cx="171.92" cy="243.99" r="12.27"/><path d="m171.92,256.76c-7.04,0-12.77-5.73-12.77-12.77s5.73-12.77,12.77-12.77,12.77,5.73,12.77,12.77-5.73,12.77-12.77,12.77Zm0-24.55c-6.49,0-11.77,5.28-11.77,11.77s5.28,11.77,11.77,11.77,11.77-5.28,11.77-11.77-5.28-11.77-11.77-11.77Z"/><path class="cls-10" d="m68.3,228.01c3.03,1.22,7.41,4.01,6.99,6.28-.17.9-1.03,1.45-1.78,1.87-4.27,2.37-8.49,2.35-15.15,2.61-6.91.26-9.8.57-11.39-1.45-.2-.26-.76-.99-.81-2.01-.18-3.6,6.27-6.36,7.41-6.85,1.76-.75,8.06-3.15,14.73-.45Z"/><path class="cls-10" d="m178.12,226.69c2.82,1.65,6.76,5.04,6.01,7.22-.29.86-1.23,1.29-2.03,1.59-4.56,1.74-8.74,1.1-15.37.4-6.87-.73-9.78-.85-11.06-3.07-.16-.28-.61-1.09-.51-2.11.35-3.59,7.12-5.39,8.32-5.71,1.84-.49,8.43-1.95,14.64,1.68Z"/><path class="cls-6" d="m80.69,142.27c-4.81-4.38-8.77-4.6-10.3-4.55-8.59.25-17.54,11-19.05,27.17-1.14,9.34-1.96,19.66-2.18,30.81-.25,12.9.34,24.74,1.36,35.31,0,0,11.93,6.31,21.05-1.4,3.37-17.88,6.12-37.46,7.72-58.58.75-9.93,1.2-19.52,1.4-28.76Z"/><path class="cls-6" d="m155.15,142.12c.8-.96,4.44-5.14,9.63-5.06,5.51.08,9.03,4.92,10.91,7.49,4.09,5.6,5.1,11.51,5.86,21.5.89,11.75,1.58,21.47.16,36.64-.57,6.1-1.59,14.33-3.59,24.01-2.22.42-5.06.75-8.34.64-3.67-.12-6.77-.76-9.11-1.42.68-24.38-2.66-38.33-6.07-46.69-.61-1.49-1.89-4.45-2.74-8.77-2.27-11.41.55-21.55,3.29-28.34Z"/><path class="cls-3" d="m82.54,220.47h65.58c20.66,41.55,32.97,76.13,40.48,100.71,4.94,16.19,9.01,32,.86,42.54-6.11,7.91-17.91,9.11-41.25,11.17-6.25.55-27.2,2.19-62.74-1.72-19.98-2.2-30.04-3.37-33.77-6.97-15.07-14.56-4.05-48.99,8.84-89.29,7.91-24.74,16.31-44.18,22-56.44Z"/><path d="m128.02,376.22c-12.87,0-27.28-.85-42.61-2.54-20.9-2.3-30.29-3.47-34.06-7.11-15.29-14.77-4.17-49.54,8.71-89.8,6.19-19.34,13.6-38.35,22.03-56.51l.13-.29h66.21l.14.28c16.74,33.66,30.37,67.57,40.51,100.78,5.07,16.62,8.95,32.42.78,43-6.37,8.25-18.89,9.35-41.61,11.37-6.18.55-12.96.82-20.23.82Zm-45.15-155.24c-8.36,18.04-15.71,36.91-21.85,56.1-12.78,39.95-23.82,74.44-8.97,88.78,3.68,3.55,14.26,4.72,33.47,6.83,23.93,2.63,45.59,3.23,62.64,1.72,24.13-2.14,35.04-3.4,40.9-10.98,7.88-10.2,4.05-25.73-.94-42.09-10.1-33.07-23.66-66.83-40.31-100.35h-64.95Z"/><path class="cls-3" d="m98.45,223.24s-3.38,8.51-2.9,15.88"/><path d="m95.05,239.16c-.49-7.4,2.8-15.75,2.94-16.1l.93.37c-.03.08-3.34,8.49-2.87,15.67l-1,.07Z"/><path class="cls-3" d="m135.09,239.15s.34-9.15-2.58-15.94"/><path d="m135.59,239.17l-1-.04c0-.09.3-9.12-2.54-15.72l.92-.4c2.93,6.81,2.63,15.78,2.62,16.15Z"/><path class="cls-3" d="m92.29,223.46s-3.38,10.83-2.9,20.21"/><path d="m88.88,243.7c-.48-9.36,2.89-20.28,2.92-20.39l.96.3c-.03.11-3.35,10.86-2.88,20.04l-1,.05Z"/><path class="cls-3" d="m142.38,243.63s-.15-11.35-3.52-20.12"/><path d="m141.88,243.63c0-.11-.18-11.36-3.49-19.94l.93-.36c3.37,8.75,3.55,20.17,3.55,20.29h-1Z"/><path class="cls-3" d="m111.29,223.42s-1.94,6.69-.29,11.71"/><path d="m110.53,235.29c-1.68-5.12.2-11.73.28-12.01l.96.28c-.02.07-1.88,6.6-.3,11.42l-.95.31Z"/><path class="cls-3" d="m119.02,235.35s1.07-7.12-1.23-12.14"/><path d="m119.51,235.42l-.99-.15c0-.07,1.01-7.03-1.19-11.86l.91-.42c2.33,5.1,1.31,12.12,1.27,12.42Z"/><path class="cls-3" d="m78.56,141.12s4.79-5.8,9.33-6.3c4.54-.5-6.55,34.78,9.83,32.51l35.29.1c.93-.03,1.74-.22,2.46-.52,9.49-3.95,6.56-29.07,6.32-31.02,1.07-.24,6.38-1.3,10.67,1.98,1.25.96,2.11,2.05,2.7,2.99-.19,13.2-.89,27.4-2.3,42.45-1.33,14.13-3.14,27.4-5.23,39.72h-63.77c-2.15-12.35-3.93-26.19-4.89-41.3-.93-14.73-.94-28.35-.4-40.62Z"/><path d="m148.04,223.54h-64.61l-.07-.41c-2.38-13.64-4.02-27.55-4.9-41.35-.85-13.48-.99-27.16-.4-40.67v-.17s.11-.13.11-.13c.2-.24,4.97-5.96,9.66-6.48.38-.04.71.07.98.33,1.02.98.86,3.92.46,9.45-.53,7.39-1.26,17.51,2.78,21.3,1.38,1.3,3.22,1.77,5.6,1.44l35.36.1c.8-.03,1.57-.19,2.27-.48,9.23-3.84,6.15-29.41,6.02-30.49l-.06-.45.44-.1c1.96-.43,6.94-1.09,11.08,2.07,1.11.84,2.05,1.9,2.82,3.12l.08.12v.15c-.21,14.13-.98,28.43-2.3,42.49-1.24,13.25-3,26.62-5.23,39.76l-.07.42Zm-63.77-1h62.92c2.19-12.97,3.92-26.18,5.15-39.27,1.31-13.98,2.09-28.2,2.3-42.26-.68-1.07-1.52-1.99-2.5-2.73-3.57-2.73-8-2.31-9.81-1.97.5,4.36,2.67,27.19-6.68,31.08-.81.34-1.7.53-2.64.56l-35.3-.1c-2.59.36-4.75-.21-6.35-1.7-4.39-4.11-3.64-14.51-3.09-22.1.28-3.91.57-7.96-.16-8.66-.04-.04-.09-.07-.17-.05-3.92.44-8.17,5.16-8.89,6-.58,13.42-.44,27.01.41,40.39.86,13.63,2.48,27.36,4.81,40.83Z"/></svg>