<?xml version="1.0" encoding="UTF-8"?><svg id="Layer_39" xmlns="http://www.w3.org/2000/svg" width="156.62" height="397.74" viewBox="0 0 156.62 397.74"><defs><style>.cls-1{fill:#f8e0c8;}.cls-2{fill:#f1cc8f;}.cls-3,.cls-4{fill:#fff;}.cls-5{fill:#fbe7a1;}.cls-6{fill:#860a00;}.cls-7{fill:#c7c8ca;}.cls-8{fill:#221f20;}.cls-9{fill:#4b3024;}.cls-10{fill:#720a00;}.cls-11{fill:#7d0a00;}.cls-4{stroke:#221f20;stroke-miterlimit:10;}</style></defs><path class="cls-1" d="m103.87,110.03c.05,7.71,2.27,11.09,4.48,12.72,2.21,1.63,4.07,1.25,6.86,3.93.79.76,3.11,3.04,3.91,6.74.32,1.47.63,2.83.19,3.92-3.2,8.03-31.92,2.79-31.92,2.79l-3.05-28.88,14.64-10.58,4.88,9.35Z"/><path class="cls-8" d="m105.03,142.31c-8.3,0-17.07-1.57-17.72-1.69l-.37-.07-3.12-29.54,15.35-11.08,5.2,9.97v.12c.04,6.11,1.48,10.25,4.28,12.32.85.63,1.66.95,2.52,1.28,1.25.49,2.67,1.04,4.39,2.69,2.13,2.04,3.49,4.39,4.05,7l.02.11c.32,1.49.63,2.9.15,4.1-1.49,3.74-7.97,4.79-14.75,4.79Zm-17.17-2.61c3.34.57,28.17,4.54,31-2.55.37-.92.09-2.19-.2-3.52l-.02-.11c-.52-2.4-1.79-4.59-3.77-6.49-1.57-1.51-2.84-2-4.06-2.48-.88-.34-1.79-.7-2.75-1.41-3.05-2.25-4.62-6.62-4.68-13l-4.56-8.73-13.94,10.07,2.98,28.21Z"/><path class="cls-1" d="m127.13,93.61c-2.39,3.48-2.57,5.74-2.2,7.21.14.58.71,2.38-.02,2.96-.39.31-.97.11-1.15.46-.22.43.57.92.48,1.62-.08.62-.78.72-1.43,1.34-.84.8-.67,1.57-1.31,3.92-.51,1.88-.77,2.81-1.3,3.35-1.26,1.28-3.62.97-5.34.61-9.96-2.09-17.3-8.79-17.3-8.79-3.72-3.4-7.07-6.45-8.67-10.69-6.93-18.36,22.64-48.62,22.64-48.62l18.69-2.53s14.19,13.35,2.67,30.63c0,0-2.25,4.07,2.67,14.05,0,0,3.37,8.29-8.43,4.5Z"/><path class="cls-8" d="m117.43,115.88c-.93,0-1.87-.16-2.66-.33-9.97-2.1-17.46-8.84-17.53-8.91-3.68-3.36-7.16-6.53-8.8-10.89-2.93-7.77.02-18.42,8.77-31.65,6.48-9.79,13.9-17.43,13.97-17.5l.12-.12.17-.02,18.92-2.56.17.16c.14.14,14.37,13.84,2.74,31.27,0,0-2,4.01,2.7,13.55.07.16,1.29,3.24-.38,5.04-1.35,1.46-4.14,1.55-8.3.27-1.71,2.58-2.36,4.76-1.92,6.5l.05.18c.24.9.68,2.56-.24,3.29-.29.23-.62.28-.85.31-.03,0-.06,0-.09.01.03.06.07.13.1.18.18.3.43.72.36,1.24-.08.62-.54.91-.94,1.17-.21.13-.43.27-.64.47-.46.43-.54.83-.74,1.81-.1.5-.23,1.1-.44,1.88-.54,1.96-.8,2.94-1.42,3.57-.8.82-1.96,1.07-3.13,1.07Zm-5.66-68.45c-2.03,2.12-28.92,30.71-22.41,47.98,1.56,4.14,4.8,7.09,8.54,10.5.07.07,7.37,6.63,17.06,8.67,1.57.33,3.79.64,4.88-.47.44-.45.68-1.34,1.17-3.13.21-.76.33-1.35.43-1.83.22-1.05.35-1.69,1.03-2.33.28-.26.56-.44.79-.59.37-.23.47-.32.49-.45.02-.18-.1-.38-.23-.59-.18-.31-.44-.72-.2-1.18.21-.41.63-.47.9-.51.15-.02.3-.04.38-.11.19-.15.32-.66-.11-2.25l-.05-.19c-.52-2.1.24-4.66,2.27-7.61l.21-.31.35.11c3.89,1.25,6.53,1.29,7.62.12,1.24-1.33.21-3.93.2-3.95-4.96-10.06-2.74-14.3-2.64-14.48,10.62-15.94-.78-28.24-2.41-29.86l-18.27,2.47Z"/><circle class="cls-3" cx="94.76" cy="121.58" r="2.25"/><path class="cls-8" d="m94.76,124.33c-1.52,0-2.75-1.23-2.75-2.75s1.23-2.75,2.75-2.75,2.75,1.23,2.75,2.75-1.23,2.75-2.75,2.75Zm0-4.5c-.96,0-1.75.78-1.75,1.75s.78,1.75,1.75,1.75,1.75-.78,1.75-1.75-.78-1.75-1.75-1.75Z"/><circle class="cls-3" cx="97.01" cy="125.52" r="2.25"/><path class="cls-8" d="m97.01,128.26c-1.52,0-2.75-1.23-2.75-2.75s1.23-2.75,2.75-2.75,2.75,1.23,2.75,2.75-1.23,2.75-2.75,2.75Zm0-4.5c-.96,0-1.75.78-1.75,1.75s.78,1.75,1.75,1.75,1.75-.78,1.75-1.75-.78-1.75-1.75-1.75Z"/><circle class="cls-3" cx="101.17" cy="127.76" r="2.25"/><path class="cls-8" d="m101.17,130.51c-1.52,0-2.75-1.23-2.75-2.75s1.23-2.75,2.75-2.75,2.75,1.23,2.75,2.75-1.23,2.75-2.75,2.75Zm0-4.5c-.96,0-1.75.78-1.75,1.75s.78,1.75,1.75,1.75,1.75-.78,1.75-1.75-.78-1.75-1.75-1.75Z"/><circle class="cls-3" cx="105.41" cy="127.35" r="1.84"/><path class="cls-8" d="m105.41,129.6c-1.24,0-2.25-1.01-2.25-2.25s1.01-2.25,2.25-2.25,2.25,1.01,2.25,2.25-1.01,2.25-2.25,2.25Zm0-3.68c-.79,0-1.43.64-1.43,1.43s.64,1.43,1.43,1.43,1.43-.64,1.43-1.43-.64-1.43-1.43-1.43Z"/><circle class="cls-3" cx="107.38" cy="124.64" r="1.61"/><path class="cls-8" d="m107.38,126.6c-1.08,0-1.97-.88-1.97-1.97s.88-1.97,1.97-1.97,1.97.88,1.97,1.97-.88,1.97-1.97,1.97Zm0-3.22c-.69,0-1.25.56-1.25,1.25s.56,1.25,1.25,1.25,1.25-.56,1.25-1.25-.56-1.25-1.25-1.25Z"/><path class="cls-3" d="m127.13,93.61s-1.58-.55-3.16-2.67"/><path class="cls-8" d="m127.13,94.11c-.05,0-.11,0-.16-.03-.07-.02-1.74-.62-3.39-2.84-.17-.22-.12-.54.1-.7.22-.16.53-.12.7.1,1.45,1.95,2.91,2.49,2.92,2.5.26.09.39.38.3.64-.07.21-.26.33-.47.33Z"/><path class="cls-3" d="m125.83,70s1.14,5.41-3.18,10.01l-9.73-8.17s12.8-4.32,12.91-1.84Z"/><path class="cls-8" d="m122.7,80.7l-10.78-9.05.84-.28c1.83-.62,11.07-3.63,13.07-2.27.3.21.47.49.5.84.11.54,1,5.83-3.31,10.42l-.32.35Zm-8.77-8.67l8.68,7.29c3.71-4.26,2.75-9.17,2.73-9.21v-.08s-.01-.06-.08-.1c-1.09-.75-7.01.71-11.34,2.11Z"/><ellipse class="cls-8" cx="123.92" cy="74.35" rx="4.57" ry="1.82" transform="translate(22.18 176.97) rotate(-76.21)"/><circle class="cls-3" cx="125.09" cy="71.77" r=".46"/><path class="cls-8" d="m123.46,104.41h-.02c-.53-.02-7.54-2.63-9.59-9-.08-.26.06-.54.32-.63.26-.09.54.06.63.32,1.88,5.84,8.04,8.09,8.67,8.3.15.02.25.04.35.13.15.14.21.38.12.57-.08.19-.28.31-.48.31Z"/><path class="cls-8" d="m112.73,96c-.06,0-.11,0-.16,0-.27-.02-.48-.27-.45-.54.02-.27.27-.47.54-.45.07,0,1.22.06,1.77-1.25.11-.25.4-.38.65-.27.25.11.37.4.27.65-.62,1.49-1.9,1.87-2.62,1.87Z"/><path class="cls-8" d="m129.59,66.08c-.16,0-.33-.04-.48-.12-.11-.06-10.66-5.79-15.17-1.52-.4.38-1.03.36-1.41-.04s-.36-1.03.04-1.41c5.57-5.28,17.02.95,17.51,1.22.48.27.66.88.39,1.36-.18.33-.52.52-.88.52Z"/><ellipse class="cls-9" cx="70.73" cy="380.51" rx="10.01" ry="19.83" transform="translate(-314.59 344.18) rotate(-74.08)"/><ellipse class="cls-9" cx="124.09" cy="383.45" rx="10.01" ry="19.83" transform="translate(-272.51 455.12) rotate(-82.31)"/><path class="cls-11" d="m109.34,193.15c-16.21,1.84-32.41,3.67-48.62,5.51-4.65,3.26-11.11,8.37-17.56,15.72-14.61,16.65-20.69,35.12-27,67.93-4.37,22.73-8.83,52.21-11.02,87.23,2.14,1.69,4.79,3.61,8.2,4.79,5.71,1.97,14.63,3.08,27.5-.33,0,0,28.5-4.54,30,2.19,0,0,11.42,11.98,48.19,5.16,0,0,25.75,3.67,27.85-5.77,2.36-34.47.87-63.56-1.35-85.41-5.24-51.53-15.45-71.6-25.94-85.35-3.93-5.15-7.63-9.07-10.25-11.67Z"/><path class="cls-6" d="m116.79,158.79s7.82,7.02,9.25,43.07c1.44,36.05-23.13-32.38-23.13-32.38l13.88-10.69Z"/><path class="cls-3" d="m75.38,198.22c12.21-.68,24.41-1.35,36.62-2.03,3.01,2.8,7.26,7.12,11.59,12.97,13.85,18.72,17.11,37.8,20.46,58.84,1.93,12.09,3.7,28.84,3.04,49.04-4.33,3.38-10.95,7.63-19.75,9.78-8.29,2.03-9.08.06-25.01.74-18.2.77-21.77,4-31.63,1.47-2.09-.53-5.4-1.57-10.3-1.84-7.94-.44-11.58,1.6-13.24,1.1-5.04-1.51-3.72-29.79,17.81-130.68,3.47.2,6.93.4,10.4.61Z"/><path class="cls-8" d="m77.8,330.47c-2.22,0-4.49-.26-7.22-.96l-.86-.23c-2.04-.54-5.12-1.36-9.34-1.6-4.79-.26-8,.39-10.13.82-1.48.3-2.46.49-3.22.27-8.89-2.66,5.71-76.19,17.46-131.27l.09-.42,10.79.63c12.06-.84,24.12-1.68,36.18-2.51,3.13,3.04,7.54,7.7,12.03,13.96,14.13,19.69,17.68,39.38,20.95,58.78,2.03,12.01,3.89,28.8,3.05,49.1v.24l-.19.15c-6.18,4.82-12.89,8.15-19.94,9.88-4.72,1.16-7.09,1.03-11.02.83-3.01-.16-7.12-.38-14.09-.08-7.38.31-12.33,1.03-16.3,1.6-3.1.45-5.64.81-8.25.81Zm-19.61-3.85c.71,0,1.45.02,2.24.06,4.33.24,7.47,1.08,9.54,1.63l.85.22c5.75,1.47,9.26.97,15.08.13,4-.58,8.98-1.3,16.4-1.61,7.01-.3,11.16-.08,14.19.08,3.96.21,6.14.32,10.72-.8,6.84-1.68,13.36-4.89,19.37-9.54.86-20.15-1.01-36.81-3.04-48.73-3.13-18.34-6.43-36.55-19.17-55.45-4.96-7.35-9.98-12.79-13.59-16.35-11.81.82-23.61,1.64-35.42,2.46l-10-.58c-22.38,104.93-22.18,128.45-18.07,129.68.53.16,1.45-.03,2.74-.29,1.83-.37,4.45-.9,8.14-.9Z"/><path class="cls-3" d="m104,196.23s6.91,6.31,5.99,12.99"/><path class="cls-8" d="m109.99,209.72s-.05,0-.07,0c-.27-.04-.46-.29-.43-.56.87-6.33-5.61-12.35-5.81-12.53-.1-.08-.17-.21-.18-.36-.02-.28.19-.51.47-.53.22-.02.29-.02,1.32,1.09,1.81,1.95,5.94,7.07,5.19,12.46-.03.25-.25.43-.49.43Z"/><path class="cls-3" d="m97.79,197.05s2.99,3.09,3.22,7.69"/><path class="cls-8" d="m101.01,205.25c-.26,0-.49-.21-.5-.47-.22-4.37-3.05-7.34-3.08-7.37-.19-.2-.19-.51.01-.71.2-.19.51-.19.71.01.13.13,3.13,3.28,3.36,8.02.01.28-.2.51-.47.52,0,0-.02,0-.03,0Z"/><path class="cls-4" d="m91.5,117.61c.22.83.53,2.11.83,3.69,2.02,10.57-.17,15.5,2.59,17.72.86.69,3.33.41,8.29-.16,4.03-.46,11.96-1.36,14.52-3.49.2-.16.81-.71,1.52-.61.99.13,1.57,1.41,1.78,1.87,4.07,8.93.36,19.44.36,19.44-2.63,7.44-5.54,8.06-7.6,16.18-.76,3-.98,5.36-1.23,7.97-.65,6.89-.25,12.69.28,16.83-12.53.97-25.06,1.94-37.59,2.91-1.06-6.68-2.12-13.35-3.18-20.03l1.75-55.53,17.67-6.8Z"/><circle class="cls-1" cx="88.68" cy="244.6" r="12.03"/><path class="cls-8" d="m88.68,257.13c-6.91,0-12.53-5.62-12.53-12.53s5.62-12.53,12.53-12.53,12.53,5.62,12.53,12.53-5.62,12.53-12.53,12.53Zm0-24.07c-6.36,0-11.53,5.17-11.53,11.53s5.17,11.53,11.53,11.53,11.53-5.17,11.53-11.53-5.17-11.53-11.53-11.53Z"/><ellipse class="cls-10" cx="83.36" cy="235.38" rx="13.15" ry="6.26" transform="translate(-106.52 73.22) rotate(-30)"/><path class="cls-6" d="m52.97,182.8s7.75,59.96,24.85,54.71l9.57-3.65c1.57-1.24,3.4-3.12,3.97-5.75,1.72-7.94-10.38-11.68-14.22-25.26-2.25-7.95-.81-16.23-3.65-16.87-1.11-.25-1.57.97-3.65,1.14-3.08.25-4.71-2.22-7.98-3.65-1.84-.81-4.69-1.5-8.89-.68Z"/><path class="cls-5" d="m74.24,46.65s41.84-11.66,50.39-6.62,2.56,7.78,2.56,7.78c0,0-21.24,8.73-23.06,28.92,0,0-.26,4.17-5.86,7.43,0,0,6.12,32.57-15.5,50.68.58,3.09.99,6.85.85,11.11-.26,8.52-2.59,15.33-4.54,19.73-.07,2.35-.33,4.9-.85,7.6-2.32,11.85-8.74,20.23-13.12,24.92,0,0-28.59-11.84-11.61-62.75,0,0-5.62-67.74,20.75-88.81Z"/><path class="cls-2" d="m65.23,198.81l-.32-.13c-.3-.12-7.37-3.13-12.42-12.51-8.37-15.54-4.36-36.16.49-50.77-.23-3.03-4.85-68.53,20.95-89.14l.18-.09c1.72-.48,42.14-11.66,50.78-6.57,3.31,1.95,4.94,3.85,4.84,5.65-.1,1.98-2.24,2.98-2.33,3.02-.23.09-20.99,8.86-22.77,28.51,0,.16-.33,4.31-5.81,7.64.57,3.56,4.64,33.5-15.51,50.62.65,3.61.92,7.29.81,10.93-.21,6.8-1.74,13.48-4.54,19.83-.08,2.55-.38,5.11-.86,7.59-1.78,9.1-6.36,17.8-13.25,25.17l-.24.25Zm9.24-151.7c-25.77,20.73-20.54,87.64-20.49,88.31v.1s-.02.1-.02.1c-4.8,14.4-8.8,34.76-.63,50.01,4.29,8,10.23,11.28,11.65,11.98,6.62-7.17,11.02-15.61,12.75-24.41.48-2.46.77-4.99.84-7.52l.04-.19c2.78-6.26,4.29-12.84,4.5-19.55.11-3.67-.17-7.38-.85-11.01l-.05-.29.22-.19c21.15-17.71,15.39-49.88,15.33-50.2l-.07-.35.31-.18c5.28-3.07,5.61-6.99,5.62-7.03,1.83-20.27,23.15-29.26,23.37-29.35h0s1.66-.78,1.73-2.16c.05-.96-.67-2.56-4.35-4.73-8.07-4.76-47.64,6.02-49.91,6.64Z"/><path class="cls-2" d="m54.07,137.19c-.1,0-.21,0-.31-.02-.54-.12-.88-.65-.76-1.19.59-2.66,4.93-6.68,5.42-7.13.41-.37,1.04-.34,1.41.06.37.41.34,1.04-.06,1.41-1.68,1.54-4.47,4.55-4.82,6.09-.1.43-.46.74-.88.78Z"/><path class="cls-2" d="m70.54,143.69c-.51-.04-.85-.28-1.05-.48-2.49-2.49,3.08-17.32,5.59-23.59.2-.51.77-.76,1.26-.54.49.21.72.79.52,1.3-3.61,9.01-6.84,19.55-6.06,21.3.05-.01.13-.04.22-.09,5.33-2.58,13.73-10.65,13.81-10.73.39-.38,1-.36,1.36.05.36.4.33,1.04-.06,1.41-.35.34-8.71,8.37-14.31,11.08-.5.24-.93.31-1.27.29Zm.3-1.91h.01s-.01,0-.01,0Z"/><path class="cls-2" d="m73.65,99.59c-.98,0-1.6-.32-2.04-.75-4.02-3.92,9.34-22.63,13.53-28.28.33-.44.96-.53,1.4-.21.44.33.54.96.21,1.4-8.13,10.94-15.59,23.86-13.74,25.65.44.43,3.73,1.72,25.17-15.1.43-.34,1.06-.27,1.4.17.34.43.26,1.06-.17,1.4-16.05,12.59-22.7,15.7-25.76,15.7Z"/><path class="cls-6" d="m135.78,42.96c-.2-2.33-2.12-20.96-18.37-31.4-13.7-8.8-32.04-8.22-46.36,1.55-3.69,2.78-9.14,7.46-14.1,14.47-10.01,14.14-11.6,28.63-13.07,42.16-.91,8.34-1.5,20.6.57,35.47l3.32,2.82s8.16-53.97,23.47-61.11l64.54-3.95Z"/><path class="cls-3" d="m96.16,42.65s42-15.12,43.4,6.72c0,0,2.71,8.4-19.6,3.73-2.43,1.63-7.55,4.6-14.72,5.29-5.99.58-10.78-.69-13.45-1.61-.69.37-10.83,5.64-18.5.52-.61-.41-5.45-3.69-5.26-8.25.23-5.54,7.39-9.12,12.17-8.49,1.97.26,2.43,1.09,4.97,1.94,4.28,1.43,8.29.84,10.99.14Z"/><path class="cls-7" d="m81.07,60.01c-2.68,0-5.5-.59-8.06-2.29-1.33-.89-5.67-4.16-5.48-8.69.09-2.2,1.2-4.25,3.2-5.94,2.64-2.22,6.47-3.43,9.54-3.03,1.19.16,1.88.52,2.69.93.61.31,1.3.67,2.37,1.03,3.25,1.09,6.84,1.13,10.68.14.44-.16,7.12-2.5,15.03-3.96,11.01-2.02,19.04-1.43,23.88,1.74,3.13,2.05,4.86,5.19,5.14,9.33.09.35.43,1.98-.88,3.44-2.45,2.72-8.88,3.03-19.11.92-3.13,2.08-8.19,4.62-14.78,5.26-4.5.43-9.15-.11-13.46-1.57-1.02.52-5.61,2.69-10.76,2.69Zm-1.99-19.02c-2.58,0-5.6,1.1-7.7,2.87-1.24,1.04-2.74,2.79-2.84,5.21-.17,4.11,4.16,7.23,5.03,7.81,7.48,5,17.56-.32,17.98-.55l.19-.1.21.07c4.23,1.47,8.81,2.01,13.24,1.59,6.51-.63,11.47-3.18,14.49-5.21l.17-.12.21.04c12.4,2.59,16.82,1.13,18.36-.55,1.07-1.18.68-2.49.67-2.55l-.02-.12c-.25-3.83-1.82-6.73-4.69-8.61-11.06-7.25-37.77,2.23-38.04,2.33h-.04c-4.03,1.06-7.83,1.01-11.27-.14-1.15-.38-1.88-.76-2.52-1.09-.78-.4-1.34-.69-2.36-.83-.34-.05-.7-.07-1.06-.07Z"/><path class="cls-3" d="m47.26,103.35s-6.42-4.05-11,4.67c0,0-6.88,6.54,0,10.67,0,0,8.49,6.06,15.09-1,0,0,7.11-5.77,3-11.95,0,0-1.17-3.72-7.09-2.39Z"/><path class="cls-7" d="m43.86,121.61c-4.3,0-7.84-2.47-7.89-2.51-1.94-1.16-3.04-2.66-3.23-4.43-.37-3.34,2.63-6.47,3.12-6.95,1.62-3.06,3.65-4.93,6.04-5.57,2.62-.7,4.81.32,5.45.67,5.65-1.18,7.23,2.13,7.46,2.69,4.24,6.47-3.06,12.51-3.13,12.57-2.5,2.68-5.29,3.52-7.8,3.52Zm-.16-18.69c-.5,0-1.02.06-1.57.21-2.12.57-3.95,2.3-5.44,5.13l-.1.13s-3.22,3.11-2.88,6.18c.16,1.44,1.1,2.69,2.79,3.7.37.26,8.25,5.74,14.47-.91.33-.27,6.75-5.61,2.95-11.33l-.06-.13c-.04-.13-1.14-3.26-6.51-2.05l-.2.04-.17-.11s-1.41-.86-3.29-.86Z"/></svg>