<?xml version="1.0" encoding="UTF-8"?><svg id="Layer_7" xmlns="http://www.w3.org/2000/svg" width="290" height="500" viewBox="0 0 290 500"><defs><style>.cls-1{fill:silver;}.cls-2{fill:#5e110c;}</style></defs><polygon class="cls-2" points="106.13 205.56 101.91 237.25 119.26 266.98 106.13 205.56"/><polygon class="cls-2" points="47.96 222.22 32.19 236.65 28.98 209.87 47.96 222.22"/><path class="cls-1" d="m171.85,187.2l-1.37-10.37c-.18-1.37-1.34-2.4-2.73-2.43l-4-.11c4.58-1.8,7.89-6.2,8.03-11.43.19-6.96-5.33-12.78-12.29-12.97s-12.78,5.33-12.97,12.28c-.14,5.23,2.93,9.8,7.4,11.84l-3.61-.1c-1.35-.04-2.53.87-2.83,2.18l-2.33,10.27c-.39,1.72.91,3.37,2.68,3.41l21.13.57c1.74.05,3.1-1.46,2.88-3.16Zm-23.33-24.97c.17-6.16,5.79-9.96,9.92-10.32.43-.04.77-.03.99-.02,4.25.21,10.53,4.19,10.35,10.91-.16,5.87-5.06,10.51-10.92,10.35-5.86-.16-10.5-5.05-10.34-10.92Z"/><path d="m157.21,158.2s-.04-.04-.06-.06c-1.47-1.5-1.32-4.32.46-8.62v-.02c35.71-79.95,76.43-126.04,106.29-120.28,7.51,1.45,16.39,6.52,19.29,14.59,5.29,14.7-10.54,35.23-24.75,49.87-16.08,16.55-39.06,34.84-61.48,48.91-10.21,6.41-34.46,20.71-39.76,15.63Zm2.24-7.9c-1.93,4.65-1.26,6.05-.88,6.44,0,0,.02.02.03.03,2.29,2.2,14.9-1.83,37.3-15.88,40.68-25.53,94.08-72.32,85.41-96.4-2.64-7.32-10.83-11.96-17.79-13.3-14.32-2.76-31.74,7.22-50.39,28.86-18.18,21.1-36.74,52.31-53.68,90.26Z"/><path class="cls-1" d="m160.52,149.98c-.36-.04-.73-.08-1.1-.09-2.16-.06-4.21.44-6.02,1.36.66.42,1.18.98,1.57,1.63,1.15-.54,2.33-.88,3.4-.97.43-.04.77-.03.99-.02.43.02.88.09,1.33.19-.19-.67-.25-1.39-.18-2.09Z"/><path class="cls-2" d="m215.43,338.17l42.88,24.65s16.39-18.44,16.36-51.49l-16.69,1.38-15.91-18.19-24.48,16.61,21.71,14.84-23.86,12.21Z"/><path class="cls-2" d="m267.36,274.29c-1.17,1.99-2.48,4.05-3.95,6.16-2.89,4.15-5.85,7.71-8.67,10.72-4.47-3.34-8.94-6.68-13.42-10.02l26.03-6.86Z"/><polygon class="cls-2" points="268.49 369.89 288.48 351.14 262.15 357.75 268.49 369.89"/><polygon class="cls-2" points="236.94 375.45 250.38 366.71 253.61 374.89 263.82 372.42 262.16 382.78 247.92 389.24 236.94 375.45"/><path class="cls-2" d="m287.35,298.13l-9.5-4.4-.35,9.77-8.7.56,2.62-10.08-9.45-7.61c3.59-.36,7.83-.53,12.59-.27,4.12.23,7.82.74,11.01,1.35l1.77,10.67Z"/><path class="cls-2" d="m231.8,265.27l16.21-25.99s3.7,15.78,2.66,20.74l-8.39,8.69-10.48-3.43Z"/><polygon class="cls-2" points="272.95 478.24 261.78 471.4 268.8 459.22 272.95 478.24"/><polygon class="cls-2" points="240.36 435.85 237.87 424.4 224.79 439.49 236.51 442.52 240.36 435.85"/><polygon class="cls-2" points="220.94 371.25 205.26 374.61 196.65 347.88 217.94 346.42 224.06 356.87 217.91 358.51 220.94 371.25"/><path class="cls-2" d="m202.58,253.99l-2.7,25.58-3.09,29.3c4.95-.76,11.47-2.26,18.67-5.36,7.4-3.19,13.08-7.03,17.08-10.18-9.99-13.11-19.98-26.23-29.97-39.34Z"/><path class="cls-2" d="m200.89,436.24l-2.56-41.78,18.55,23.57c-1.39,2.16-2.99,4.42-4.84,6.73-3.77,4.72-7.64,8.5-11.15,11.48Z"/><polygon class="cls-2" points="193.06 334.55 206.95 330.81 207.6 341.3 193.06 334.55"/><polygon class="cls-2" points="67.52 442.11 69.56 466.49 83.71 462.69 67.52 442.11"/><polygon class="cls-2" points="180.49 355.43 178.45 331.05 196.53 310.61 170.44 304.61 149.73 322.95 180.49 355.43"/><polygon class="cls-2" points="162.32 262.34 176.36 281.04 156.02 299.06 162.32 262.34"/><polygon class="cls-2" points="198.43 245.53 181.7 269.92 167.66 251.22 152.63 244.26 168.12 230.08 198.43 245.53"/><polygon class="cls-2" points="71.93 416.39 59.2 394.33 74.5 401.42 71.93 416.39"/><polygon class="cls-2" points="143.97 288.15 110.55 270.85 136.45 253.05 143.97 288.15"/><path class="cls-2" d="m135.42,218.98l-18.56,13.09,18.98,12.35,27.06-31.2c-3.97-2.57-8.91-5.34-14.78-7.78-7.33-3.05-14.04-4.74-19.47-5.71,2.26,6.42,4.52,12.84,6.78,19.25Z"/><path class="cls-2" d="m50.09,343.21l31.43-26.75,8.21,25.4,14.49,1.09-2.65,27.39,16.74,1.35,10.26,27.22c-9.75-1.22-32.24-5.42-53.1-23.05-13.7-11.58-21.34-24.42-25.36-32.65Z"/><path class="cls-2" d="m120.76,338.11l-7.74,26.4,16.19,4.46,4.97,28.66c5.61,1.97,13.31,4.05,22.62,4.77,8.52.66,15.84-.01,21.4-.93-13.99-22.54-27.97-45.07-41.96-67.61l-15.48,4.24Z"/><polygon class="cls-2" points="26.72 346.64 33.5 365.9 14.94 378.99 26.72 346.64"/><path class="cls-2" d="m62.28,273.48l14.08-6.73,36.05,8.51-50.84-36.88c-.88,4.81-1.58,10.86-1.41,17.84.16,6.75,1.07,12.59,2.12,17.26Z"/><path class="cls-2" d="m58.12,318.89l-7.68-44.35c-5.06,3.19-11.23,7.71-17.48,13.97-6.36,6.36-10.93,12.64-14.13,17.77,13.1,4.21,26.2,8.41,39.29,12.62Z"/><polygon class="cls-2" points="104.2 299.75 112.41 325.14 126.89 326.23 141.31 319.16 123.06 286.75 117 302.05 104.2 299.75"/><polygon class="cls-2" points="89.93 307.31 77.14 305.01 66.21 282.73 96 292.02 89.93 307.31"/><path class="cls-2" d="m196.12,201.68c-.07-.67-9.11,17.45-9.11,17.45l28.59,2.94-19.48-20.39Z"/><polygon class="cls-2" points="215.07 234.55 220.11 265.71 241.33 220.89 215.07 234.55"/><polygon class="cls-2" points="253.17 185.52 257.74 166.87 264.23 180.1 253.17 185.52"/><polygon class="cls-2" points="80.12 167.34 79.76 142.73 89.75 157.34 80.12 167.34"/><polygon class="cls-2" points="81.27 221.67 70.27 203.95 87.61 201.4 81.27 221.67"/><polygon class="cls-2" points="12.32 248.54 3.23 230.02 16.52 236.81 12.32 248.54"/><polygon class="cls-2" points="23.52 331.79 .76 323.08 12.87 320.68 23.52 331.79"/></svg>