<?xml version="1.0" encoding="UTF-8"?><svg id="Layer_6" xmlns="http://www.w3.org/2000/svg" width="290" height="500" viewBox="0 0 290 500"><defs><style>.cls-1{fill:#fff;}.cls-2{fill:silver;}.cls-3{fill:#3b0a00;}.cls-4{fill:#5e110c;}</style></defs><path class="cls-2" d="m109.19,173.52c-.36-.03-.73-.06-1.1-.06-2.17,0-4.2.55-5.98,1.52.67.4,1.21.95,1.61,1.59,1.14-.57,2.3-.94,3.38-1.06.43-.05.77-.05.99-.05.43.01.88.06,1.34.15-.21-.67-.29-1.38-.24-2.09Z"/><path class="cls-2" d="m121.52,210.42l-1.65-10.33c-.22-1.36-1.4-2.36-2.79-2.36h-4c4.53-1.92,7.72-6.41,7.72-11.64,0-6.96-5.67-12.63-12.64-12.63s-12.63,5.67-12.63,12.63c0,5.23,3.19,9.72,7.72,11.64h-3.61c-1.35,0-2.51.94-2.77,2.26l-2.05,10.33c-.34,1.73,1,3.34,2.77,3.34h21.14c1.74,0,3.06-1.54,2.79-3.24Zm-23.99-24.33c0-6.17,5.52-10.12,9.64-10.58.43-.05.77-.05.99-.05,4.26.1,10.64,3.91,10.64,10.63,0,5.87-4.77,10.64-10.64,10.64s-10.63-4.77-10.63-10.64Z"/><circle class="cls-4" cx="108.17" cy="313.02" r="100.77"/><path d="m108.32,178.3s-.06,0-.09,0c-2.1-.06-3.94-2.2-5.63-6.54v-.02c-29.64-82.39-32.19-143.84-6.66-160.37,6.42-4.16,16.34-6.65,24.02-2.84,14,6.94,16.8,32.72,16.69,53.11-.13,23.08-4.04,52.18-10.47,77.86-2.93,11.69-10.51,38.81-17.85,38.81Zm-3.86-7.25c1.83,4.69,3.29,5.24,3.83,5.25.01,0,.03,0,.04,0,3.17,0,9.49-11.64,15.91-37.29,11.66-46.59,17.77-117.32-5.17-128.69-6.97-3.46-16.09-1.12-22.04,2.73-12.24,7.93-17.9,27.19-16.35,55.72,1.5,27.81,9.73,63.18,23.79,102.28Z"/><path class="cls-1" d="m28.77,286.65c-2.1,2.99-8.87,15.72-4.5,37.68.49,2.48,5.01,24.09,16.68,30.26,1.33.7,5.17,2.74,7.12,1.24,1.44-1.11,1.26-3.7.93-5.88-1.38-9.05-5.9-14.28-8.98-20.75-.21-.45-3.89-8.34-4.34-17.96-.7-15.13,6.97-25.98,3.1-28.8-1.15-.84-2.91-.67-3.41-.62-3.44.33-5.66,3.5-6.6,4.83Z"/><path class="cls-3" d="m193.93,259.95c-.49.21-25.84,10.94-38.03,16.1l20.78,27.71-26.23,14.8,20.78,16.87-25.24,10.39c13.81,9.53,27.62,19.07,41.43,28.6,5.77-7.34,18.06-25.03,20.91-50.87,3.55-32.16-9.81-56.09-14.42-63.6Z"/><path class="cls-4" d="m184.43,404.65l28.15,41.74s23.24-9.51,38.03-39.73l-15.87-6.22-6.39-23.76-29.82,4.21,13.2,23.29-27.29.47Z"/><path class="cls-4" d="m272.72,379.11c-1.96,1.29-4.08,2.59-6.37,3.86-4.5,2.5-8.8,4.42-12.73,5.92-2.59-5.06-5.18-10.12-7.77-15.18l26.87,5.4Z"/><polygon class="cls-4" points="237.68 466.21 263.88 458.18 237.32 452.52 237.68 466.21"/><polygon class="cls-4" points="188.73 465.55 204.64 463.62 203.93 472.39 214.19 474.67 208.14 483.23 192.52 482.77 188.73 465.55"/><path class="cls-4" d="m280.8,440.25l-6.59-8.13-4.62,8.62-8.06-3.33,6.8-7.9-5.13-10.99c3.38,1.26,7.26,2.97,11.43,5.3,3.6,2.02,6.69,4.11,9.29,6.06l-3.11,10.36Z"/><path class="cls-4" d="m213.67,357.45l26.47-16.49s-3.68,16.08-6.86,20.15l-11.56,4.18-8.05-7.83Z"/><polygon class="cls-4" points="251.78 496.9 244.77 485.84 256.44 478 251.78 496.9"/><polygon class="cls-4" points="150.97 467.15 153.77 455.78 135.38 463.56 144.58 471.45 150.97 467.15"/><polygon class="cls-4" points="175.96 445.47 160.4 441.58 164.44 413.79 184.19 421.85 185.09 433.93 178.85 432.69 175.96 445.47"/></svg>