<?xml version="1.0" encoding="UTF-8"?><svg id="Layer_2" xmlns="http://www.w3.org/2000/svg" width="290" height="300" viewBox="0 0 290 300"><defs><style>.cls-1{fill:#fff;}.cls-2{fill:#221f20;}</style></defs><path class="cls-1" d="m285.86,193.91c-.7-2.68-3.42-4.28-6.1-3.6l-41.69,10.72-22.04-13.92,20.29-4.23c2.7-.57,4.43-3.22,3.87-5.92-.55-2.7-3.2-4.45-5.9-3.88l-30.41,6.35-26.95-17.02,14.27-12.7c1.13-1.02,1.75-2.52,1.67-4.05-.1-1.53-.9-2.93-2.15-3.8l-12.54-8.67,19.82-11.8,31.99,6.37c.33.07.67.1.98.1,2.35,0,4.43-1.65,4.9-4.03.55-2.7-1.22-5.33-3.92-5.88l-21.1-4.2,16.54-9.85,39.52,8.22c.33.07.68.1,1.02.1,2.32,0,4.4-1.62,4.88-3.98.57-2.7-1.17-5.35-3.87-5.9l-28.84-6,32.74-19.49c1.57-.93,2.43-2.58,2.43-4.3,0-.87-.22-1.75-.7-2.55-1.42-2.37-4.48-3.15-6.85-1.73l-34.19,20.35,6.92-33.89c.55-2.72-1.2-5.35-3.9-5.9-2.72-.55-5.35,1.18-5.9,3.9l-8.75,42.82-15.35,9.14,4.92-23.17c.58-2.7-1.15-5.35-3.85-5.93-2.7-.58-5.35,1.15-5.93,3.85l-6.87,32.24-19.85,11.82,1.38-12.84c.18-1.73-.53-3.43-1.92-4.5-1.37-1.07-3.2-1.33-4.83-.72l-15.94,6.05v-22.2l22.42-21.44c2-1.9,2.07-5.07.17-7.07-1.9-2-5.07-2.07-7.07-.15l-15.52,14.84v-17.95l26.84-27.3c1.93-1.97,1.92-5.13-.07-7.07-1.97-1.95-5.13-1.92-7.07.05l-19.7,20.05V12.91c0-2.77-2.23-5-5-5s-5,2.23-5,5v33.57l-25.74-25.12c-1.98-1.93-5.15-1.9-7.07.08-1.93,1.97-1.9,5.13.08,7.07l32.72,31.94v17l-15.6-14.1c-2.05-1.87-5.2-1.7-7.07.35-1.85,2.03-1.68,5.2.37,7.05l22.3,20.19v19.32l-17.59-4.98c-1.62-.45-3.33-.08-4.6,1-1.28,1.08-1.93,2.72-1.73,4.38l1.93,16.82-18.22-11.52c.23-.77.27-1.6.1-2.4l-5.75-28.51c-.55-2.7-3.18-4.47-5.9-3.92-2.7.55-4.45,3.18-3.9,5.9l4.43,21.97-22.64-14.3-7.23-38.71c-.52-2.72-3.13-4.5-5.83-3.98-2.72.5-4.52,3.12-4,5.83l5.53,29.57-31.21-19.72c-2.33-1.48-5.43-.78-6.9,1.55-.53.83-.78,1.77-.78,2.68,0,1.65.83,3.27,2.33,4.22l31.27,19.75-33.46,6.38c-2.72.52-4.5,3.13-3.98,5.85.47,2.38,2.55,4.05,4.9,4.05.32,0,.63-.02.95-.08l43.97-8.37,14.35,9.07-15.14,2.67c-2.73.48-4.53,3.07-4.07,5.8.43,2.42,2.55,4.13,4.92,4.13.3,0,.58-.03.88-.08l25.97-4.58,23.07,14.59-14.67,9.99c-1.5,1.02-2.33,2.77-2.17,4.57.15,1.82,1.28,3.38,2.93,4.13l12.69,5.65-33.89,20.19-25.55-5.37c-2.7-.57-5.35,1.17-5.92,3.87-.57,2.7,1.17,5.35,3.87,5.92l14.92,3.13-16.27,9.67-38.52-6.87c-2.72-.48-5.3,1.33-5.8,4.05-.48,2.72,1.33,5.32,4.05,5.8l27.15,4.83-28.84,17.17c-1.57.93-2.43,2.6-2.43,4.3,0,.87.22,1.75.7,2.55.93,1.57,2.6,2.45,4.3,2.45.87,0,1.75-.23,2.55-.72l32.62-19.42-6.22,35.61c-.47,2.72,1.35,5.3,4.07,5.78.28.05.58.08.87.08,2.38,0,4.5-1.72,4.92-4.15l7.7-44.07,16.85-10.02-2.17,15.75c-.37,2.75,1.55,5.27,4.28,5.63.23.03.47.05.68.05,2.47,0,4.6-1.82,4.95-4.32l3.23-23.67,33.74-20.09v16.45c0,1.65.82,3.2,2.2,4.13,1.37.93,3.12,1.12,4.65.5l16.82-6.7v17.95l-17.84,15.6c-2.08,1.82-2.3,4.98-.47,7.07,1.82,2.07,4.97,2.28,7.05.47l11.25-9.85v25.25l-29.54,27.02c-2.03,1.85-2.17,5.02-.3,7.05,1.85,2.05,5.02,2.18,7.05.32l22.79-20.84v32.17c0,2.77,2.25,5,5,5s5-2.23,5-5v-31.01l22.49,24.42c.98,1.08,2.33,1.62,3.68,1.62,1.22,0,2.43-.43,3.38-1.32,2.03-1.87,2.17-5.03.3-7.07l-29.86-32.42v-25.34l10.15,10.49c.98,1.02,2.28,1.52,3.6,1.52s2.5-.47,3.47-1.4c1.98-1.92,2.03-5.08.12-7.07l-17.34-17.9v-15.67l13.05,7.17c.75.42,1.58.63,2.42.63.9,0,1.78-.25,2.58-.73,1.53-.92,2.45-2.6,2.42-4.38l-.28-13.67,23.39,14.77,6.68,26.47c.58,2.27,2.62,3.77,4.85,3.77.4,0,.82-.05,1.23-.15,2.67-.67,4.3-3.4,3.62-6.07l-4.12-16.27,22.64,14.3,10.1,39.81c.58,2.25,2.62,3.77,4.85,3.77.4,0,.82-.05,1.23-.15,2.67-.68,4.28-3.4,3.62-6.08l-7.5-29.56,31.36,19.8c.83.52,1.75.77,2.67.77,1.65,0,3.28-.82,4.23-2.33.52-.83.77-1.75.77-2.67,0-1.65-.82-3.28-2.33-4.23l-31.44-19.85,32.57-8.38c2.67-.68,4.28-3.42,3.6-6.08Zm-137.21-49.38l.33.22-.33.2v-.42Zm0,6.22v-.3l.23.17-.23.13Zm31.12-4.28l-11.65,10.37-14.4-9.1-.07.05v-.08l.07.03,14.99-8.92,11.07,7.65Zm-14.25-28.82l-1.32,12.22-10.55,6.28v-14l11.87-4.5Zm-33.21,14.99l-1.8-15.7,13.14,3.72v20.72l.58.38-.58.35v-.73l-11.4-7.2c.1-.5.13-1.02.07-1.53Zm-18.6,15.9l10.85-7.38,10.04,6.33-9.95,5.93-10.94-4.88Zm16.27,28.36v-15.02l13.67-8.13v-.53l.42.28-.42.25v17.69l-13.67,5.47Zm33.96.62l-10.29-5.65v-12.32l10.04,6.33.25,11.64Z"/><path class="cls-2" d="m148.65,289.93c-3.03,0-5.5-2.47-5.5-5.5v-31.04l-21.95,20.07c-1.09,1-2.5,1.51-3.97,1.44-1.46-.07-2.81-.7-3.79-1.79-.99-1.08-1.51-2.49-1.44-3.96.07-1.46.7-2.81,1.78-3.79l29.38-26.87v-23.93l-10.42,9.13c-2.28,1.99-5.76,1.76-7.76-.51-.97-1.11-1.46-2.52-1.36-3.99.1-1.47.76-2.81,1.87-3.78l17.67-15.45v-16.99l-16.13,6.43c-1.7.68-3.61.48-5.12-.55-1.51-1.02-2.42-2.72-2.42-4.55v-15.57l-32.78,19.51-3.2,23.43c-.38,2.71-2.72,4.75-5.45,4.75-.24,0-.5-.02-.75-.05-3-.4-5.11-3.18-4.71-6.2l2.03-14.73-15.76,9.37-7.66,43.85c-.45,2.64-2.73,4.56-5.41,4.56-.29,0-.61-.03-.95-.09-2.98-.53-4.98-3.38-4.47-6.36l6.03-34.54-31.69,18.86c-.85.51-1.82.79-2.81.79-1.93,0-3.74-1.03-4.73-2.69-.5-.83-.77-1.81-.77-2.81,0-1.93,1.03-3.75,2.68-4.73l27.69-16.48-25.83-4.6c-2.99-.53-4.99-3.39-4.46-6.38.55-2.99,3.41-4.98,6.38-4.46l38.34,6.83,15.01-8.92-13.66-2.87c-1.44-.3-2.67-1.14-3.47-2.37-.8-1.23-1.08-2.7-.78-4.14.62-2.97,3.55-4.88,6.51-4.25l25.36,5.33,32.89-19.59-11.8-5.26c-1.83-.83-3.07-2.57-3.23-4.55-.18-1.97.73-3.9,2.38-5.02l14.04-9.56-22.26-14.08-25.78,4.55c-.38.06-.68.09-.97.09-2.66,0-4.94-1.91-5.41-4.55-.51-2.99,1.5-5.86,4.47-6.38l13.86-2.44-13.09-8.27-43.78,8.33c-.3.06-.62.09-1.04.09-2.62,0-4.89-1.87-5.39-4.45-.28-1.45.03-2.91.86-4.13.83-1.21,2.08-2.04,3.52-2.31l32.21-6.15-30.2-19.08c-1.61-1.02-2.57-2.75-2.57-4.64,0-1.05.3-2.07.86-2.95.78-1.24,2-2.1,3.44-2.42,1.44-.33,2.91-.07,4.15.72l30.23,19.11-5.32-28.45c-.27-1.44.03-2.9.86-4.12.83-1.22,2.09-2.03,3.54-2.3,1.43-.27,2.89.03,4.1.85,1.22.83,2.04,2.08,2.32,3.53l7.2,38.49,21.46,13.56-4.2-20.82c-.6-2.97,1.32-5.89,4.29-6.49,2.98-.6,5.88,1.33,6.49,4.31l5.75,28.51c.16.75.15,1.53-.01,2.27l17.03,10.77-1.81-15.78c-.22-1.83.49-3.63,1.91-4.82,1.38-1.18,3.27-1.6,5.06-1.1l16.95,4.8v-18.44l-22.14-20.04c-1.1-.99-1.74-2.34-1.81-3.82-.07-1.46.43-2.86,1.41-3.94,2.05-2.25,5.54-2.42,7.77-.38l14.77,13.35v-15.67l-32.57-31.79c-1.06-1.03-1.65-2.41-1.66-3.88-.02-1.47.54-2.85,1.57-3.9,1.01-1.05,2.38-1.64,3.84-1.66,1.46-.02,2.87.54,3.93,1.57l24.89,24.29V12.91c0-3.03,2.47-5.5,5.5-5.5s5.5,2.47,5.5,5.5v29.08l18.85-19.18c1.03-1.05,2.41-1.63,3.88-1.64h.04c1.45,0,2.82.56,3.86,1.59,1.05,1.02,1.63,2.39,1.65,3.86.02,1.47-.54,2.86-1.58,3.91l-26.69,27.16v16.58l14.67-14.03c1.07-1.02,2.48-1.57,3.94-1.53,1.47.03,2.83.64,3.84,1.7,1.01,1.06,1.55,2.46,1.52,3.93-.03,1.47-.64,2.84-1.7,3.85l-22.26,21.29v21.27l15.26-5.79c1.79-.68,3.83-.37,5.32.79,1.52,1.17,2.31,3.02,2.11,4.95l-1.28,11.84,18.81-11.19,6.82-32.02c.31-1.44,1.16-2.67,2.39-3.47,1.23-.8,2.7-1.07,4.14-.76,2.97.64,4.87,3.57,4.23,6.53l-4.68,22.05,14.18-8.44,8.71-42.61c.6-2.97,3.51-4.89,6.49-4.29,2.97.6,4.89,3.52,4.29,6.49l-6.69,32.78,33.22-19.77c2.6-1.55,5.98-.7,7.54,1.91.5.83.77,1.81.77,2.81,0,1.96-1,3.73-2.68,4.73l-31.63,18.83,27.58,5.74c1.43.29,2.67,1.13,3.47,2.35.81,1.23,1.09,2.7.78,4.14-.52,2.54-2.78,4.38-5.37,4.38-.37,0-.76-.04-1.11-.11l-39.34-8.18-15.25,9.09,19.83,3.95c1.44.29,2.68,1.13,3.5,2.35.82,1.22,1.11,2.69.81,4.13-.57,2.92-3.42,4.93-6.47,4.32l-31.8-6.33-18.99,11.31,11.9,8.23c1.37.95,2.26,2.51,2.37,4.18.09,1.68-.59,3.34-1.83,4.46l-13.77,12.26,26.22,16.56,30.21-6.31c1.44-.3,2.9-.02,4.13.79,1.23.81,2.07,2.05,2.36,3.49.62,2.96-1.29,5.88-4.25,6.51l-19.08,3.98,20.81,13.14,41.48-10.67c2.94-.75,5.95,1.03,6.71,3.96h0c.36,1.42.15,2.9-.6,4.17-.75,1.27-1.94,2.16-3.36,2.53l-31.45,8.1,30.46,19.24c1.61,1.01,2.57,2.75,2.57,4.66,0,1.03-.29,2.04-.84,2.93-1.01,1.61-2.75,2.57-4.66,2.57-1.03,0-2.04-.29-2.93-.84l-30.3-19.14,7.19,28.34c.73,2.94-1.05,5.94-3.98,6.69-3.05.73-5.95-1.11-6.69-3.98l-10.05-39.62-21.41-13.53,3.81,15.06c.36,1.42.15,2.9-.61,4.16-.75,1.27-1.95,2.16-3.37,2.51-3.07.73-5.95-1.11-6.69-3.98l-6.64-26.28-22.43-14.17.26,12.74c.04,1.97-.98,3.82-2.66,4.82-1.68,1.02-3.8,1.05-5.5.11l-12.31-6.76v14.62l17.2,17.76c2.11,2.18,2.05,5.67-.13,7.77-1.03.99-2.38,1.54-3.81,1.54-1.51,0-2.92-.59-3.96-1.67l-9.29-9.6v23.91l29.72,32.28c2.05,2.24,1.9,5.72-.33,7.77-1,.93-2.33,1.45-3.72,1.45-1.55,0-3.03-.65-4.05-1.78l-21.62-23.48v29.72c0,3.03-2.47,5.5-5.5,5.5Zm-4.5-38.81v33.31c0,2.48,2.02,4.5,4.5,4.5s4.5-2.02,4.5-4.5v-32.29l23.35,25.36c.85.94,2.03,1.46,3.32,1.46,1.14,0,2.22-.42,3.04-1.18,1.83-1.68,1.95-4.53.27-6.36l-29.99-32.57v-26.77l11.01,11.37c.85.88,2,1.36,3.24,1.36,1.17,0,2.28-.45,3.12-1.26,1.78-1.72,1.83-4.58.1-6.36l-17.48-18.05v-16.72l13.79,7.57c1.4.78,3.12.75,4.5-.09,1.37-.82,2.21-2.33,2.18-3.95l-.3-14.6,24.34,15.37,6.73,26.66c.6,2.35,2.96,3.86,5.48,3.25,1.16-.29,2.14-1.02,2.75-2.06.62-1.04.79-2.24.5-3.4l-4.43-17.49,23.87,15.08,10.15,40c.61,2.35,2.99,3.85,5.48,3.25,2.39-.61,3.85-3.07,3.25-5.48l-7.81-30.77,32.42,20.47c.73.45,1.56.69,2.4.69,1.56,0,2.99-.78,3.81-2.1.45-.73.69-1.56.69-2.4,0-1.56-.78-2.99-2.1-3.81l-32.42-20.47,33.69-8.67c1.16-.3,2.14-1.03,2.75-2.07.61-1.04.79-2.25.49-3.41-.63-2.4-3.09-3.85-5.49-3.24l-41.9,10.77-23.26-14.69,21.5-4.49c2.43-.51,3.99-2.9,3.48-5.33-.24-1.18-.93-2.19-1.93-2.85-1-.66-2.2-.89-3.38-.64l-30.6,6.39-27.69-17.48,14.77-13.14c1.01-.91,1.58-2.27,1.5-3.65-.09-1.36-.81-2.64-1.94-3.42l-13.18-9.11,20.65-12.3,32.18,6.41c2.52.51,4.83-1.15,5.3-3.54.24-1.18,0-2.37-.66-3.37-.67-1-1.68-1.68-2.86-1.92l-22.38-4.45,17.82-10.62,39.71,8.26c.29.06.61.09.92.09,2.12,0,3.97-1.51,4.39-3.58.25-1.18.02-2.38-.64-3.39-.66-1-1.67-1.68-2.84-1.92l-30.1-6.26,33.84-20.14c1.37-.82,2.19-2.26,2.19-3.87,0-.82-.22-1.61-.63-2.29-1.28-2.13-4.05-2.83-6.17-1.56l-35.16,20.93,7.14-35c.49-2.43-1.08-4.82-3.51-5.31-2.44-.5-4.82,1.08-5.31,3.51l-8.8,43.04-16.52,9.83,5.15-24.29c.52-2.42-1.03-4.82-3.47-5.34-1.17-.25-2.37-.03-3.38.62-1.01.66-1.7,1.67-1.96,2.84l-6.91,32.45-20.9,12.44,1.49-13.83c.17-1.57-.48-3.09-1.73-4.05-1.22-.95-2.89-1.2-4.35-.65l-16.61,6.31v-23.14l22.57-21.58c.87-.83,1.36-1.94,1.39-3.15.03-1.2-.41-2.34-1.24-3.22-.82-.87-1.94-1.36-3.14-1.39-1.21-.04-2.35.42-3.22,1.25l-16.37,15.65v-19.33l26.98-27.45c.85-.86,1.3-2,1.29-3.2-.01-1.2-.49-2.32-1.35-3.16-.85-.84-1.97-1.3-3.16-1.3h-.03c-1.2,0-2.33.49-3.18,1.34l-20.56,20.92V12.91c0-2.48-2.02-4.5-4.5-4.5s-4.5,2.02-4.5,4.5v34.76l-26.59-25.95c-.87-.85-2-1.32-3.22-1.29-1.2.02-2.31.5-3.14,1.36-.84.86-1.3,1.99-1.29,3.19.01,1.2.5,2.33,1.36,3.17l32.87,32.09v18.34l-16.44-14.86c-1.83-1.67-4.69-1.52-6.36.32-.8.88-1.21,2.02-1.15,3.22.06,1.21.59,2.32,1.48,3.12l22.47,20.34v20.2l-18.22-5.17c-1.46-.41-3.01-.07-4.14.9-1.16.98-1.74,2.45-1.56,3.94l2.05,17.86-19.43-12.28.11-.36c.21-.69.24-1.43.09-2.15l-5.75-28.51c-.5-2.44-2.88-4.02-5.31-3.53-2.43.49-4,2.88-3.51,5.31l4.67,23.12-23.81-15.04-7.27-38.92c-.23-1.18-.9-2.21-1.9-2.89-.99-.67-2.18-.92-3.35-.7-1.19.22-2.22.89-2.9,1.88-.68.99-.93,2.19-.71,3.37l5.75,30.7-32.18-20.33c-1.02-.65-2.23-.86-3.4-.59-1.17.26-2.17.97-2.81,1.98-.46.72-.71,1.56-.71,2.42,0,1.54.79,2.96,2.1,3.79l32.34,20.43-34.7,6.62c-1.18.23-2.21.9-2.89,1.89s-.93,2.19-.7,3.38c.41,2.11,2.27,3.64,4.41,3.64.35,0,.61-.02.85-.07l44.18-8.41,15.61,9.86-16.41,2.89c-2.44.43-4.08,2.77-3.66,5.22.39,2.15,2.25,3.72,4.42,3.72.24,0,.48-.02.8-.08l26.16-4.62,23.88,15.1-15.3,10.41c-1.35.92-2.1,2.49-1.95,4.11.13,1.62,1.15,3.04,2.64,3.73l13.56,6.04-34.89,20.78-25.75-5.41c-2.43-.51-4.82,1.05-5.33,3.48-.25,1.18-.02,2.38.64,3.38s1.67,1.7,2.84,1.94l16.18,3.4-17.53,10.42-38.71-6.9c-2.43-.43-4.77,1.2-5.22,3.65-.43,2.44,1.2,4.78,3.65,5.22l28.48,5.07-29.99,17.86c-1.35.8-2.19,2.29-2.19,3.87,0,.82.22,1.61.63,2.29.81,1.36,2.3,2.21,3.87,2.21.8,0,1.59-.22,2.29-.64l33.56-19.98-6.4,36.68c-.42,2.44,1.22,4.77,3.66,5.21.28.05.55.08.78.08,2.19,0,4.05-1.57,4.42-3.74l7.74-44.3,17.94-10.67-2.31,16.78c-.33,2.47,1.4,4.74,3.85,5.07.21.03.42.05.62.05,2.23,0,4.15-1.67,4.46-3.89l3.27-23.91,34.7-20.66v17.33c0,1.49.74,2.88,1.98,3.72,1.23.84,2.79,1.01,4.18.45l17.51-6.97v18.92l-18.01,15.75c-.91.79-1.45,1.89-1.53,3.09s.32,2.36,1.11,3.27c1.63,1.86,4.48,2.05,6.35.42l12.08-10.58v26.58l-29.7,27.17c-.88.8-1.4,1.9-1.45,3.1-.05,1.2.37,2.36,1.18,3.25.8.89,1.9,1.41,3.1,1.46,1.21.06,2.36-.36,3.25-1.18l23.63-21.6Zm20.31-72.76l-11.3-6.21v-13.52l11.03,6.96.27,12.77Zm-10.3-6.8l9.27,5.09-.23-10.5-9.04-5.71v11.12Zm-24.67,6.07v-16.04l13.67-8.13v-1.19l1.85,1.25-.85.51v17.74l-14.67,5.87Zm1-15.47v14l12.67-5.07v-16.47l-12.67,7.54Zm37.69-4.69l-14.43-9.12-.53.4-.07-.96v-.81l.52.2,15.05-8.95,11.86,8.2-12.41,11.04Zm-13.5-9.71l13.4,8.47,10.9-9.7-10.28-7.11-14.01,8.34Zm-29.99,6.23l-11.99-5.36,11.86-8.07,11,6.94-10.87,6.48Zm-9.95-5.54l9.88,4.41,9.03-5.38-9.07-5.72-9.84,6.7Zm33.42,3.17v-2.13l1.66,1.19-1.66.95Zm0-5.78v-2.22l1.78,1.16-1.78,1.06Zm-5-2.85v-1.34l-11.46-7.24.07-.34c.1-.48.12-.94.06-1.37h0s-1.89-16.45-1.89-16.45l14.22,4.02v20.83l1.02.67-2.02,1.21Zm-10.35-9.06l10.35,6.54v-19.44l-12.05-3.41,1.71,14.96c.06.43.05.89-.01,1.35Zm20.35,3.11v-15.23l12.95-4.91-1.43,13.28-11.52,6.86Zm1-14.54v12.78l9.58-5.71,1.2-11.16-10.78,4.09Z"/><polygon class="cls-1" points="143.65 153.21 144.07 153.49 143.65 153.74 143.65 153.21"/><polygon class="cls-2" points="143.15 154.62 143.15 152.26 145 153.52 143.15 154.62"/><polygon class="cls-1" points="143.65 141.37 144.23 141.75 143.65 142.1 143.65 141.37"/><polygon class="cls-2" points="143.15 142.99 143.15 140.44 145.17 141.77 143.15 142.99"/><polygon class="cls-1" points="148.65 150.46 148.88 150.62 148.65 150.76 148.65 150.46"/><polygon class="cls-2" points="148.15 151.62 148.15 149.48 149.81 150.67 148.15 151.62"/><polygon class="cls-1" points="148.98 144.75 148.65 144.95 148.65 144.54 148.98 144.75"/><polygon class="cls-2" points="148.15 145.84 148.15 143.62 149.93 144.77 148.15 145.84"/><polygon class="cls-1" points="143.65 141.37 144.23 141.75 143.65 142.1 143.65 141.37"/><polygon class="cls-2" points="143.15 142.99 143.15 140.44 145.17 141.77 143.15 142.99"/><polygon class="cls-1" points="148.65 150.46 148.88 150.62 148.65 150.76 148.65 150.46"/><polygon class="cls-2" points="148.15 151.62 148.15 149.48 149.81 150.67 148.15 151.62"/><polygon class="cls-1" points="148.65 144.54 148.98 144.75 148.65 144.95 148.65 144.54"/><polygon class="cls-2" points="148.15 145.84 148.15 143.62 149.93 144.77 148.15 145.84"/><polygon class="cls-1" points="153.72 147.74 153.65 147.79 153.65 147.71 153.72 147.74"/><polygon class="cls-2" points="153.15 148.79 153.15 146.98 153.88 147.26 154.6 147.62 153.95 148.19 153.15 148.79"/><polygon class="cls-1" points="143.65 153.21 144.07 153.49 143.65 153.74 143.65 153.21"/><polygon class="cls-2" points="143.15 154.62 143.15 152.26 145 153.52 143.15 154.62"/><polygon class="cls-1" points="148.65 150.46 148.88 150.62 148.65 150.76 148.65 150.46"/><polygon class="cls-2" points="148.15 151.62 148.15 149.48 149.81 150.67 148.15 151.62"/><polygon class="cls-1" points="148.65 144.54 148.98 144.75 148.65 144.95 148.65 144.54"/><polygon class="cls-2" points="148.15 145.84 148.15 143.62 149.93 144.77 148.15 145.84"/><polygon class="cls-1" points="153.72 147.74 153.65 147.79 153.65 147.71 153.72 147.74"/><polygon class="cls-2" points="153.15 148.79 153.15 146.98 153.88 147.26 154.6 147.62 153.95 148.19 153.15 148.79"/></svg>