<?xml version="1.0" encoding="UTF-8"?><svg id="Layer_84" xmlns="http://www.w3.org/2000/svg" width="462.66" height="348.62" viewBox="0 0 462.66 348.62"><defs><style>.cls-1{fill:#fff;}.cls-2{fill:#221f20;}.cls-3{fill:none;stroke:#221f20;stroke-miterlimit:10;}</style></defs><line class="cls-3" x1="230.75" y1="258.28" x2="230.74" y2="290.51"/><line class="cls-3" x1="230.83" y1="58.1" x2="230.82" y2="92.16"/><line class="cls-3" x1="160.47" y1="205.34" x2="128.83" y2="222.62"/><line class="cls-3" x1="332.82" y1="111.25" x2="300.04" y2="129.14"/><rect class="cls-2" x="314.21" y="204.63" width="1" height="31.87" transform="translate(-39.99 368.48) rotate(-57.66)"/><rect class="cls-2" x="145.37" y="97.04" width="1" height="33.29" transform="translate(-28.21 176.12) rotate(-57.66)"/><path class="cls-1" d="m338.23,204.49l-22.85,4.67,18.14,11.48c4.67,2.95,6.06,9.13,3.1,13.79-1.9,3.01-5.14,4.66-8.46,4.66-1.83,0-3.68-.5-5.34-1.55l-20.11-12.73,4.99,23.66c1.14,5.41-2.31,10.71-7.72,11.85-.69.15-1.39.22-2.07.22-4.63,0-8.78-3.23-9.78-7.94l-9.01-42.72-38.34-24.27-.02,54.45,31.14,30.71c3.93,3.88,3.98,10.21.1,14.14-1.96,1.99-4.54,2.98-7.12,2.98s-5.08-.96-7.02-2.88l-17.11-16.87v22.37c-.01,5.53-4.48,10-10.01,10s-10-4.48-10-10v-23.22s-16.41,16.87-16.41,16.87c-3.86,3.96-10.19,4.05-14.15.19-3.95-3.85-4.04-10.18-.19-14.14l30.77-31.6.02-54.8-39.04,21.32-12.35,43.27c-1.26,4.39-5.26,7.25-9.61,7.25-.91,0-1.84-.12-2.75-.38-5.31-1.52-8.39-7.05-6.87-12.36l6.94-24.33-23.47,12.81c-1.53.83-3.17,1.23-4.79,1.23-3.54,0-6.97-1.89-8.78-5.21-2.65-4.85-.86-10.92,3.98-13.57l22.61-12.34-21.43-5.97c-5.32-1.48-8.44-6.99-6.96-12.31,1.49-5.32,7-8.43,12.32-6.95l41.25,11.48,38.84-21.21-40.28-25.49-42.23,7.44c-.59.11-1.17.16-1.75.16-4.76,0-8.98-3.42-9.83-8.27-.96-5.44,2.67-10.63,8.11-11.58l20.62-3.63-18.86-11.94c-4.67-2.95-6.05-9.13-3.1-13.8,2.95-4.66,9.13-6.05,13.8-3.1l23.97,15.17-4.73-25.84c-.99-5.44,2.61-10.65,8.04-11.64,5.43-1,10.64,2.6,11.64,8.03l8.05,44.02,36.67,23.21.02-38.48-31.78-32.07c-3.89-3.92-3.86-10.25.06-14.14,3.93-3.89,10.26-3.86,14.15.06l17.58,17.74v-24.29c.01-5.52,4.49-10,10.01-10,2.77,0,5.27,1.12,7.07,2.93,1.81,1.81,2.93,4.31,2.93,7.07v24.01s15.92-16,15.92-16c3.9-3.91,10.23-3.93,14.14-.03,3.92,3.9,3.93,10.23.04,14.14l-30.12,30.25-.02,39.63,35.02-19.12c.16-.63.38-1.25.66-1.84l20.95-44.31c2.36-5,8.32-7.13,13.31-4.77s7.13,8.32,4.77,13.31l-10.16,21.49,22.69-12.39c4.85-2.65,10.92-.86,13.57,3.99,2.65,4.84.86,10.92-3.98,13.57l-26.3,14.36,21.07,9.79c5.01,2.33,7.18,8.27,4.85,13.28-1.69,3.64-5.3,5.79-9.07,5.79-1.41,0-2.85-.3-4.21-.94l-34.46-16.01-39.42,21.52,40.92,25.9,43.23-8.82c5.41-1.11,10.7,2.38,11.8,7.8,1.1,5.41-2.39,10.69-7.8,11.79Z"/><path class="cls-2" d="m230.74,301.01c-5.79,0-10.5-4.71-10.5-10.5v-21.99s-15.55,15.99-15.55,15.99c-4.05,4.15-10.71,4.24-14.86.2-4.14-4.04-4.23-10.7-.2-14.85l30.63-31.45.02-53.75-38.12,20.82-12.29,43.07c-1.29,4.48-5.44,7.61-10.09,7.61-.99,0-1.96-.13-2.89-.4-2.7-.77-4.93-2.55-6.3-5-1.36-2.45-1.69-5.29-.92-7.98l6.61-23.18-22.42,12.24c-1.56.84-3.3,1.29-5.03,1.29-3.85,0-7.38-2.1-9.22-5.47-2.77-5.08-.9-11.47,4.18-14.25l21.53-11.75-20.24-5.64c-5.58-1.55-8.86-7.35-7.31-12.93,1.56-5.57,7.37-8.85,12.94-7.3l41.05,11.43,37.92-20.71-39.4-24.93-42.04,7.41c-.6.11-1.21.17-1.84.17-5.1,0-9.44-3.65-10.32-8.68-.49-2.77.13-5.56,1.74-7.85,1.61-2.29,4.01-3.82,6.77-4.31l19.35-3.41-17.77-11.25c-4.89-3.09-6.35-9.59-3.26-14.49,3.09-4.89,9.59-6.35,14.49-3.26l23.01,14.56-4.52-24.72c-1.04-5.7,2.75-11.18,8.44-12.22,5.69-1.05,11.17,2.73,12.22,8.43l8.01,43.81,35.72,22.61.02-37.37-31.63-31.92c-1.98-1.99-3.06-4.63-3.04-7.44.01-2.8,1.12-5.44,3.11-7.41,4.11-4.07,10.78-4.05,14.86.06l16.73,16.88v-23.08c0-5.79,4.72-10.5,10.51-10.5,2.81,0,5.45,1.09,7.42,3.08,1.98,1.98,3.08,4.62,3.08,7.42v22.8s15.07-15.14,15.07-15.14c4.09-4.1,10.75-4.12,14.85-.03,1.99,1.98,3.09,4.61,3.1,7.42,0,2.8-1.08,5.44-3.05,7.43l-29.97,30.1-.02,38.58,34.09-18.61c.16-.6.38-1.17.64-1.72l20.95-44.31c1.2-2.54,3.31-4.46,5.95-5.4,2.64-.94,5.49-.8,8.02.39,2.53,1.2,4.45,3.31,5.4,5.95.95,2.64.81,5.49-.39,8.02l-9.5,20.1,21.34-11.65c2.46-1.35,5.3-1.65,7.99-.86,2.69.79,4.91,2.58,6.26,5.05,2.78,5.07.9,11.47-4.18,14.25l-25.43,13.89,20.17,9.37c2.54,1.18,4.48,3.28,5.44,5.92s.84,5.48-.34,8.03c-1.71,3.69-5.45,6.08-9.52,6.08-1.54,0-3.03-.33-4.42-.99l-34.23-15.9-38.45,20.99,40.03,25.34,43.03-8.78c2.75-.57,5.55-.02,7.89,1.53,2.34,1.55,3.94,3.91,4.5,6.66,1.15,5.67-2.52,11.23-8.19,12.38l-21.63,4.42,17.09,10.82c2.37,1.5,4.02,3.83,4.63,6.57.61,2.74.12,5.54-1.38,7.91-1.93,3.06-5.25,4.89-8.88,4.89-1.99,0-3.92-.56-5.61-1.63l-19.11-12.1,4.75,22.5c.58,2.75.06,5.55-1.47,7.9-1.53,2.35-3.89,3.96-6.63,4.54-.7.15-1.44.23-2.17.23-4.92,0-9.24-3.51-10.27-8.34l-8.97-42.51-37.39-23.67-.02,53.33,30.99,30.56c4.12,4.07,4.17,10.73.1,14.85-1.99,2.02-4.64,3.13-7.48,3.13s-5.4-1.07-7.37-3.02l-16.26-16.03v21.17c0,5.79-4.72,10.5-10.51,10.5Zm-9.49-34.95v24.45c-.01,5.24,4.25,9.5,9.49,9.5s9.5-4.26,9.5-9.5v-23.56s17.97,17.71,17.97,17.71c1.78,1.76,4.15,2.74,6.67,2.74s4.97-1.01,6.76-2.83c3.68-3.73,3.63-9.75-.09-13.43l-31.29-30.86.02-55.57,39.29,24.87,9.05,42.93c.93,4.37,4.84,7.54,9.29,7.54.67,0,1.33-.07,1.96-.21,2.49-.52,4.62-1.98,6-4.11,1.38-2.12,1.86-4.66,1.33-7.15l-5.23-24.82,21.11,13.36c1.52.96,3.28,1.47,5.07,1.47,3.28,0,6.29-1.65,8.04-4.43,1.36-2.14,1.8-4.68,1.25-7.16-.56-2.48-2.04-4.59-4.19-5.94l-19.19-12.14,24.07-4.92c5.13-1.04,8.45-6.07,7.41-11.2-.51-2.49-1.95-4.63-4.07-6.03-2.12-1.4-4.66-1.89-7.14-1.38l-43.43,8.86-41.81-26.46,40.39-22.05,34.69,16.12c1.26.59,2.61.89,4,.89,3.68,0,7.07-2.16,8.62-5.5,1.07-2.3,1.18-4.88.31-7.26-.87-2.38-2.62-4.28-4.92-5.35l-21.97-10.21,27.17-14.83c4.6-2.52,6.29-8.3,3.78-12.89-1.22-2.23-3.23-3.85-5.66-4.57-2.44-.72-5-.44-7.23.78l-24.04,13.13,10.82-22.88c1.08-2.29,1.21-4.87.35-7.26-.86-2.39-2.59-4.3-4.88-5.39-2.29-1.08-4.87-1.21-7.26-.36-2.39.86-4.3,2.59-5.39,4.89l-20.95,44.31c-.26.55-.47,1.14-.63,1.75l-.05.21-35.95,19.63.02-40.68.15-.15,30.12-30.25c1.79-1.8,2.77-4.18,2.76-6.72,0-2.54-1-4.92-2.8-6.71-3.7-3.69-9.73-3.68-13.43.03l-16.78,16.86v-25.22c.01-2.54-.98-4.92-2.77-6.72-1.79-1.8-4.17-2.78-6.72-2.78-5.24,0-9.5,4.26-9.5,9.5v25.5s-18.44-18.6-18.44-18.6c-3.69-3.72-9.72-3.74-13.44-.06-1.8,1.79-2.8,4.17-2.81,6.71-.01,2.54.97,4.93,2.75,6.73l31.92,32.22-.02,39.59-37.62-23.81-.04-.22-8.05-44.02c-.95-5.15-5.9-8.57-11.06-7.63-5.15.94-8.58,5.9-7.64,11.06l4.94,26.96-24.93-15.78c-4.43-2.8-10.31-1.48-13.11,2.95-2.8,4.43-1.48,10.31,2.94,13.11l19.95,12.63-21.89,3.85c-2.5.44-4.67,1.82-6.13,3.89-1.46,2.08-2.02,4.6-1.58,7.11.8,4.55,4.73,7.86,9.34,7.86.57,0,1.11-.05,1.66-.15l42.43-7.47,41.16,26.05-39.76,21.71-41.45-11.53c-5.04-1.4-10.29,1.56-11.7,6.6-1.4,5.04,1.56,10.29,6.61,11.69l22.62,6.3-23.69,12.93c-4.59,2.52-6.29,8.3-3.78,12.89,1.66,3.05,4.86,4.95,8.34,4.95,1.57,0,3.14-.4,4.55-1.17l24.52-13.38-7.27,25.48c-.7,2.44-.4,5,.83,7.22,1.23,2.22,3.26,3.82,5.7,4.52.84.24,1.72.36,2.61.36,4.21,0,7.96-2.83,9.13-6.89l12.41-43.47.18-.1,39.78-21.72-.02,55.85-30.91,31.75c-3.65,3.75-3.57,9.78.18,13.43,1.82,1.77,4.23,2.71,6.76,2.7,2.54-.03,4.91-1.06,6.69-2.88l17.28-17.75Z"/></svg>