<?xml version="1.0" encoding="UTF-8"?><svg id="Layer_61" xmlns="http://www.w3.org/2000/svg" width="428" height="477.61" viewBox="0 0 428 477.61"><defs><style>.cls-1{fill:#a6a68f;}.cls-2{fill:#d4af37;}</style></defs><path class="cls-1" d="m213.97,469.71c-14.46,0-28.56-6.25-35.91-13.23-3.5-3.33-5.24-6.62-5.04-9.5.24-3.38,3.08-6.05,7.07-8.13-1.57-4.5-1.66-9.97-.19-14.59,1.55-4.86,4.6-8.03,7.78-10.16-1.21-1.94-1.79-3.83-1.74-5.64.17-5.67,5.94-9.62,10.26-12.08-2.6-3.92-2.95-7.06-2.68-9.19.37-2.87,1.99-5.43,4.74-7.51-.58-1.44-.92-3.03-.77-4.7.24-2.8,1.77-5.15,3.93-6.99-1-1.3-3.52-4.62-2.92-7.98.39-2.15,1.88-3.71,3.9-4.83-.5-.94-.79-1.95-.76-2.99.03-1.37.56-2.61,1.42-3.71-.1-.12-.2-.28-.28-.47-.63-1.6.35-4.42,11.65-14.1.41-.35,1.03-.3,1.38.11.35.41.3,1.03-.11,1.38-8.83,7.56-10.67,10.46-11.03,11.46,2.28-1.85,5.44-3.04,8.02-3.34,3.93-.46,8.11.96,9.88,2.6.67.62,1,1.27.97,1.93-.03.8-.12,2.91-10.15,3.69-.21.02-4.71.33-8.78-2.09-.62.79-1.01,1.67-1.03,2.59-.02.72.2,1.44.58,2.13,3.44-1.34,7.73-1.74,10.78-1.68,1.1.02,10.75.3,10.97,3.77.06.88-.52,1.83-1.65,2.73-2.31,1.84-7.75,3.97-13.25,2.34-2.46-.73-5.53-2.43-7.48-4.69-1.66.87-2.84,2.03-3.11,3.53-.45,2.52,1.71,5.36,2.55,6.45,3.38-2.26,7.72-3.52,11.25-3.64,5.23-.17,10.44,1.87,12.5,3.95.74.75,1.1,1.52,1.07,2.28-.03.74-.43,1.42-1.17,2.03-2.56,2.09-9.23,3.15-14.59,2.31-4.69-.73-7.65-2.75-9.3-4.32-1.82,1.54-3.1,3.46-3.29,5.71-.1,1.18.1,2.33.48,3.41.34-.21.7-.41,1.07-.6,3.53-1.86,8.04-3,12.06-3.06,5.94-.1,13.13,2.33,16.11,5.4.97,1,1.44,2.01,1.4,3.01-.09,2.01-2.31,4.13-5.95,5.68-5.75,2.45-14.78,3.27-21.3-2.48-.84-.74-2.74-2.56-4.15-5.01-1.99,1.59-3.39,3.58-3.69,5.94-.23,1.81.11,4.51,2.45,7.99.12-.06.23-.13.34-.19,8.85-4.8,16.71-4.23,19.68-3.76,5.67.9,16.52,5.02,16.15,9.39-.16,1.94-2.5,3.85-6.41,5.23-6.35,2.24-19.46,3.53-28.32-5.81-.76-.8-1.42-1.57-2.01-2.32-3.97,2.25-9.32,5.81-9.46,10.54-.04,1.43.44,2.95,1.45,4.56,2.53-1.42,4.99-2.26,6.71-2.84,15.84-5.38,33.06,1.84,40.2,7.66,2.08,1.69,4.5,4.21,4.2,6.57-.14,1.14-1.01,2.74-4.34,3.94-9.85,3.55-32.7,1.43-44.67-9.85-1.01-.96-1.89-1.9-2.63-2.84-2.91,1.95-5.67,4.81-7.05,9.14-1.33,4.16-1.27,9.07.1,13.14,8.08-3.6,19.55-5.17,24.84-5.48,13.4-.8,29.49,2.6,34.45,7.28,1.04.98,1.57,2,1.57,3.04,0,1.01-.49,1.99-1.47,2.91-4.7,4.42-20.68,7.56-34.2,6.71-8.49-.53-21.25-1.33-26.2-11.73-3.44,1.82-5.71,3.98-5.88,6.4-.16,2.25,1.42,5.07,4.44,7.94,8,7.6,24.34,14.29,40.12,12.36,7.66-.94,15.16-3.94,22.29-8.91.44-.31,1.05-.2,1.36.24.31.44.2,1.05-.24,1.36-7.39,5.16-15.19,8.28-23.17,9.25-1.93.24-3.86.35-5.79.35Zm-31.35-29.86c4.45,9.37,16.05,10.1,24.56,10.64,13.8.86,28.94-2.61,32.73-6.18.39-.37.86-.93.86-1.48,0-.59-.52-1.2-.95-1.61-4.11-3.87-19.11-7.57-32.99-6.75-7.83.46-17.57,2.39-24.21,5.39Zm7.89-25.17c.64.79,1.4,1.61,2.28,2.43,11.81,11.13,34.34,12.44,42.67,9.44,1.84-.66,2.95-1.51,3.06-2.34.11-.86-.75-2.58-3.5-4.81-7.32-5.96-24.04-12.17-38.33-7.32-1.58.54-3.85,1.31-6.18,2.6Zm8.59-17.67c.5.62,1.06,1.27,1.69,1.93,8.18,8.61,20.35,7.39,26.25,5.31,3.26-1.15,5.03-2.65,5.11-3.54.17-2-7.45-6.18-14.51-7.3-2.77-.44-10.12-.97-18.44,3.54-.03.02-.07.04-.1.06Zm1.67-16.64c1.26,2.25,3.07,3.98,3.84,4.67,5.47,4.82,13.61,4.55,19.24,2.15,3.07-1.31,4.72-2.99,4.76-3.97.02-.43-.28-.98-.85-1.57-2.32-2.39-8.79-4.87-14.68-4.8-3.85.06-8.68,1.27-12.32,3.52Zm3.59-12.12c1.48,1.32,4.03,2.94,8,3.56,5.15.81,11.14-.34,13.05-1.89.41-.34.45-.55.45-.6,0-.14-.12-.43-.5-.82-1.73-1.75-6.6-3.53-11.04-3.38-3.06.1-6.93,1.2-9.95,3.13Zm1.11-12.24c1.65,1.68,4.11,3.03,6.13,3.63,4.48,1.33,9.13-.32,11.16-1.76,1-.71,1.23-1.22,1.23-1.32-.3-.78-4.54-1.85-9.05-1.93-2.77-.06-6.48.34-9.47,1.38Zm.62-7.78c3.41,1.81,7.13,1.55,7.17,1.54,5.59-.44,8.09-1.39,8.36-1.88-.19-.71-4.16-2.97-8.68-2.44-2.2.26-4.92,1.28-6.85,2.78Z"/><polygon class="cls-2" points="214.66 8.58 278.45 137.84 421.1 158.57 317.88 259.18 342.25 401.25 214.66 334.18 87.07 401.25 111.44 259.18 8.22 158.57 150.86 137.84 214.66 8.58"/></svg>