<?xml version="1.0" encoding="UTF-8"?><svg id="Layer_80" xmlns="http://www.w3.org/2000/svg" width="452" height="352" viewBox="0 0 452 352"><defs><style>.cls-1{fill:#221f20;}.cls-2{fill:#42502f;}.cls-3{fill:#428c2f;}.cls-4{fill:#42822f;}.cls-5{fill:#42782f;}.cls-6{fill:#426e2f;}.cls-7{fill:#42642f;}.cls-8{fill:#425a2f;}.cls-9{fill:#4b3024;}</style></defs><path class="cls-9" d="m128.53,238.14c-1.1,2.71.7,5.83,1.31,6.88,7.14,12.32,31.2,11.39,40.27,11.13,44.53-1.28,89.03,4.3,133.58,4.35,72.46.07,98.53,5.81,113.63-13.59,9.39-12.06,8.67-26.3,8.46-30.44-1.89-37.14-47.52-69.15-70.38-59.98-8.16,3.28-14.92,12.58-15.91,21.73-1.26,11.61,4.5,25.99,11.93,26.93.83.1,2.43.31,3.64-.66,5.12-4.12-8-20.7-2.11-31.63,3.04-5.63,9.81-7.39,11.35-7.74,18.35-4.25,45.26,16.89,46.86,40.34.91,13.33-6.62,23.55-7.15,24.26-9.1,12.01-27.29,20.02-116.55,13.08-39.28-3.05-78.92-2.32-117.96-7.67-9.72-1.33-37.57-5.37-40.99,3.03Z"/><path class="cls-1" d="m367.12,261.84c-7,0-14.85-.16-23.71-.33-11.51-.23-24.55-.49-39.72-.51-19.91-.02-40.13-1.16-59.69-2.27-24.22-1.37-49.26-2.79-73.88-2.08h-.49c-9.89.3-33.07.98-40.23-11.38-.63-1.08-2.54-4.38-1.34-7.32h0c3.09-7.59,23.43-5.82,40.81-3.43l.7.1c24.03,3.29,48.71,4.29,72.57,5.26,14.88.6,30.27,1.23,45.36,2.4,83.99,6.53,106.17.22,116.11-12.88.33-.43,7.96-10.66,7.05-23.92-.79-11.53-8.21-23.82-19.36-32.08-9.04-6.69-19.09-9.61-26.89-7.8-1.87.43-8.2,2.25-11.02,7.49-3.12,5.79-.65,13.48,1.34,19.65,1.73,5.39,3.23,10.04.65,12.13-1.37,1.1-3.16.88-4.01.77-8.01-1.01-13.59-16.21-12.37-27.48,1.01-9.31,7.98-18.83,16.22-22.14,9.42-3.78,23.2-.83,36.84,7.9,15.05,9.63,33.04,29.16,34.23,52.52.62,12.32-2.25,22.67-8.56,30.77-9.59,12.32-23.83,14.63-50.61,14.63Zm-183.34-6.38c20.21,0,40.52,1.15,60.29,2.27,19.54,1.11,39.75,2.25,59.63,2.27,15.17.02,28.22.28,39.73.51,43.65.88,61.72,1.24,73.51-13.91,6.15-7.91,8.96-18.04,8.35-30.11-1.17-22.98-18.92-42.23-33.77-51.73-13.37-8.55-26.8-11.47-35.93-7.81-7.92,3.18-14.63,12.35-15.6,21.32-1.29,11.95,4.62,25.51,11.5,26.38.78.1,2.22.28,3.26-.55,2.05-1.65.65-6-.97-11.04-2.05-6.36-4.59-14.27-1.27-20.43,3.02-5.61,9.7-7.54,11.68-7.99,8.08-1.87,18.44,1.11,27.71,7.97,11.38,8.43,18.96,21,19.77,32.81.93,13.63-6.92,24.15-7.25,24.59-8.44,11.13-23.74,20.53-116.98,13.27-15.07-1.17-30.45-1.8-45.33-2.4-23.89-.97-48.59-1.97-72.66-5.27l-.71-.1c-10-1.37-36.56-5.02-39.75,2.82h0c-1.01,2.48.71,5.46,1.28,6.44,6.86,11.85,30.45,11.16,39.33,10.9h.49c4.55-.15,9.11-.2,13.68-.2Z"/><polyline class="cls-9" points="347.58 261.35 350.15 272.4 367.38 276.21 361.81 258.96 347.58 261.35"/><path class="cls-1" d="m368.12,276.89l-18.39-4.07-2.76-11.88,15.18-2.55,5.96,18.5Zm-17.55-4.91l16.07,3.56-5.16-16.01-13.28,2.23,2.38,10.23Z"/><polyline class="cls-9" points="282.41 259.15 284.98 270.21 302.21 274.02 296.64 256.77 282.41 259.15"/><path class="cls-1" d="m302.95,274.7l-18.39-4.07-2.76-11.88,15.18-2.55,5.96,18.5Zm-17.55-4.91l16.07,3.55-5.16-16.01-13.28,2.23,2.38,10.23Z"/><polyline class="cls-9" points="245.33 257.21 247.9 268.26 265.13 272.07 259.57 254.82 245.33 257.21"/><path class="cls-1" d="m265.87,272.75l-18.39-4.07-2.76-11.88,15.18-2.55,5.96,18.5Zm-17.55-4.91l16.07,3.56-5.16-16.01-13.28,2.23,2.38,10.23Z"/><polyline class="cls-9" points="183.24 255.11 185.81 266.16 203.03 269.97 197.47 252.72 183.24 255.11"/><path class="cls-1" d="m203.78,270.65l-18.39-4.07-2.76-11.88,15.18-2.55,5.96,18.5Zm-17.55-4.91l16.07,3.55-5.16-16.01-13.28,2.23,2.38,10.23Z"/><polyline class="cls-9" points="154.2 252.72 156.77 263.77 174 267.59 168.43 250.33 154.2 252.72"/><path class="cls-1" d="m174.74,268.26l-18.39-4.07-2.76-11.88,15.18-2.55,5.96,18.5Zm-17.55-4.91l16.07,3.55-5.16-16.01-13.28,2.23,2.38,10.23Z"/><path class="cls-9" d="m224.59,257.17s-10.1,32.29-9.73,50.26c.37,17.98,6.6,3.3,6.6,3.3l15.78-53.57h-12.65Z"/><path class="cls-1" d="m217.14,316.87c-.09,0-.17,0-.26-.02-1-.19-2.36-1.38-2.52-9.41-.36-17.85,9.65-50.1,9.75-50.42l.11-.35h13.68l-15.97,54.21c-.45,1.07-2.66,6-4.8,6Zm7.82-59.21c-1.09,3.55-9.94,33.06-9.6,49.75.15,7.56,1.35,8.38,1.71,8.45,1.07.21,2.97-3.06,3.93-5.33l15.57-52.87h-11.61Z"/><path class="cls-9" d="m337.57,254.82s-10.1,32.29-9.73,50.26c.37,17.98,6.6,3.3,6.6,3.3l15.78-53.57h-12.65Z"/><path class="cls-1" d="m330.12,314.53c-.09,0-.17,0-.26-.03-1-.19-2.36-1.38-2.52-9.41-.36-17.85,9.65-50.1,9.75-50.42l.11-.35h13.68l-15.96,54.21c-.45,1.08-2.66,6-4.8,6Zm7.82-59.21c-1.09,3.55-9.94,33.06-9.6,49.75.15,7.56,1.35,8.38,1.71,8.45,1.04.2,2.96-3.06,3.93-5.33l15.57-52.87h-11.61Z"/><polyline class="cls-9" points="317.93 259.15 320.49 270.21 337.72 274.02 332.16 256.77 317.93 259.15"/><path class="cls-1" d="m338.47,274.7l-18.39-4.07-2.76-11.88,15.18-2.55,5.96,18.5Zm-17.55-4.91l16.07,3.55-5.16-16.01-13.28,2.23,2.38,10.23Z"/><polyline class="cls-9" points="209.6 256.23 212.16 267.28 229.39 271.1 223.83 253.84 209.6 256.23"/><path class="cls-1" d="m230.13,271.77l-18.39-4.07-2.76-11.88,15.18-2.55,5.96,18.5Zm-17.55-4.91l16.07,3.55-5.16-16.01-13.28,2.23,2.38,10.23Z"/><path class="cls-9" d="m193.82,330.28c-7.9-.95-16.49-1.4-17.36,1.21-.72,2.17,4.15,5.59,5.87,6.8,23.08,16.21,106.72,12.13,148.96,11.3,20.57-.4,28.04.03,41.43-2.95,31.27-6.97,64.89-25.91,63.42-39.73-.08-.77-.52-3.83-2.79-5.31-5.04-3.29-14.75,4.11-24.78,10.73,0,0-13.54,8.96-34,19.16-6.46,3.22-12.74,5.08-67.07,4.37-23.6-.31-41.38-.57-67.98-2.13-18.64-1.09-34.28-2.4-45.7-3.45Z"/><path class="cls-1" d="m272.06,351.15c-37.17,0-75.4-2.19-90.02-12.46-3.21-2.26-6.8-5.13-6.06-7.37.51-1.53,2.91-3.35,17.89-1.55,15.06,1.4,30.42,2.56,45.68,3.45,27.1,1.59,45.13,1.83,67.96,2.12,54.06.71,60.36-1.09,66.84-4.32,20.19-10.07,33.81-19.04,33.95-19.13,1.15-.76,2.29-1.53,3.43-2.29,8.82-5.93,17.16-11.54,21.9-8.45,2.4,1.56,2.91,4.74,3.01,5.68,1.53,14.33-33.05,33.42-63.81,40.27-11.26,2.51-18.34,2.61-32.46,2.82-2.73.04-5.73.08-9.07.15-4.46.09-9.37.21-14.63.34-13.44.34-28.93.73-44.6.73Zm-88.51-21.12c-5.1,0-6.39.91-6.62,1.61-.28.83.49,2.58,5.69,6.23,20.51,14.41,88.82,12.69,134.02,11.55,5.26-.13,10.18-.26,14.64-.34,3.34-.07,6.34-.11,9.07-.15,14.04-.2,21.09-.31,32.25-2.79,15.2-3.39,31.59-9.83,43.84-17.24,12.85-7.77,19.85-15.77,19.19-21.95-.09-.83-.53-3.62-2.57-4.95-4.19-2.73-12.25,2.7-20.8,8.44-1.14.76-2.28,1.53-3.43,2.29-.14.09-13.8,9.09-34.05,19.19-6.61,3.3-12.99,5.14-67.3,4.42-22.84-.3-40.88-.54-68-2.13-15.27-.9-30.65-2.06-45.72-3.45h-.01c-4.47-.54-7.77-.75-10.21-.75Z"/><path class="cls-9" d="m187.96,305.34c-7.9-.95-16.49-1.4-17.36,1.21-.72,2.17,4.15,5.59,5.87,6.8,23.08,16.21,106.72,12.13,148.96,11.3,20.57-.4,28.04.03,41.43-2.95,31.27-6.97,64.89-25.91,63.42-39.73-.08-.77-.52-3.83-2.79-5.31-5.04-3.29-14.75,4.11-24.78,10.73,0,0-13.54,8.96-34,19.16-6.46,3.22-12.74,5.08-67.07,4.37-23.6-.31-41.38-.57-67.98-2.13-18.64-1.09-34.28-2.4-45.7-3.45Z"/><path class="cls-1" d="m266.2,326.22c-37.17,0-75.4-2.19-90.02-12.46-3.21-2.26-6.8-5.14-6.06-7.37.51-1.53,2.92-3.35,17.89-1.55,15.09,1.4,30.46,2.56,45.68,3.45,27.1,1.59,45.13,1.83,67.96,2.12,54.06.71,60.36-1.09,66.84-4.32,20.19-10.07,33.81-19.04,33.95-19.13,1.15-.76,2.29-1.53,3.42-2.29,8.82-5.93,17.16-11.54,21.9-8.45,2.4,1.57,2.91,4.74,3.01,5.68,1.53,14.33-33.04,33.42-63.81,40.27-11.26,2.51-18.34,2.61-32.46,2.82-2.73.04-5.73.08-9.07.15-4.46.09-9.37.21-14.63.34-13.45.34-28.93.73-44.6.73Zm-88.51-21.12c-5.1,0-6.39.91-6.62,1.61-.28.83.49,2.58,5.68,6.23,20.51,14.41,88.82,12.69,134.02,11.55,5.26-.13,10.18-.26,14.64-.34,3.34-.07,6.34-.11,9.07-.15,14.04-.2,21.09-.31,32.26-2.79,15.2-3.39,31.59-9.83,43.84-17.24,12.85-7.77,19.85-15.77,19.19-21.95-.09-.83-.53-3.62-2.56-4.94-4.2-2.73-12.26,2.7-20.8,8.44-1.13.76-2.28,1.53-3.43,2.29-.14.09-13.8,9.09-34.05,19.19-6.62,3.3-13.01,5.13-67.3,4.42-22.84-.3-40.88-.54-68-2.13-15.23-.89-30.61-2.06-45.72-3.45h-.01c-4.47-.54-7.77-.75-10.21-.75Z"/><path class="cls-9" d="m235.05,280.12s-10.1,32.29-9.73,50.26c.37,17.98,6.6,3.3,6.6,3.3l15.78-53.57h-12.65Z"/><path class="cls-1" d="m227.6,339.83c-.09,0-.17,0-.26-.02-1-.19-2.36-1.38-2.52-9.41-.36-17.85,9.65-50.1,9.75-50.42l.11-.35h13.68l-15.96,54.21c-.45,1.07-2.66,6-4.8,6Zm7.82-59.21c-1.09,3.55-9.94,33.06-9.6,49.75.15,7.56,1.35,8.38,1.71,8.45,1.05.21,2.96-3.06,3.93-5.33l15.57-52.87h-11.61Z"/><path class="cls-9" d="m345.07,280.96s-3.67,33.63.16,51.2c3.83,17.57,7.12,1.96,7.12,1.96l5.13-55.6-12.41,2.44Z"/><path class="cls-1" d="m349.03,341c-1.02,0-2.58-.92-4.29-8.75-3.81-17.45-.21-51.02-.17-51.36l.04-.37,13.43-2.64-5.19,56.27c-.25,1.19-1.55,6.83-3.81,6.84h0Zm-3.5-59.63c-.38,3.7-3.37,34.36.19,50.67,1.61,7.38,2.94,7.96,3.31,7.96h0c1.07,0,2.32-3.58,2.83-5.99l5.06-54.88-11.39,2.24Z"/><path class="cls-9" d="m151.91,263.56c-1.1,2.71.7,5.83,1.31,6.88,7.14,12.32,31.2,11.39,40.27,11.13,44.53-1.28,89.03,4.3,133.58,4.35,72.46.07,98.53,5.81,113.63-13.59,9.39-12.06,8.67-26.3,8.46-30.44-1.89-37.14-47.52-69.15-70.38-59.98-8.16,3.28-14.92,12.58-15.91,21.73-1.26,11.61,4.5,25.99,11.93,26.93.83.1,2.43.31,3.64-.66,5.12-4.12-8-20.7-2.11-31.63,3.04-5.63,9.81-7.39,11.35-7.74,18.35-4.25,45.26,16.89,46.86,40.34.91,13.33-6.62,23.55-7.15,24.26-9.1,12.01-27.29,20.02-116.55,13.08-39.28-3.05-78.92-2.32-117.96-7.67-9.72-1.33-37.57-5.37-40.99,3.03Z"/><path class="cls-1" d="m390.5,287.27c-7,0-14.85-.16-23.71-.33-11.51-.23-24.56-.49-39.72-.51-19.91-.02-40.13-1.16-59.69-2.27-24.22-1.37-49.26-2.79-73.88-2.08h-.49c-9.9.3-33.07.98-40.23-11.38-.63-1.08-2.54-4.38-1.34-7.32,3.09-7.59,23.43-5.82,40.81-3.43l.7.1c24.03,3.29,48.71,4.29,72.57,5.26,14.88.6,30.27,1.23,45.36,2.4,83.99,6.53,106.17.22,116.11-12.88.33-.43,7.96-10.66,7.05-23.92-.79-11.53-8.21-23.82-19.36-32.08-9.04-6.69-19.09-9.61-26.89-7.8-1.87.43-8.2,2.25-11.03,7.49-3.12,5.79-.65,13.48,1.34,19.65,1.73,5.39,3.23,10.04.65,12.13-1.37,1.1-3.15.88-4.01.77-8.01-1.01-13.59-16.21-12.37-27.48,1.01-9.31,7.98-18.83,16.22-22.14,9.42-3.78,23.2-.83,36.84,7.9,15.05,9.63,33.04,29.16,34.23,52.52.63,12.32-2.25,22.67-8.56,30.78-9.59,12.32-23.83,14.63-50.61,14.63Zm-183.34-6.38c20.21,0,40.52,1.15,60.29,2.27,19.54,1.11,39.75,2.25,59.63,2.27,15.17.02,28.22.28,39.73.51,43.65.88,61.72,1.24,73.5-13.9,6.16-7.91,8.96-18.04,8.35-30.11-1.17-22.98-18.92-42.23-33.77-51.73-13.37-8.55-26.8-11.47-35.93-7.81-7.92,3.18-14.63,12.35-15.6,21.32-1.29,11.95,4.62,25.51,11.5,26.38.78.1,2.22.28,3.26-.55,2.05-1.65.65-6-.97-11.04-2.05-6.36-4.59-14.27-1.27-20.43,3.03-5.61,9.71-7.54,11.68-7.99,8.08-1.87,18.44,1.11,27.71,7.97,11.38,8.43,18.96,21,19.77,32.81.93,13.63-6.92,24.15-7.25,24.59-8.44,11.13-23.75,20.53-116.98,13.27-15.07-1.17-30.45-1.8-45.33-2.4-23.89-.97-48.59-1.97-72.66-5.27l-.71-.1c-10-1.37-36.56-5.02-39.75,2.82h0c-1.01,2.48.71,5.46,1.28,6.44,6.86,11.85,30.45,11.16,39.33,10.9h.49c4.55-.15,9.11-.2,13.68-.2Z"/><rect class="cls-9" x="1.58" y="149.48" width="52.22" height="38.9" rx="3.42" ry="3.42" transform="translate(198.86 167.62) rotate(98.87)"/><path class="cls-2" d="m138.23,79.91c-5.3-9.76-13.4-23.3-25-38.19C100.58,25.47,79.07-2.16,66.97,2.49c-4.59,1.76-6.5,7.62-9.18,22.47-5.84,32.31-6.46,57.82-6.57,62.53-1.67,66.41-6.66,86.05-8.52,92.78-.68,2.47-2.33,8.17-6.2,22.08-2.56,9.22-5.91,21.5-10.7,39.69-.27,1.02-.65,2.47-1.1,4.3-.89,3.59-3.52,14.56-5.18,26.89-1.91,14.16-.28,13.3-2.01,29.13-1.85,16.88-3.97,20.25-1.42,22.85,6.92,7.06,32.48-7.72,37.46-10.6,8.47-4.9,26.36-15.74,40.07-34.71,20.72-28.64,12.8-55.48,17.67-101.67,2.47-23.41,8.81-57.48,26.95-98.33Z"/><path class="cls-8" d="m168.55,75.6c-4.57-12.64-10.18-22.35-14.99-29.37-5.6-8.18-15.2-22.19-22.01-20.27-2.79.79-3.82,3.9-6.47,11.66-12.03,35.23-14.88,41.44-15.61,55.77-.22,4.39-.17,7.92-.11,9.87,2.89,20.79-.6,35.45-4.53,45.19-4.97,12.34-11.71,19.42-18.88,38.48-3.52,9.35-5.25,16.6-6.71,22.67-2.48,10.36-3.67,18.47-4.17,25.6-2.59,36.42,4.43,42.78-1.88,65.66-3.44,12.48-7.93,18.12-4.94,21.66,4.68,5.54,21.74-1.1,35.73-7.77,9.29-4.63,22.75-12.65,35.2-26.13,61.71-66.82,37.79-202,37.79-202-2.81-3.67-5.61-7.34-8.42-11.02Z"/><path class="cls-7" d="m217.97,112.12c-2.74-8-7.27-19.49-14.62-32.43-7.53-13.27-16.76-29.53-24.11-28.07-4.76.94-4.95,8.56-11.4,25.92-8.56,23.03-13.05,22.63-17.98,38.78-4.94,16.18-4.41,29.6-3.84,43.9,1.24,31.1,8.82,29.78,5.75,45.5-3.87,19.85-16.47,24.58-20.78,51.12-.96,5.89-1.47,12.65-1.66,15.28-.02.24-.04.53-.06.85-1.02,16.15,2.99,21.08-.33,29.36-1.25,3.11-2.75,4.74-1.9,6.17,1.32,2.23,6.74,1.33,9.97.71,6.35-1.21,17.77-3.87,35.72-10.35,2.47-2.09,6.08-5.28,10.22-9.4,0,0,11.63-7.43,16.49-18.93,3.61-8.55,21.62-151.3,21.62-151.3-1.03-2.37-2.06-4.74-3.1-7.11Z"/><path class="cls-6" d="m255.49,141.05c0-6.9-2-11.08-3.81-13.62-3.38-4.73-7.2-5.27-10.93-11.78-.8-1.4-2.03-3.83-3.17-6.47-1.76-4.08-1.64-4.78-2.55-6.6-2.16-4.3-7.13-9.08-10.87-8.34-3.38.67-4.91,5.69-6.4,10.52-10.36,33.48-10.43,29.69-11.08,35.17-2.03,17.21,2.9,18.76,2.07,33.34-.29,5.12-1.14,9.16-2.37,12.66-6.35,18.06-14.14,26.46-20.31,42.03-7.54,19.02-.03,20.72-8.81,49.88-3.88,12.88-7.07,18.26-4.51,21.05,2.91,3.17,12.94,2.65,47.68-18.46,4.62-2.91,9.26-6.53,13.59-11.05,24.14-25.26,21.96-61.14,20.96-71.5.18-18.93.35-37.87.53-56.8Z"/><path class="cls-5" d="m258.22,271.17c-26.09,9.65-33.09,8.76-34.68,6.17-2.07-3.38,5.66-8.79,14.47-27.89,5.92-12.84,7.59-21.61,8.24-27.58.55-5.05.92-8.66.21-13.61-1.63-11.34-7.54-16.64-5.52-31.77,2.11-15.75,9.12-14.51,13.87-37.74,2.09-10.24,2.41-18.73,6.27-19.6,3.24-.73,7.03,4.36,10.72,9.33,7.05,9.48,5.19,13,11.72,20.79,2.68,3.19,3.83,5.05,6.15,8.77.57.92,1.32,3.01,2.55,5.63.39.83.59,1.73.59,2.65v43.04c-.01.65-.12,1.3-.32,1.91l-14.58,45.24c-.2.61-.48,1.18-.85,1.7,0,0-.33.46-.74.86-7.82,7.62-18.09,12.11-18.09,12.11Z"/><path class="cls-4" d="m282.41,259.15c-11.26,6.81-14.16,14.26-17.28,12.92-2.52-1.08-3.26-7.05-1.72-11.52,2.22-6.45,7.9-6.04,11.36-13.93,1.39-3.17.84-3.86,2.77-8.32,2.23-5.15,4.21-6.94,5.64-14.12,2.79-14.03-3.25-17.08.89-28.42,3-8.23,6.81-8.35,8.07-16.18,1.06-6.62-1.35-8.46-1.26-18.2.03-3.28.14-15.91,3.82-16.82,3.34-.82,6.68,8.73,18.16,24.06,9.88,13.19,11.01,10.93,13.84,16.82,1.53,3.18,6.6,29.56-17.35,58.1-3.32,3.95-7.28,5.52-9.61,6.86-9.85,5.64-11.73,5.38-17.32,8.76Z"/><path class="cls-3" d="m357.74,225.7c14.07-5.21,16.82-8.69,16.62-10.94-.31-3.32-6.98-3.75-17.62-10.43-5.51-3.46-10.79-6.77-15.38-12.73-6.38-8.28-8.39-17.76-15.57-21.33-.71-.35-1.67-.75-2.57-.4-3.92,1.49-2.13,14.86-1.83,17.11.58,4.31,1.53,7.8,2.3,10.17.16,11.15-2.51,18.31-5.12,22.87-.96,1.68-1.69,3-2.39,4.41-.03.07-.08.17-.15.3-1.12,2.29-1.69,3.44-3.15,7.23-2.19,5.69-12.09,14.12-10.63,16.65,1.36,2.36,12.54-.62,21.75-5.5,6.42-3.41,7.9-5.62,14.29-9.41,4.28-2.55,10.68-5.73,19.47-8.01Z"/></svg>